<svg version="1.1" xmlns="http://www.w3.org/2000/svg" xmlns:xlink="http://www.w3.org/1999/xlink" width="183.89293" height="35.1297" viewBox="0,0,183.89293,35.1297"><g transform="translate(-591.05354,-366.43515)"><g data-paper-data="{&quot;isPaintingLayer&quot;:true}" fill-rule="nonzero" stroke-linecap="butt" stroke-miterlimit="10" stroke-dasharray="" stroke-dashoffset="0" style="mix-blend-mode: normal"><path d="M595.05354,376.64605v-2.19684h9.62557c0,6.52294 -0.64324,11.48364 -1.92982,14.88204c-1.28649,3.3984 -3.33349,5.7034 -6.14095,6.9148l-0.6524,-2.139c2.28964,-0.9959 3.98168,-2.8854 5.07615,-5.6688c1.09449,-2.7833 1.66706,-6.714 1.71789,-11.7922z" fill="#ffffff" stroke="#ffffff" stroke-width="8" stroke-linejoin="round"/><path d="M608.43975,386.75395c1.40371,-0.6053 2.76155,-1.7136 4.07354,-3.3251c1.3119,-1.6114 2.34351,-3.4526 3.09481,-5.5234l1.22865,0.8203c-0.6346,1.9531 -1.57885,3.7698 -2.83291,5.45v12.686h-1.57885v-10.8407c-1.20315,1.2302 -2.44823,2.0995 -3.73523,2.6079z" fill="#ffffff" stroke="#ffffff" stroke-width="8" stroke-linejoin="round"/><path d="M620.22042,385.87425v-2.2844h10.45302v2.2844z" fill="#ffffff" stroke="#ffffff" stroke-width="8" stroke-linejoin="round"/><path d="M632.60395,394.83985c1.45367,-6.4844 2.31416,-13.3594 2.58153,-20.62501l1.7794,0.14687c-0.23349,7.40204 -1.12743,14.54064 -2.68181,21.41564zM639.22155,374.62421l1.70454,-0.61406c1.23618,6.8552 2.18043,14.0229 2.83283,21.5031l-1.80482,0.4391c-0.6524,-7.5188 -1.56328,-14.6281 -2.73255,-21.32814z" fill="#ffffff" stroke="#ffffff" stroke-width="8" stroke-linejoin="round"/><path d="M644.81105,372.25234l1.35425,-0.64531c0.6684,1.3677 1.22814,2.85208 1.67913,4.45312l-1.45453,0.6156c-0.46793,-1.60206 -0.99421,-3.07654 -1.57885,-4.42341zM647.56901,371.34296l1.37838,-0.64375c0.61852,1.30834 1.1697,2.79271 1.65372,4.45313l-1.42784,0.61562c-0.63546,-1.99271 -1.17021,-3.46771 -1.60426,-4.425z" fill="#ffffff" stroke="#ffffff" stroke-width="8" stroke-linejoin="round"/><path d="M658.72269,385.87425v-2.2844h10.45302v2.2844z" fill="#ffffff" stroke="#ffffff" stroke-width="8" stroke-linejoin="round"/><path d="M672.25864,396.94925v-24.57973h7.14397v22.67503h-5.23896v1.9047zM674.16364,393.05235h3.40882v-8.8469h-3.40882zM674.16364,382.21325h3.40882v-7.82341h-3.40882zM680.17949,386.92885v-1.9624h10.15262v-3.3688h-10.15262v-2.0219h6.41705v-3.98435h-5.26283v-1.93281h5.26283v-3.22344h2.00554v3.22344h5.31417v1.93281h-5.31417v3.98435h6.24165v2.0219h-2.50607v3.3688h2.50607v1.9624h-2.50607v6.6219c0,1.8167 -0.15486,2.9399 -0.46459,3.3696c-0.30887,0.4296 -1.1063,0.6445 -2.39313,0.6445c-0.28406,0 -1.17817,-0.0297 -2.68233,-0.0891l-0.32513,-2.1968c1.55293,0.0979 2.54714,0.1468 2.98179,0.1468c0.43465,0 0.68962,-0.088 0.76491,-0.264c0.07529,-0.1761 0.11294,-0.7422 0.11294,-1.6985v-6.5344zM682.2107,389.30235l1.32876,-1.4938c1.57004,1.5625 2.99034,3.2224 4.26006,4.9797l-1.37838,1.4657c-1.35357,-1.8553 -2.75676,-3.5058 -4.21044,-4.9516z" fill="#ffffff" stroke="#ffffff" stroke-width="8" stroke-linejoin="round"/><path d="M698.90529,394.45855c3.84338,-1.601 7.1349,-4.0666 9.87541,-7.3968c2.74051,-3.3302 4.55439,-7.0756 5.43994,-11.23597h-13.63579v-2.34375h16.31812c-0.55187,4.41462 -2.04747,8.51612 -4.4868,12.30472c2.4727,2.402 5.00444,5.3906 7.59436,8.9656l-1.80447,1.6984c-0.80256,-1.2885 -1.87207,-2.758 -3.20852,-4.4086c-1.33731,-1.6505 -2.63184,-3.1205 -3.88531,-4.4101c-2.87398,3.8094 -6.45041,6.8078 -10.72844,8.9953z" fill="#ffffff" stroke="#ffffff" stroke-width="8" stroke-linejoin="round"/><path d="M725.27507,394.89765v-2.2844h16.66892v-16.0843h-16.44389v-2.2563h18.52558v21.7688h-2.08169v-1.1438z" fill="#ffffff" stroke="#ffffff" stroke-width="8" stroke-linejoin="round"/><path d="M749.86519,375.35703v-2.25625h21.08128c0,5.58647 -2.20661,10.01037 -6.61811,13.27187l-1.37838,-1.9625c1.53752,-0.8792 2.84917,-2.1682 3.93493,-3.8672c1.08662,-1.6989 1.68811,-3.4276 1.80618,-5.18592zM751.51993,395.04455c2.82436,-1.1521 4.80851,-2.8755 5.95331,-5.1703c1.14395,-2.2948 1.71635,-5.6886 1.71635,-10.1813v-1.1422h2.1818v1.025c0,4.8438 -0.61433,8.5451 -1.84298,11.1039c-1.22865,2.5589 -3.40531,4.6779 -6.52999,6.3571z" fill="#ffffff" stroke="#ffffff" stroke-width="8" stroke-linejoin="round"/><path d="M595.05354,376.64605v-2.19684h9.62557c0,6.52294 -0.64324,11.48364 -1.92982,14.88204c-1.28649,3.3984 -3.33349,5.7034 -6.14095,6.9148l-0.6524,-2.139c2.28964,-0.9959 3.98168,-2.8854 5.07615,-5.6688c1.09449,-2.7833 1.66706,-6.714 1.71789,-11.7922z" fill="#000000" stroke="none" stroke-width="1" stroke-linejoin="miter"/><path d="M608.43975,386.75395c1.40371,-0.6053 2.76155,-1.7136 4.07354,-3.3251c1.3119,-1.6114 2.34351,-3.4526 3.09481,-5.5234l1.22865,0.8203c-0.6346,1.9531 -1.57885,3.7698 -2.83291,5.45v12.686h-1.57885v-10.8407c-1.20315,1.2302 -2.44823,2.0995 -3.73523,2.6079z" fill="#000000" stroke="none" stroke-width="1" stroke-linejoin="miter"/><path d="M620.22042,385.87425v-2.2844h10.45302v2.2844z" fill="#000000" stroke="none" stroke-width="1" stroke-linejoin="miter"/><path d="M632.60395,394.83985c1.45367,-6.4844 2.31416,-13.3594 2.58153,-20.62501l1.7794,0.14687c-0.23349,7.40204 -1.12743,14.54064 -2.68181,21.41564zM639.22155,374.62421l1.70454,-0.61406c1.23618,6.8552 2.18043,14.0229 2.83283,21.5031l-1.80482,0.4391c-0.6524,-7.5188 -1.56328,-14.6281 -2.73255,-21.32814z" fill="#000000" stroke="none" stroke-width="1" stroke-linejoin="miter"/><path d="M644.81105,372.25234l1.35425,-0.64531c0.6684,1.3677 1.22814,2.85208 1.67913,4.45312l-1.45453,0.6156c-0.46793,-1.60206 -0.99421,-3.07654 -1.57885,-4.42341zM647.56901,371.34296l1.37838,-0.64375c0.61852,1.30834 1.1697,2.79271 1.65372,4.45313l-1.42784,0.61562c-0.63546,-1.99271 -1.17021,-3.46771 -1.60426,-4.425z" fill="#000000" stroke="none" stroke-width="1" stroke-linejoin="miter"/><path d="M658.72269,385.87425v-2.2844h10.45302v2.2844z" fill="#000000" stroke="none" stroke-width="1" stroke-linejoin="miter"/><path d="M672.25864,396.94925v-24.57973h7.14397v22.67503h-5.23896v1.9047zM674.16364,393.05235h3.40882v-8.8469h-3.40882zM674.16364,382.21325h3.40882v-7.82341h-3.40882zM680.17949,386.92885v-1.9624h10.15262v-3.3688h-10.15262v-2.0219h6.41705v-3.98435h-5.26283v-1.93281h5.26283v-3.22344h2.00554v3.22344h5.31417v1.93281h-5.31417v3.98435h6.24165v2.0219h-2.50607v3.3688h2.50607v1.9624h-2.50607v6.6219c0,1.8167 -0.15486,2.9399 -0.46459,3.3696c-0.30887,0.4296 -1.1063,0.6445 -2.39313,0.6445c-0.28406,0 -1.17817,-0.0297 -2.68233,-0.0891l-0.32513,-2.1968c1.55293,0.0979 2.54714,0.1468 2.98179,0.1468c0.43465,0 0.68962,-0.088 0.76491,-0.264c0.07529,-0.1761 0.11294,-0.7422 0.11294,-1.6985v-6.5344zM682.2107,389.30235l1.32876,-1.4938c1.57004,1.5625 2.99034,3.2224 4.26006,4.9797l-1.37838,1.4657c-1.35357,-1.8553 -2.75676,-3.5058 -4.21044,-4.9516z" fill="#000000" stroke="none" stroke-width="1" stroke-linejoin="miter"/><path d="M698.90529,394.45855c3.84338,-1.601 7.1349,-4.0666 9.87541,-7.3968c2.74051,-3.3302 4.55439,-7.0756 5.43994,-11.23597h-13.63579v-2.34375h16.31812c-0.55187,4.41462 -2.04747,8.51612 -4.4868,12.30472c2.4727,2.402 5.00444,5.3906 7.59436,8.9656l-1.80447,1.6984c-0.80256,-1.2885 -1.87207,-2.758 -3.20852,-4.4086c-1.33731,-1.6505 -2.63184,-3.1205 -3.88531,-4.4101c-2.87398,3.8094 -6.45041,6.8078 -10.72844,8.9953z" fill="#000000" stroke="none" stroke-width="1" stroke-linejoin="miter"/><path d="M725.27507,394.89765v-2.2844h16.66892v-16.0843h-16.44389v-2.2563h18.52558v21.7688h-2.08169v-1.1438z" fill="#000000" stroke="none" stroke-width="1" stroke-linejoin="miter"/><path d="M749.86519,375.35703v-2.25625h21.08128c0,5.58647 -2.20661,10.01037 -6.61811,13.27187l-1.37838,-1.9625c1.53752,-0.8792 2.84917,-2.1682 3.93493,-3.8672c1.08662,-1.6989 1.68811,-3.4276 1.80618,-5.18592zM751.51993,395.04455c2.82436,-1.1521 4.80851,-2.8755 5.95331,-5.1703c1.14395,-2.2948 1.71635,-5.6886 1.71635,-10.1813v-1.1422h2.1818v1.025c0,4.8438 -0.61433,8.5451 -1.84298,11.1039c-1.22865,2.5589 -3.40531,4.6779 -6.52999,6.3571z" fill="#000000" stroke="none" stroke-width="1" stroke-linejoin="miter"/></g></g></svg>