<?xml version="1.0" encoding="utf-8" standalone="no"?>
<!DOCTYPE svg PUBLIC "-//W3C//DTD SVG 1.1//EN"
"http://www.w3.org/Graphics/SVG/1.1/DTD/svg11.dtd">

<svg xmlns="http://www.w3.org/2000/svg" version="1.1" xmlns:xlink="http://www.w3.org/1999/xlink" width="285.878" height="53.0937" viewBox="0 0 285.878 53.0937"><path stroke="#ffffff" stroke-width="8" stroke-linejoin="round" fill="#ffffff" d="M 5.42344 29.5438 C 4.47448 28.6594 4 27.5458 4 26.2031 C 4 24.8604 4.44193 23.7141 5.32578 22.7641 C 6.20964 21.8141 7.32292 21.3391 8.66563 21.3391 C 10.0083 21.3391 11.1544 21.7813 12.1039 22.6656 C 13.0534 23.55 13.5281 24.6635 13.5281 26.0063 C 13.5281 27.349 13.0862 28.4951 12.2023 29.4445 C 11.3185 30.394 10.2052 30.8688 8.8625 30.8688 C 7.51979 30.8688 6.37344 30.4271 5.42344 29.5438 Z" /><path stroke="#ffffff" stroke-width="8" stroke-linejoin="round" fill="#ffffff" d="M 46.4891 46.4406 L 46.4891 8.42031 L 58.6719 8.42031 C 62.8635 8.42031 66.2365 9.32083 68.7906 11.1219 C 71.3448 12.9229 72.6219 15.3464 72.6219 18.3922 C 72.6219 20.6193 71.9669 22.5268 70.657 24.1148 C 69.3471 25.7029 67.6443 26.7099 65.5484 27.1359 C 67.8401 27.4307 69.7883 28.3557 71.393 29.9109 C 72.9977 31.4661 73.8 33.6685 73.8 36.518 C 73.8 39.3674 72.7195 41.7336 70.5586 43.6164 C 68.3977 45.4992 65.3193 46.4406 61.3234 46.4406 Z M 50.8609 42.7078 L 60.7344 42.7078 C 63.4854 42.7078 65.5977 42.1427 67.0711 41.0125 C 68.5445 39.8823 69.2813 38.2203 69.2813 36.0266 C 69.2813 33.8328 68.4708 32.1299 66.85 30.918 C 65.2292 29.706 62.8797 29.1 59.8016 29.1 L 50.8609 29.1 Z M 50.8609 25.3672 L 57.8859 25.3672 C 61.3568 25.3672 63.9273 24.7286 65.5977 23.4516 C 67.268 22.1745 68.1031 20.5698 68.1031 18.6375 C 68.1031 16.7052 67.3172 15.1497 65.7453 13.9711 C 64.1734 12.7924 61.8318 12.2031 58.7203 12.2031 L 50.8609 12.2031 Z" /><path stroke="#ffffff" stroke-width="8" stroke-linejoin="round" fill="#ffffff" d="M 97.6484 41.6766 C 93.8005 38.2047 91.8766 33.5216 91.8766 27.6273 C 91.8766 21.7331 93.8089 16.9438 97.6734 13.2594 C 101.538 9.575 106.516 7.73281 112.606 7.73281 C 117.059 7.73281 120.907 8.60052 124.15 10.3359 L 124.15 14.8063 C 121.104 12.9396 117.232 12.0063 112.532 12.0063 C 107.833 12.0063 103.977 13.4143 100.964 16.2305 C 97.9516 19.0466 96.4453 22.8125 96.4453 27.5281 C 96.4453 32.2438 97.9107 35.9443 100.841 38.6297 C 103.772 41.3151 107.776 42.6578 112.852 42.6578 C 115.897 42.6578 118.697 42.1339 121.252 41.0859 L 121.35 41.0859 L 121.35 29.0516 L 112.017 29.0516 L 112.017 25.2203 L 125.672 25.2203 L 125.672 43.5422 C 122.267 45.7693 117.944 46.8828 112.705 46.8828 C 106.515 46.8828 101.496 45.1474 97.6484 41.6766 Z" /><path stroke="#ffffff" stroke-width="8" stroke-linejoin="round" fill="#ffffff" d="M 139.525 46.4406 L 142.275 8.42031 L 147.875 8.42031 L 152.886 22.3219 L 159.123 40.3984 C 161.383 34.013 163.577 27.9875 165.706 22.3219 L 170.864 8.42031 L 176.464 8.42031 L 179.803 46.4406 L 175.431 46.4406 L 172.73 14.2656 C 170.699 19.9635 168.62 25.6781 166.492 31.4094 L 161.236 45.5563 L 156.914 45.5563 L 146.008 14.5609 C 146.008 16.5911 145.664 22.2073 144.977 31.4094 L 143.897 46.4406 Z" /><path stroke="#ffffff" stroke-width="8" stroke-linejoin="round" fill="#ffffff" d="M 186.631 35.4375 L 186.631 32.1469 L 191.741 32.1469 L 191.741 13.3813 L 207.558 13.3813 L 207.558 9.01094 L 188.352 9.01094 L 188.352 5.81719 L 231.578 5.81719 L 231.578 9.01094 L 211.339 9.01094 L 211.339 13.3813 L 228.188 13.3813 L 228.188 32.1469 L 233.297 32.1469 L 233.297 35.4375 L 228.188 35.4375 L 228.188 42.8547 C 228.188 45.5401 227.86 47.194 227.205 47.8164 C 226.551 48.4388 224.815 48.75 221.998 48.75 C 221.279 48.75 218.905 48.6677 214.877 48.5031 L 214.778 45.1141 C 218.643 45.2776 221.058 45.3594 222.023 45.3594 C 222.989 45.3594 223.611 45.2367 223.89 44.9914 C 224.168 44.7461 224.308 44.0177 224.308 42.8063 L 224.308 35.4375 L 195.62 35.4375 L 195.62 49.0938 L 191.741 49.0938 L 191.741 35.4375 Z M 195.62 32.1469 L 207.558 32.1469 L 207.558 25.3188 L 195.62 25.3188 Z M 195.62 22.3219 L 207.558 22.3219 L 207.558 16.4766 L 195.62 16.4766 Z M 211.339 32.1469 L 224.308 32.1469 L 224.308 25.3188 L 211.339 25.3188 Z M 211.339 22.3219 L 224.308 22.3219 L 224.308 16.4766 L 211.339 16.4766 Z" /><path stroke="#ffffff" stroke-width="8" stroke-linejoin="round" fill="#ffffff" d="M 237.816 25.3672 C 241.156 19.3422 243.694 12.5474 245.43 4.98281 L 249.213 5.62031 C 248.623 8.17448 248.066 10.3526 247.542 12.1547 L 258.988 12.1547 L 258.988 4 L 263.016 4 L 263.016 12.1547 L 280.011 12.1547 L 280.011 15.6422 L 263.016 15.6422 L 263.016 26.5953 L 277.506 26.5953 L 277.506 29.9844 L 263.016 29.9844 L 263.016 43.8375 L 281.878 43.8375 L 281.878 47.2266 L 238.652 47.2266 L 238.652 43.8375 L 258.988 43.8375 L 258.988 29.9844 L 245.036 29.9844 L 245.036 26.5953 L 258.988 26.5953 L 258.988 15.6422 L 246.413 15.6422 C 245.004 19.7682 243.285 23.6156 241.255 27.1844 Z" /><path fill="#000000" d="M 5.42344 29.5438 C 4.47448 28.6594 4 27.5458 4 26.2031 C 4 24.8604 4.44193 23.7141 5.32578 22.7641 C 6.20964 21.8141 7.32292 21.3391 8.66563 21.3391 C 10.0083 21.3391 11.1544 21.7813 12.1039 22.6656 C 13.0534 23.55 13.5281 24.6635 13.5281 26.0063 C 13.5281 27.349 13.0862 28.4951 12.2023 29.4445 C 11.3185 30.394 10.2052 30.8688 8.8625 30.8688 C 7.51979 30.8688 6.37344 30.4271 5.42344 29.5438 Z" /><path fill="#000000" d="M 46.4891 46.4406 L 46.4891 8.42031 L 58.6719 8.42031 C 62.8635 8.42031 66.2365 9.32083 68.7906 11.1219 C 71.3448 12.9229 72.6219 15.3464 72.6219 18.3922 C 72.6219 20.6193 71.9669 22.5268 70.657 24.1148 C 69.3471 25.7029 67.6443 26.7099 65.5484 27.1359 C 67.8401 27.4307 69.7883 28.3557 71.393 29.9109 C 72.9977 31.4661 73.8 33.6685 73.8 36.518 C 73.8 39.3674 72.7195 41.7336 70.5586 43.6164 C 68.3977 45.4992 65.3193 46.4406 61.3234 46.4406 Z M 50.8609 42.7078 L 60.7344 42.7078 C 63.4854 42.7078 65.5977 42.1427 67.0711 41.0125 C 68.5445 39.8823 69.2813 38.2203 69.2813 36.0266 C 69.2813 33.8328 68.4708 32.1299 66.85 30.918 C 65.2292 29.706 62.8797 29.1 59.8016 29.1 L 50.8609 29.1 Z M 50.8609 25.3672 L 57.8859 25.3672 C 61.3568 25.3672 63.9273 24.7286 65.5977 23.4516 C 67.268 22.1745 68.1031 20.5698 68.1031 18.6375 C 68.1031 16.7052 67.3172 15.1497 65.7453 13.9711 C 64.1734 12.7924 61.8318 12.2031 58.7203 12.2031 L 50.8609 12.2031 Z" /><path fill="#000000" d="M 97.6484 41.6766 C 93.8005 38.2047 91.8766 33.5216 91.8766 27.6273 C 91.8766 21.7331 93.8089 16.9438 97.6734 13.2594 C 101.538 9.575 106.516 7.73281 112.606 7.73281 C 117.059 7.73281 120.907 8.60052 124.15 10.3359 L 124.15 14.8063 C 121.104 12.9396 117.232 12.0063 112.532 12.0063 C 107.833 12.0063 103.977 13.4143 100.964 16.2305 C 97.9516 19.0466 96.4453 22.8125 96.4453 27.5281 C 96.4453 32.2438 97.9107 35.9443 100.841 38.6297 C 103.772 41.3151 107.776 42.6578 112.852 42.6578 C 115.897 42.6578 118.697 42.1339 121.252 41.0859 L 121.35 41.0859 L 121.35 29.0516 L 112.017 29.0516 L 112.017 25.2203 L 125.672 25.2203 L 125.672 43.5422 C 122.267 45.7693 117.944 46.8828 112.705 46.8828 C 106.515 46.8828 101.496 45.1474 97.6484 41.6766 Z" /><path fill="#000000" d="M 139.525 46.4406 L 142.275 8.42031 L 147.875 8.42031 L 152.886 22.3219 L 159.123 40.3984 C 161.383 34.013 163.577 27.9875 165.706 22.3219 L 170.864 8.42031 L 176.464 8.42031 L 179.803 46.4406 L 175.431 46.4406 L 172.73 14.2656 C 170.699 19.9635 168.62 25.6781 166.492 31.4094 L 161.236 45.5563 L 156.914 45.5563 L 146.008 14.5609 C 146.008 16.5911 145.664 22.2073 144.977 31.4094 L 143.897 46.4406 Z" /><path fill="#000000" d="M 186.631 35.4375 L 186.631 32.1469 L 191.741 32.1469 L 191.741 13.3813 L 207.558 13.3813 L 207.558 9.01094 L 188.352 9.01094 L 188.352 5.81719 L 231.578 5.81719 L 231.578 9.01094 L 211.339 9.01094 L 211.339 13.3813 L 228.188 13.3813 L 228.188 32.1469 L 233.297 32.1469 L 233.297 35.4375 L 228.188 35.4375 L 228.188 42.8547 C 228.188 45.5401 227.86 47.194 227.205 47.8164 C 226.551 48.4388 224.815 48.75 221.998 48.75 C 221.279 48.75 218.905 48.6677 214.877 48.5031 L 214.778 45.1141 C 218.643 45.2776 221.058 45.3594 222.023 45.3594 C 222.989 45.3594 223.611 45.2367 223.89 44.9914 C 224.168 44.7461 224.308 44.0177 224.308 42.8063 L 224.308 35.4375 L 195.62 35.4375 L 195.62 49.0938 L 191.741 49.0938 L 191.741 35.4375 Z M 195.62 32.1469 L 207.558 32.1469 L 207.558 25.3188 L 195.62 25.3188 Z M 195.62 22.3219 L 207.558 22.3219 L 207.558 16.4766 L 195.62 16.4766 Z M 211.339 32.1469 L 224.308 32.1469 L 224.308 25.3188 L 211.339 25.3188 Z M 211.339 22.3219 L 224.308 22.3219 L 224.308 16.4766 L 211.339 16.4766 Z" /><path fill="#000000" d="M 237.816 25.3672 C 241.156 19.3422 243.694 12.5474 245.43 4.98281 L 249.213 5.62031 C 248.623 8.17448 248.066 10.3526 247.542 12.1547 L 258.988 12.1547 L 258.988 4 L 263.016 4 L 263.016 12.1547 L 280.011 12.1547 L 280.011 15.6422 L 263.016 15.6422 L 263.016 26.5953 L 277.506 26.5953 L 277.506 29.9844 L 263.016 29.9844 L 263.016 43.8375 L 281.878 43.8375 L 281.878 47.2266 L 238.652 47.2266 L 238.652 43.8375 L 258.988 43.8375 L 258.988 29.9844 L 245.036 29.9844 L 245.036 26.5953 L 258.988 26.5953 L 258.988 15.6422 L 246.413 15.6422 C 245.004 19.7682 243.285 23.6156 241.255 27.1844 Z" /></svg>