<?xml version="1.0" encoding="utf-8" standalone="no"?>
<!DOCTYPE svg PUBLIC "-//W3C//DTD SVG 1.1//EN"
"http://www.w3.org/Graphics/SVG/1.1/DTD/svg11.dtd">

<svg xmlns="http://www.w3.org/2000/svg" version="1.1" xmlns:xlink="http://www.w3.org/1999/xlink" width="27.4501" height="27.4" viewBox="0 0 27.4501 27.4"><path stroke="#ffffff" stroke-width="6" stroke-linejoin="round" fill="#ffffff" d="M 24.4501 12.319 L 24.4501 10.0986 C 21.5591 8.99916 19.0221 6.44171 18.1426 3 L 15.8842 3 C 16.954 7.39777 20.4488 11.0786 24.4501 12.319 Z M 22.5246 20.546 L 22.5246 11.7 L 4.56893 11.7 C 7.87319 10.0986 10.6069 6.82414 11.534 3 L 9.29949 3 C 8.39617 6.44171 5.87637 8.99916 3 10.0986 L 3 12.319 C 3.52298 12.1762 4.04595 11.9619 4.52139 11.7238 L 4.52139 13.7 L 9.82247 13.7 C 9.32326 17.7649 7.25513 21.2115 3.66561 22.4 L 3.66561 24.4 C 8.3724 23.3768 11.2488 18.7157 11.9619 13.7 L 20.4246 13.7 L 20.4246 20.4746 C 20.4246 21.4968 19.6164 22.4 18.5467 22.4 L 14.767 22.4 L 14.767 24.4 L 18.7368 24.4 C 20.9315 24.4 22.5246 22.7489 22.5246 20.546 Z" /><path fill="#555555" d="M 24.4501 12.319 L 24.4501 10.0986 C 21.5591 8.99916 19.0221 6.44171 18.1426 3 L 15.8842 3 C 16.954 7.39777 20.4488 11.0786 24.4501 12.319 Z M 22.5246 20.546 L 22.5246 11.7 L 4.56893 11.7 C 7.87319 10.0986 10.6069 6.82414 11.534 3 L 9.29949 3 C 8.39617 6.44171 5.87637 8.99916 3 10.0986 L 3 12.319 C 3.52298 12.1762 4.04595 11.9619 4.52139 11.7238 L 4.52139 13.7 L 9.82247 13.7 C 9.32326 17.7649 7.25513 21.2115 3.66561 22.4 L 3.66561 24.4 C 8.3724 23.3768 11.2488 18.7157 11.9619 13.7 L 20.4246 13.7 L 20.4246 20.4746 C 20.4246 21.4968 19.6164 22.4 18.5467 22.4 L 14.767 22.4 L 14.767 24.4 L 18.7368 24.4 C 20.9315 24.4 22.5246 22.7489 22.5246 20.546 Z" /></svg>