<?xml version="1.0" encoding="utf-8" standalone="no"?>
<!DOCTYPE svg PUBLIC "-//W3C//DTD SVG 1.1//EN"
"http://www.w3.org/Graphics/SVG/1.1/DTD/svg11.dtd">

<svg xmlns="http://www.w3.org/2000/svg" version="1.1" xmlns:xlink="http://www.w3.org/1999/xlink" width="27.0634" height="31.8" viewBox="0 0 27.0634 31.8"><path stroke="#ffffff" stroke-width="6" stroke-linejoin="round" fill="#ffffff" d="M 24.0634 10.6566 C 24.0634 5.95373 21.3263 3 15.1985 3 L 11.6105 3 C 6.08565 3 3.06339 6.20794 3.06339 10.8473 L 3.06339 11.737 L 5.86339 11.737 L 5.86339 10.8473 C 5.86339 7.82854 7.86377 5.7 11.6105 5.7 L 15.1667 5.7 C 19.7073 5.7 21.2634 7.89209 21.2634 10.6249 C 21.2634 13.9296 18.5324 15.0736 12.4996 16.3128 C 4.32181 17.9652 3 21.1746 3 28.8 L 23.9061 28.8 L 23.9061 26.1 L 5.9904 26.1 C 6.33967 21.2064 8.02253 19.9989 13.1346 18.855 C 20.5646 17.2026 24.0634 15.6138 24.0634 10.6566 Z" /><path fill="#ff8119" d="M 24.0634 10.6566 C 24.0634 5.95373 21.3263 3 15.1985 3 L 11.6105 3 C 6.08565 3 3.06339 6.20794 3.06339 10.8473 L 3.06339 11.737 L 5.86339 11.737 L 5.86339 10.8473 C 5.86339 7.82854 7.86377 5.7 11.6105 5.7 L 15.1667 5.7 C 19.7073 5.7 21.2634 7.89209 21.2634 10.6249 C 21.2634 13.9296 18.5324 15.0736 12.4996 16.3128 C 4.32181 17.9652 3 21.1746 3 28.8 L 23.9061 28.8 L 23.9061 26.1 L 5.9904 26.1 C 6.33967 21.2064 8.02253 19.9989 13.1346 18.855 C 20.5646 17.2026 24.0634 15.6138 24.0634 10.6566 Z" /></svg>