<?xml version="1.0" encoding="utf-8" standalone="no"?>
<!DOCTYPE svg PUBLIC "-//W3C//DTD SVG 1.1//EN"
"http://www.w3.org/Graphics/SVG/1.1/DTD/svg11.dtd">

<svg xmlns="http://www.w3.org/2000/svg" version="1.1" xmlns:xlink="http://www.w3.org/1999/xlink" width="675.016" height="61.6959" viewBox="0 0 675.016 61.6959"><path stroke="#ffffff" stroke-width="8" stroke-linejoin="round" fill="#ffffff" d="M 57.6097 56.777 L 57.6097 52.377 L 50.2998 52.377 L 50.2998 44.0358 L 56.3617 44.0358 L 56.3617 39.5509 L 50.2998 39.5509 L 50.2998 31.1771 L 56.3617 31.1771 L 56.3617 26.7771 L 50.2998 26.7771 L 50.2998 18.3772 L 57.6097 18.3772 L 57.6097 13.9772 L 50.9536 13.9772 L 53.093 4.05197 L 48.6485 4.05197 L 46.4075 13.9772 L 39.6128 13.9772 C 40.9257 10.9172 41.8208 7.4989 42.1789 4.05197 L 37.2383 4.05197 C 36.6486 9.71721 34.9973 14.3339 31.6096 18.3177 L 31.6096 24.8708 C 32.3859 24.3346 33.0429 23.7389 33.6999 23.0836 L 33.6999 56.777 Z M 30.4151 11.8772 L 30.4151 7.67719 L 25.0999 7.67719 L 25.0999 4.05197 L 20.5999 4.05197 L 20.5999 7.67719 L 13.4 7.67719 L 13.4 4.05197 L 8.79998 4.05197 L 8.79998 7.67719 L 4 7.67719 L 4 11.8772 L 8.79998 11.8772 L 8.79998 14.8691 L 13.4 14.8691 L 13.4 11.8772 L 20.5999 11.8772 L 20.5999 14.8691 L 25.0999 14.8691 L 25.0999 11.8772 Z M 30.4151 57.4902 L 22.7907 47.677 L 30.4151 47.677 L 30.4151 43.9771 L 18.684 43.9771 C 19.1621 42.3023 19.4608 40.6275 19.6401 39.0126 L 30.4151 39.0126 L 30.4151 35.1247 L 19.6999 35.1247 L 19.6999 30.1663 L 30.4151 30.1663 L 30.4151 16.9501 L 4 16.9501 L 4 30.1663 L 14.8 30.1663 L 14.8 35.1247 L 4 35.1247 L 4 39.0126 L 14.7416 39.0126 C 14.625 40.6874 14.3333 42.3621 13.8083 43.9771 L 4 43.9771 L 4 47.677 L 12.3844 47.677 C 10.5324 51.437 7.71994 54.8149 4 57.4902 L 9.8753 57.4902 C 13.0415 55.2905 15.5768 51.672 17.3097 47.677 L 18.1462 47.677 L 25.2194 57.4902 Z M 45.6998 26.7771 L 38.2999 26.7771 L 38.2999 18.3772 L 45.6998 18.3772 Z M 45.6998 39.5509 L 38.2999 39.5509 L 38.2999 31.1771 L 45.6998 31.1771 Z M 26.1152 26.4197 L 19.3413 26.4197 L 19.3413 20.7602 L 26.1152 20.7602 Z M 45.6998 52.377 L 38.2999 52.377 L 38.2999 44.0358 L 45.6998 44.0358 Z M 15.0987 26.4197 L 8.19998 26.4197 L 8.19998 20.7602 L 15.0987 20.7602 Z" /><path stroke="#ffffff" stroke-width="8" stroke-linejoin="round" fill="#ffffff" d="M 116.555 47.1368 L 116.555 33.5771 L 79.0419 33.5771 C 79.9323 32.0295 80.7039 30.3629 81.2382 28.5771 L 114 28.5771 L 114 5.0772 L 66.7 5.0772 L 66.7 28.5771 L 76.1332 28.5771 C 74.0556 34.1148 69.6651 38.1173 63.6096 40.1946 L 63.6096 45.3568 C 68.479 43.7547 72.4529 41.322 75.5396 38.1771 L 84.1468 38.1771 C 80.5852 44.4668 73.4621 49.8069 64.9765 51.409 L 64.9765 56.377 C 76.6081 54.2771 85.6902 46.5435 89.5485 38.1771 L 98.4525 38.1771 C 95.9594 44.7634 90.2609 50.8156 83.019 52.7171 L 83.019 57.6959 C 92.6352 55.657 100.649 47.4929 103.617 38.1771 L 111.3 38.1771 L 111.3 46.4842 C 111.3 50.2816 108.84 52.477 105.457 52.477 L 98.6899 52.477 L 98.6899 57.577 L 105.872 57.577 C 112.38 57.577 116.555 54.2171 116.555 47.1368 Z M 108.9 14.6772 L 71.8 14.6772 L 71.8 9.27719 L 108.9 9.27719 Z M 108.9 24.3771 L 71.8 24.3771 L 71.8 18.8771 L 108.9 18.8771 Z" /><path stroke="#ffffff" stroke-width="8" stroke-linejoin="round" fill="#ffffff" d="M 176.375 22.1771 L 176.375 18.0772 L 169.6 18.0772 L 169.6 13.7097 L 164.4 13.7097 L 164.4 18.0772 L 145.1 18.0772 L 145.1 13.7097 L 139.9 13.7097 L 139.9 18.0772 L 131.595 18.0772 L 131.595 22.1771 L 139.9 22.1771 L 139.9 31.3771 L 169.6 31.3771 L 169.6 22.1771 Z M 176.375 11.0772 L 176.375 6.3772 L 154.1 6.3772 L 154.1 4 L 148.8 4 L 148.8 6.3772 L 125.259 6.3772 L 125.259 34.2412 C 125.259 43.1921 124.962 46.2354 122.882 49.2787 L 122.882 57.677 C 127.386 53.5796 130.4 48.9206 130.4 34.4202 L 130.4 11.0772 Z M 176.375 57.557 L 176.375 53.4004 C 170.313 53.4004 165.227 52.8628 160.807 51.7277 C 166.409 48.9803 170.967 45.2806 174.77 40.6262 L 174.77 36.4491 L 134.463 36.4491 L 134.463 40.6262 L 169.009 40.6262 C 164.991 44.5049 160.208 47.4885 154.399 49.577 C 150.39 47.9062 147.038 45.6387 143.977 42.8937 L 137.749 42.8937 C 141.082 46.3547 144.686 49.1593 148.624 51.3095 C 143.505 52.5043 137.689 53.1017 130.938 53.1017 L 130.938 57.557 C 140.373 57.557 148.213 56.418 154.878 54.177 C 161.346 56.477 168.477 57.557 176.375 57.557 Z M 164.4 27.6771 L 145.1 27.6771 L 145.1 22.1771 L 164.4 22.1771 Z" /><path stroke="#ffffff" stroke-width="8" stroke-linejoin="round" fill="#ffffff" d="M 235.817 29.3167 L 235.817 24.09 C 232.073 24.6839 228.567 25.2779 225.374 25.9312 C 223.019 21.7817 218.393 19.4771 212.508 19.4771 C 206.861 19.4771 202.224 20.8362 198.587 23.0817 C 199.782 20.6589 201.154 17.8996 202.224 14.0772 L 234.629 14.0772 L 234.629 9.17719 L 203.413 9.17719 C 203.651 8.10745 203.829 6.97828 204.007 5.67082 L 198.467 5.67082 C 198.288 6.85942 198.108 8.04802 197.869 9.17719 L 187.033 9.17719 L 187.033 14.0772 L 196.554 14.0772 C 194.046 22.0771 189.648 29.0791 185.667 33.5337 L 185.667 41.0175 C 188.816 37.632 193.095 32.2271 194.462 30.3858 C 197.271 26.6439 202.581 23.3771 211.2 23.3771 C 214.826 23.3771 217.798 24.8027 219.701 27.2379 C 202.818 31.4549 194.7 37.5726 194.7 45.3533 C 194.7 51.8971 198.646 55.977 209.952 55.977 L 234.688 55.977 L 234.688 50.877 L 210.249 50.877 C 202.997 50.877 200.5 49.0952 200.5 45.1157 C 200.5 39.7108 207.574 35.1374 221.662 31.8707 C 221.781 32.6428 221.9 33.415 221.9 34.2465 L 221.9 43.3933 L 227.2 43.3933 L 227.2 33.1774 C 227.2 32.3458 227.082 31.5143 226.964 30.7422 C 229.696 30.267 232.608 29.7919 235.817 29.3167 Z" /><path stroke="#ffffff" stroke-width="8" stroke-linejoin="round" fill="#ffffff" d="M 295.086 23.7433 L 295.086 19.5992 C 293.659 20.6512 291.949 21.1771 289.884 21.1771 L 283.175 21.1771 C 282.399 21.1771 281.7 20.5343 281.7 19.7746 L 281.7 16.6772 L 293.6 16.6772 L 293.6 5.12665 L 277.2 5.12665 L 277.2 8.68658 L 289 8.68658 L 289 13.0772 L 277.2 13.0772 L 277.2 20.4174 C 277.2 23.0271 279.154 24.8771 281.7 24.8771 L 290.415 24.8771 C 292.066 24.8771 293.719 24.6384 295.086 23.7433 Z M 274.777 23.7433 L 274.777 19.5992 C 273.418 20.6512 271.627 21.1771 269.477 21.1771 L 262.988 21.1771 C 262.035 21.1771 261.5 20.5343 261.5 19.7746 L 261.5 16.6772 L 273.3 16.6772 L 273.3 5.12665 L 256.9 5.12665 L 256.9 8.68658 L 268.7 8.68658 L 268.7 13.0772 L 256.9 13.0772 L 256.9 20.4174 C 256.9 23.0271 258.846 24.8771 261.441 24.8771 L 270.014 24.8771 C 271.747 24.8771 273.477 24.6384 274.777 23.7433 Z M 295.086 43.277 L 295.086 39.4771 L 287 39.4771 L 287 33.1604 L 293.423 33.1604 L 293.423 29.2869 L 287 29.2869 L 287 26.2477 L 282.1 26.2477 L 282.1 29.2869 L 269.835 29.2869 L 269.835 26.2477 L 264.892 26.2477 L 264.892 29.2869 L 258.551 29.2869 L 258.551 33.1604 L 264.892 33.1604 L 264.892 39.4771 L 256.9 39.4771 L 256.9 43.277 L 264.178 43.277 C 262.928 45.177 261.323 47.0177 258.61 48.977 L 264.475 48.977 C 266.796 46.9583 267.986 45.2958 269.297 43.277 L 283.355 43.277 L 288.333 48.977 L 293.659 48.977 L 288.697 43.277 Z M 252.761 15.2972 L 252.761 9.8139 L 241.444 4.1772 L 241.444 9.4579 Z M 295.086 56.817 L 295.086 52.0632 L 261.619 52.0632 C 255.94 52.0632 254.02 50.4015 253 47.552 L 253 26.3669 L 241.503 26.3669 L 241.503 31.4322 L 248.1 31.4322 L 248.1 47.6114 L 241.503 51.8852 L 241.503 57.477 L 249.952 52.1819 C 251.865 55.2681 254.08 56.817 260.497 56.817 Z M 282.1 39.4771 L 269.835 39.4771 L 269.835 33.1604 L 282.1 33.1604 Z" /><path stroke="#ffffff" stroke-width="8" stroke-linejoin="round" fill="#ffffff" d="M 354.7 32.0089 C 354.7 28.0087 354.225 23.4851 353.276 18.5537 L 347.821 18.5537 C 348.826 23.4257 349.3 27.7699 349.3 31.5313 C 349.3 44.0692 344.272 50.577 337.825 50.577 C 333.507 50.577 331.2 48.4277 331.2 42.4572 C 331.2 39.1735 331.673 31.8298 331.673 29.2625 C 331.673 22.7128 328.26 20.2771 324.317 20.2771 C 320.335 20.2771 317.067 22.4158 314.036 25.8019 C 315.403 17.3651 316.769 9.75805 317.542 5.8951 L 312.074 5.8951 C 309.876 16.5925 305.478 43.8304 304.467 56.2364 L 309.935 56.2364 C 310.41 50.577 311.54 42.1587 312.788 33.7403 C 315.878 29.0834 319.147 26.2771 322.534 26.2771 C 325.624 26.2771 326.1 28.3072 326.1 31.6507 C 326.1 34.0986 325.803 40.5467 325.803 43.4722 C 325.803 53.0528 330.66 56.177 337.588 56.177 C 347.821 56.177 354.7 47.7112 354.7 32.0089 Z" /><path stroke="#ffffff" stroke-width="8" stroke-linejoin="round" fill="#ffffff" d="M 416.5 14.1159 L 416.5 4.55766 L 413.2 4.55766 L 413.2 14.1159 Z M 410.2 14.1159 L 410.2 4.55766 L 406.9 4.55766 L 406.9 14.1159 Z M 410.26 55.877 L 410.26 50.477 L 396.501 50.477 C 381.051 50.477 376 43.5738 376 37.0276 C 376 27.9224 386.221 16.9725 404.344 13.8772 L 404.344 8.77719 L 365.03 8.77719 L 365.03 13.8772 L 390.321 13.8772 C 377.783 18.6983 370.2 27.4464 370.2 37.2061 C 370.2 46.1327 376.416 55.877 395.015 55.877 Z" /><path stroke="#ffffff" stroke-width="8" stroke-linejoin="round" fill="#ffffff" d="M 471.327 57.0428 L 471.327 50.7432 C 463.779 46.1671 450.407 40.1053 437.986 34.9943 C 433.589 33.152 432.4 30.9531 432.4 28.5165 L 432.4 27.7439 C 432.4 24.8912 433.945 22.8112 439.175 21.1471 L 471.327 10.8063 L 471.327 5.21992 L 436.382 16.6305 C 430.016 18.7105 426.5 22.1575 426.5 27.4467 L 426.5 28.7542 C 426.5 33.3897 429.063 36.9555 435.312 39.511 C 447.911 44.6814 462.115 51.5753 471.327 57.0428 Z" /><path stroke="#ffffff" stroke-width="8" stroke-linejoin="round" fill="#ffffff" d="M 534.5 14.1318 L 534.5 4.57191 L 531.2 4.57191 L 531.2 14.1318 Z M 528.2 14.1318 L 528.2 4.57191 L 524.9 4.57191 L 524.9 14.1318 Z M 532.143 29.9771 L 532.143 24.8771 L 501.004 24.8771 L 501.004 29.9771 Z M 522.348 15.3772 L 522.348 10.2772 L 495.494 10.2772 C 495.672 9.02915 495.85 7.72169 495.969 6.3548 L 490.501 6.3548 C 490.383 7.72169 490.204 9.02915 490.026 10.2772 L 482.716 10.2772 L 482.716 15.3772 L 489.372 15.3772 C 487.292 31.4035 484.796 45.7829 482.3 55.4407 L 488.005 55.4407 C 490.145 45.7829 492.582 31.7006 494.78 15.3772 Z M 532.143 55.677 L 532.143 50.477 L 515.344 50.477 C 506.381 50.477 504.6 48.7539 504.6 45.7235 C 504.6 42.8714 505.965 40.1381 507.508 38.4149 L 501.712 38.4149 C 500.356 40.3163 499 43.7627 499 46.6148 C 499 52.3088 502.773 55.677 514.572 55.677 Z" /><path stroke="#ffffff" stroke-width="8" stroke-linejoin="round" fill="#ffffff" d="M 592.181 18.3772 L 592.181 13.1772 L 576.432 13.1772 C 575.778 10.9188 575.184 8.6605 574.709 6.2833 L 569.063 6.2833 C 569.479 8.6605 570.014 10.9783 570.667 13.1772 L 542.76 13.1772 L 542.76 18.3772 L 572.272 18.3772 C 574.887 25.8615 578.334 32.6923 582.197 38.8102 L 588.675 38.8102 C 584.277 32.2765 580.711 25.4457 578.156 18.3772 Z M 589.566 55.177 L 589.566 49.977 L 565.319 49.977 C 552.601 49.977 548.5 46.7696 548.5 40.8892 C 548.5 37.6223 549.57 33.9396 552.779 30.8509 L 546.706 30.8509 C 543.896 34.1772 542.7 38.2757 542.7 41.8395 C 542.7 50.3356 548.678 55.177 564.487 55.177 Z" /><path stroke="#ffffff" stroke-width="8" stroke-linejoin="round" fill="#ffffff" d="M 653.3 48.097 C 652.416 30.3274 649.056 17.4311 643.895 11.4882 L 637.891 11.4882 C 643.301 17.6094 646.808 30.7435 647.7 48.097 Z M 631.351 47.265 L 631.351 39.3014 C 628.616 43.5803 621.482 50.177 616.013 50.177 C 611.494 50.177 609.176 46.3141 608.7 36.3299 C 608.582 33.9527 608.522 31.6349 608.522 29.2577 C 608.522 21.413 609.116 13.7465 609.889 6.79319 L 604.261 6.79319 C 603.492 13.5088 602.9 21.5912 602.9 29.6737 C 602.9 29.9114 602.9 30.2086 602.9 30.4463 C 602.9 39.7768 603.078 56.277 615.24 56.277 C 621.006 56.277 627.724 51.4927 631.351 47.265 Z" /><path stroke="#ffffff" stroke-width="8" stroke-linejoin="round" fill="#ffffff" d="M 670.6 26.8108 L 670.6 6.30743 L 665 6.30743 L 665 26.8108 L 665.894 45.1746 L 669.766 45.1746 Z M 671.016 56.777 L 671.016 51.177 L 664.881 51.177 L 664.881 56.777 Z" /><path fill="#000000" d="M 57.6097 56.777 L 57.6097 52.377 L 50.2998 52.377 L 50.2998 44.0358 L 56.3617 44.0358 L 56.3617 39.5509 L 50.2998 39.5509 L 50.2998 31.1771 L 56.3617 31.1771 L 56.3617 26.7771 L 50.2998 26.7771 L 50.2998 18.3772 L 57.6097 18.3772 L 57.6097 13.9772 L 50.9536 13.9772 L 53.093 4.05197 L 48.6485 4.05197 L 46.4075 13.9772 L 39.6128 13.9772 C 40.9257 10.9172 41.8208 7.4989 42.1789 4.05197 L 37.2383 4.05197 C 36.6486 9.71721 34.9973 14.3339 31.6096 18.3177 L 31.6096 24.8708 C 32.3859 24.3346 33.0429 23.7389 33.6999 23.0836 L 33.6999 56.777 Z M 30.4151 11.8772 L 30.4151 7.67719 L 25.0999 7.67719 L 25.0999 4.05197 L 20.5999 4.05197 L 20.5999 7.67719 L 13.4 7.67719 L 13.4 4.05197 L 8.79998 4.05197 L 8.79998 7.67719 L 4 7.67719 L 4 11.8772 L 8.79998 11.8772 L 8.79998 14.8691 L 13.4 14.8691 L 13.4 11.8772 L 20.5999 11.8772 L 20.5999 14.8691 L 25.0999 14.8691 L 25.0999 11.8772 Z M 30.4151 57.4902 L 22.7907 47.677 L 30.4151 47.677 L 30.4151 43.9771 L 18.684 43.9771 C 19.1621 42.3023 19.4608 40.6275 19.6401 39.0126 L 30.4151 39.0126 L 30.4151 35.1247 L 19.6999 35.1247 L 19.6999 30.1663 L 30.4151 30.1663 L 30.4151 16.9501 L 4 16.9501 L 4 30.1663 L 14.8 30.1663 L 14.8 35.1247 L 4 35.1247 L 4 39.0126 L 14.7416 39.0126 C 14.625 40.6874 14.3333 42.3621 13.8083 43.9771 L 4 43.9771 L 4 47.677 L 12.3844 47.677 C 10.5324 51.437 7.71994 54.8149 4 57.4902 L 9.8753 57.4902 C 13.0415 55.2905 15.5768 51.672 17.3097 47.677 L 18.1462 47.677 L 25.2194 57.4902 Z M 45.6998 26.7771 L 38.2999 26.7771 L 38.2999 18.3772 L 45.6998 18.3772 Z M 45.6998 39.5509 L 38.2999 39.5509 L 38.2999 31.1771 L 45.6998 31.1771 Z M 26.1152 26.4197 L 19.3413 26.4197 L 19.3413 20.7602 L 26.1152 20.7602 Z M 45.6998 52.377 L 38.2999 52.377 L 38.2999 44.0358 L 45.6998 44.0358 Z M 15.0987 26.4197 L 8.19998 26.4197 L 8.19998 20.7602 L 15.0987 20.7602 Z" /><path fill="#000000" d="M 116.555 47.1368 L 116.555 33.5771 L 79.0419 33.5771 C 79.9323 32.0295 80.7039 30.3629 81.2382 28.5771 L 114 28.5771 L 114 5.0772 L 66.7 5.0772 L 66.7 28.5771 L 76.1332 28.5771 C 74.0556 34.1148 69.6651 38.1173 63.6096 40.1946 L 63.6096 45.3568 C 68.479 43.7547 72.4529 41.322 75.5396 38.1771 L 84.1468 38.1771 C 80.5852 44.4668 73.4621 49.8069 64.9765 51.409 L 64.9765 56.377 C 76.6081 54.2771 85.6902 46.5435 89.5485 38.1771 L 98.4525 38.1771 C 95.9594 44.7634 90.2609 50.8156 83.019 52.7171 L 83.019 57.6959 C 92.6352 55.657 100.649 47.4929 103.617 38.1771 L 111.3 38.1771 L 111.3 46.4842 C 111.3 50.2816 108.84 52.477 105.457 52.477 L 98.6899 52.477 L 98.6899 57.577 L 105.872 57.577 C 112.38 57.577 116.555 54.2171 116.555 47.1368 Z M 108.9 14.6772 L 71.8 14.6772 L 71.8 9.27719 L 108.9 9.27719 Z M 108.9 24.3771 L 71.8 24.3771 L 71.8 18.8771 L 108.9 18.8771 Z" /><path fill="#000000" d="M 176.375 22.1771 L 176.375 18.0772 L 169.6 18.0772 L 169.6 13.7097 L 164.4 13.7097 L 164.4 18.0772 L 145.1 18.0772 L 145.1 13.7097 L 139.9 13.7097 L 139.9 18.0772 L 131.595 18.0772 L 131.595 22.1771 L 139.9 22.1771 L 139.9 31.3771 L 169.6 31.3771 L 169.6 22.1771 Z M 176.375 11.0772 L 176.375 6.3772 L 154.1 6.3772 L 154.1 4 L 148.8 4 L 148.8 6.3772 L 125.259 6.3772 L 125.259 34.2412 C 125.259 43.1921 124.962 46.2354 122.882 49.2787 L 122.882 57.677 C 127.386 53.5796 130.4 48.9206 130.4 34.4202 L 130.4 11.0772 Z M 176.375 57.557 L 176.375 53.4004 C 170.313 53.4004 165.227 52.8628 160.807 51.7277 C 166.409 48.9803 170.967 45.2806 174.77 40.6262 L 174.77 36.4491 L 134.463 36.4491 L 134.463 40.6262 L 169.009 40.6262 C 164.991 44.5049 160.208 47.4885 154.399 49.577 C 150.39 47.9062 147.038 45.6387 143.977 42.8937 L 137.749 42.8937 C 141.082 46.3547 144.686 49.1593 148.624 51.3095 C 143.505 52.5043 137.689 53.1017 130.938 53.1017 L 130.938 57.557 C 140.373 57.557 148.213 56.418 154.878 54.177 C 161.346 56.477 168.477 57.557 176.375 57.557 Z M 164.4 27.6771 L 145.1 27.6771 L 145.1 22.1771 L 164.4 22.1771 Z" /><path fill="#000000" d="M 235.817 29.3167 L 235.817 24.09 C 232.073 24.6839 228.567 25.2779 225.374 25.9312 C 223.019 21.7817 218.393 19.4771 212.508 19.4771 C 206.861 19.4771 202.224 20.8362 198.587 23.0817 C 199.782 20.6589 201.154 17.8996 202.224 14.0772 L 234.629 14.0772 L 234.629 9.17719 L 203.413 9.17719 C 203.651 8.10745 203.829 6.97828 204.007 5.67082 L 198.467 5.67082 C 198.288 6.85942 198.108 8.04802 197.869 9.17719 L 187.033 9.17719 L 187.033 14.0772 L 196.554 14.0772 C 194.046 22.0771 189.648 29.0791 185.667 33.5337 L 185.667 41.0175 C 188.816 37.632 193.095 32.2271 194.462 30.3858 C 197.271 26.6439 202.581 23.3771 211.2 23.3771 C 214.826 23.3771 217.798 24.8027 219.701 27.2379 C 202.818 31.4549 194.7 37.5726 194.7 45.3533 C 194.7 51.8971 198.646 55.977 209.952 55.977 L 234.688 55.977 L 234.688 50.877 L 210.249 50.877 C 202.997 50.877 200.5 49.0952 200.5 45.1157 C 200.5 39.7108 207.574 35.1374 221.662 31.8707 C 221.781 32.6428 221.9 33.415 221.9 34.2465 L 221.9 43.3933 L 227.2 43.3933 L 227.2 33.1774 C 227.2 32.3458 227.082 31.5143 226.964 30.7422 C 229.696 30.267 232.608 29.7919 235.817 29.3167 Z" /><path fill="#000000" d="M 295.086 23.7433 L 295.086 19.5992 C 293.659 20.6512 291.949 21.1771 289.884 21.1771 L 283.175 21.1771 C 282.399 21.1771 281.7 20.5343 281.7 19.7746 L 281.7 16.6772 L 293.6 16.6772 L 293.6 5.12665 L 277.2 5.12665 L 277.2 8.68658 L 289 8.68658 L 289 13.0772 L 277.2 13.0772 L 277.2 20.4174 C 277.2 23.0271 279.154 24.8771 281.7 24.8771 L 290.415 24.8771 C 292.066 24.8771 293.719 24.6384 295.086 23.7433 Z M 274.777 23.7433 L 274.777 19.5992 C 273.418 20.6512 271.627 21.1771 269.477 21.1771 L 262.988 21.1771 C 262.035 21.1771 261.5 20.5343 261.5 19.7746 L 261.5 16.6772 L 273.3 16.6772 L 273.3 5.12665 L 256.9 5.12665 L 256.9 8.68658 L 268.7 8.68658 L 268.7 13.0772 L 256.9 13.0772 L 256.9 20.4174 C 256.9 23.0271 258.846 24.8771 261.441 24.8771 L 270.014 24.8771 C 271.747 24.8771 273.477 24.6384 274.777 23.7433 Z M 295.086 43.277 L 295.086 39.4771 L 287 39.4771 L 287 33.1604 L 293.423 33.1604 L 293.423 29.2869 L 287 29.2869 L 287 26.2477 L 282.1 26.2477 L 282.1 29.2869 L 269.835 29.2869 L 269.835 26.2477 L 264.892 26.2477 L 264.892 29.2869 L 258.551 29.2869 L 258.551 33.1604 L 264.892 33.1604 L 264.892 39.4771 L 256.9 39.4771 L 256.9 43.277 L 264.178 43.277 C 262.928 45.177 261.323 47.0177 258.61 48.977 L 264.475 48.977 C 266.796 46.9583 267.986 45.2958 269.297 43.277 L 283.355 43.277 L 288.333 48.977 L 293.659 48.977 L 288.697 43.277 Z M 252.761 15.2972 L 252.761 9.8139 L 241.444 4.1772 L 241.444 9.4579 Z M 295.086 56.817 L 295.086 52.0632 L 261.619 52.0632 C 255.94 52.0632 254.02 50.4015 253 47.552 L 253 26.3669 L 241.503 26.3669 L 241.503 31.4322 L 248.1 31.4322 L 248.1 47.6114 L 241.503 51.8852 L 241.503 57.477 L 249.952 52.1819 C 251.865 55.2681 254.08 56.817 260.497 56.817 Z M 282.1 39.4771 L 269.835 39.4771 L 269.835 33.1604 L 282.1 33.1604 Z" /><path fill="#000000" d="M 354.7 32.0089 C 354.7 28.0087 354.225 23.4851 353.276 18.5537 L 347.821 18.5537 C 348.826 23.4257 349.3 27.7699 349.3 31.5313 C 349.3 44.0692 344.272 50.577 337.825 50.577 C 333.507 50.577 331.2 48.4277 331.2 42.4572 C 331.2 39.1735 331.673 31.8298 331.673 29.2625 C 331.673 22.7128 328.26 20.2771 324.317 20.2771 C 320.335 20.2771 317.067 22.4158 314.036 25.8019 C 315.403 17.3651 316.769 9.75805 317.542 5.8951 L 312.074 5.8951 C 309.876 16.5925 305.478 43.8304 304.467 56.2364 L 309.935 56.2364 C 310.41 50.577 311.54 42.1587 312.788 33.7403 C 315.878 29.0834 319.147 26.2771 322.534 26.2771 C 325.624 26.2771 326.1 28.3072 326.1 31.6507 C 326.1 34.0986 325.803 40.5467 325.803 43.4722 C 325.803 53.0528 330.66 56.177 337.588 56.177 C 347.821 56.177 354.7 47.7112 354.7 32.0089 Z" /><path fill="#000000" d="M 416.5 14.1159 L 416.5 4.55766 L 413.2 4.55766 L 413.2 14.1159 Z M 410.2 14.1159 L 410.2 4.55766 L 406.9 4.55766 L 406.9 14.1159 Z M 410.26 55.877 L 410.26 50.477 L 396.501 50.477 C 381.051 50.477 376 43.5738 376 37.0276 C 376 27.9224 386.221 16.9725 404.344 13.8772 L 404.344 8.77719 L 365.03 8.77719 L 365.03 13.8772 L 390.321 13.8772 C 377.783 18.6983 370.2 27.4464 370.2 37.2061 C 370.2 46.1327 376.416 55.877 395.015 55.877 Z" /><path fill="#000000" d="M 471.327 57.0428 L 471.327 50.7432 C 463.779 46.1671 450.407 40.1053 437.986 34.9943 C 433.589 33.152 432.4 30.9531 432.4 28.5165 L 432.4 27.7439 C 432.4 24.8912 433.945 22.8112 439.175 21.1471 L 471.327 10.8063 L 471.327 5.21992 L 436.382 16.6305 C 430.016 18.7105 426.5 22.1575 426.5 27.4467 L 426.5 28.7542 C 426.5 33.3897 429.063 36.9555 435.312 39.511 C 447.911 44.6814 462.115 51.5753 471.327 57.0428 Z" /><path fill="#000000" d="M 534.5 14.1318 L 534.5 4.57191 L 531.2 4.57191 L 531.2 14.1318 Z M 528.2 14.1318 L 528.2 4.57191 L 524.9 4.57191 L 524.9 14.1318 Z M 532.143 29.9771 L 532.143 24.8771 L 501.004 24.8771 L 501.004 29.9771 Z M 522.348 15.3772 L 522.348 10.2772 L 495.494 10.2772 C 495.672 9.02915 495.85 7.72169 495.969 6.3548 L 490.501 6.3548 C 490.383 7.72169 490.204 9.02915 490.026 10.2772 L 482.716 10.2772 L 482.716 15.3772 L 489.372 15.3772 C 487.292 31.4035 484.796 45.7829 482.3 55.4407 L 488.005 55.4407 C 490.145 45.7829 492.582 31.7006 494.78 15.3772 Z M 532.143 55.677 L 532.143 50.477 L 515.344 50.477 C 506.381 50.477 504.6 48.7539 504.6 45.7235 C 504.6 42.8714 505.965 40.1381 507.508 38.4149 L 501.712 38.4149 C 500.356 40.3163 499 43.7627 499 46.6148 C 499 52.3088 502.773 55.677 514.572 55.677 Z" /><path fill="#000000" d="M 592.181 18.3772 L 592.181 13.1772 L 576.432 13.1772 C 575.778 10.9188 575.184 8.6605 574.709 6.2833 L 569.063 6.2833 C 569.479 8.6605 570.014 10.9783 570.667 13.1772 L 542.76 13.1772 L 542.76 18.3772 L 572.272 18.3772 C 574.887 25.8615 578.334 32.6923 582.197 38.8102 L 588.675 38.8102 C 584.277 32.2765 580.711 25.4457 578.156 18.3772 Z M 589.566 55.177 L 589.566 49.977 L 565.319 49.977 C 552.601 49.977 548.5 46.7696 548.5 40.8892 C 548.5 37.6223 549.57 33.9396 552.779 30.8509 L 546.706 30.8509 C 543.896 34.1772 542.7 38.2757 542.7 41.8395 C 542.7 50.3356 548.678 55.177 564.487 55.177 Z" /><path fill="#000000" d="M 653.3 48.097 C 652.416 30.3274 649.056 17.4311 643.895 11.4882 L 637.891 11.4882 C 643.301 17.6094 646.808 30.7435 647.7 48.097 Z M 631.351 47.265 L 631.351 39.3014 C 628.616 43.5803 621.482 50.177 616.013 50.177 C 611.494 50.177 609.176 46.3141 608.7 36.3299 C 608.582 33.9527 608.522 31.6349 608.522 29.2577 C 608.522 21.413 609.116 13.7465 609.889 6.79319 L 604.261 6.79319 C 603.492 13.5088 602.9 21.5912 602.9 29.6737 C 602.9 29.9114 602.9 30.2086 602.9 30.4463 C 602.9 39.7768 603.078 56.277 615.24 56.277 C 621.006 56.277 627.724 51.4927 631.351 47.265 Z" /><path fill="#000000" d="M 670.6 26.8108 L 670.6 6.30743 L 665 6.30743 L 665 26.8108 L 665.894 45.1746 L 669.766 45.1746 Z M 671.016 56.777 L 671.016 51.177 L 664.881 51.177 L 664.881 56.777 Z" /></svg>