<?xml version="1.0" encoding="utf-8" standalone="no"?>
<!DOCTYPE svg PUBLIC "-//W3C//DTD SVG 1.1//EN"
"http://www.w3.org/Graphics/SVG/1.1/DTD/svg11.dtd">

<svg xmlns="http://www.w3.org/2000/svg" version="1.1" xmlns:xlink="http://www.w3.org/1999/xlink" width="27.8" height="31.8" viewBox="0 0 27.8 31.8"><path stroke="#ffffff" stroke-width="6" stroke-linejoin="round" fill="#ffffff" d="M 24.8 20.8169 L 24.8 10.4253 C 24.8 5.16628 21.4951 3 15.4634 3 L 12.4633 3 C 5.51034 3 3 6.1409 3 10.1418 L 3 12.2525 C 3 16.9857 5.15632 19.3 12.4001 19.3 L 15.2423 19.3 C 18.1792 19.3 20.4213 18.5607 22 17.4036 L 22 20.6905 C 22 24.3882 20.295 26 15.4949 26 L 12.0528 26 C 7.60004 26 5.86316 24.9887 5.86316 21.7018 L 3.06437 21.7018 C 3.06437 26.6758 5.54252 28.8 12.0528 28.8 L 15.4949 28.8 C 21.5582 28.8 24.8 26.4506 24.8 20.8169 Z M 22 12.2525 C 22 15.4974 19.0318 16.6 15.2739 16.6 L 12.4001 16.6 C 7.56846 16.6 5.8 15.5289 5.8 12.0635 L 5.8 10.2678 C 5.8 7.49554 7.82109 5.7 12.4633 5.7 L 15.4634 5.7 C 19.7898 5.7 22 7.05449 22 10.5514 Z" /><path fill="#ff8119" d="M 24.8 20.8169 L 24.8 10.4253 C 24.8 5.16628 21.4951 3 15.4634 3 L 12.4633 3 C 5.51034 3 3 6.1409 3 10.1418 L 3 12.2525 C 3 16.9857 5.15632 19.3 12.4001 19.3 L 15.2423 19.3 C 18.1792 19.3 20.4213 18.5607 22 17.4036 L 22 20.6905 C 22 24.3882 20.295 26 15.4949 26 L 12.0528 26 C 7.60004 26 5.86316 24.9887 5.86316 21.7018 L 3.06437 21.7018 C 3.06437 26.6758 5.54252 28.8 12.0528 28.8 L 15.4949 28.8 C 21.5582 28.8 24.8 26.4506 24.8 20.8169 Z M 22 12.2525 C 22 15.4974 19.0318 16.6 15.2739 16.6 L 12.4001 16.6 C 7.56846 16.6 5.8 15.5289 5.8 12.0635 L 5.8 10.2678 C 5.8 7.49554 7.82109 5.7 12.4633 5.7 L 15.4634 5.7 C 19.7898 5.7 22 7.05449 22 10.5514 Z" /></svg>