<?xml version="1.0" encoding="utf-8" standalone="no"?>
<!DOCTYPE svg PUBLIC "-//W3C//DTD SVG 1.1//EN"
"http://www.w3.org/Graphics/SVG/1.1/DTD/svg11.dtd">

<svg xmlns="http://www.w3.org/2000/svg" version="1.1" xmlns:xlink="http://www.w3.org/1999/xlink" width="33.2" height="38.3001" viewBox="0 0 33.2 38.3001"><path stroke="#ffffff" stroke-width="6" stroke-linejoin="round" fill="#ffffff" d="M 30.2 25.402 L 30.2 12.3826 C 30.2 5.7279 26.0666 3 18.5086 3 L 14.7494 3 C 6.0483 3 3 6.95823 3 12.0236 L 3 14.6959 C 3 20.6715 5.61841 23.5 14.6703 23.5 L 18.2316 23.5 C 21.9117 23.5 24.7212 22.5965 26.7 21.1822 L 26.7 25.2435 C 26.7 29.8793 24.5629 31.9 18.5482 31.9 L 14.235 31.9 C 8.65553 31.9 6.47915 30.6321 6.47915 26.5114 L 3.07816 26.5114 C 3.07816 32.7207 6.08738 35.3001 14.235 35.3001 L 18.5482 35.3001 C 26.1457 35.3001 30.2 32.4472 30.2 25.402 Z M 26.7 14.6959 C 26.7 18.8041 22.9801 20.2 18.2712 20.2 L 14.6703 20.2 C 8.61596 20.2 6.4 18.8439 6.4 14.4566 L 6.4 12.1832 C 6.4 8.67328 8.93252 6.40001 14.7494 6.40001 L 18.5086 6.40001 C 23.9298 6.40001 26.7 8.11489 26.7 12.5421 Z" /><path fill="#555555" d="M 30.2 25.402 L 30.2 12.3826 C 30.2 5.7279 26.0666 3 18.5086 3 L 14.7494 3 C 6.0483 3 3 6.95823 3 12.0236 L 3 14.6959 C 3 20.6715 5.61841 23.5 14.6703 23.5 L 18.2316 23.5 C 21.9117 23.5 24.7212 22.5965 26.7 21.1822 L 26.7 25.2435 C 26.7 29.8793 24.5629 31.9 18.5482 31.9 L 14.235 31.9 C 8.65553 31.9 6.47915 30.6321 6.47915 26.5114 L 3.07816 26.5114 C 3.07816 32.7207 6.08738 35.3001 14.235 35.3001 L 18.5482 35.3001 C 26.1457 35.3001 30.2 32.4472 30.2 25.402 Z M 26.7 14.6959 C 26.7 18.8041 22.9801 20.2 18.2712 20.2 L 14.6703 20.2 C 8.61596 20.2 6.4 18.8439 6.4 14.4566 L 6.4 12.1832 C 6.4 8.67328 8.93252 6.40001 14.7494 6.40001 L 18.5086 6.40001 C 23.9298 6.40001 26.7 8.11489 26.7 12.5421 Z" /></svg>