<?xml version="1.0" encoding="utf-8" standalone="no"?>
<!DOCTYPE svg PUBLIC "-//W3C//DTD SVG 1.1//EN"
"http://www.w3.org/Graphics/SVG/1.1/DTD/svg11.dtd">

<svg xmlns="http://www.w3.org/2000/svg" version="1.1" xmlns:xlink="http://www.w3.org/1999/xlink" width="48.0347" height="56.3998" viewBox="0 0 48.0347 56.3998"><path stroke="#ffffff" stroke-width="8" stroke-linejoin="round" fill="#ffffff" d="M 44.0347 38.6055 L 44.0347 35.0324 C 44.0347 25.6815 39.4494 20.8999 26.9092 20.8999 L 21.5608 20.8999 C 16.8067 20.8999 12.7656 22.1551 9.73485 24.1873 L 9.73485 9.09998 L 42.6651 9.09998 L 42.6651 4 L 4.53487 4 L 4.53487 30.7448 L 9.91313 30.7448 C 11.8742 28.1246 14.905 26.0999 21.5608 26.0999 L 26.9092 26.0999 C 35.645 26.0999 38.7347 29.0774 38.7347 35.0324 L 38.7347 38.6055 C 38.7347 44.8583 35.4073 47.2998 26.9092 47.2998 L 20.9071 47.2998 C 13.3005 47.2998 9.25672 45.6324 9.25672 39.4392 L 4 39.4392 C 4 48.9199 9.43603 52.3998 20.6694 52.3998 L 26.9092 52.3998 C 38.5569 52.3998 44.0347 48.6799 44.0347 38.6055 Z" /><path fill="#000000" d="M 44.0347 38.6055 L 44.0347 35.0324 C 44.0347 25.6815 39.4494 20.8999 26.9092 20.8999 L 21.5608 20.8999 C 16.8067 20.8999 12.7656 22.1551 9.73485 24.1873 L 9.73485 9.09998 L 42.6651 9.09998 L 42.6651 4 L 4.53487 4 L 4.53487 30.7448 L 9.91313 30.7448 C 11.8742 28.1246 14.905 26.0999 21.5608 26.0999 L 26.9092 26.0999 C 35.645 26.0999 38.7347 29.0774 38.7347 35.0324 L 38.7347 38.6055 C 38.7347 44.8583 35.4073 47.2998 26.9092 47.2998 L 20.9071 47.2998 C 13.3005 47.2998 9.25672 45.6324 9.25672 39.4392 L 4 39.4392 C 4 48.9199 9.43603 52.3998 20.6694 52.3998 L 26.9092 52.3998 C 38.5569 52.3998 44.0347 48.6799 44.0347 38.6055 Z" /></svg>