<?xml version="1.0" encoding="utf-8" standalone="no"?>
<!DOCTYPE svg PUBLIC "-//W3C//DTD SVG 1.1//EN"
"http://www.w3.org/Graphics/SVG/1.1/DTD/svg11.dtd">

<svg xmlns="http://www.w3.org/2000/svg" version="1.1" xmlns:xlink="http://www.w3.org/1999/xlink" width="154.22" height="35.5969" viewBox="0 0 154.22 35.5969"><path stroke="#ffffff" stroke-width="8" stroke-linejoin="round" fill="#ffffff" d="M 4 30.6891 L 4 6.10938 L 11.6172 6.10938 L 11.6172 28.7844 L 6.19688 28.7844 L 6.19688 30.6891 Z M 6.19688 26.8797 L 9.47813 26.8797 L 9.47813 17.8859 L 6.19688 17.8859 Z M 6.19688 16.0109 L 9.47813 16.0109 L 9.47813 8.04219 L 6.19688 8.04219 Z M 13.1984 31.5969 L 13.1984 5.64063 L 21.4609 5.64063 L 21.4609 14.9859 L 15.4547 14.9859 L 15.4547 18.6484 L 20.6109 18.6484 L 20.6109 20.5813 L 15.4547 20.5813 L 15.4547 24.5656 L 20.6109 24.5656 L 20.6109 26.5875 L 15.4547 26.5875 L 15.4547 31.5969 Z M 15.4547 13.1406 L 19.4094 13.1406 L 19.4094 7.63281 L 15.4547 7.63281 Z M 18.7938 29.4 C 20.8448 28.3844 22.5443 27.1536 23.8922 25.7078 C 22.7005 24.1651 21.7339 22.4854 20.9922 20.6688 L 22.8953 19.8484 C 23.4818 21.3526 24.2536 22.7688 25.2109 24.0969 C 26.2651 22.5927 27.0755 20.9031 27.6422 19.0281 L 21.1969 19.0281 L 21.1969 17.0359 L 29.8984 17.0359 L 29.8984 19.0281 C 29.0776 21.724 27.974 23.9703 26.5875 25.7672 C 27.9156 27.1932 29.3708 28.3359 30.9531 29.1953 L 30.1609 31.1875 C 28.3641 30.25 26.7234 28.9609 25.2391 27.3203 C 23.7943 28.7849 22.0073 30.074 19.8781 31.1875 Z M 22.75 14.9859 L 22.75 13.0234 L 27.7 13.0234 L 27.7 7.63281 L 22.75 7.63281 L 22.75 5.64063 L 29.8984 5.64063 L 29.8984 14.9859 Z" /><path stroke="#ffffff" stroke-width="8" stroke-linejoin="round" fill="#ffffff" d="M 63.2375 29.5172 C 65.0344 28.287 66.4896 27.076 67.6031 25.8844 L 67.6031 18.0328 L 63.5313 18.0328 L 63.5313 16.0406 L 69.8297 16.0406 L 69.8297 25.2984 C 70.3766 26.2745 71.0307 27.0117 71.7922 27.5102 C 72.5536 28.0086 73.6523 28.3701 75.0883 28.5945 C 76.5242 28.819 78.5406 28.9312 81.1375 28.9312 L 90.2203 28.9312 L 90.1031 30.9531 L 81.05 30.9531 C 77.476 30.9531 74.7906 30.6992 72.9938 30.1914 C 71.1969 29.6836 69.8396 28.7948 68.9219 27.525 C 67.7688 28.8135 66.2354 30.1219 64.3219 31.45 Z M 63.9703 6.95781 L 65.5516 5.58125 C 67.2703 7.3 68.9208 9.0776 70.5031 10.9141 L 68.95 12.2906 C 67.0948 10.1813 65.4349 8.40365 63.9703 6.95781 Z M 70.9422 8.74531 L 70.9422 6.78281 L 79.5859 6.78281 L 79.5859 4.46875 L 81.9578 4.46875 L 81.9578 6.78281 L 90.0438 6.78281 L 90.0438 8.74531 L 81.9578 8.74531 L 81.9578 10.9422 L 89.1953 10.9422 L 89.1953 19.0281 L 82.8078 19.0281 C 84.5464 21.0792 87.0464 23.0323 90.3078 24.8875 L 89.1359 26.6172 C 86.1672 24.8391 83.7745 22.9151 81.9578 20.8453 L 81.9578 27.9937 L 79.5859 27.9937 L 79.5859 20.9328 C 77.7297 23.0036 75.337 24.8984 72.4078 26.6172 L 71.1188 24.8297 C 74.3802 23.0714 76.9682 21.1375 78.8828 19.0281 L 72.2313 19.0281 L 72.2313 10.9422 L 79.5859 10.9422 L 79.5859 8.74531 Z M 74.4 17.3 L 79.5859 17.3 L 79.5859 12.7 L 74.4 12.7 Z M 81.9578 17.3 L 86.9969 17.3 L 86.9969 12.7 L 81.9578 12.7 Z" /><path stroke="#ffffff" stroke-width="8" stroke-linejoin="round" fill="#ffffff" d="M 122.769 29.575 C 123.608 27.6812 124.219 25.6357 124.6 23.4383 C 124.981 21.2409 125.172 18.5505 125.172 15.3672 L 125.172 6.60625 L 136.45 6.60625 L 136.45 4 L 138.853 4 L 138.853 6.60625 L 149.927 6.60625 L 149.927 8.57031 L 145.122 8.57031 L 145.122 11.0891 L 149.898 11.0891 L 149.898 12.9938 L 145.122 12.9938 L 145.122 17.8859 L 131.969 17.8859 L 131.969 12.9938 L 127.398 12.9938 L 127.398 16.8016 C 127.398 22.6807 126.422 27.5443 124.469 31.3922 Z M 127.192 29.2531 C 130.669 28.6865 133.726 27.8953 136.363 26.8797 C 134.136 25.6297 132.418 24.2625 131.206 22.7781 L 133.169 21.6953 C 134.653 23.3943 136.489 24.7807 138.677 25.8547 C 140.962 24.7026 142.974 23.2182 144.713 21.4016 L 128.98 21.4016 L 128.98 19.4688 L 147.466 19.4688 L 147.466 21.4016 C 145.903 23.5693 143.765 25.4052 141.05 26.9094 C 143.472 27.8469 146.529 28.6281 150.22 29.2531 L 149.517 31.1875 C 145.337 30.4448 141.743 29.3995 138.736 28.0516 C 135.669 29.4193 132.046 30.4646 127.867 31.1875 Z M 127.398 11.0891 L 131.969 11.0891 L 131.969 8.57031 L 127.398 8.57031 Z M 134.283 16.1281 L 142.778 16.1281 L 142.778 12.9938 L 134.283 12.9938 Z M 134.283 11.0891 L 142.778 11.0891 L 142.778 8.57031 L 134.283 8.57031 Z" /><path fill="#000000" d="M 4 30.6891 L 4 6.10938 L 11.6172 6.10938 L 11.6172 28.7844 L 6.19688 28.7844 L 6.19688 30.6891 Z M 6.19688 26.8797 L 9.47813 26.8797 L 9.47813 17.8859 L 6.19688 17.8859 Z M 6.19688 16.0109 L 9.47813 16.0109 L 9.47813 8.04219 L 6.19688 8.04219 Z M 13.1984 31.5969 L 13.1984 5.64063 L 21.4609 5.64063 L 21.4609 14.9859 L 15.4547 14.9859 L 15.4547 18.6484 L 20.6109 18.6484 L 20.6109 20.5813 L 15.4547 20.5813 L 15.4547 24.5656 L 20.6109 24.5656 L 20.6109 26.5875 L 15.4547 26.5875 L 15.4547 31.5969 Z M 15.4547 13.1406 L 19.4094 13.1406 L 19.4094 7.63281 L 15.4547 7.63281 Z M 18.7938 29.4 C 20.8448 28.3844 22.5443 27.1536 23.8922 25.7078 C 22.7005 24.1651 21.7339 22.4854 20.9922 20.6688 L 22.8953 19.8484 C 23.4818 21.3526 24.2536 22.7688 25.2109 24.0969 C 26.2651 22.5927 27.0755 20.9031 27.6422 19.0281 L 21.1969 19.0281 L 21.1969 17.0359 L 29.8984 17.0359 L 29.8984 19.0281 C 29.0776 21.724 27.974 23.9703 26.5875 25.7672 C 27.9156 27.1932 29.3708 28.3359 30.9531 29.1953 L 30.1609 31.1875 C 28.3641 30.25 26.7234 28.9609 25.2391 27.3203 C 23.7943 28.7849 22.0073 30.074 19.8781 31.1875 Z M 22.75 14.9859 L 22.75 13.0234 L 27.7 13.0234 L 27.7 7.63281 L 22.75 7.63281 L 22.75 5.64063 L 29.8984 5.64063 L 29.8984 14.9859 Z" /><path fill="#000000" d="M 63.2375 29.5172 C 65.0344 28.287 66.4896 27.076 67.6031 25.8844 L 67.6031 18.0328 L 63.5313 18.0328 L 63.5313 16.0406 L 69.8297 16.0406 L 69.8297 25.2984 C 70.3766 26.2745 71.0307 27.0117 71.7922 27.5102 C 72.5536 28.0086 73.6523 28.3701 75.0883 28.5945 C 76.5242 28.819 78.5406 28.9312 81.1375 28.9312 L 90.2203 28.9312 L 90.1031 30.9531 L 81.05 30.9531 C 77.476 30.9531 74.7906 30.6992 72.9938 30.1914 C 71.1969 29.6836 69.8396 28.7948 68.9219 27.525 C 67.7688 28.8135 66.2354 30.1219 64.3219 31.45 Z M 63.9703 6.95781 L 65.5516 5.58125 C 67.2703 7.3 68.9208 9.0776 70.5031 10.9141 L 68.95 12.2906 C 67.0948 10.1813 65.4349 8.40365 63.9703 6.95781 Z M 70.9422 8.74531 L 70.9422 6.78281 L 79.5859 6.78281 L 79.5859 4.46875 L 81.9578 4.46875 L 81.9578 6.78281 L 90.0438 6.78281 L 90.0438 8.74531 L 81.9578 8.74531 L 81.9578 10.9422 L 89.1953 10.9422 L 89.1953 19.0281 L 82.8078 19.0281 C 84.5464 21.0792 87.0464 23.0323 90.3078 24.8875 L 89.1359 26.6172 C 86.1672 24.8391 83.7745 22.9151 81.9578 20.8453 L 81.9578 27.9937 L 79.5859 27.9937 L 79.5859 20.9328 C 77.7297 23.0036 75.337 24.8984 72.4078 26.6172 L 71.1188 24.8297 C 74.3802 23.0714 76.9682 21.1375 78.8828 19.0281 L 72.2313 19.0281 L 72.2313 10.9422 L 79.5859 10.9422 L 79.5859 8.74531 Z M 74.4 17.3 L 79.5859 17.3 L 79.5859 12.7 L 74.4 12.7 Z M 81.9578 17.3 L 86.9969 17.3 L 86.9969 12.7 L 81.9578 12.7 Z" /><path fill="#000000" d="M 122.769 29.575 C 123.608 27.6812 124.219 25.6357 124.6 23.4383 C 124.981 21.2409 125.172 18.5505 125.172 15.3672 L 125.172 6.60625 L 136.45 6.60625 L 136.45 4 L 138.853 4 L 138.853 6.60625 L 149.927 6.60625 L 149.927 8.57031 L 145.122 8.57031 L 145.122 11.0891 L 149.898 11.0891 L 149.898 12.9938 L 145.122 12.9938 L 145.122 17.8859 L 131.969 17.8859 L 131.969 12.9938 L 127.398 12.9938 L 127.398 16.8016 C 127.398 22.6807 126.422 27.5443 124.469 31.3922 Z M 127.192 29.2531 C 130.669 28.6865 133.726 27.8953 136.363 26.8797 C 134.136 25.6297 132.418 24.2625 131.206 22.7781 L 133.169 21.6953 C 134.653 23.3943 136.489 24.7807 138.677 25.8547 C 140.962 24.7026 142.974 23.2182 144.713 21.4016 L 128.98 21.4016 L 128.98 19.4688 L 147.466 19.4688 L 147.466 21.4016 C 145.903 23.5693 143.765 25.4052 141.05 26.9094 C 143.472 27.8469 146.529 28.6281 150.22 29.2531 L 149.517 31.1875 C 145.337 30.4448 141.743 29.3995 138.736 28.0516 C 135.669 29.4193 132.046 30.4646 127.867 31.1875 Z M 127.398 11.0891 L 131.969 11.0891 L 131.969 8.57031 L 127.398 8.57031 Z M 134.283 16.1281 L 142.778 16.1281 L 142.778 12.9938 L 134.283 12.9938 Z M 134.283 11.0891 L 142.778 11.0891 L 142.778 8.57031 L 134.283 8.57031 Z" /></svg>