<?xml version="1.0" encoding="utf-8" standalone="no"?>
<!DOCTYPE svg PUBLIC "-//W3C//DTD SVG 1.1//EN"
"http://www.w3.org/Graphics/SVG/1.1/DTD/svg11.dtd">

<svg xmlns="http://www.w3.org/2000/svg" version="1.1" xmlns:xlink="http://www.w3.org/1999/xlink" width="33.7547" height="38.3001" viewBox="0 0 33.7547 38.3001"><path stroke="#ffffff" stroke-width="6" stroke-linejoin="round" fill="#ffffff" d="M 30.7547 27.1295 L 30.7547 25.2288 C 30.7547 22.3381 29.6535 19.9235 26.6986 18.6198 C 29.3783 17.4346 30.2041 15.2466 30.2041 12.6564 L 30.2041 10.8631 C 30.2041 5.7279 27.4513 3 19.5082 3 L 14.2246 3 C 6.29033 3 3.55467 5.64883 3.55467 10.8631 L 3.55467 12.6564 C 3.55467 15.2865 4.41445 17.4741 7.11358 18.6593 C 4.21905 19.963 3 22.3777 3 25.2288 L 3 27.1295 C 3 32.0787 5.43055 35.3001 13.8273 35.3001 L 19.9054 35.3001 C 28.1592 35.3001 30.7547 32.1965 30.7547 27.1295 Z M 26.7781 12.4173 C 26.7781 15.6053 25.3082 17 20.5013 17 L 13.2314 17 C 8.38482 17 6.95468 15.5654 6.95468 12.4173 L 6.95468 11.1022 C 6.95468 7.71501 9.13962 6.40001 14.2246 6.40001 L 19.5082 6.40001 C 24.5534 6.40001 26.7781 7.67516 26.7781 11.1022 Z M 27.2547 26.8523 C 27.2547 30.2577 25.3479 32 19.9054 32 L 13.8273 32 C 8.46428 32 6.48573 30.2973 6.48573 26.8523 L 6.48573 25.2288 C 6.48573 22.0609 8.58345 20.2 13.1917 20.2 L 20.5808 20.2 C 25.3479 20.2 27.2547 22.0609 27.2547 25.2288 Z" /><path fill="#555555" d="M 30.7547 27.1295 L 30.7547 25.2288 C 30.7547 22.3381 29.6535 19.9235 26.6986 18.6198 C 29.3783 17.4346 30.2041 15.2466 30.2041 12.6564 L 30.2041 10.8631 C 30.2041 5.7279 27.4513 3 19.5082 3 L 14.2246 3 C 6.29033 3 3.55467 5.64883 3.55467 10.8631 L 3.55467 12.6564 C 3.55467 15.2865 4.41445 17.4741 7.11358 18.6593 C 4.21905 19.963 3 22.3777 3 25.2288 L 3 27.1295 C 3 32.0787 5.43055 35.3001 13.8273 35.3001 L 19.9054 35.3001 C 28.1592 35.3001 30.7547 32.1965 30.7547 27.1295 Z M 26.7781 12.4173 C 26.7781 15.6053 25.3082 17 20.5013 17 L 13.2314 17 C 8.38482 17 6.95468 15.5654 6.95468 12.4173 L 6.95468 11.1022 C 6.95468 7.71501 9.13962 6.40001 14.2246 6.40001 L 19.5082 6.40001 C 24.5534 6.40001 26.7781 7.67516 26.7781 11.1022 Z M 27.2547 26.8523 C 27.2547 30.2577 25.3479 32 19.9054 32 L 13.8273 32 C 8.46428 32 6.48573 30.2973 6.48573 26.8523 L 6.48573 25.2288 C 6.48573 22.0609 8.58345 20.2 13.1917 20.2 L 20.5808 20.2 C 25.3479 20.2 27.2547 22.0609 27.2547 25.2288 Z" /></svg>