<?xml version="1.0" encoding="utf-8" standalone="no"?>
<!DOCTYPE svg PUBLIC "-//W3C//DTD SVG 1.1//EN"
"http://www.w3.org/Graphics/SVG/1.1/DTD/svg11.dtd">

<svg xmlns="http://www.w3.org/2000/svg" version="1.1" xmlns:xlink="http://www.w3.org/1999/xlink" width="48.7999" height="56.3998" viewBox="0 0 48.7999 56.3998"><path stroke="#ffffff" stroke-width="8" stroke-linejoin="round" fill="#ffffff" d="M 44.7999 38.6496 L 44.7999 35.2132 C 44.7999 25.9697 40.1378 21.6999 27.1555 21.6999 L 21.8814 21.6999 C 16.4296 21.6999 12.2222 23.0639 9.19998 25.1395 L 9.19998 19.1322 C 9.19998 12.6232 12.4592 9.09998 21.4073 9.09998 L 27.3332 9.09998 C 35.6888 9.09998 38.948 11.1303 38.948 17.1616 L 44.3815 17.1616 C 44.3815 7.67674 39.5999 4 27.4518 4 L 21.4073 4 C 9.79257 4 4 8.86277 4 18.8933 L 4 38.2348 C 4 47.2998 9.55554 52.3998 21.4666 52.3998 L 26.9777 52.3998 C 40.2573 52.3998 44.7999 47.2406 44.7999 38.6496 Z M 39.5999 38.5903 C 39.5999 44.6337 35.748 47.2998 26.9777 47.2998 L 21.4666 47.2998 C 13.5852 47.2998 9.19998 44.6929 9.19998 38.1163 L 9.19998 35.1539 C 9.19998 28.7551 14.5333 26.7999 21.8222 26.7999 L 27.1555 26.7999 C 36.0443 26.7999 39.5999 28.9921 39.5999 35.3317 Z" /><path fill="#000000" d="M 44.7999 38.6496 L 44.7999 35.2132 C 44.7999 25.9697 40.1378 21.6999 27.1555 21.6999 L 21.8814 21.6999 C 16.4296 21.6999 12.2222 23.0639 9.19998 25.1395 L 9.19998 19.1322 C 9.19998 12.6232 12.4592 9.09998 21.4073 9.09998 L 27.3332 9.09998 C 35.6888 9.09998 38.948 11.1303 38.948 17.1616 L 44.3815 17.1616 C 44.3815 7.67674 39.5999 4 27.4518 4 L 21.4073 4 C 9.79257 4 4 8.86277 4 18.8933 L 4 38.2348 C 4 47.2998 9.55554 52.3998 21.4666 52.3998 L 26.9777 52.3998 C 40.2573 52.3998 44.7999 47.2406 44.7999 38.6496 Z M 39.5999 38.5903 C 39.5999 44.6337 35.748 47.2998 26.9777 47.2998 L 21.4666 47.2998 C 13.5852 47.2998 9.19998 44.6929 9.19998 38.1163 L 9.19998 35.1539 C 9.19998 28.7551 14.5333 26.7999 21.8222 26.7999 L 27.1555 26.7999 C 36.0443 26.7999 39.5999 28.9921 39.5999 35.3317 Z" /></svg>