<?xml version="1.0" encoding="utf-8" standalone="no"?>
<!DOCTYPE svg PUBLIC "-//W3C//DTD SVG 1.1//EN"
"http://www.w3.org/Graphics/SVG/1.1/DTD/svg11.dtd">

<svg xmlns="http://www.w3.org/2000/svg" version="1.1" xmlns:xlink="http://www.w3.org/1999/xlink" width="158.098" height="51.0559" viewBox="0 0 158.098 51.0559"><path stroke="#ffffff" stroke-width="8" stroke-linejoin="round" fill="#ffffff" d="M 45.5001 39.4029 L 45.5001 5.16114 L 23.9326 5.16114 L 23.9326 9.28215 L 30.3908 9.28215 C 30.3433 30.4365 28.6813 36.4615 23.9326 41.5852 L 23.9326 47.0559 C 32.5277 40.494 34.1901 31.8123 34.2377 9.28215 L 41.5558 9.28215 L 41.5558 38.6438 C 41.5558 41.348 40.1302 43.0558 37.279 43.0558 L 34 43.0558 L 34 47.0559 L 37.8967 47.0559 C 42.5537 47.0559 45.5001 44.5321 45.5001 39.4029 Z M 24.4074 22.9408 L 20.9409 22.9408 L 17.1894 29.2979 L 15.1 27.8747 L 15.1 26.4515 C 18.6615 21.8971 21.2258 16.7735 21.8906 12.1242 L 21.8906 8.38216 L 14.7681 8.38216 L 14.7681 4.35578 L 10.7834 4.35578 L 10.7834 8.38216 L 4 8.38216 L 4 12.4558 L 17.7593 12.4558 C 16.857 18.9083 11.1629 27.258 4 30.8635 L 4 36.1294 C 6.51414 34.8011 8.9334 32.9509 11.1155 30.8635 L 11.1155 47.0559 L 15.1 47.0559 L 15.1 32.2393 L 23.2203 38.1694 L 23.2203 33.4253 L 19.6588 30.9584 Z" /><path stroke="#ffffff" stroke-width="8" stroke-linejoin="round" fill="#ffffff" d="M 154.098 46.7313 L 154.098 42.6085 C 151.772 41.9454 149.685 40.8085 147.93 39.0559 C 151.108 34.4139 152.389 28.2278 153.1 21.0658 L 153.1 17.4558 L 148.642 17.4558 L 151.013 8.51504 L 151.013 4.85578 L 130.94 4.85578 L 130.94 8.75579 L 134.9 8.75579 C 134.9 28.1318 133.946 37.0665 130.845 40.8559 L 130.845 46.5411 C 135.326 42.7033 137.458 36.6402 138.263 24.451 C 139.211 30.497 140.821 35.2665 143.284 38.9612 C 141.579 40.7612 139.4 42.0875 136.605 42.8454 L 136.605 46.7788 C 140.442 45.7822 143.379 44.0296 145.654 41.8506 C 147.93 44.1243 150.729 45.7822 154.098 46.7313 Z M 130.177 30.2617 L 128.125 19.1183 L 125.167 19.1183 L 126.074 24.2161 C 124.881 24.7799 123.45 25.1558 120.914 25.1558 L 115.562 25.1558 L 128.793 9.84651 L 124.499 9.84651 L 121.441 13.3558 L 114.982 13.3558 L 122.925 4 L 118.619 4 L 111.241 12.8341 L 111.241 16.9558 L 118.338 16.9558 L 111.241 25.0618 L 111.241 28.8029 L 118.9 28.8029 L 118.9 46.7788 L 122.4 46.7788 L 122.4 28.7558 C 124.213 28.6118 125.883 28.2278 126.694 27.7478 L 127.123 30.2617 Z M 129.89 46.2558 L 128.411 32.7558 L 125.453 32.7558 L 126.932 46.2558 Z M 115.9 32.7558 L 113 32.7558 C 113 37.4928 112.382 43.4611 111.146 46.2558 L 114.16 46.2558 C 114.933 44.1243 115.9 38.2507 115.9 32.7558 Z M 149.59 21.2558 C 148.879 27.1238 147.741 32.1911 145.464 35.977 C 143.284 32.3794 141.816 27.2678 141.2 20.4008 L 138.5 20.4008 C 138.642 16.9558 138.69 13.1187 138.69 8.75579 L 147.172 8.75579 L 144.8 17.4558 L 144.8 21.2558 Z" /><path fill="#006400" d="M 45.5001 39.4029 L 45.5001 5.16114 L 23.9326 5.16114 L 23.9326 9.28215 L 30.3908 9.28215 C 30.3433 30.4365 28.6813 36.4615 23.9326 41.5852 L 23.9326 47.0559 C 32.5277 40.494 34.1901 31.8123 34.2377 9.28215 L 41.5558 9.28215 L 41.5558 38.6438 C 41.5558 41.348 40.1302 43.0558 37.279 43.0558 L 34 43.0558 L 34 47.0559 L 37.8967 47.0559 C 42.5537 47.0559 45.5001 44.5321 45.5001 39.4029 Z M 24.4074 22.9408 L 20.9409 22.9408 L 17.1894 29.2979 L 15.1 27.8747 L 15.1 26.4515 C 18.6615 21.8971 21.2258 16.7735 21.8906 12.1242 L 21.8906 8.38216 L 14.7681 8.38216 L 14.7681 4.35578 L 10.7834 4.35578 L 10.7834 8.38216 L 4 8.38216 L 4 12.4558 L 17.7593 12.4558 C 16.857 18.9083 11.1629 27.258 4 30.8635 L 4 36.1294 C 6.51414 34.8011 8.9334 32.9509 11.1155 30.8635 L 11.1155 47.0559 L 15.1 47.0559 L 15.1 32.2393 L 23.2203 38.1694 L 23.2203 33.4253 L 19.6588 30.9584 Z" /><path fill="#006400" d="M 154.098 46.7313 L 154.098 42.6085 C 151.772 41.9454 149.685 40.8085 147.93 39.0559 C 151.108 34.4139 152.389 28.2278 153.1 21.0658 L 153.1 17.4558 L 148.642 17.4558 L 151.013 8.51504 L 151.013 4.85578 L 130.94 4.85578 L 130.94 8.75579 L 134.9 8.75579 C 134.9 28.1318 133.946 37.0665 130.845 40.8559 L 130.845 46.5411 C 135.326 42.7033 137.458 36.6402 138.263 24.451 C 139.211 30.497 140.821 35.2665 143.284 38.9612 C 141.579 40.7612 139.4 42.0875 136.605 42.8454 L 136.605 46.7788 C 140.442 45.7822 143.379 44.0296 145.654 41.8506 C 147.93 44.1243 150.729 45.7822 154.098 46.7313 Z M 130.177 30.2617 L 128.125 19.1183 L 125.167 19.1183 L 126.074 24.2161 C 124.881 24.7799 123.45 25.1558 120.914 25.1558 L 115.562 25.1558 L 128.793 9.84651 L 124.499 9.84651 L 121.441 13.3558 L 114.982 13.3558 L 122.925 4 L 118.619 4 L 111.241 12.8341 L 111.241 16.9558 L 118.338 16.9558 L 111.241 25.0618 L 111.241 28.8029 L 118.9 28.8029 L 118.9 46.7788 L 122.4 46.7788 L 122.4 28.7558 C 124.213 28.6118 125.883 28.2278 126.694 27.7478 L 127.123 30.2617 Z M 129.89 46.2558 L 128.411 32.7558 L 125.453 32.7558 L 126.932 46.2558 Z M 115.9 32.7558 L 113 32.7558 C 113 37.4928 112.382 43.4611 111.146 46.2558 L 114.16 46.2558 C 114.933 44.1243 115.9 38.2507 115.9 32.7558 Z M 149.59 21.2558 C 148.879 27.1238 147.741 32.1911 145.464 35.977 C 143.284 32.3794 141.816 27.2678 141.2 20.4008 L 138.5 20.4008 C 138.642 16.9558 138.69 13.1187 138.69 8.75579 L 147.172 8.75579 L 144.8 17.4558 L 144.8 21.2558 Z" /></svg>