<?xml version="1.0" encoding="utf-8" standalone="no"?>
<!DOCTYPE svg PUBLIC "-//W3C//DTD SVG 1.1//EN"
"http://www.w3.org/Graphics/SVG/1.1/DTD/svg11.dtd">

<svg xmlns="http://www.w3.org/2000/svg" version="1.1" xmlns:xlink="http://www.w3.org/1999/xlink" width="33.2943" height="38.2001" viewBox="0 0 33.2943 38.2001"><path stroke="#ffffff" stroke-width="6" stroke-linejoin="round" fill="#ffffff" d="M 30.2943 27.0013 L 30.2943 25.1919 C 30.2943 22.7532 29.0593 20.0785 25.1932 18.5892 C 28.4193 17.4135 29.7793 15.2635 29.7793 12.6285 L 29.7793 10.9117 C 29.7793 5.17441 25.2326 3 17.9763 3 L 14.1905 3 C 7.36797 3 3.07924 6.08372 3.07924 11.8699 L 3.07924 12.7882 L 6.57924 12.7882 L 6.57924 11.8699 C 6.57924 8.59608 9.06373 6.40001 14.1905 6.40001 L 17.8975 6.40001 C 23.4186 6.40001 26.1793 7.63789 26.1793 10.9516 L 26.1793 12.6285 C 26.1793 15.3034 23.7341 17.1 18.1735 17.1 L 12.1398 17.1 L 12.1398 20 L 17.582 20 C 24.6017 20 26.7793 22.2812 26.7793 25.2706 L 26.7793 26.844 C 26.7793 29.5973 24.5622 31.8 18.1735 31.8 L 14.4271 31.8 C 9.49753 31.8 6.42022 30.1087 6.42022 26.2933 L 6.42022 25.2706 L 3 25.2706 L 3 26.2933 C 3 31.84 6.77643 35.2001 14.4271 35.2001 L 18.2524 35.2001 C 26.2993 35.2001 30.2943 32.28 30.2943 27.0013 Z" /><path fill="#555555" d="M 30.2943 27.0013 L 30.2943 25.1919 C 30.2943 22.7532 29.0593 20.0785 25.1932 18.5892 C 28.4193 17.4135 29.7793 15.2635 29.7793 12.6285 L 29.7793 10.9117 C 29.7793 5.17441 25.2326 3 17.9763 3 L 14.1905 3 C 7.36797 3 3.07924 6.08372 3.07924 11.8699 L 3.07924 12.7882 L 6.57924 12.7882 L 6.57924 11.8699 C 6.57924 8.59608 9.06373 6.40001 14.1905 6.40001 L 17.8975 6.40001 C 23.4186 6.40001 26.1793 7.63789 26.1793 10.9516 L 26.1793 12.6285 C 26.1793 15.3034 23.7341 17.1 18.1735 17.1 L 12.1398 17.1 L 12.1398 20 L 17.582 20 C 24.6017 20 26.7793 22.2812 26.7793 25.2706 L 26.7793 26.844 C 26.7793 29.5973 24.5622 31.8 18.1735 31.8 L 14.4271 31.8 C 9.49753 31.8 6.42022 30.1087 6.42022 26.2933 L 6.42022 25.2706 L 3 25.2706 L 3 26.2933 C 3 31.84 6.77643 35.2001 14.4271 35.2001 L 18.2524 35.2001 C 26.2993 35.2001 30.2943 32.28 30.2943 27.0013 Z" /></svg>