<?xml version="1.0" encoding="utf-8" standalone="no"?>
<!DOCTYPE svg PUBLIC "-//W3C//DTD SVG 1.1//EN"
"http://www.w3.org/Graphics/SVG/1.1/DTD/svg11.dtd">

<svg xmlns="http://www.w3.org/2000/svg" version="1.1" xmlns:xlink="http://www.w3.org/1999/xlink" width="27.8" height="31.8" viewBox="0 0 27.8 31.8"><path stroke="#ffffff" stroke-width="6" stroke-linejoin="round" fill="#ffffff" d="M 24.8 21.5005 L 24.8 19.6733 C 24.8 14.7605 22.2896 12.5 15.3686 12.5 L 12.558 12.5 C 9.65271 12.5 7.41056 13.2221 5.8 14.3209 L 5.8 11.1142 C 5.8 7.60132 7.53688 5.7 12.3054 5.7 L 15.4634 5.7 C 19.9161 5.7 21.653 6.79562 21.653 10.0507 L 24.5747 10.0507 C 24.5747 4.94652 22 3 15.5265 3 L 12.3054 3 C 6.11579 3 3 5.57442 3 10.9853 L 3 21.28 C 3 26.1 5.98948 28.8 12.337 28.8 L 15.2739 28.8 C 22.354 28.8 24.8 26.0685 24.8 21.5005 Z M 22 21.469 C 22 24.6823 19.9477 26.1 15.2739 26.1 L 12.337 26.1 C 8.13689 26.1 5.8 24.7138 5.8 21.217 L 5.8 19.6418 C 5.8 16.2395 8.64216 15.2 12.5265 15.2 L 15.3686 15.2 C 20.1056 15.2 22 16.3655 22 19.7363 Z" /><path fill="#ff8119" d="M 24.8 21.5005 L 24.8 19.6733 C 24.8 14.7605 22.2896 12.5 15.3686 12.5 L 12.558 12.5 C 9.65271 12.5 7.41056 13.2221 5.8 14.3209 L 5.8 11.1142 C 5.8 7.60132 7.53688 5.7 12.3054 5.7 L 15.4634 5.7 C 19.9161 5.7 21.653 6.79562 21.653 10.0507 L 24.5747 10.0507 C 24.5747 4.94652 22 3 15.5265 3 L 12.3054 3 C 6.11579 3 3 5.57442 3 10.9853 L 3 21.28 C 3 26.1 5.98948 28.8 12.337 28.8 L 15.2739 28.8 C 22.354 28.8 24.8 26.0685 24.8 21.5005 Z M 22 21.469 C 22 24.6823 19.9477 26.1 15.2739 26.1 L 12.337 26.1 C 8.13689 26.1 5.8 24.7138 5.8 21.217 L 5.8 19.6418 C 5.8 16.2395 8.64216 15.2 12.5265 15.2 L 15.3686 15.2 C 20.1056 15.2 22 16.3655 22 19.7363 Z" /></svg>