<?xml version="1.0" encoding="utf-8" standalone="no"?>
<!DOCTYPE svg PUBLIC "-//W3C//DTD SVG 1.1//EN"
"http://www.w3.org/Graphics/SVG/1.1/DTD/svg11.dtd">

<svg xmlns="http://www.w3.org/2000/svg" version="1.1" xmlns:xlink="http://www.w3.org/1999/xlink" width="144.522" height="34.9301" viewBox="0 0 144.522 34.9301"><path stroke="#ffffff" stroke-width="8" stroke-linejoin="round" fill="#ffffff" d="M 26.5 20.951 L 23.7 20.951 C 23.7 25.2392 22.2153 27.7301 16.403 27.7301 L 14.634 27.7301 C 9.39028 27.7301 6.8 25.5545 6.8 19.942 L 6.8 14.9917 C 6.8 9.72608 9.13756 7.33016 14.634 7.33016 L 16.5925 7.33016 C 21.9942 7.33016 23.7 9.63149 23.7 13.6359 L 26.5 13.6359 C 26.5 8.14954 24.1773 4.53016 16.5925 4.53016 L 14.634 4.53016 C 7.27383 4.53016 4 7.8973 4 14.9917 L 4 19.942 C 4 27.0365 7.14747 30.5301 14.634 30.5301 L 16.403 30.5301 C 24.9091 30.5301 26.5 26.2482 26.5 20.951 Z" /><path stroke="#ffffff" stroke-width="8" stroke-linejoin="round" fill="#ffffff" d="M 51.9 20.0761 L 51.9 14.9523 C 51.9 7.83587 48.4669 4.53016 41.3756 4.53016 L 39.8561 4.53016 C 32.7648 4.53016 29.4 7.6461 29.4 14.9523 L 29.4 20.0761 C 29.4 27.1925 32.6065 30.4301 39.8561 30.4301 L 41.3756 30.4301 C 48.6252 30.4301 51.9 27.1925 51.9 20.0761 Z M 49.1 20.0761 C 49.1 25.6427 46.3775 27.7301 41.3756 27.7301 L 39.8561 27.7301 C 34.8225 27.7301 32.1 25.6427 32.1 20.0761 L 32.1 14.9523 C 32.1 9.38566 34.8225 7.33016 39.8561 7.33016 L 41.3756 7.33016 C 46.3775 7.33016 49.1 9.38566 49.1 14.9523 Z" /><path stroke="#ffffff" stroke-width="8" stroke-linejoin="round" fill="#ffffff" d="M 80.1 30.4297 L 80.1 4.62948 L 75.6889 4.62948 L 68.1158 27.6088 L 60.5428 4.62948 L 56.1 4.62948 L 56.1 30.4297 L 58.8 30.4297 L 58.8 7.07004 L 66.7216 30.4297 L 69.4783 30.4297 L 77.4 7.07004 L 77.4 30.4297 Z" /><path stroke="#ffffff" stroke-width="8" stroke-linejoin="round" fill="#ffffff" d="M 105.6 23.6587 L 105.6 22.8066 C 105.6 19.6505 104.118 17.8552 101.719 16.9177 C 104.182 15.8864 105.084 14.1392 105.084 11.9119 L 105.084 11.0209 C 105.084 6.23134 101.845 4.63016 96.7174 4.63016 L 84.3 4.63016 L 84.3 30.4301 L 97.4771 30.4301 C 103.538 30.4301 105.6 27.6039 105.6 23.6587 Z M 102.162 12.0073 C 102.162 14.3301 100.452 15.7302 95.4513 15.7302 L 87 15.7302 L 87 7.33016 L 96.6541 7.33016 C 100.357 7.33016 102.162 8.47539 102.162 11.18 Z M 102.7 23.6272 C 102.7 25.9943 101.212 27.7301 97.3505 27.7301 L 87 27.7301 L 87 18.2302 L 94.9765 18.2302 C 100.801 18.2302 102.7 19.5558 102.7 22.7435 Z" /><path stroke="#ffffff" stroke-width="8" stroke-linejoin="round" fill="#ffffff" d="M 130.2 20.0761 L 130.2 14.9523 C 130.2 7.83587 126.767 4.53016 119.676 4.53016 L 118.156 4.53016 C 111.065 4.53016 107.7 7.6461 107.7 14.9523 L 107.7 20.0761 C 107.7 27.1925 110.907 30.4301 118.156 30.4301 L 119.676 30.4301 C 126.925 30.4301 130.2 27.1925 130.2 20.0761 Z M 127.4 20.0761 C 127.4 25.6427 124.677 27.7301 119.676 27.7301 L 118.156 27.7301 C 113.123 27.7301 110.4 25.6427 110.4 20.0761 L 110.4 14.9523 C 110.4 9.38566 113.123 7.33016 118.156 7.33016 L 119.676 7.33016 C 124.677 7.33016 127.4 9.38566 127.4 14.9523 Z" /><path stroke="#ffffff" stroke-width="8" stroke-linejoin="round" fill="#ffffff" d="M 140.3 14.935 L 140.3 4 L 137.3 4 L 137.3 14.935 L 137.779 24.7289 L 139.853 24.7289 Z M 140.522 30.9301 L 140.522 27.9301 L 137.237 27.9301 L 137.237 30.9301 Z" /><path fill="#800000" d="M 26.5 20.951 L 23.7 20.951 C 23.7 25.2392 22.2153 27.7301 16.403 27.7301 L 14.634 27.7301 C 9.39028 27.7301 6.8 25.5545 6.8 19.942 L 6.8 14.9917 C 6.8 9.72608 9.13756 7.33016 14.634 7.33016 L 16.5925 7.33016 C 21.9942 7.33016 23.7 9.63149 23.7 13.6359 L 26.5 13.6359 C 26.5 8.14954 24.1773 4.53016 16.5925 4.53016 L 14.634 4.53016 C 7.27383 4.53016 4 7.8973 4 14.9917 L 4 19.942 C 4 27.0365 7.14747 30.5301 14.634 30.5301 L 16.403 30.5301 C 24.9091 30.5301 26.5 26.2482 26.5 20.951 Z" /><path fill="#800000" d="M 51.9 20.0761 L 51.9 14.9523 C 51.9 7.83587 48.4669 4.53016 41.3756 4.53016 L 39.8561 4.53016 C 32.7648 4.53016 29.4 7.6461 29.4 14.9523 L 29.4 20.0761 C 29.4 27.1925 32.6065 30.4301 39.8561 30.4301 L 41.3756 30.4301 C 48.6252 30.4301 51.9 27.1925 51.9 20.0761 Z M 49.1 20.0761 C 49.1 25.6427 46.3775 27.7301 41.3756 27.7301 L 39.8561 27.7301 C 34.8225 27.7301 32.1 25.6427 32.1 20.0761 L 32.1 14.9523 C 32.1 9.38566 34.8225 7.33016 39.8561 7.33016 L 41.3756 7.33016 C 46.3775 7.33016 49.1 9.38566 49.1 14.9523 Z" /><path fill="#800000" d="M 80.1 30.4297 L 80.1 4.62948 L 75.6889 4.62948 L 68.1158 27.6088 L 60.5428 4.62948 L 56.1 4.62948 L 56.1 30.4297 L 58.8 30.4297 L 58.8 7.07004 L 66.7216 30.4297 L 69.4783 30.4297 L 77.4 7.07004 L 77.4 30.4297 Z" /><path fill="#800000" d="M 105.6 23.6587 L 105.6 22.8066 C 105.6 19.6505 104.118 17.8552 101.719 16.9177 C 104.182 15.8864 105.084 14.1392 105.084 11.9119 L 105.084 11.0209 C 105.084 6.23134 101.845 4.63016 96.7174 4.63016 L 84.3 4.63016 L 84.3 30.4301 L 97.4771 30.4301 C 103.538 30.4301 105.6 27.6039 105.6 23.6587 Z M 102.162 12.0073 C 102.162 14.3301 100.452 15.7302 95.4513 15.7302 L 87 15.7302 L 87 7.33016 L 96.6541 7.33016 C 100.357 7.33016 102.162 8.47539 102.162 11.18 Z M 102.7 23.6272 C 102.7 25.9943 101.212 27.7301 97.3505 27.7301 L 87 27.7301 L 87 18.2302 L 94.9765 18.2302 C 100.801 18.2302 102.7 19.5558 102.7 22.7435 Z" /><path fill="#800000" d="M 130.2 20.0761 L 130.2 14.9523 C 130.2 7.83587 126.767 4.53016 119.676 4.53016 L 118.156 4.53016 C 111.065 4.53016 107.7 7.6461 107.7 14.9523 L 107.7 20.0761 C 107.7 27.1925 110.907 30.4301 118.156 30.4301 L 119.676 30.4301 C 126.925 30.4301 130.2 27.1925 130.2 20.0761 Z M 127.4 20.0761 C 127.4 25.6427 124.677 27.7301 119.676 27.7301 L 118.156 27.7301 C 113.123 27.7301 110.4 25.6427 110.4 20.0761 L 110.4 14.9523 C 110.4 9.38566 113.123 7.33016 118.156 7.33016 L 119.676 7.33016 C 124.677 7.33016 127.4 9.38566 127.4 14.9523 Z" /><path fill="#800000" d="M 140.3 14.935 L 140.3 4 L 137.3 4 L 137.3 14.935 L 137.779 24.7289 L 139.853 24.7289 Z M 140.522 30.9301 L 140.522 27.9301 L 137.237 27.9301 L 137.237 30.9301 Z" /></svg>