<svg version="1.1" xmlns="http://www.w3.org/2000/svg" xmlns:xlink="http://www.w3.org/1999/xlink" width="175.01123" height="35.8031" viewBox="0,0,175.01123,35.8031"><g transform="translate(-595.49438,-366.09845)"><g data-paper-data="{&quot;isPaintingLayer&quot;:true}" fill-rule="nonzero" stroke-linecap="butt" stroke-miterlimit="10" stroke-dasharray="" stroke-dashoffset="0" style="mix-blend-mode: normal"><path d="M599.49438,375.95782v-2.37187h14.62761c-0.28415,6.9719 -1.35935,12.2352 -3.22554,15.7898c-1.86626,3.5547 -4.86366,6.055 -8.99232,7.5008l-0.96409,-2.2562c3.65861,-1.0938 6.40888,-3.1396 8.25071,-6.1375c1.84183,-2.9979 2.91697,-7.1729 3.22554,-12.52503z" fill="#ffffff" stroke="#ffffff" stroke-width="8" stroke-linejoin="round"/><path d="M619.35087,387.88285c2.39753,-1.1917 4.46465,-2.686 6.20136,-4.4828c1.73671,-1.7969 3.23554,-4.0042 4.49661,-6.6219l1.14905,1.5234c-1.17405,2.3636 -2.53372,4.4339 -4.07887,6.211v13.125h-1.51984v-11.5125c-1.68102,1.6208 -3.51032,2.9291 -5.48796,3.925z" fill="#ffffff" stroke="#ffffff" stroke-width="8" stroke-linejoin="round"/><path d="M637.112,385.21565v-2.3141h15.01814v2.3141z" fill="#ffffff" stroke="#ffffff" stroke-width="8" stroke-linejoin="round"/><path d="M654.68822,394.70785c1.08773,-2.4219 2.1075,-5.6446 3.05942,-9.668c0.95192,-4.0234 1.50199,-7.6461 1.65033,-10.86796l1.57591,0.29218c-0.13606,3.22288 -0.65879,6.82658 -1.56698,10.81098c-0.90838,3.9843 -1.96808,7.5781 -3.17909,10.7812zM665.31202,373.64376l1.44668,-0.73281c1.0752,2.96875 2.14724,6.7091 3.21674,11.2211c1.06887,4.512 1.73336,8.2815 1.99219,11.3086l-1.64919,0.5859c-0.19745,-2.6948 -0.82206,-6.3226 -1.87258,-10.8836c-1.05115,-4.5609 -2.09535,-8.394 -3.13384,-11.49919zM668.68698,371.65157l1.00053,-0.64375c0.4702,1.38646 0.88408,2.87084 1.24227,4.45313l-1.05622,0.61406c-0.44489,-1.95312 -0.84042,-3.4276 -1.18658,-4.42344zM670.726,370.74376l1.00179,-0.64531c0.46894,1.3875 0.88282,2.87187 1.24164,4.45312l-1.07583,0.61563c-0.46957,-2.05104 -0.85877,-3.52552 -1.1676,-4.42344z" fill="#ffffff" stroke="#ffffff" stroke-width="8" stroke-linejoin="round"/><path d="M675.08249,385.21565v-2.3141h15.01801v2.3141z" fill="#ffffff" stroke="#ffffff" stroke-width="8" stroke-linejoin="round"/><path d="M692.6034,395.82185c0.44489,-2.5979 0.73536,-5.3911 0.87143,-8.3796l1.18658,0.1765c-0.13606,2.9688 -0.43287,5.8302 -0.89041,8.5844zM692.64137,384.13285l1.57515,-0.1469c0.18542,-0.3906 0.45185,-0.9766 0.79802,-1.7578c-0.87839,-2.2854 -1.66944,-4.2776 -2.37316,-5.9766l0.81574,-1.87498c0.32085,0.78125 0.56766,1.38646 0.74106,1.81558c0.58095,-1.60099 1.15557,-3.38797 1.72387,-5.36089l1.18658,0.85c-0.605,2.01146 -1.32834,4.1599 -2.16876,6.44529c0.16011,0.4104 0.44426,1.1719 0.85244,2.2844c0.87775,-2.0698 1.70615,-4.2375 2.48518,-6.50313l1.11254,0.9375c-1.05115,3.04683 -2.23774,6.04483 -3.55975,8.99373l2.72502,-0.2343c-0.27212,-1.6209 -0.52589,-2.9881 -0.76068,-4.1016l1.18658,-0.4688c0.49488,2.2657 0.90244,4.7073 1.22455,7.325l-1.18658,0.3797c-0.07468,-0.5468 -0.13037,-0.9666 -0.16707,-1.2593l-1.85423,0.1765v12.2453h-1.4277v-12.1l-2.87374,0.2938zM697.72058,387.50155l1.07583,-0.2344c0.30883,3.125 0.51197,5.7323 0.61133,7.8219l-1.11254,0.1172c-0.06139,-1.6208 -0.25314,-4.1891 -0.57462,-7.7047zM700.2798,397.90155v-26.36716h1.42706v22.79376h8.60224v1.9625h-8.60224v1.6109zM701.72521,390.31405c1.5454,-2.5583 2.65161,-5.1265 3.31863,-7.7047h-2.8921v-1.964h3.28193v-9.40315h1.33467v9.40315h3.449v1.964h-2.98512c0.82776,2.1875 1.82892,4.9703 3.00284,8.3485l-1.01951,1.2609c-0.61766,-1.8948 -1.43972,-4.2875 -2.46619,-7.1781v8.4078h-1.27834v-8.4375c-0.70499,2.6958 -1.68779,5.0885 -2.94842,7.1781zM702.11504,373.14532l1.14861,-0.70312c0.54425,1.81666 1.09419,4.08225 1.65046,6.79685l-1.13089,0.675c-0.53159,-2.5594 -1.08723,-4.8156 -1.66818,-6.76873zM707.26892,379.21095c0.74106,-2.3438 1.30429,-4.66823 1.68779,-6.97344l1.22329,0.46875c-0.39553,2.48021 -0.97078,4.89219 -1.7245,7.23589z" fill="#ffffff" stroke="#ffffff" stroke-width="8" stroke-linejoin="round"/><path d="M711.77477,376.25155l0.81574,-1.84529c0.14809,0.39063 0.38287,1.01563 0.70372,1.87499c0.59361,-1.75832 1.14988,-3.57499 1.66944,-5.44999l1.18658,0.85c-0.66765,2.34375 -1.36631,4.53129 -2.09535,6.56249c0.09872,0.2729 0.23162,0.6438 0.39869,1.1125c0.16644,0.4688 0.27465,0.7719 0.32402,0.9094c0.80371,-2.0125 1.57009,-4.1318 2.29912,-6.35783l1.13152,0.9375c-1.02584,3.14483 -2.15673,6.15263 -3.39267,9.02343l2.57631,-0.264c-0.24681,-1.4844 -0.48223,-2.7735 -0.70499,-3.8672l1.16886,-0.5266c0.38287,1.7771 0.72271,3.8276 1.01951,6.1516v-3.3391h9.80844v6.0047h-1.37264v-4.1297h-7.08215v4.4234h-1.35365v-1.7l-1.00179,0.2938c-0.06075,-0.5271 -0.12277,-0.9958 -0.18479,-1.4063l-1.68653,0.175v12.2172h-1.42833v-12.0703l-2.66933,0.2641l-0.03797,-1.9625l1.35365,-0.1172c0.18542,-0.4104 0.45122,-1.0261 0.79738,-1.8469c-0.82839,-2.2656 -1.57578,-4.238 -2.2428,-5.9172zM711.81147,395.93905c0.40755,-2.5781 0.67967,-5.3807 0.81574,-8.4078l1.18658,0.175c-0.11138,2.9302 -0.3835,5.8016 -0.81574,8.6141zM716.6869,387.58905l1.16886,-0.264c0.25947,2.6375 0.44426,5.2062 0.55564,7.7062l-1.18658,0.175c-0.11138,-2.6364 -0.29048,-5.1755 -0.53792,-7.6172zM717.98549,396.05625c1.29796,-0.8396 2.21559,-2.031 2.7535,-3.5742c0.53728,-1.5432 0.80624,-3.8284 0.80624,-6.8555h1.4277c0,3.4761 -0.32465,6.137 -0.97331,7.9828c-0.6493,1.8459 -1.73336,3.2573 -3.25345,4.2344zM718.89426,375.05001v-1.93281h4.00463v-2.37344h1.50111v2.37344h4.61659v1.93281h-4.61659v2.87184h3.91287v1.875h-9.08574v-1.875h3.67176v-2.87184zM724.36329,394.53285v-8.9063h1.4277v8.8188c0,0.5073 0.04367,0.8099 0.12973,0.9078c0.08607,0.0979 0.36452,0.1469 0.83409,0.1469c0.46957,0 0.74802,-0.2102 0.83472,-0.6305c0.0867,-0.4203 0.14809,-1.8315 0.18542,-4.2336l1.33467,0.3219c-0.02531,2.2271 -0.07784,3.6482 -0.15758,4.2633c-0.08037,0.6151 -0.1696,1.0593 -0.26833,1.3328c-0.09936,0.2734 -0.19175,0.4492 -0.27845,0.5273c-0.0867,0.0781 -0.23542,0.1662 -0.44489,0.2641c-0.2101,0.0979 -0.74169,0.1468 -1.59477,0.1468c-0.85307,0 -1.39985,-0.1515 -1.64096,-0.4546c-0.24111,-0.3032 -0.36135,-1.1381 -0.36135,-2.5047z" fill="#ffffff" stroke="#ffffff" stroke-width="8" stroke-linejoin="round"/><path d="M731.44545,396.99375v-24.57968h5.28424v22.67498h-3.87553v1.9047zM732.85416,393.09685h2.52188v-8.8468h-2.52188zM732.85416,382.25785h2.52188v-7.82346h-2.52188zM737.30368,386.97345v-1.9625h7.50932v-3.3688h-7.50932v-2.0218h4.74633v-3.9844h-3.89262v-1.93281h3.89262v-3.22344h1.48339v3.22344h3.93059v1.93281h-3.93059v3.9844h4.61723v2.0218h-1.85423v3.3688h1.85423v1.9625h-1.85423v6.6219c0,1.8166 -0.11454,2.9398 -0.343,3.3695c-0.22909,0.4297 -0.8189,0.6445 -1.77006,0.6445c-0.2101,0 -0.87206,-0.0297 -1.9846,-0.089l-0.24048,-2.1969c1.14924,0.0979 1.88461,0.1469 2.20546,0.1469c0.32148,0 0.51007,-0.088 0.56576,-0.2641c0.05569,-0.176 0.08354,-0.7422 0.08354,-1.6984v-6.5344zM738.80605,389.34685l0.98281,-1.4937c1.16127,1.5625 2.21179,3.2224 3.15156,4.9797l-1.01951,1.4656c-1.00116,-1.8552 -2.03966,-3.5057 -3.11486,-4.9516z" fill="#ffffff" stroke="#ffffff" stroke-width="8" stroke-linejoin="round"/><path d="M750.56112,397.60935v-25.8109h7.1562v10.8391h-5.6918v14.9718zM752.02552,380.93905h4.26347v-2.8719h-4.26347zM752.02552,376.42655h4.26347v-2.72341h-4.26347zM754.73219,394.62035v-10.1657h7.60172v10.1657zM756.12318,392.89215h4.82037v-2.5203h-4.82037zM756.12318,388.70315h4.82037v-2.4328h-4.82037zM759.164,382.63755v-10.8391h7.34162v21.7969c0,1.7187 -0.1234,2.783 -0.37085,3.1929c-0.24681,0.4099 -0.87775,0.6149 -1.89157,0.6149c-0.34617,0 -1.00116,-0.0292 -1.96435,-0.0875l-0.24175,-2.1969c0.98913,0.0979 1.69665,0.1469 2.12319,0.1469c0.42654,0 0.67967,-0.0781 0.76005,-0.2344c0.07974,-0.1562 0.12024,-0.6547 0.12024,-1.4953v-10.8984zM760.57271,380.93905h4.46788v-2.8719h-4.46788zM760.57271,376.42655h4.46788v-2.72341h-4.46788z" fill="#ffffff" stroke="#ffffff" stroke-width="8" stroke-linejoin="round"/><path d="M599.49438,375.95782v-2.37187h14.62761c-0.28415,6.9719 -1.35935,12.2352 -3.22554,15.7898c-1.86626,3.5547 -4.86366,6.055 -8.99232,7.5008l-0.96409,-2.2562c3.65861,-1.0938 6.40888,-3.1396 8.25071,-6.1375c1.84183,-2.9979 2.91697,-7.1729 3.22554,-12.52503z" fill="#000000" stroke="none" stroke-width="1" stroke-linejoin="miter"/><path d="M619.35087,387.88285c2.39753,-1.1917 4.46465,-2.686 6.20136,-4.4828c1.73671,-1.7969 3.23554,-4.0042 4.49661,-6.6219l1.14905,1.5234c-1.17405,2.3636 -2.53372,4.4339 -4.07887,6.211v13.125h-1.51984v-11.5125c-1.68102,1.6208 -3.51032,2.9291 -5.48796,3.925z" fill="#000000" stroke="none" stroke-width="1" stroke-linejoin="miter"/><path d="M637.112,385.21565v-2.3141h15.01814v2.3141z" fill="#000000" stroke="none" stroke-width="1" stroke-linejoin="miter"/><path d="M654.68822,394.70785c1.08773,-2.4219 2.1075,-5.6446 3.05942,-9.668c0.95192,-4.0234 1.50199,-7.6461 1.65033,-10.86796l1.57591,0.29218c-0.13606,3.22288 -0.65879,6.82658 -1.56698,10.81098c-0.90838,3.9843 -1.96808,7.5781 -3.17909,10.7812zM665.31202,373.64376l1.44668,-0.73281c1.0752,2.96875 2.14724,6.7091 3.21674,11.2211c1.06887,4.512 1.73336,8.2815 1.99219,11.3086l-1.64919,0.5859c-0.19745,-2.6948 -0.82206,-6.3226 -1.87258,-10.8836c-1.05115,-4.5609 -2.09535,-8.394 -3.13384,-11.49919zM668.68698,371.65157l1.00053,-0.64375c0.4702,1.38646 0.88408,2.87084 1.24227,4.45313l-1.05622,0.61406c-0.44489,-1.95312 -0.84042,-3.4276 -1.18658,-4.42344zM670.726,370.74376l1.00179,-0.64531c0.46894,1.3875 0.88282,2.87187 1.24164,4.45312l-1.07583,0.61563c-0.46957,-2.05104 -0.85877,-3.52552 -1.1676,-4.42344z" fill="#000000" stroke="none" stroke-width="1" stroke-linejoin="miter"/><path d="M675.08249,385.21565v-2.3141h15.01801v2.3141z" fill="#000000" stroke="none" stroke-width="1" stroke-linejoin="miter"/><path d="M692.6034,395.82185c0.44489,-2.5979 0.73536,-5.3911 0.87143,-8.3796l1.18658,0.1765c-0.13606,2.9688 -0.43287,5.8302 -0.89041,8.5844zM692.64137,384.13285l1.57515,-0.1469c0.18542,-0.3906 0.45185,-0.9766 0.79802,-1.7578c-0.87839,-2.2854 -1.66944,-4.2776 -2.37316,-5.9766l0.81574,-1.87498c0.32085,0.78125 0.56766,1.38646 0.74106,1.81558c0.58095,-1.60099 1.15557,-3.38797 1.72387,-5.36089l1.18658,0.85c-0.605,2.01146 -1.32834,4.1599 -2.16876,6.44529c0.16011,0.4104 0.44426,1.1719 0.85244,2.2844c0.87775,-2.0698 1.70615,-4.2375 2.48518,-6.50313l1.11254,0.9375c-1.05115,3.04683 -2.23774,6.04483 -3.55975,8.99373l2.72502,-0.2343c-0.27212,-1.6209 -0.52589,-2.9881 -0.76068,-4.1016l1.18658,-0.4688c0.49488,2.2657 0.90244,4.7073 1.22455,7.325l-1.18658,0.3797c-0.07468,-0.5468 -0.13037,-0.9666 -0.16707,-1.2593l-1.85423,0.1765v12.2453h-1.4277v-12.1l-2.87374,0.2938zM697.72058,387.50155l1.07583,-0.2344c0.30883,3.125 0.51197,5.7323 0.61133,7.8219l-1.11254,0.1172c-0.06139,-1.6208 -0.25314,-4.1891 -0.57462,-7.7047zM700.2798,397.90155v-26.36716h1.42706v22.79376h8.60224v1.9625h-8.60224v1.6109zM701.72521,390.31405c1.5454,-2.5583 2.65161,-5.1265 3.31863,-7.7047h-2.8921v-1.964h3.28193v-9.40315h1.33467v9.40315h3.449v1.964h-2.98512c0.82776,2.1875 1.82892,4.9703 3.00284,8.3485l-1.01951,1.2609c-0.61766,-1.8948 -1.43972,-4.2875 -2.46619,-7.1781v8.4078h-1.27834v-8.4375c-0.70499,2.6958 -1.68779,5.0885 -2.94842,7.1781zM702.11504,373.14532l1.14861,-0.70312c0.54425,1.81666 1.09419,4.08225 1.65046,6.79685l-1.13089,0.675c-0.53159,-2.5594 -1.08723,-4.8156 -1.66818,-6.76873zM707.26892,379.21095c0.74106,-2.3438 1.30429,-4.66823 1.68779,-6.97344l1.22329,0.46875c-0.39553,2.48021 -0.97078,4.89219 -1.7245,7.23589z" fill="#000000" stroke="none" stroke-width="1" stroke-linejoin="miter"/><path d="M711.77477,376.25155l0.81574,-1.84529c0.14809,0.39063 0.38287,1.01563 0.70372,1.87499c0.59361,-1.75832 1.14988,-3.57499 1.66944,-5.44999l1.18658,0.85c-0.66765,2.34375 -1.36631,4.53129 -2.09535,6.56249c0.09872,0.2729 0.23162,0.6438 0.39869,1.1125c0.16644,0.4688 0.27465,0.7719 0.32402,0.9094c0.80371,-2.0125 1.57009,-4.1318 2.29912,-6.35783l1.13152,0.9375c-1.02584,3.14483 -2.15673,6.15263 -3.39267,9.02343l2.57631,-0.264c-0.24681,-1.4844 -0.48223,-2.7735 -0.70499,-3.8672l1.16886,-0.5266c0.38287,1.7771 0.72271,3.8276 1.01951,6.1516v-3.3391h9.80844v6.0047h-1.37264v-4.1297h-7.08215v4.4234h-1.35365v-1.7l-1.00179,0.2938c-0.06075,-0.5271 -0.12277,-0.9958 -0.18479,-1.4063l-1.68653,0.175v12.2172h-1.42833v-12.0703l-2.66933,0.2641l-0.03797,-1.9625l1.35365,-0.1172c0.18542,-0.4104 0.45122,-1.0261 0.79738,-1.8469c-0.82839,-2.2656 -1.57578,-4.238 -2.2428,-5.9172zM711.81147,395.93905c0.40755,-2.5781 0.67967,-5.3807 0.81574,-8.4078l1.18658,0.175c-0.11138,2.9302 -0.3835,5.8016 -0.81574,8.6141zM716.6869,387.58905l1.16886,-0.264c0.25947,2.6375 0.44426,5.2062 0.55564,7.7062l-1.18658,0.175c-0.11138,-2.6364 -0.29048,-5.1755 -0.53792,-7.6172zM717.98549,396.05625c1.29796,-0.8396 2.21559,-2.031 2.7535,-3.5742c0.53728,-1.5432 0.80624,-3.8284 0.80624,-6.8555h1.4277c0,3.4761 -0.32465,6.137 -0.97331,7.9828c-0.6493,1.8459 -1.73336,3.2573 -3.25345,4.2344zM718.89426,375.05001v-1.93281h4.00463v-2.37344h1.50111v2.37344h4.61659v1.93281h-4.61659v2.87184h3.91287v1.875h-9.08574v-1.875h3.67176v-2.87184zM724.36329,394.53285v-8.9063h1.4277v8.8188c0,0.5073 0.04367,0.8099 0.12973,0.9078c0.08607,0.0979 0.36452,0.1469 0.83409,0.1469c0.46957,0 0.74802,-0.2102 0.83472,-0.6305c0.0867,-0.4203 0.14809,-1.8315 0.18542,-4.2336l1.33467,0.3219c-0.02531,2.2271 -0.07784,3.6482 -0.15758,4.2633c-0.08037,0.6151 -0.1696,1.0593 -0.26833,1.3328c-0.09936,0.2734 -0.19175,0.4492 -0.27845,0.5273c-0.0867,0.0781 -0.23542,0.1662 -0.44489,0.2641c-0.2101,0.0979 -0.74169,0.1468 -1.59477,0.1468c-0.85307,0 -1.39985,-0.1515 -1.64096,-0.4546c-0.24111,-0.3032 -0.36135,-1.1381 -0.36135,-2.5047z" fill="#000000" stroke="none" stroke-width="1" stroke-linejoin="miter"/><path d="M731.44545,396.99375v-24.57968h5.28424v22.67498h-3.87553v1.9047zM732.85416,393.09685h2.52188v-8.8468h-2.52188zM732.85416,382.25785h2.52188v-7.82346h-2.52188zM737.30368,386.97345v-1.9625h7.50932v-3.3688h-7.50932v-2.0218h4.74633v-3.9844h-3.89262v-1.93281h3.89262v-3.22344h1.48339v3.22344h3.93059v1.93281h-3.93059v3.9844h4.61723v2.0218h-1.85423v3.3688h1.85423v1.9625h-1.85423v6.6219c0,1.8166 -0.11454,2.9398 -0.343,3.3695c-0.22909,0.4297 -0.8189,0.6445 -1.77006,0.6445c-0.2101,0 -0.87206,-0.0297 -1.9846,-0.089l-0.24048,-2.1969c1.14924,0.0979 1.88461,0.1469 2.20546,0.1469c0.32148,0 0.51007,-0.088 0.56576,-0.2641c0.05569,-0.176 0.08354,-0.7422 0.08354,-1.6984v-6.5344zM738.80605,389.34685l0.98281,-1.4937c1.16127,1.5625 2.21179,3.2224 3.15156,4.9797l-1.01951,1.4656c-1.00116,-1.8552 -2.03966,-3.5057 -3.11486,-4.9516z" fill="#000000" stroke="none" stroke-width="1" stroke-linejoin="miter"/><path d="M750.56112,397.60935v-25.8109h7.1562v10.8391h-5.6918v14.9718zM752.02552,380.93905h4.26347v-2.8719h-4.26347zM752.02552,376.42655h4.26347v-2.72341h-4.26347zM754.73219,394.62035v-10.1657h7.60172v10.1657zM756.12318,392.89215h4.82037v-2.5203h-4.82037zM756.12318,388.70315h4.82037v-2.4328h-4.82037zM759.164,382.63755v-10.8391h7.34162v21.7969c0,1.7187 -0.1234,2.783 -0.37085,3.1929c-0.24681,0.4099 -0.87775,0.6149 -1.89157,0.6149c-0.34617,0 -1.00116,-0.0292 -1.96435,-0.0875l-0.24175,-2.1969c0.98913,0.0979 1.69665,0.1469 2.12319,0.1469c0.42654,0 0.67967,-0.0781 0.76005,-0.2344c0.07974,-0.1562 0.12024,-0.6547 0.12024,-1.4953v-10.8984zM760.57271,380.93905h4.46788v-2.8719h-4.46788zM760.57271,376.42655h4.46788v-2.72341h-4.46788z" fill="#000000" stroke="none" stroke-width="1" stroke-linejoin="miter"/></g></g></svg>