<?xml version="1.0" encoding="utf-8" standalone="no"?>
<!DOCTYPE svg PUBLIC "-//W3C//DTD SVG 1.1//EN"
"http://www.w3.org/Graphics/SVG/1.1/DTD/svg11.dtd">

<svg xmlns="http://www.w3.org/2000/svg" version="1.1" xmlns:xlink="http://www.w3.org/1999/xlink" width="43.6978" height="43.7001" viewBox="0 0 43.6978 43.7001"><path stroke="#ffffff" stroke-width="8" stroke-linejoin="round" fill="#ffffff" d="M 39.6978 10.6 L 39.6978 7.60001 L 23.1791 7.60001 L 23.1791 4 L 19.5791 4 L 19.5791 14.9 L 6.17907 14.9 L 6.17907 28.9 L 37.4791 28.9 L 37.4791 14.9 L 23.1791 14.9 L 23.1791 10.6 Z M 39.6978 39.7001 L 36.2132 31.3819 L 32.9606 31.3819 L 36.4902 39.7001 Z M 29.4872 39.7001 L 27.3313 31.5 L 24.1373 31.5 L 26.2932 39.7001 Z M 19.853 39.7001 L 18.3491 31.5 L 15.3337 31.5 L 16.6033 39.7001 Z M 10.771 31.5 L 7.4846 31.5 C 6.93074 34.2334 5.70364 37.1252 4 39.7001 L 7.52416 39.7001 C 8.75056 37.6798 10.1758 34.3919 10.771 31.5 Z M 33.8791 25.7 L 9.77907 25.7 L 9.77907 18 L 33.8791 18 Z" /><path fill="#000000" d="M 39.6978 10.6 L 39.6978 7.60001 L 23.1791 7.60001 L 23.1791 4 L 19.5791 4 L 19.5791 14.9 L 6.17907 14.9 L 6.17907 28.9 L 37.4791 28.9 L 37.4791 14.9 L 23.1791 14.9 L 23.1791 10.6 Z M 39.6978 39.7001 L 36.2132 31.3819 L 32.9606 31.3819 L 36.4902 39.7001 Z M 29.4872 39.7001 L 27.3313 31.5 L 24.1373 31.5 L 26.2932 39.7001 Z M 19.853 39.7001 L 18.3491 31.5 L 15.3337 31.5 L 16.6033 39.7001 Z M 10.771 31.5 L 7.4846 31.5 C 6.93074 34.2334 5.70364 37.1252 4 39.7001 L 7.52416 39.7001 C 8.75056 37.6798 10.1758 34.3919 10.771 31.5 Z M 33.8791 25.7 L 9.77907 25.7 L 9.77907 18 L 33.8791 18 Z" /></svg>