<?xml version="1.0" encoding="utf-8" standalone="no"?>
<!DOCTYPE svg PUBLIC "-//W3C//DTD SVG 1.1//EN"
"http://www.w3.org/Graphics/SVG/1.1/DTD/svg11.dtd">

<svg xmlns="http://www.w3.org/2000/svg" version="1.1" xmlns:xlink="http://www.w3.org/1999/xlink" width="75.8719" height="32.9031" viewBox="0 0 75.8719 32.9031"><path stroke="#ffffff" stroke-width="8" stroke-linejoin="round" fill="#ffffff" d="M 4 18.4141 L 4 14.5469 L 20.8469 14.5469 L 20.8469 18.4141 Z" /><path stroke="#ffffff" stroke-width="8" stroke-linejoin="round" fill="#ffffff" d="M 24.7578 27.3797 L 24.7578 23.0437 C 26.437 24.0594 28.3313 24.5672 30.4406 24.5672 C 32.0427 24.5672 33.2586 24.2352 34.0883 23.5711 C 34.918 22.907 35.3328 21.9891 35.3328 20.8172 C 35.3328 18.4536 33.8292 17.2719 30.8219 17.2719 C 29.2594 17.2719 27.5896 17.6917 25.8125 18.5313 L 25.8125 4.64531 L 38.4969 4.64531 L 38.4969 8.48281 L 30.2359 8.48281 L 30.2359 13.5219 C 30.9193 13.4052 31.6026 13.3469 32.2859 13.3469 C 34.7078 13.3469 36.5977 14.001 37.9555 15.3094 C 39.3133 16.6177 39.9922 18.4388 39.9922 20.7727 C 39.9922 23.1065 39.1914 25.006 37.5898 26.4711 C 35.9883 27.9362 33.7031 28.6687 30.7344 28.6687 C 28.3906 28.6687 26.3984 28.2391 24.7578 27.3797 Z" /><path stroke="#ffffff" stroke-width="8" stroke-linejoin="round" fill="#ffffff" d="M 44.5234 17.1984 C 43.4589 15.8411 42.9266 13.981 42.9266 11.618 C 42.9266 9.25495 43.4589 7.39453 44.5234 6.03672 C 45.588 4.67891 46.9893 4 48.7273 4 C 50.4654 4 51.8667 4.67891 52.9312 6.03672 C 53.9958 7.39453 54.5281 9.25495 54.5281 11.618 C 54.5281 13.981 53.9958 15.8411 52.9312 17.1984 C 51.8667 18.5557 50.4654 19.2344 48.7273 19.2344 C 46.9893 19.2344 45.588 18.5557 44.5234 17.1984 Z M 46.6469 11.5891 C 46.6469 12.9953 46.8375 14.0401 47.2188 14.7234 C 47.6 15.4068 48.1031 15.7484 48.7281 15.7484 C 49.3531 15.7484 49.8609 15.4068 50.2516 14.7234 C 50.6422 14.0401 50.8375 12.9953 50.8375 11.5891 C 50.8375 10.1828 50.6422 9.15234 50.2516 8.49766 C 49.8609 7.84297 49.3531 7.51562 48.7281 7.51562 C 47.3406 7.51562 46.6469 8.87344 46.6469 11.5891 Z M 48.9625 28.9031 L 61.7062 4 L 65.8375 4 L 53.0641 28.9031 Z M 61.8969 26.8531 C 60.8323 25.4854 60.3 23.6198 60.3 21.2563 C 60.3 18.8927 60.8273 17.0469 61.882 15.7188 C 62.9367 14.3906 64.3331 13.7266 66.0711 13.7266 C 67.8091 13.7266 69.2104 14.3906 70.275 15.7188 C 71.3396 17.0469 71.8719 18.8927 71.8719 21.2563 C 71.8719 23.6198 71.3396 25.4852 70.275 26.8523 C 69.2104 28.2195 67.8141 28.9031 66.0859 28.9031 C 64.3578 28.9031 62.9615 28.2198 61.8969 26.8531 Z M 64.5484 18.1953 C 64.1578 18.8495 63.9625 19.8797 63.9625 21.2859 C 63.9625 22.6922 64.1578 23.7323 64.5484 24.4063 C 64.9391 25.0802 65.4469 25.4172 66.0719 25.4172 C 66.6969 25.4172 67.1997 25.0753 67.5805 24.3914 C 67.9612 23.7076 68.1516 22.6625 68.1516 21.2563 C 68.1516 18.5615 67.4583 17.2141 66.0719 17.2141 C 65.4469 17.2141 64.9391 17.5411 64.5484 18.1953 Z" /><path fill="#0c00cc" d="M 4 18.4141 L 4 14.5469 L 20.8469 14.5469 L 20.8469 18.4141 Z" /><path fill="#0c00cc" d="M 24.7578 27.3797 L 24.7578 23.0437 C 26.437 24.0594 28.3313 24.5672 30.4406 24.5672 C 32.0427 24.5672 33.2586 24.2352 34.0883 23.5711 C 34.918 22.907 35.3328 21.9891 35.3328 20.8172 C 35.3328 18.4536 33.8292 17.2719 30.8219 17.2719 C 29.2594 17.2719 27.5896 17.6917 25.8125 18.5313 L 25.8125 4.64531 L 38.4969 4.64531 L 38.4969 8.48281 L 30.2359 8.48281 L 30.2359 13.5219 C 30.9193 13.4052 31.6026 13.3469 32.2859 13.3469 C 34.7078 13.3469 36.5977 14.001 37.9555 15.3094 C 39.3133 16.6177 39.9922 18.4388 39.9922 20.7727 C 39.9922 23.1065 39.1914 25.006 37.5898 26.4711 C 35.9883 27.9362 33.7031 28.6687 30.7344 28.6687 C 28.3906 28.6687 26.3984 28.2391 24.7578 27.3797 Z" /><path fill="#0c00cc" d="M 44.5234 17.1984 C 43.4589 15.8411 42.9266 13.981 42.9266 11.618 C 42.9266 9.25495 43.4589 7.39453 44.5234 6.03672 C 45.588 4.67891 46.9893 4 48.7273 4 C 50.4654 4 51.8667 4.67891 52.9312 6.03672 C 53.9958 7.39453 54.5281 9.25495 54.5281 11.618 C 54.5281 13.981 53.9958 15.8411 52.9312 17.1984 C 51.8667 18.5557 50.4654 19.2344 48.7273 19.2344 C 46.9893 19.2344 45.588 18.5557 44.5234 17.1984 Z M 46.6469 11.5891 C 46.6469 12.9953 46.8375 14.0401 47.2188 14.7234 C 47.6 15.4068 48.1031 15.7484 48.7281 15.7484 C 49.3531 15.7484 49.8609 15.4068 50.2516 14.7234 C 50.6422 14.0401 50.8375 12.9953 50.8375 11.5891 C 50.8375 10.1828 50.6422 9.15234 50.2516 8.49766 C 49.8609 7.84297 49.3531 7.51562 48.7281 7.51562 C 47.3406 7.51562 46.6469 8.87344 46.6469 11.5891 Z M 48.9625 28.9031 L 61.7062 4 L 65.8375 4 L 53.0641 28.9031 Z M 61.8969 26.8531 C 60.8323 25.4854 60.3 23.6198 60.3 21.2563 C 60.3 18.8927 60.8273 17.0469 61.882 15.7188 C 62.9367 14.3906 64.3331 13.7266 66.0711 13.7266 C 67.8091 13.7266 69.2104 14.3906 70.275 15.7188 C 71.3396 17.0469 71.8719 18.8927 71.8719 21.2563 C 71.8719 23.6198 71.3396 25.4852 70.275 26.8523 C 69.2104 28.2195 67.8141 28.9031 66.0859 28.9031 C 64.3578 28.9031 62.9615 28.2198 61.8969 26.8531 Z M 64.5484 18.1953 C 64.1578 18.8495 63.9625 19.8797 63.9625 21.2859 C 63.9625 22.6922 64.1578 23.7323 64.5484 24.4063 C 64.9391 25.0802 65.4469 25.4172 66.0719 25.4172 C 66.6969 25.4172 67.1997 25.0753 67.5805 24.3914 C 67.9612 23.7076 68.1516 22.6625 68.1516 21.2563 C 68.1516 18.5615 67.4583 17.2141 66.0719 17.2141 C 65.4469 17.2141 64.9391 17.5411 64.5484 18.1953 Z" /></svg>