<?xml version="1.0" encoding="utf-8" standalone="no"?>
<!DOCTYPE svg PUBLIC "-//W3C//DTD SVG 1.1//EN"
"http://www.w3.org/Graphics/SVG/1.1/DTD/svg11.dtd">

<svg xmlns="http://www.w3.org/2000/svg" version="1.1" xmlns:xlink="http://www.w3.org/1999/xlink" width="27.3852" height="31.8" viewBox="0 0 27.3852 31.8"><path stroke="#ffffff" stroke-width="6" stroke-linejoin="round" fill="#ffffff" d="M 24.3852 21.4657 L 24.3852 19.5613 C 24.3852 14.5747 21.9628 12 15.2647 12 L 12.406 12 C 9.86502 12 7.70516 12.6759 6.08526 13.7701 L 6.08526 5.7 L 23.6616 5.7 L 23.6616 3 L 3.28526 3 L 3.28526 17.2759 L 6.18055 17.2759 C 7.22872 15.8793 8.84861 14.8 12.406 14.8 L 15.2647 14.8 C 19.9338 14.8 21.5852 16.3871 21.5852 19.5613 L 21.5852 21.4657 C 21.5852 24.7986 19.8067 26.1 15.2647 26.1 L 12.0566 26.1 C 7.99102 26.1 5.82778 25.2112 5.82778 21.9101 L 3 21.9101 C 3 26.9577 5.92434 28.8 11.9296 28.8 L 15.2647 28.8 C 21.4902 28.8 24.3852 26.8306 24.3852 21.4657 Z" /><path fill="#ff8119" d="M 24.3852 21.4657 L 24.3852 19.5613 C 24.3852 14.5747 21.9628 12 15.2647 12 L 12.406 12 C 9.86502 12 7.70516 12.6759 6.08526 13.7701 L 6.08526 5.7 L 23.6616 5.7 L 23.6616 3 L 3.28526 3 L 3.28526 17.2759 L 6.18055 17.2759 C 7.22872 15.8793 8.84861 14.8 12.406 14.8 L 15.2647 14.8 C 19.9338 14.8 21.5852 16.3871 21.5852 19.5613 L 21.5852 21.4657 C 21.5852 24.7986 19.8067 26.1 15.2647 26.1 L 12.0566 26.1 C 7.99102 26.1 5.82778 25.2112 5.82778 21.9101 L 3 21.9101 C 3 26.9577 5.92434 28.8 11.9296 28.8 L 15.2647 28.8 C 21.4902 28.8 24.3852 26.8306 24.3852 21.4657 Z" /></svg>