<?xml version="1.0" encoding="utf-8" standalone="no"?>
<!DOCTYPE svg PUBLIC "-//W3C//DTD SVG 1.1//EN"
"http://www.w3.org/Graphics/SVG/1.1/DTD/svg11.dtd">

<svg xmlns="http://www.w3.org/2000/svg" version="1.1" xmlns:xlink="http://www.w3.org/1999/xlink" width="48.8999" height="56.4998" viewBox="0 0 48.8999 56.4998"><path stroke="#ffffff" stroke-width="8" stroke-linejoin="round" fill="#ffffff" d="M 44.8999 37.5528 L 44.8999 18.0307 C 44.8999 8.09185 38.7488 4 27.393 4 L 21.7448 4 C 8.66208 4 4 9.93371 4 17.4949 L 4 21.4838 C 4 30.4142 8.0046 34.6999 21.6259 34.6999 L 26.9768 34.6999 C 32.5061 34.6999 36.7273 33.3309 39.6999 31.188 L 39.6999 37.3151 C 39.6999 44.2688 36.4895 47.2998 27.4525 47.2998 L 20.9719 47.2998 C 12.5889 47.2998 9.31889 45.398 9.31889 39.217 L 4.11954 39.217 C 4.11954 48.555 8.72185 52.4998 20.9719 52.4998 L 27.4525 52.4998 C 38.8677 52.4998 44.8999 48.1366 44.8999 37.5528 Z M 39.6999 21.4838 C 39.6999 27.6161 34.1114 29.6999 27.0363 29.6999 L 21.6259 29.6999 C 12.5294 29.6999 9.19998 27.6757 9.19998 21.1266 L 9.19998 17.733 C 9.19998 12.4938 13.0051 9.09998 21.7448 9.09998 L 27.393 9.09998 C 35.5383 9.09998 39.6999 11.6603 39.6999 18.2689 Z" /><path fill="#000000" d="M 44.8999 37.5528 L 44.8999 18.0307 C 44.8999 8.09185 38.7488 4 27.393 4 L 21.7448 4 C 8.66208 4 4 9.93371 4 17.4949 L 4 21.4838 C 4 30.4142 8.0046 34.6999 21.6259 34.6999 L 26.9768 34.6999 C 32.5061 34.6999 36.7273 33.3309 39.6999 31.188 L 39.6999 37.3151 C 39.6999 44.2688 36.4895 47.2998 27.4525 47.2998 L 20.9719 47.2998 C 12.5889 47.2998 9.31889 45.398 9.31889 39.217 L 4.11954 39.217 C 4.11954 48.555 8.72185 52.4998 20.9719 52.4998 L 27.4525 52.4998 C 38.8677 52.4998 44.8999 48.1366 44.8999 37.5528 Z M 39.6999 21.4838 C 39.6999 27.6161 34.1114 29.6999 27.0363 29.6999 L 21.6259 29.6999 C 12.5294 29.6999 9.19998 27.6757 9.19998 21.1266 L 9.19998 17.733 C 9.19998 12.4938 13.0051 9.09998 21.7448 9.09998 L 27.393 9.09998 C 35.5383 9.09998 39.6999 11.6603 39.6999 18.2689 Z" /></svg>