<?xml version="1.0" encoding="utf-8" standalone="no"?>
<!DOCTYPE svg PUBLIC "-//W3C//DTD SVG 1.1//EN"
"http://www.w3.org/Graphics/SVG/1.1/DTD/svg11.dtd">

<svg xmlns="http://www.w3.org/2000/svg" version="1.1" xmlns:xlink="http://www.w3.org/1999/xlink" width="387.361" height="54.5187" viewBox="0 0 387.361 54.5187"><path stroke="#ffffff" stroke-width="8" stroke-linejoin="round" fill="#ffffff" d="M 5.42344 30.9688 C 4.47448 30.0844 4 28.9708 4 27.6281 C 4 26.2854 4.44193 25.1391 5.32578 24.1891 C 6.20964 23.2391 7.32292 22.7641 8.66563 22.7641 C 10.0083 22.7641 11.1544 23.2062 12.1039 24.0906 C 13.0534 24.975 13.5281 26.0885 13.5281 27.4312 C 13.5281 28.774 13.0862 29.9201 12.2023 30.8695 C 11.3185 31.819 10.2052 32.2938 8.8625 32.2938 C 7.51979 32.2938 6.37344 31.8521 5.42344 30.9688 Z" /><path stroke="#ffffff" stroke-width="8" stroke-linejoin="round" fill="#ffffff" d="M 35.4375 45.1641 C 38.3187 41.1036 41.0201 35.7003 43.5414 28.9539 C 46.0628 22.2076 47.5203 16.1328 47.9141 10.7297 L 52.0891 11.2219 C 51.7286 16.625 50.3451 22.6667 47.9383 29.3469 C 45.5315 36.0271 42.7234 42.0526 39.5141 47.4234 Z M 63.5828 9.84531 L 67.4141 8.61719 C 70.263 13.5953 73.1039 19.8667 75.9367 27.4312 C 78.7695 34.9958 80.5297 41.3161 81.2172 46.3922 L 76.8453 47.375 C 76.3214 42.8552 74.6677 36.7721 71.8844 29.1258 C 69.101 21.4794 66.3339 15.0526 63.5828 9.84531 Z" /><path stroke="#ffffff" stroke-width="8" stroke-linejoin="round" fill="#ffffff" d="M 88.7828 29.9859 C 104.239 25.0411 116.061 17.2469 124.248 6.60312 L 127.244 9.25625 C 123.347 14.2667 118.795 18.6385 113.589 22.3719 L 113.981 49.9781 L 109.806 49.9781 L 109.364 25.2203 C 103.764 28.7245 97.575 31.5406 90.7969 33.6688 Z" /><path stroke="#ffffff" stroke-width="8" stroke-linejoin="round" fill="#ffffff" d="M 140.114 44.8203 C 147.646 42.1349 154.098 38.0005 159.468 32.4172 C 164.838 26.8339 168.391 20.5547 170.127 13.5797 L 143.405 13.5797 L 143.405 9.65 L 175.383 9.65 C 174.303 17.05 171.372 23.9266 166.591 30.2797 C 171.436 34.3078 176.397 39.3182 181.473 45.3109 L 177.938 48.1609 C 176.366 45.9995 174.27 43.5352 171.65 40.768 C 169.03 38.0008 166.492 35.5365 164.036 33.375 C 158.404 39.7604 151.396 44.787 143.012 48.4547 Z" /><path stroke="#ffffff" stroke-width="8" stroke-linejoin="round" fill="#ffffff" d="M 191.789 45.5563 L 191.789 41.725 L 224.455 41.725 L 224.455 14.7578 L 192.231 14.7578 L 192.231 10.975 L 228.531 10.975 L 228.531 47.4719 L 224.455 47.4719 L 224.455 45.5563 Z" /><path stroke="#ffffff" stroke-width="8" stroke-linejoin="round" fill="#ffffff" d="M 239.977 12.7937 L 239.977 9.01094 L 281.288 9.01094 C 281.288 18.3766 276.965 25.7938 268.32 31.2625 L 265.619 27.9719 C 268.631 26.4979 271.202 24.3365 273.33 21.4875 C 275.459 18.6385 276.638 15.7406 276.867 12.7937 Z M 243.219 45.8031 C 248.753 43.8708 252.642 40.9807 254.885 37.1328 C 257.128 33.2849 258.25 27.5948 258.25 20.0625 L 258.25 18.1469 L 262.523 18.1469 L 262.523 19.8672 C 262.523 27.988 261.32 34.1935 258.913 38.4836 C 256.507 42.7737 252.241 46.3266 246.117 49.1422 Z" /><path stroke="#ffffff" stroke-width="8" stroke-linejoin="round" fill="#ffffff" d="M 286.053 28.6094 C 290.801 22.0927 294.108 14.3646 295.975 5.425 L 299.659 6.1125 C 298.841 10.5333 297.645 14.6432 296.073 18.4422 L 296.073 50.5187 L 292.192 50.5187 L 292.192 25.7125 C 290.719 28.4625 289.18 30.8365 287.575 32.8344 Z M 298.284 44.8688 C 304.407 40.6448 309.09 36.0766 312.333 31.1641 L 299.758 31.1641 L 299.758 27.8734 L 314.347 27.8734 L 314.347 23.6 L 302.263 23.6 L 302.263 6.99687 L 330.852 6.99687 L 330.852 23.6 L 318.277 23.6 L 318.277 27.8734 L 333.111 27.8734 L 333.111 31.1641 L 320.291 31.1641 C 323.5 36.0766 328.133 40.6615 334.191 44.9188 L 332.472 48.1609 C 326.316 43.7068 321.584 38.8927 318.277 33.7188 L 318.277 50.3219 L 314.347 50.3219 L 314.347 33.9641 C 310.875 39.1057 306.159 43.8214 300.2 48.1109 Z M 306.144 20.4063 L 327.02 20.4063 L 327.02 10.2875 L 306.144 10.2875 Z" /><path stroke="#ffffff" stroke-width="8" stroke-linejoin="round" fill="#ffffff" d="M 337.384 29.0516 C 339.807 27.4141 342.067 25.5969 344.163 23.6 L 344.163 19.7188 L 347.798 19.7188 C 349.795 17.3615 351.515 14.938 352.956 12.4484 L 338.906 12.4484 L 338.906 9.01094 L 354.773 9.01094 C 355.461 7.63489 356.132 5.96458 356.788 4 L 360.619 4.54062 C 360.095 6.14479 359.538 7.63489 358.948 9.01094 L 382.822 9.01094 L 382.822 12.4484 L 357.278 12.4484 C 354.953 16.8703 351.908 21.0786 348.142 25.0734 L 348.142 50.175 L 344.163 50.175 L 344.163 28.3156 C 342.264 30.149 340.479 31.6552 338.809 32.8344 Z M 351.138 35.1922 L 351.138 31.8031 L 367.495 31.8031 L 367.495 27.1859 L 369.313 27.1859 C 372.26 25.3193 374.847 23.387 377.073 21.3891 L 355.853 21.3891 L 355.853 18.0984 L 381.839 18.0984 L 381.839 21.3891 C 378.695 24.5005 375.224 27.3167 371.425 29.8375 L 371.425 31.8031 L 383.361 31.8031 L 383.361 35.1922 L 371.425 35.1922 L 371.425 44.8688 C 371.425 46.9979 371.114 48.3161 370.491 48.8234 C 369.869 49.3307 368.248 49.5844 365.628 49.5844 C 364.711 49.5844 362.698 49.5026 359.587 49.3391 L 359.439 45.9984 C 362.453 46.162 364.451 46.2438 365.433 46.2438 C 366.415 46.2438 367.004 46.1375 367.201 45.925 C 367.397 45.7125 367.495 45.0823 367.495 44.0344 L 367.495 35.1922 Z" /><path fill="#000000" d="M 5.42344 30.9688 C 4.47448 30.0844 4 28.9708 4 27.6281 C 4 26.2854 4.44193 25.1391 5.32578 24.1891 C 6.20964 23.2391 7.32292 22.7641 8.66563 22.7641 C 10.0083 22.7641 11.1544 23.2062 12.1039 24.0906 C 13.0534 24.975 13.5281 26.0885 13.5281 27.4312 C 13.5281 28.774 13.0862 29.9201 12.2023 30.8695 C 11.3185 31.819 10.2052 32.2938 8.8625 32.2938 C 7.51979 32.2938 6.37344 31.8521 5.42344 30.9688 Z" /><path fill="#000000" d="M 35.4375 45.1641 C 38.3187 41.1036 41.0201 35.7003 43.5414 28.9539 C 46.0628 22.2076 47.5203 16.1328 47.9141 10.7297 L 52.0891 11.2219 C 51.7286 16.625 50.3451 22.6667 47.9383 29.3469 C 45.5315 36.0271 42.7234 42.0526 39.5141 47.4234 Z M 63.5828 9.84531 L 67.4141 8.61719 C 70.263 13.5953 73.1039 19.8667 75.9367 27.4312 C 78.7695 34.9958 80.5297 41.3161 81.2172 46.3922 L 76.8453 47.375 C 76.3214 42.8552 74.6677 36.7721 71.8844 29.1258 C 69.101 21.4794 66.3339 15.0526 63.5828 9.84531 Z" /><path fill="#000000" d="M 88.7828 29.9859 C 104.239 25.0411 116.061 17.2469 124.248 6.60312 L 127.244 9.25625 C 123.347 14.2667 118.795 18.6385 113.589 22.3719 L 113.981 49.9781 L 109.806 49.9781 L 109.364 25.2203 C 103.764 28.7245 97.575 31.5406 90.7969 33.6688 Z" /><path fill="#000000" d="M 140.114 44.8203 C 147.646 42.1349 154.098 38.0005 159.468 32.4172 C 164.838 26.8339 168.391 20.5547 170.127 13.5797 L 143.405 13.5797 L 143.405 9.65 L 175.383 9.65 C 174.303 17.05 171.372 23.9266 166.591 30.2797 C 171.436 34.3078 176.397 39.3182 181.473 45.3109 L 177.938 48.1609 C 176.366 45.9995 174.27 43.5352 171.65 40.768 C 169.03 38.0008 166.492 35.5365 164.036 33.375 C 158.404 39.7604 151.396 44.787 143.012 48.4547 Z" /><path fill="#000000" d="M 191.789 45.5563 L 191.789 41.725 L 224.455 41.725 L 224.455 14.7578 L 192.231 14.7578 L 192.231 10.975 L 228.531 10.975 L 228.531 47.4719 L 224.455 47.4719 L 224.455 45.5563 Z" /><path fill="#000000" d="M 239.977 12.7937 L 239.977 9.01094 L 281.288 9.01094 C 281.288 18.3766 276.965 25.7938 268.32 31.2625 L 265.619 27.9719 C 268.631 26.4979 271.202 24.3365 273.33 21.4875 C 275.459 18.6385 276.638 15.7406 276.867 12.7937 Z M 243.219 45.8031 C 248.753 43.8708 252.642 40.9807 254.885 37.1328 C 257.128 33.2849 258.25 27.5948 258.25 20.0625 L 258.25 18.1469 L 262.523 18.1469 L 262.523 19.8672 C 262.523 27.988 261.32 34.1935 258.913 38.4836 C 256.507 42.7737 252.241 46.3266 246.117 49.1422 Z" /><path fill="#000000" d="M 286.053 28.6094 C 290.801 22.0927 294.108 14.3646 295.975 5.425 L 299.659 6.1125 C 298.841 10.5333 297.645 14.6432 296.073 18.4422 L 296.073 50.5187 L 292.192 50.5187 L 292.192 25.7125 C 290.719 28.4625 289.18 30.8365 287.575 32.8344 Z M 298.284 44.8688 C 304.407 40.6448 309.09 36.0766 312.333 31.1641 L 299.758 31.1641 L 299.758 27.8734 L 314.347 27.8734 L 314.347 23.6 L 302.263 23.6 L 302.263 6.99687 L 330.852 6.99687 L 330.852 23.6 L 318.277 23.6 L 318.277 27.8734 L 333.111 27.8734 L 333.111 31.1641 L 320.291 31.1641 C 323.5 36.0766 328.133 40.6615 334.191 44.9188 L 332.472 48.1609 C 326.316 43.7068 321.584 38.8927 318.277 33.7188 L 318.277 50.3219 L 314.347 50.3219 L 314.347 33.9641 C 310.875 39.1057 306.159 43.8214 300.2 48.1109 Z M 306.144 20.4063 L 327.02 20.4063 L 327.02 10.2875 L 306.144 10.2875 Z" /><path fill="#000000" d="M 337.384 29.0516 C 339.807 27.4141 342.067 25.5969 344.163 23.6 L 344.163 19.7188 L 347.798 19.7188 C 349.795 17.3615 351.515 14.938 352.956 12.4484 L 338.906 12.4484 L 338.906 9.01094 L 354.773 9.01094 C 355.461 7.63489 356.132 5.96458 356.788 4 L 360.619 4.54062 C 360.095 6.14479 359.538 7.63489 358.948 9.01094 L 382.822 9.01094 L 382.822 12.4484 L 357.278 12.4484 C 354.953 16.8703 351.908 21.0786 348.142 25.0734 L 348.142 50.175 L 344.163 50.175 L 344.163 28.3156 C 342.264 30.149 340.479 31.6552 338.809 32.8344 Z M 351.138 35.1922 L 351.138 31.8031 L 367.495 31.8031 L 367.495 27.1859 L 369.313 27.1859 C 372.26 25.3193 374.847 23.387 377.073 21.3891 L 355.853 21.3891 L 355.853 18.0984 L 381.839 18.0984 L 381.839 21.3891 C 378.695 24.5005 375.224 27.3167 371.425 29.8375 L 371.425 31.8031 L 383.361 31.8031 L 383.361 35.1922 L 371.425 35.1922 L 371.425 44.8688 C 371.425 46.9979 371.114 48.3161 370.491 48.8234 C 369.869 49.3307 368.248 49.5844 365.628 49.5844 C 364.711 49.5844 362.698 49.5026 359.587 49.3391 L 359.439 45.9984 C 362.453 46.162 364.451 46.2438 365.433 46.2438 C 366.415 46.2438 367.004 46.1375 367.201 45.925 C 367.397 45.7125 367.495 45.0823 367.495 44.0344 L 367.495 35.1922 Z" /></svg>