<?xml version="1.0" encoding="utf-8" standalone="no"?>
<!DOCTYPE svg PUBLIC "-//W3C//DTD SVG 1.1//EN"
"http://www.w3.org/Graphics/SVG/1.1/DTD/svg11.dtd">

<svg xmlns="http://www.w3.org/2000/svg" version="1.1" xmlns:xlink="http://www.w3.org/1999/xlink" width="156.008" height="35.3922" viewBox="0 0 156.008 35.3922"><path stroke="#ffffff" stroke-width="8" stroke-linejoin="round" fill="#ffffff" d="M 4 29.2234 C 6.67604 25.7078 8.01406 20.1219 8.01406 12.4656 L 8.01406 4.84844 L 10.0938 4.84844 L 10.0938 12.4656 C 10.0938 13.0719 10.0745 13.9411 10.0359 15.0734 C 10.8172 12.9839 11.4615 10.6208 11.9688 7.98438 L 13.6391 8.39375 L 13.6391 5.1125 L 30.7484 5.1125 L 30.7484 13.4031 L 26.9391 13.4031 L 26.9391 15.0437 L 31.6563 15.0437 L 31.6563 16.7437 L 26.9391 16.7437 L 26.9391 18.4422 L 32.3891 18.4422 L 32.3891 20.2594 L 27.2906 20.2594 C 28.8531 21.8417 30.6891 23.1109 32.7984 24.0672 L 31.95 25.9141 C 30.4458 25.2297 29.0005 24.3115 27.6141 23.1594 C 27.0078 23.7844 26.2068 24.4974 25.2109 25.2984 L 23.8641 23.8328 C 24.6839 23.1891 25.4453 22.5156 26.1484 21.8125 C 25.6797 21.3438 25.2401 20.826 24.8297 20.2594 L 19.3813 20.2594 C 19.0688 20.6885 18.6193 21.2156 18.0328 21.8406 C 18.8734 22.6812 19.5375 23.4042 20.025 24.0094 L 18.5016 25.3281 C 17.838 24.5073 17.1938 23.7844 16.5688 23.1594 C 15.3385 24.175 14.1276 24.976 12.9359 25.5625 C 13.1703 26.0115 13.3948 26.4604 13.6094 26.9094 L 11.9984 28.0813 C 11.2557 26.5188 10.2792 24.712 9.06875 22.6609 C 8.30729 26.0797 7.10625 28.824 5.46562 30.8938 Z M 4.11719 18.7938 C 4.7224 15.8844 5.025 12.5547 5.025 8.80469 L 6.92969 8.95 C 6.92969 13.0323 6.59792 16.4995 5.93437 19.3516 Z M 9.59531 19.7313 C 10.4547 21.099 11.2557 22.4469 11.9984 23.775 C 13.8536 22.876 15.5042 21.7042 16.95 20.2594 L 11.8516 20.2594 L 11.8516 18.4422 L 17.2422 18.4422 L 17.2422 16.7437 L 12.7594 16.7437 L 12.7594 15.0437 L 17.2422 15.0437 L 17.2422 13.4031 L 13.6391 13.4031 L 13.6391 8.89219 C 12.9557 12.3297 12.0182 15.3375 10.8266 17.9156 L 9.85938 17.4766 C 9.80104 18.238 9.71302 18.9896 9.59531 19.7313 Z M 12.2328 29.3125 C 14.7328 28.3938 17.0958 27.0557 19.3219 25.2984 L 20.3188 26.8219 C 17.9354 28.7552 15.5234 30.1615 13.0828 31.0406 Z M 15.9531 11.7344 L 28.4344 11.7344 L 28.4344 10.0047 L 15.9531 10.0047 Z M 15.9531 8.57031 L 28.4344 8.57031 L 28.4344 6.84063 L 15.9531 6.84063 Z M 17.4469 29.2531 L 20.2016 29.4297 C 20.5922 29.4297 20.8216 29.3953 20.8898 29.3266 C 20.9581 29.2578 20.9922 29.0281 20.9922 28.6375 L 20.9922 20.9625 L 23.1609 20.9625 L 23.1609 28.3156 C 23.1609 29.7219 23.0193 30.5862 22.7359 30.9086 C 22.4526 31.231 21.6958 31.3922 20.4656 31.3922 C 20.1135 31.3922 19.137 31.3432 17.5359 31.2453 Z M 19.4984 18.4422 L 24.6844 18.4422 L 24.6844 16.7437 L 19.4984 16.7437 Z M 19.4984 15.0437 L 24.6844 15.0437 L 24.6844 13.4031 L 19.4984 13.4031 Z M 23.6 27.1141 L 24.5375 25.4156 C 26.8417 26.3333 29.2047 27.7297 31.6266 29.6047 L 30.6016 31.2453 C 28.3161 29.488 25.9823 28.1109 23.6 27.1141 Z" /><path stroke="#ffffff" stroke-width="8" stroke-linejoin="round" fill="#ffffff" d="M 34.5562 23.1891 C 34.9667 19.5557 35.2698 15.962 35.4656 12.4078 L 40.8563 12.4078 L 40.8563 7.54375 L 34.8797 7.54375 L 34.8797 5.55156 L 43.1109 5.55156 L 43.1109 14.3406 L 37.6031 14.3406 C 37.4865 16.1187 37.3693 17.7203 37.2516 19.1453 L 42.7594 19.1453 L 42.7016 20.4641 C 42.5057 23.7849 42.3005 26.1531 42.0859 27.5688 C 41.8714 28.9844 41.6128 29.8875 41.3102 30.2781 C 41.0076 30.6687 40.4508 30.8641 39.6398 30.8641 C 38.8289 30.8641 37.3203 30.7766 35.1141 30.6016 L 35.1141 28.55 C 36.8714 28.726 37.9893 28.8141 38.468 28.8141 C 38.9466 28.8141 39.2396 28.7799 39.3469 28.7117 C 39.4542 28.6435 39.5909 28.2919 39.757 27.657 C 39.9232 27.0221 40.1135 24.8396 40.3281 21.1094 L 37.0766 21.1094 C 37.0182 21.6167 36.9302 22.3589 36.8125 23.3359 Z M 43.5797 26.5875 L 43.5797 24.625 L 51.7547 24.625 L 51.7547 21.6359 L 44.6344 21.6359 L 44.6344 9.24375 L 46.5094 9.24375 C 45.7094 7.42708 45.026 6.03073 44.4594 5.05469 L 46.4516 4.29219 C 47.3307 5.87448 48.1312 7.525 48.8531 9.24375 L 52.3984 9.24375 C 51.6755 7.56354 50.9625 6.06927 50.2594 4.76094 L 52.2234 4 C 53.0432 5.46458 53.8536 7.2125 54.6547 9.24375 L 56.6766 9.24375 C 57.4766 7.99375 58.375 6.2849 59.3719 4.11719 L 61.4516 4.76094 C 60.8266 6.16719 60.0453 7.66146 59.1078 9.24375 L 61.2469 9.24375 L 61.2469 21.6359 L 54.0984 21.6359 L 54.0984 24.625 L 62.2422 24.625 L 62.2422 26.5875 L 54.0984 26.5875 L 54.0984 31.3625 L 51.7547 31.3625 L 51.7547 26.5875 Z M 46.8031 19.7609 L 51.7547 19.7609 L 51.7547 16.3047 L 46.8031 16.3047 Z M 46.8031 14.5172 L 51.7547 14.5172 L 51.7547 11.2063 L 46.8031 11.2063 Z M 54.0984 19.7609 L 59.0484 19.7609 L 59.0484 16.3047 L 54.0984 16.3047 Z M 54.0984 14.5172 L 59.0484 14.5172 L 59.0484 11.2063 L 54.0984 11.2063 Z" /><path stroke="#ffffff" stroke-width="8" stroke-linejoin="round" fill="#ffffff" d="M 66.3734 31.2453 L 66.3734 19.0578 L 68.6875 19.0578 L 68.6875 27.3203 L 77.0953 27.3203 L 77.0953 16.6563 L 67.8094 16.6563 L 67.8094 6.95781 L 70.0938 6.95781 L 70.0938 14.6641 L 77.0953 14.6641 L 77.0953 4.35156 L 79.4984 4.35156 L 79.4984 14.6641 L 86.5 14.6641 L 86.5 6.95781 L 88.7859 6.95781 L 88.7859 16.6563 L 79.4984 16.6563 L 79.4984 27.3203 L 87.9063 27.3203 L 87.9063 19.0578 L 90.2203 19.0578 L 90.2203 31.2453 L 87.9063 31.2453 L 87.9063 29.3406 L 68.6875 29.3406 L 68.6875 31.2453 Z" /><path stroke="#ffffff" stroke-width="8" stroke-linejoin="round" fill="#ffffff" d="M 94.3516 26.6172 C 95.6797 26.2849 96.9589 25.9333 98.1891 25.5625 L 98.1891 17.2125 L 94.7328 17.2125 L 94.7328 15.1609 L 98.1891 15.1609 L 98.1891 8.10156 L 94.4391 8.10156 L 94.4391 6.02031 L 104.048 6.02031 L 104.048 8.10156 L 100.505 8.10156 L 100.505 15.1609 L 103.844 15.1609 L 103.844 17.2125 L 100.505 17.2125 L 100.505 24.8594 C 101.637 24.4875 102.877 24.0479 104.225 23.5406 L 104.517 25.5031 C 101.646 26.6167 98.3557 27.6714 94.6453 28.6672 Z M 101.178 29.1953 C 105.964 27.9255 108.581 25.65 109.03 22.3687 L 105.045 22.3687 L 105.045 5.40625 L 120.514 5.40625 L 120.514 22.3687 L 115.797 22.3687 L 115.797 27.6422 C 115.797 28.0911 115.846 28.3888 115.944 28.5352 C 116.042 28.6815 116.466 28.7547 117.218 28.7547 C 117.97 28.7547 118.438 28.7451 118.624 28.7258 C 118.81 28.7065 118.937 28.6919 119.005 28.682 C 119.074 28.6721 119.157 28.6526 119.254 28.6234 C 119.351 28.5943 119.42 28.5456 119.459 28.4773 C 119.498 28.4091 119.552 28.326 119.62 28.2281 C 119.689 28.1302 119.733 27.9836 119.752 27.7883 C 119.772 27.593 119.811 27.344 119.87 27.0414 C 119.928 26.7388 119.987 25.6109 120.045 23.6578 L 122.242 23.8625 C 122.144 26.1677 122.012 27.7305 121.847 28.5508 C 121.681 29.3711 121.462 29.8836 121.188 30.0883 C 120.915 30.293 120.48 30.4833 119.884 30.6594 C 119.289 30.8354 117.975 30.8552 115.944 30.7188 C 114.908 30.699 114.239 30.5573 113.937 30.2937 C 113.634 30.0302 113.483 29.488 113.483 28.6672 L 113.483 22.3687 L 111.256 22.3687 C 111.06 24.4979 110.172 26.3143 108.59 27.818 C 107.008 29.3216 104.811 30.4448 101.998 31.1875 Z M 107.302 20.3469 L 118.2 20.3469 L 118.2 17.1531 L 107.302 17.1531 Z M 107.302 15.3375 L 118.2 15.3375 L 118.2 12.2609 L 107.302 12.2609 Z M 107.302 10.4453 L 118.2 10.4453 L 118.2 7.39844 L 107.302 7.39844 Z" /><path stroke="#ffffff" stroke-width="8" stroke-linejoin="round" fill="#ffffff" d="M 124.586 24.4188 L 124.586 22.4563 L 137.095 22.4563 L 137.095 20.2594 L 131.061 20.5813 L 130.944 18.7063 L 133.814 18.5594 C 134.166 18.2469 134.694 17.7589 135.397 17.0953 C 133.522 14.8682 131.979 13.1203 130.767 11.8516 L 132.408 10.5031 C 132.506 10.601 132.994 11.138 133.873 12.1141 C 134.869 11.0797 135.856 9.9276 136.833 8.65781 L 125.025 8.65781 L 125.025 6.75313 L 137.095 6.75313 L 137.095 4.23438 L 139.498 4.23438 L 139.498 6.75313 L 151.569 6.75313 L 151.569 8.65781 L 139.556 8.65781 C 138.326 10.2786 136.891 11.9484 135.25 13.6672 C 136.031 14.5661 136.588 15.2203 136.92 15.6297 C 138.854 13.6964 140.621 11.7141 142.223 9.68281 L 144.244 10.5906 C 142.038 13.3448 139.616 15.9427 136.978 18.3844 L 142.575 18.0906 C 142.125 17.2313 141.548 16.3135 140.845 15.3375 L 142.633 14.5469 C 144.059 16.5969 145.202 18.7255 146.061 20.9328 L 144.216 21.5484 C 143.942 20.9036 143.707 20.3667 143.512 19.9375 L 139.498 20.1422 L 139.498 22.4563 L 152.008 22.4563 L 152.008 24.4188 L 139.498 24.4188 L 139.498 31.3922 L 137.095 31.3922 L 137.095 24.4188 Z M 124.791 19.3219 C 127.154 18.2083 129.137 17.0464 130.739 15.8359 L 131.734 17.4469 C 130.055 18.775 128.053 19.9958 125.728 21.1094 Z M 125.553 10.825 L 126.9 9.33125 C 128.853 10.8552 130.386 12.2323 131.5 13.4625 L 130.064 14.8094 C 128.854 13.501 127.35 12.1729 125.553 10.825 Z M 144.802 17.4766 L 145.827 15.8063 C 148.248 16.9781 150.251 18.15 151.833 19.3219 L 150.719 21.05 C 149.078 19.8198 147.106 18.6286 144.802 17.4766 Z M 145.094 13.4328 C 146.813 12.1047 148.326 10.7474 149.634 9.36094 L 151.07 10.7375 C 149.782 12.1438 148.268 13.501 146.53 14.8094 Z" /><path fill="#000000" d="M 4 29.2234 C 6.67604 25.7078 8.01406 20.1219 8.01406 12.4656 L 8.01406 4.84844 L 10.0938 4.84844 L 10.0938 12.4656 C 10.0938 13.0719 10.0745 13.9411 10.0359 15.0734 C 10.8172 12.9839 11.4615 10.6208 11.9688 7.98438 L 13.6391 8.39375 L 13.6391 5.1125 L 30.7484 5.1125 L 30.7484 13.4031 L 26.9391 13.4031 L 26.9391 15.0437 L 31.6563 15.0437 L 31.6563 16.7437 L 26.9391 16.7437 L 26.9391 18.4422 L 32.3891 18.4422 L 32.3891 20.2594 L 27.2906 20.2594 C 28.8531 21.8417 30.6891 23.1109 32.7984 24.0672 L 31.95 25.9141 C 30.4458 25.2297 29.0005 24.3115 27.6141 23.1594 C 27.0078 23.7844 26.2068 24.4974 25.2109 25.2984 L 23.8641 23.8328 C 24.6839 23.1891 25.4453 22.5156 26.1484 21.8125 C 25.6797 21.3438 25.2401 20.826 24.8297 20.2594 L 19.3813 20.2594 C 19.0688 20.6885 18.6193 21.2156 18.0328 21.8406 C 18.8734 22.6812 19.5375 23.4042 20.025 24.0094 L 18.5016 25.3281 C 17.838 24.5073 17.1938 23.7844 16.5688 23.1594 C 15.3385 24.175 14.1276 24.976 12.9359 25.5625 C 13.1703 26.0115 13.3948 26.4604 13.6094 26.9094 L 11.9984 28.0813 C 11.2557 26.5188 10.2792 24.712 9.06875 22.6609 C 8.30729 26.0797 7.10625 28.824 5.46562 30.8938 Z M 4.11719 18.7938 C 4.7224 15.8844 5.025 12.5547 5.025 8.80469 L 6.92969 8.95 C 6.92969 13.0323 6.59792 16.4995 5.93437 19.3516 Z M 9.59531 19.7313 C 10.4547 21.099 11.2557 22.4469 11.9984 23.775 C 13.8536 22.876 15.5042 21.7042 16.95 20.2594 L 11.8516 20.2594 L 11.8516 18.4422 L 17.2422 18.4422 L 17.2422 16.7437 L 12.7594 16.7437 L 12.7594 15.0437 L 17.2422 15.0437 L 17.2422 13.4031 L 13.6391 13.4031 L 13.6391 8.89219 C 12.9557 12.3297 12.0182 15.3375 10.8266 17.9156 L 9.85938 17.4766 C 9.80104 18.238 9.71302 18.9896 9.59531 19.7313 Z M 12.2328 29.3125 C 14.7328 28.3938 17.0958 27.0557 19.3219 25.2984 L 20.3188 26.8219 C 17.9354 28.7552 15.5234 30.1615 13.0828 31.0406 Z M 15.9531 11.7344 L 28.4344 11.7344 L 28.4344 10.0047 L 15.9531 10.0047 Z M 15.9531 8.57031 L 28.4344 8.57031 L 28.4344 6.84063 L 15.9531 6.84063 Z M 17.4469 29.2531 L 20.2016 29.4297 C 20.5922 29.4297 20.8216 29.3953 20.8898 29.3266 C 20.9581 29.2578 20.9922 29.0281 20.9922 28.6375 L 20.9922 20.9625 L 23.1609 20.9625 L 23.1609 28.3156 C 23.1609 29.7219 23.0193 30.5862 22.7359 30.9086 C 22.4526 31.231 21.6958 31.3922 20.4656 31.3922 C 20.1135 31.3922 19.137 31.3432 17.5359 31.2453 Z M 19.4984 18.4422 L 24.6844 18.4422 L 24.6844 16.7437 L 19.4984 16.7437 Z M 19.4984 15.0437 L 24.6844 15.0437 L 24.6844 13.4031 L 19.4984 13.4031 Z M 23.6 27.1141 L 24.5375 25.4156 C 26.8417 26.3333 29.2047 27.7297 31.6266 29.6047 L 30.6016 31.2453 C 28.3161 29.488 25.9823 28.1109 23.6 27.1141 Z" /><path fill="#000000" d="M 34.5562 23.1891 C 34.9667 19.5557 35.2698 15.962 35.4656 12.4078 L 40.8563 12.4078 L 40.8563 7.54375 L 34.8797 7.54375 L 34.8797 5.55156 L 43.1109 5.55156 L 43.1109 14.3406 L 37.6031 14.3406 C 37.4865 16.1187 37.3693 17.7203 37.2516 19.1453 L 42.7594 19.1453 L 42.7016 20.4641 C 42.5057 23.7849 42.3005 26.1531 42.0859 27.5688 C 41.8714 28.9844 41.6128 29.8875 41.3102 30.2781 C 41.0076 30.6687 40.4508 30.8641 39.6398 30.8641 C 38.8289 30.8641 37.3203 30.7766 35.1141 30.6016 L 35.1141 28.55 C 36.8714 28.726 37.9893 28.8141 38.468 28.8141 C 38.9466 28.8141 39.2396 28.7799 39.3469 28.7117 C 39.4542 28.6435 39.5909 28.2919 39.757 27.657 C 39.9232 27.0221 40.1135 24.8396 40.3281 21.1094 L 37.0766 21.1094 C 37.0182 21.6167 36.9302 22.3589 36.8125 23.3359 Z M 43.5797 26.5875 L 43.5797 24.625 L 51.7547 24.625 L 51.7547 21.6359 L 44.6344 21.6359 L 44.6344 9.24375 L 46.5094 9.24375 C 45.7094 7.42708 45.026 6.03073 44.4594 5.05469 L 46.4516 4.29219 C 47.3307 5.87448 48.1312 7.525 48.8531 9.24375 L 52.3984 9.24375 C 51.6755 7.56354 50.9625 6.06927 50.2594 4.76094 L 52.2234 4 C 53.0432 5.46458 53.8536 7.2125 54.6547 9.24375 L 56.6766 9.24375 C 57.4766 7.99375 58.375 6.2849 59.3719 4.11719 L 61.4516 4.76094 C 60.8266 6.16719 60.0453 7.66146 59.1078 9.24375 L 61.2469 9.24375 L 61.2469 21.6359 L 54.0984 21.6359 L 54.0984 24.625 L 62.2422 24.625 L 62.2422 26.5875 L 54.0984 26.5875 L 54.0984 31.3625 L 51.7547 31.3625 L 51.7547 26.5875 Z M 46.8031 19.7609 L 51.7547 19.7609 L 51.7547 16.3047 L 46.8031 16.3047 Z M 46.8031 14.5172 L 51.7547 14.5172 L 51.7547 11.2063 L 46.8031 11.2063 Z M 54.0984 19.7609 L 59.0484 19.7609 L 59.0484 16.3047 L 54.0984 16.3047 Z M 54.0984 14.5172 L 59.0484 14.5172 L 59.0484 11.2063 L 54.0984 11.2063 Z" /><path fill="#000000" d="M 66.3734 31.2453 L 66.3734 19.0578 L 68.6875 19.0578 L 68.6875 27.3203 L 77.0953 27.3203 L 77.0953 16.6563 L 67.8094 16.6563 L 67.8094 6.95781 L 70.0938 6.95781 L 70.0938 14.6641 L 77.0953 14.6641 L 77.0953 4.35156 L 79.4984 4.35156 L 79.4984 14.6641 L 86.5 14.6641 L 86.5 6.95781 L 88.7859 6.95781 L 88.7859 16.6563 L 79.4984 16.6563 L 79.4984 27.3203 L 87.9063 27.3203 L 87.9063 19.0578 L 90.2203 19.0578 L 90.2203 31.2453 L 87.9063 31.2453 L 87.9063 29.3406 L 68.6875 29.3406 L 68.6875 31.2453 Z" /><path fill="#000000" d="M 94.3516 26.6172 C 95.6797 26.2849 96.9589 25.9333 98.1891 25.5625 L 98.1891 17.2125 L 94.7328 17.2125 L 94.7328 15.1609 L 98.1891 15.1609 L 98.1891 8.10156 L 94.4391 8.10156 L 94.4391 6.02031 L 104.048 6.02031 L 104.048 8.10156 L 100.505 8.10156 L 100.505 15.1609 L 103.844 15.1609 L 103.844 17.2125 L 100.505 17.2125 L 100.505 24.8594 C 101.637 24.4875 102.877 24.0479 104.225 23.5406 L 104.517 25.5031 C 101.646 26.6167 98.3557 27.6714 94.6453 28.6672 Z M 101.178 29.1953 C 105.964 27.9255 108.581 25.65 109.03 22.3687 L 105.045 22.3687 L 105.045 5.40625 L 120.514 5.40625 L 120.514 22.3687 L 115.797 22.3687 L 115.797 27.6422 C 115.797 28.0911 115.846 28.3888 115.944 28.5352 C 116.042 28.6815 116.466 28.7547 117.218 28.7547 C 117.97 28.7547 118.438 28.7451 118.624 28.7258 C 118.81 28.7065 118.937 28.6919 119.005 28.682 C 119.074 28.6721 119.157 28.6526 119.254 28.6234 C 119.351 28.5943 119.42 28.5456 119.459 28.4773 C 119.498 28.4091 119.552 28.326 119.62 28.2281 C 119.689 28.1302 119.733 27.9836 119.752 27.7883 C 119.772 27.593 119.811 27.344 119.87 27.0414 C 119.928 26.7388 119.987 25.6109 120.045 23.6578 L 122.242 23.8625 C 122.144 26.1677 122.012 27.7305 121.847 28.5508 C 121.681 29.3711 121.462 29.8836 121.188 30.0883 C 120.915 30.293 120.48 30.4833 119.884 30.6594 C 119.289 30.8354 117.975 30.8552 115.944 30.7188 C 114.908 30.699 114.239 30.5573 113.937 30.2937 C 113.634 30.0302 113.483 29.488 113.483 28.6672 L 113.483 22.3687 L 111.256 22.3687 C 111.06 24.4979 110.172 26.3143 108.59 27.818 C 107.008 29.3216 104.811 30.4448 101.998 31.1875 Z M 107.302 20.3469 L 118.2 20.3469 L 118.2 17.1531 L 107.302 17.1531 Z M 107.302 15.3375 L 118.2 15.3375 L 118.2 12.2609 L 107.302 12.2609 Z M 107.302 10.4453 L 118.2 10.4453 L 118.2 7.39844 L 107.302 7.39844 Z" /><path fill="#000000" d="M 124.586 24.4188 L 124.586 22.4563 L 137.095 22.4563 L 137.095 20.2594 L 131.061 20.5813 L 130.944 18.7063 L 133.814 18.5594 C 134.166 18.2469 134.694 17.7589 135.397 17.0953 C 133.522 14.8682 131.979 13.1203 130.767 11.8516 L 132.408 10.5031 C 132.506 10.601 132.994 11.138 133.873 12.1141 C 134.869 11.0797 135.856 9.9276 136.833 8.65781 L 125.025 8.65781 L 125.025 6.75313 L 137.095 6.75313 L 137.095 4.23438 L 139.498 4.23438 L 139.498 6.75313 L 151.569 6.75313 L 151.569 8.65781 L 139.556 8.65781 C 138.326 10.2786 136.891 11.9484 135.25 13.6672 C 136.031 14.5661 136.588 15.2203 136.92 15.6297 C 138.854 13.6964 140.621 11.7141 142.223 9.68281 L 144.244 10.5906 C 142.038 13.3448 139.616 15.9427 136.978 18.3844 L 142.575 18.0906 C 142.125 17.2313 141.548 16.3135 140.845 15.3375 L 142.633 14.5469 C 144.059 16.5969 145.202 18.7255 146.061 20.9328 L 144.216 21.5484 C 143.942 20.9036 143.707 20.3667 143.512 19.9375 L 139.498 20.1422 L 139.498 22.4563 L 152.008 22.4563 L 152.008 24.4188 L 139.498 24.4188 L 139.498 31.3922 L 137.095 31.3922 L 137.095 24.4188 Z M 124.791 19.3219 C 127.154 18.2083 129.137 17.0464 130.739 15.8359 L 131.734 17.4469 C 130.055 18.775 128.053 19.9958 125.728 21.1094 Z M 125.553 10.825 L 126.9 9.33125 C 128.853 10.8552 130.386 12.2323 131.5 13.4625 L 130.064 14.8094 C 128.854 13.501 127.35 12.1729 125.553 10.825 Z M 144.802 17.4766 L 145.827 15.8063 C 148.248 16.9781 150.251 18.15 151.833 19.3219 L 150.719 21.05 C 149.078 19.8198 147.106 18.6286 144.802 17.4766 Z M 145.094 13.4328 C 146.813 12.1047 148.326 10.7474 149.634 9.36094 L 151.07 10.7375 C 149.782 12.1438 148.268 13.501 146.53 14.8094 Z" /></svg>