<?xml version="1.0" encoding="utf-8" standalone="no"?>
<!DOCTYPE svg PUBLIC "-//W3C//DTD SVG 1.1//EN"
"http://www.w3.org/Graphics/SVG/1.1/DTD/svg11.dtd">

<svg xmlns="http://www.w3.org/2000/svg" version="1.1" xmlns:xlink="http://www.w3.org/1999/xlink" width="28.1437" height="31.8" viewBox="0 0 28.1437 31.8"><path stroke="#ffffff" stroke-width="6" stroke-linejoin="round" fill="#ffffff" d="M 25.1437 22.2202 L 25.1437 20.7061 C 25.1437 18.4035 24.2628 16.4753 21.9024 15.4161 C 24.0426 14.4531 24.7033 12.7105 24.7033 10.6578 L 24.7033 9.23673 C 24.7033 5.16628 22.501 3 16.1997 3 L 12.0094 3 C 5.69661 3 3.44374 5.10349 3.44374 9.23673 L 3.44374 10.6578 C 3.44374 12.7421 4.15178 14.4852 6.36976 15.4482 C 3.99086 16.5074 3 18.435 3 20.7061 L 3 22.2202 C 3 26.1643 4.98856 28.8 11.6943 28.8 L 16.5148 28.8 C 23.0673 28.8 25.1437 26.2607 25.1437 22.2202 Z M 21.9654 10.4683 C 21.9654 12.9947 20.7997 14.1 16.9874 14.1 L 11.2217 14.1 C 7.37796 14.1 6.24374 12.9631 6.24374 10.4683 L 6.24374 9.42621 C 6.24374 6.74195 7.97658 5.7 12.0094 5.7 L 16.1997 5.7 C 20.201 5.7 21.9654 6.71037 21.9654 9.42621 Z M 22.3437 21.9994 C 22.3437 24.7121 20.8312 26.1 16.5148 26.1 L 11.6943 26.1 C 7.44098 26.1 5.85752 24.7436 5.85752 21.9994 L 5.85752 20.7061 C 5.85752 18.1827 7.5355 16.7 11.1902 16.7 L 17.0504 16.7 C 20.8312 16.7 22.3437 18.1827 22.3437 20.7061 Z" /><path fill="#ff8119" d="M 25.1437 22.2202 L 25.1437 20.7061 C 25.1437 18.4035 24.2628 16.4753 21.9024 15.4161 C 24.0426 14.4531 24.7033 12.7105 24.7033 10.6578 L 24.7033 9.23673 C 24.7033 5.16628 22.501 3 16.1997 3 L 12.0094 3 C 5.69661 3 3.44374 5.10349 3.44374 9.23673 L 3.44374 10.6578 C 3.44374 12.7421 4.15178 14.4852 6.36976 15.4482 C 3.99086 16.5074 3 18.435 3 20.7061 L 3 22.2202 C 3 26.1643 4.98856 28.8 11.6943 28.8 L 16.5148 28.8 C 23.0673 28.8 25.1437 26.2607 25.1437 22.2202 Z M 21.9654 10.4683 C 21.9654 12.9947 20.7997 14.1 16.9874 14.1 L 11.2217 14.1 C 7.37796 14.1 6.24374 12.9631 6.24374 10.4683 L 6.24374 9.42621 C 6.24374 6.74195 7.97658 5.7 12.0094 5.7 L 16.1997 5.7 C 20.201 5.7 21.9654 6.71037 21.9654 9.42621 Z M 22.3437 21.9994 C 22.3437 24.7121 20.8312 26.1 16.5148 26.1 L 11.6943 26.1 C 7.44098 26.1 5.85752 24.7436 5.85752 21.9994 L 5.85752 20.7061 C 5.85752 18.1827 7.5355 16.7 11.1902 16.7 L 17.0504 16.7 C 20.8312 16.7 22.3437 18.1827 22.3437 20.7061 Z" /></svg>