<?xml version="1.0" encoding="utf-8" standalone="no"?>
<!DOCTYPE svg PUBLIC "-//W3C//DTD SVG 1.1//EN"
"http://www.w3.org/Graphics/SVG/1.1/DTD/svg11.dtd">

<svg xmlns="http://www.w3.org/2000/svg" version="1.1" xmlns:xlink="http://www.w3.org/1999/xlink" width="34.6002" height="34.5" viewBox="0 0 34.6002 34.5"><path stroke="#ffffff" stroke-width="6" stroke-linejoin="round" fill="#ffffff" d="M 31.6002 15.3357 L 31.6002 12.3832 C 27.7455 10.9299 24.3628 7.54946 23.1901 3 L 20.179 3 C 21.6053 8.81319 26.265 13.6786 31.6002 15.3357 Z M 29.0328 26.3278 L 29.0328 14.5 L 5.09191 14.5 C 9.49759 12.3832 13.1426 8.05495 14.3787 3 L 11.3993 3 C 10.1949 7.54946 6.83516 10.9299 3 12.3832 L 3 15.3357 C 3.6973 15.1429 4.3946 14.8536 5.02851 14.5322 L 5.02851 17.2 L 12.0966 17.2 C 11.431 22.6196 8.6735 27.2153 3.88748 28.8 L 3.88748 31.5 C 10.1632 30.1186 13.9984 23.8874 14.9492 17.2 L 26.2328 17.2 L 26.2328 26.2328 C 26.2328 27.5956 25.1552 28.8 23.7289 28.8 L 18.6893 28.8 L 18.6893 31.5 L 23.9825 31.5 C 26.9087 31.5 29.0328 29.2709 29.0328 26.3278 Z" /><path fill="#555555" d="M 31.6002 15.3357 L 31.6002 12.3832 C 27.7455 10.9299 24.3628 7.54946 23.1901 3 L 20.179 3 C 21.6053 8.81319 26.265 13.6786 31.6002 15.3357 Z M 29.0328 26.3278 L 29.0328 14.5 L 5.09191 14.5 C 9.49759 12.3832 13.1426 8.05495 14.3787 3 L 11.3993 3 C 10.1949 7.54946 6.83516 10.9299 3 12.3832 L 3 15.3357 C 3.6973 15.1429 4.3946 14.8536 5.02851 14.5322 L 5.02851 17.2 L 12.0966 17.2 C 11.431 22.6196 8.6735 27.2153 3.88748 28.8 L 3.88748 31.5 C 10.1632 30.1186 13.9984 23.8874 14.9492 17.2 L 26.2328 17.2 L 26.2328 26.2328 C 26.2328 27.5956 25.1552 28.8 23.7289 28.8 L 18.6893 28.8 L 18.6893 31.5 L 23.9825 31.5 C 26.9087 31.5 29.0328 29.2709 29.0328 26.3278 Z" /></svg>