<?xml version="1.0" encoding="utf-8" standalone="no"?>
<!DOCTYPE svg PUBLIC "-//W3C//DTD SVG 1.1//EN"
"http://www.w3.org/Graphics/SVG/1.1/DTD/svg11.dtd">

<svg xmlns="http://www.w3.org/2000/svg" version="1.1" xmlns:xlink="http://www.w3.org/1999/xlink" width="79.1995" height="39.7447" viewBox="0 0 79.1995 39.7447"><path stroke="#ffffff" stroke-width="6" stroke-linejoin="round" fill="#ffffff" d="M 37.2001 25.2626 C 37.2001 17.339 32.4545 12.6334 20.563 12.6334 C 19.6149 12.6334 18.7062 12.7133 17.8766 12.7933 L 17.8766 8.6334 L 35.987 8.6334 L 35.987 5.3334 L 17.8766 5.3334 L 17.8766 3.03547 L 14.4 3.03547 L 14.4 5.3334 L 4.29772 5.3334 L 4.29772 8.6334 L 14.4 8.6334 L 14.4 13.3934 C 7.05301 15.2734 3 20.4292 3 26.0946 C 3 31.2053 5.3595 35.8334 11.2796 35.8334 C 17.2001 35.8334 22.8939 30.7695 28.1483 16.9428 C 31.9804 18.3295 33.6 21.1027 33.6 25.2626 C 33.6 30.611 30.0051 33.3032 23.447 33.3032 L 23.447 36.7447 C 32.1779 36.7447 37.2001 33.0264 37.2001 25.2626 Z M 25.0273 16.1505 C 20.6025 27.085 16.4001 32.4334 11.6351 32.4334 C 7.52702 32.4334 6.50001 28.7094 6.50001 25.9361 C 6.50001 21.6574 9.42304 18.171 14.4 16.6655 L 14.4 28.4716 L 17.6 28.4716 L 17.6 16.0316 C 18.4692 15.9128 19.4173 15.8334 20.405 15.8334 C 22.1433 15.8334 23.684 15.9524 25.0273 16.1505 Z" /><path stroke="#ffffff" stroke-width="6" stroke-linejoin="round" fill="#ffffff" d="M 76.1995 36.3334 L 76.1995 32.8334 L 58.45 32.8334 C 51.7147 32.8334 47 31.4071 47 25.5435 C 47 21.3438 50.2092 18.0158 57.8557 15.9556 C 63.1647 14.5293 70.3755 13.5388 76.1995 13.3011 L 76.1995 9.53721 C 69.9397 10.0919 63.3628 10.9239 57.103 12.5087 C 56.271 12.7068 55.4786 12.9841 54.6862 13.2614 L 53.1014 3 L 49.2583 3 L 51.1204 14.7274 C 45.433 17.5403 43.2 21.5815 43.2 25.6623 C 43.2 33.6686 49.1395 36.3334 58.0934 36.3334 Z" /><path fill="#000000" d="M 37.2001 25.2626 C 37.2001 17.339 32.4545 12.6334 20.563 12.6334 C 19.6149 12.6334 18.7062 12.7133 17.8766 12.7933 L 17.8766 8.6334 L 35.987 8.6334 L 35.987 5.3334 L 17.8766 5.3334 L 17.8766 3.03547 L 14.4 3.03547 L 14.4 5.3334 L 4.29772 5.3334 L 4.29772 8.6334 L 14.4 8.6334 L 14.4 13.3934 C 7.05301 15.2734 3 20.4292 3 26.0946 C 3 31.2053 5.3595 35.8334 11.2796 35.8334 C 17.2001 35.8334 22.8939 30.7695 28.1483 16.9428 C 31.9804 18.3295 33.6 21.1027 33.6 25.2626 C 33.6 30.611 30.0051 33.3032 23.447 33.3032 L 23.447 36.7447 C 32.1779 36.7447 37.2001 33.0264 37.2001 25.2626 Z M 25.0273 16.1505 C 20.6025 27.085 16.4001 32.4334 11.6351 32.4334 C 7.52702 32.4334 6.50001 28.7094 6.50001 25.9361 C 6.50001 21.6574 9.42304 18.171 14.4 16.6655 L 14.4 28.4716 L 17.6 28.4716 L 17.6 16.0316 C 18.4692 15.9128 19.4173 15.8334 20.405 15.8334 C 22.1433 15.8334 23.684 15.9524 25.0273 16.1505 Z" /><path fill="#000000" d="M 76.1995 36.3334 L 76.1995 32.8334 L 58.45 32.8334 C 51.7147 32.8334 47 31.4071 47 25.5435 C 47 21.3438 50.2092 18.0158 57.8557 15.9556 C 63.1647 14.5293 70.3755 13.5388 76.1995 13.3011 L 76.1995 9.53721 C 69.9397 10.0919 63.3628 10.9239 57.103 12.5087 C 56.271 12.7068 55.4786 12.9841 54.6862 13.2614 L 53.1014 3 L 49.2583 3 L 51.1204 14.7274 C 45.433 17.5403 43.2 21.5815 43.2 25.6623 C 43.2 33.6686 49.1395 36.3334 58.0934 36.3334 Z" /></svg>