<svg version="1.1" xmlns="http://www.w3.org/2000/svg" xmlns:xlink="http://www.w3.org/1999/xlink" width="265.43475" height="83.4969" viewBox="0,0,265.43475,83.4969"><g transform="translate(-550.31075,-342.25155)"><g data-paper-data="{&quot;isPaintingLayer&quot;:true}" fill-rule="nonzero" stroke-linecap="butt" stroke-miterlimit="10" stroke-dasharray="" stroke-dashoffset="0" style="mix-blend-mode: normal"><path d="M553.31075,354.76245c2.04375,-2.4354 3.46354,-5.39111 4.25937,-8.86715l1.4125,0.31094c-0.3427,1.60416 -0.84427,3.10989 -1.50468,4.51718v12.02503h-1.50625v-9.436c-0.5875,1.0646 -1.22396,1.9948 -1.90938,2.7907zM558.23106,353.18275c1.59063,-2.27599 2.79584,-4.77287 3.61564,-7.49058l1.3781,0.29375c-0.2208,0.71042 -0.3922,1.24323 -0.5141,1.59844h8.0219v1.24844h-5.8562v3.41406h5.2875v1.24839h-5.2875v3.5438h5.2875v1.2844h-5.2875v4.425h-1.5235v-13.91565h-1.1203c-0.7958,1.92083 -1.738,3.65885 -2.82654,5.21405z" fill="#ffffff" stroke="#ffffff" stroke-width="6" stroke-linejoin="round"/><path d="M572.1654,361.33435c0.5875,-1.1375 1.0128,-2.4133 1.2758,-3.8273c0.263,-1.4141 0.3945,-3.1675 0.3945,-5.26019v-4.3875h7.436c-0.0365,-0.68541 -0.0547,-1.39531 -0.0547,-2.12969h1.4125c0,0.73438 0.0187,1.44428 0.0562,2.12969h3.9469c-0.8448,-0.53854 -1.763,-1.07708 -2.7547,-1.61562l0.7344,-0.99219c1.2979,0.68542 2.3875,1.32813 3.2688,1.92812l-0.5328,0.67969h1.4874v1.26719h-6.0593c0.2333,2.66771 0.7291,5.0234 1.4875,7.0672c1.0646,-1.5906 1.8297,-3.4266 2.2953,-5.50783l1.3406,0.36719c-0.5635,2.53434 -1.5672,4.75004 -3.0109,6.64684c0.3177,0.6605 0.6479,1.2355 0.9906,1.725c0.649,0.9063 1.1141,1.3594 1.3953,1.3594c0.4531,0 0.7958,-1.1812 1.0281,-3.5437l1.3594,0.4406c-0.2823,3.2073 -1.0167,4.8109 -2.2031,4.8109c-0.4656,0 -1.0289,-0.3122 -1.6899,-0.9367c-0.6609,-0.6245 -1.2914,-1.5117 -1.8914,-2.6617c-1.4562,1.5542 -3.1817,2.6922 -5.1765,3.414l-0.6985,-1.1937c2.0448,-0.7583 3.7891,-1.9578 5.2329,-3.5984c-0.9917,-2.35 -1.6219,-5.1464 -1.8907,-8.3891h-6.0593v2.27656h5.0671c0,3.43854 -0.0825,5.51584 -0.2476,6.23204c-0.1651,0.7161 -0.4555,1.1357 -0.8711,1.2586c-0.1958,0.0604 -0.5112,0.0906 -0.9461,0.0906c-0.4349,0 -1.3378,-0.0547 -2.7086,-0.1641l-0.1281,-1.2484c1.126,0.1094 1.8911,0.1641 2.2953,0.1641c0.6,0 0.9549,-0.2232 1.0648,-0.6696c0.1099,-0.4463 0.1649,-1.9367 0.1649,-4.4711h-3.6906v0.5704c0,3.9406 -0.6855,7.0739 -2.0563,9.4z" fill="#ffffff" stroke="#ffffff" stroke-width="6" stroke-linejoin="round"/><path d="M591.0389,355.88275c2.9614,-0.8812 5.6906,-2.0625 8.1875,-3.5437h-8.1328v-1.22969h7.5093v-2.46094h-5.7468v-1.19375h5.7468v-1.79843h1.5047v1.79843h4.2782v0.99219c0.7343,-0.71041 1.377,-1.43281 1.9281,-2.16719l1.1015,0.79063c-1.0895,1.39479 -2.4604,2.74115 -4.1125,4.03906h4.975v1.22969h-6.664c-0.8813,0.6 -1.9094,1.2182 -3.0844,1.8547h7.8391v8.4265h-1.4688v-0.8078h-8.3531v0.8078h-1.4688v-6.775c-1.1625,0.5021 -2.3557,0.9428 -3.5796,1.3219zM596.5467,360.59995h8.3531v-2.0562h-8.3531zM596.5467,357.38745h8.3531v-1.964h-8.3531zM600.1076,351.10936h1.0282c1.077,-0.75937 2.0869,-1.57969 3.0296,-2.46094h-4.0578z" fill="#ffffff" stroke="#ffffff" stroke-width="6" stroke-linejoin="round"/><path d="M611.1967,355.08435c-0.2688,-0.276 -0.4031,-0.6167 -0.4031,-1.0219c0,-0.4052 0.1346,-0.7458 0.4039,-1.0218c0.2692,-0.2761 0.6057,-0.4141 1.0093,-0.4141c0.4037,0 0.7433,0.138 1.0188,0.4141c0.2755,0.276 0.4133,0.6166 0.4133,1.0218c0,0.4052 -0.1347,0.7459 -0.4039,1.0219c-0.2693,0.2761 -0.6089,0.4141 -1.0188,0.4141c-0.4099,0 -0.7497,-0.138 -1.0195,-0.4141zM617.4576,355.08435c-0.2687,-0.276 -0.4031,-0.6167 -0.4031,-1.0219c0,-0.4052 0.1346,-0.7458 0.4039,-1.0218c0.2693,-0.2761 0.6057,-0.4141 1.0094,-0.4141c0.4036,0 0.7432,0.138 1.0187,0.4141c0.2756,0.276 0.4133,0.6166 0.4133,1.0218c0,0.4052 -0.1346,0.7459 -0.4039,1.0219c-0.2693,0.2761 -0.6088,0.4141 -1.0187,0.4141c-0.4099,0 -0.7498,-0.138 -1.0196,-0.4141zM623.7357,355.08435c-0.2687,-0.276 -0.4031,-0.6167 -0.4031,-1.0219c0,-0.4052 0.1347,-0.7458 0.4039,-1.0218c0.2693,-0.2761 0.606,-0.4141 1.0102,-0.4141c0.4042,0 0.7437,0.138 1.0187,0.4141c0.275,0.276 0.4125,0.6166 0.4125,1.0218c0,0.4052 -0.1346,0.7459 -0.4039,1.0219c-0.2692,0.2761 -0.6088,0.4141 -1.0187,0.4141c-0.4099,0 -0.7498,-0.138 -1.0196,-0.4141z" fill="#ffffff" stroke="#ffffff" stroke-width="6" stroke-linejoin="round"/><path d="M629.9967,355.08435c-0.2688,-0.276 -0.4031,-0.6167 -0.4031,-1.0219c0,-0.4052 0.1346,-0.7458 0.4039,-1.0218c0.2692,-0.2761 0.6057,-0.4141 1.0093,-0.4141c0.4037,0 0.7433,0.138 1.0188,0.4141c0.2755,0.276 0.4133,0.6166 0.4133,1.0218c0,0.4052 -0.1347,0.7459 -0.4039,1.0219c-0.2693,0.2761 -0.6089,0.4141 -1.0188,0.4141c-0.4099,0 -0.7497,-0.138 -1.0195,-0.4141zM636.2576,355.08435c-0.2687,-0.276 -0.4031,-0.6167 -0.4031,-1.0219c0,-0.4052 0.1346,-0.7458 0.4039,-1.0218c0.2693,-0.2761 0.6057,-0.4141 1.0094,-0.4141c0.4036,0 0.7432,0.138 1.0187,0.4141c0.2756,0.276 0.4133,0.6166 0.4133,1.0218c0,0.4052 -0.1346,0.7459 -0.4039,1.0219c-0.2693,0.2761 -0.6088,0.4141 -1.0187,0.4141c-0.4099,0 -0.7498,-0.138 -1.0196,-0.4141zM642.5358,355.08435c-0.2688,-0.276 -0.4032,-0.6167 -0.4032,-1.0219c0,-0.4052 0.1347,-0.7458 0.4039,-1.0218c0.2693,-0.2761 0.606,-0.4141 1.0102,-0.4141c0.4042,0 0.7437,0.138 1.0187,0.4141c0.275,0.276 0.4125,0.6166 0.4125,1.0218c0,0.4052 -0.1346,0.7459 -0.4039,1.0219c-0.2692,0.2761 -0.6088,0.4141 -1.0187,0.4141c-0.4099,0 -0.7498,-0.138 -1.0195,-0.4141z" fill="#ffffff" stroke="#ffffff" stroke-width="6" stroke-linejoin="round"/><path d="M647.8061,360.89375h7.5264v-2.5703h-6.2046v-1.1922h6.2046v-1.8735h1.506v1.8735h6.077v1.1922h-6.077v2.5703h7.527v1.2125h-16.5594zM647.9529,351.53124v-4.3875h7.3796v-1.68907h1.506v1.68907h7.38v4.3875h-1.412v-3.19532h-13.4395v3.19532zM648.6873,353.93595c0.9302,-0.024 1.8662,-0.0604 2.8092,-0.1094c0.55,-0.9188 1.07,-1.88594 1.56,-2.90156h-3.0286v-1.1375h12.1176v1.1375h-1.708c1.309,1.43226 2.417,2.72346 3.323,3.87346l-1.231,0.6609c-0.379,-0.501 -0.709,-0.9172 -0.991,-1.2484c-4.393,0.4896 -8.653,0.7958 -12.7778,0.9187zM653.1295,353.73435c2.509,-0.1469 5.006,-0.3489 7.491,-0.6062c-0.416,-0.4896 -1.064,-1.224 -1.946,-2.20316h-4.076c-0.441,0.94271 -0.93,1.87916 -1.469,2.80936z" fill="#ffffff" stroke="#ffffff" stroke-width="6" stroke-linejoin="round"/><path d="M667.1385,362.47345v-16.08284h15.496v13.56714c0,1.0771 -0.123,1.7443 -0.368,2.0016c-0.244,0.2573 -0.869,0.3859 -1.873,0.3859c-0.171,0 -0.489,-0.0122 -0.954,-0.0367c-0.465,-0.0245 -1.151,-0.0492 -2.057,-0.0742l-0.055,-1.2672c1.678,0.0615 2.69,0.0922 3.039,0.0922c0.348,0 0.571,-0.0521 0.669,-0.1562c0.098,-0.1042 0.147,-0.4193 0.147,-0.9454v-12.3187h-12.594v14.8344zM669.4885,353.07345v-1.22971h2.993c-0.38,-1.13855 -0.808,-2.24011 -1.286,-3.30469l1.267,-0.36719c0.477,1.07709 0.942,2.30104 1.395,3.67188h1.964c0.551,-0.99167 1.065,-2.24011 1.542,-3.74532l1.286,0.38438c-0.367,1.175 -0.826,2.29531 -1.376,3.36094h3.011v1.22971h-4.683v4.6625h2.259v-3.6157h1.396v5.911h-1.396v-1.0828h-5.948v1.9453h-1.395v-6.7735h1.395v3.6157h2.258v-4.6625z" fill="#ffffff" stroke="#ffffff" stroke-width="6" stroke-linejoin="round"/><path d="M696.5355,362.62025v-16.17495h5.361v1.175c-0.513,1.56667 -1.186,3.1151 -2.019,4.64535c0.588,0.7343 0.995,1.4198 1.222,2.0562c0.226,0.6365 0.339,1.374 0.339,2.2125c0,0.8386 -0.195,1.4565 -0.587,1.8539c-0.392,0.3974 -1.01,0.5961 -1.855,0.5961h-0.533l-0.22,-1.1922h0.514c0.526,0 0.89,-0.1133 1.092,-0.3398c0.202,-0.2266 0.303,-0.6643 0.303,-1.3133c0,-0.649 -0.119,-1.2427 -0.357,-1.7813c-0.239,-0.5385 -0.701,-1.2052 -1.386,-2c0.832,-1.4812 1.536,-3.06037 2.111,-4.73745h-2.607v14.99995zM700.6125,360.89375h5.783v-2.7531h-4.369v-1.1563h4.369v-2.075h1.487v2.075h4.534v1.1563h-4.534v2.7531h5.233v1.2125h-12.503zM701.4385,351.67811v-1.19375h4.957v-2.00156h-4.002v-1.19219h4.002v-1.59844h1.487v1.59844h4.534v1.19219h-4.534v2.00156h5.049v1.19375h-3.599v2.01874c0,0.2573 0.019,0.4073 0.056,0.45c0.037,0.0427 0.171,0.0703 0.403,0.0828l0.697,0.0188l0.644,-0.0188c0.318,-0.0125 0.51,-0.0922 0.577,-0.239c0.068,-0.1469 0.126,-0.6547 0.175,-1.5235l1.193,0.1281c-0.097,1.2855 -0.241,2.0719 -0.431,2.3594c-0.189,0.2875 -0.694,0.4375 -1.514,0.45l-0.808,0.0188l-0.881,-0.0188c-0.636,-0.0125 -1.04,-0.095 -1.212,-0.2476c-0.171,-0.1526 -0.257,-0.4862 -0.257,-1.0008v-2.47814h-1.34c-0.343,2.10524 -1.854,3.54324 -4.535,4.31404l-0.551,-1.1375c2.13,-0.5875 3.372,-1.6463 3.726,-3.17654z" fill="#ffffff" stroke="#ffffff" stroke-width="6" stroke-linejoin="round"/><path d="M557.38575,381.75775v-14.2109h4.55315c1.5666,0 2.8273,0.3367 3.782,1.0102c0.9547,0.6734 1.432,1.5789 1.432,2.7164c0,0.8323 -0.2448,1.5453 -0.7343,2.139c-0.4896,0.5938 -1.1261,0.9703 -1.9094,1.1297c0.8573,0.1104 1.5857,0.4563 2.1851,1.0375c0.5995,0.5813 0.8993,1.4042 0.8993,2.4688c0,1.0646 -0.4039,1.9489 -1.2118,2.6531c-0.8078,0.7042 -1.958,1.0562 -3.4507,1.0562zM559.02013,380.36245h3.69057c1.0282,0 1.8175,-0.2112 2.368,-0.6336c0.5505,-0.4224 0.8258,-1.0437 0.8258,-1.864c0,-0.8203 -0.3029,-1.4568 -0.9086,-1.9094c-0.6057,-0.4526 -1.4841,-0.6789 -2.6352,-0.6789h-3.34057zM559.02013,373.88125h2.62497c1.2979,0 2.2589,-0.2388 2.8828,-0.7164c0.624,-0.4776 0.936,-1.0774 0.936,-1.7992c0,-0.7219 -0.2938,-1.3032 -0.8813,-1.7438c-0.5875,-0.4406 -1.4625,-0.6609 -2.625,-0.6609h-2.93747z" fill="#ffffff" stroke="#ffffff" stroke-width="6" stroke-linejoin="round"/><path d="M576.5061,379.97655c-1.4375,-1.2979 -2.1563,-3.0484 -2.1563,-5.2516c0,-2.2031 0.7221,-3.9929 2.1664,-5.3695c1.4443,-1.3766 3.305,-2.0648 5.5821,-2.0648c1.6645,0 3.1026,0.3239 4.314,0.9718v1.6719c-1.1385,-0.6979 -2.5859,-1.0469 -4.3422,-1.0469c-1.7562,0 -3.1974,0.5263 -4.3234,1.5789c-1.1261,1.0526 -1.6891,2.4602 -1.6891,4.2227c0,1.7625 0.5477,3.1456 1.643,4.1492c1.0953,1.0037 2.5914,1.5055 4.4883,1.5055c1.1385,0 2.1854,-0.1958 3.1406,-0.5875h0.0359v-4.4985h-3.4875v-1.4312h5.1032v6.8469c-1.273,0.8323 -2.8886,1.2484 -4.8469,1.2484c-2.3136,0 -4.1896,-0.6484 -5.6281,-1.9453z" fill="#ffffff" stroke="#ffffff" stroke-width="6" stroke-linejoin="round"/><path d="M592.1592,381.75775l1.0281,-14.2109h2.0922l1.8734,5.1953l2.3313,6.7563c0.8448,-2.3865 1.6646,-4.6386 2.4594,-6.7563l1.9281,-5.1953h2.0937l1.2485,14.2109h-1.6344l-1.0094,-12.0265c-0.7593,2.1302 -1.537,4.2661 -2.3328,6.4078l-1.9641,5.2875h-1.6156l-4.075,-11.5844c0,0.7584 -0.1286,2.8573 -0.3859,6.2969l-0.4047,5.6187z" fill="#ffffff" stroke="#ffffff" stroke-width="6" stroke-linejoin="round"/><path d="M611.1967,375.08435c-0.2688,-0.276 -0.4031,-0.6167 -0.4031,-1.0219c0,-0.4052 0.1346,-0.7458 0.4039,-1.0218c0.2692,-0.2761 0.6057,-0.4141 1.0093,-0.4141c0.4037,0 0.7433,0.138 1.0188,0.4141c0.2755,0.276 0.4133,0.6166 0.4133,1.0218c0,0.4052 -0.1347,0.7459 -0.4039,1.0219c-0.2693,0.2761 -0.6089,0.4141 -1.0188,0.4141c-0.4099,0 -0.7497,-0.138 -1.0195,-0.4141zM617.4576,375.08435c-0.2687,-0.276 -0.4031,-0.6167 -0.4031,-1.0219c0,-0.4052 0.1346,-0.7458 0.4039,-1.0218c0.2693,-0.2761 0.6057,-0.4141 1.0094,-0.4141c0.4036,0 0.7432,0.138 1.0187,0.4141c0.2756,0.276 0.4133,0.6166 0.4133,1.0218c0,0.4052 -0.1346,0.7459 -0.4039,1.0219c-0.2693,0.2761 -0.6088,0.4141 -1.0187,0.4141c-0.4099,0 -0.7498,-0.138 -1.0196,-0.4141zM623.7357,375.08435c-0.2687,-0.276 -0.4031,-0.6167 -0.4031,-1.0219c0,-0.4052 0.1347,-0.7458 0.4039,-1.0218c0.2693,-0.2761 0.606,-0.4141 1.0102,-0.4141c0.4042,0 0.7437,0.138 1.0187,0.4141c0.275,0.276 0.4125,0.6166 0.4125,1.0218c0,0.4052 -0.1346,0.7459 -0.4039,1.0219c-0.2692,0.2761 -0.6088,0.4141 -1.0187,0.4141c-0.4099,0 -0.7498,-0.138 -1.0196,-0.4141z" fill="#ffffff" stroke="#ffffff" stroke-width="6" stroke-linejoin="round"/><path d="M629.9967,375.08435c-0.2688,-0.276 -0.4031,-0.6167 -0.4031,-1.0219c0,-0.4052 0.1346,-0.7458 0.4039,-1.0218c0.2692,-0.2761 0.6057,-0.4141 1.0093,-0.4141c0.4037,0 0.7433,0.138 1.0188,0.4141c0.2755,0.276 0.4133,0.6166 0.4133,1.0218c0,0.4052 -0.1347,0.7459 -0.4039,1.0219c-0.2693,0.2761 -0.6089,0.4141 -1.0188,0.4141c-0.4099,0 -0.7497,-0.138 -1.0195,-0.4141zM636.2576,375.08435c-0.2687,-0.276 -0.4031,-0.6167 -0.4031,-1.0219c0,-0.4052 0.1346,-0.7458 0.4039,-1.0218c0.2693,-0.2761 0.6057,-0.4141 1.0094,-0.4141c0.4036,0 0.7432,0.138 1.0187,0.4141c0.2756,0.276 0.4133,0.6166 0.4133,1.0218c0,0.4052 -0.1346,0.7459 -0.4039,1.0219c-0.2693,0.2761 -0.6088,0.4141 -1.0187,0.4141c-0.4099,0 -0.7498,-0.138 -1.0196,-0.4141zM642.5358,375.08435c-0.2688,-0.276 -0.4032,-0.6167 -0.4032,-1.0219c0,-0.4052 0.1347,-0.7458 0.4039,-1.0218c0.2693,-0.2761 0.606,-0.4141 1.0102,-0.4141c0.4042,0 0.7437,0.138 1.0187,0.4141c0.275,0.276 0.4125,0.6166 0.4125,1.0218c0,0.4052 -0.1346,0.7459 -0.4039,1.0219c-0.2692,0.2761 -0.6088,0.4141 -1.0187,0.4141c-0.4099,0 -0.7498,-0.138 -1.0195,-0.4141z" fill="#ffffff" stroke="#ffffff" stroke-width="6" stroke-linejoin="round"/><path d="M648.3201,381.79845v-14.3h3.6534c1.628,0 2.919,0.4218 3.874,1.2656c0.955,0.8437 1.432,1.9219 1.432,3.2344c0,1.3125 -0.462,2.3906 -1.386,3.2343c-0.924,0.8438 -2.163,1.2657 -3.719,1.2657h-2.22v5.3zM649.9545,375.09845h2.239c1.077,0 1.922,-0.287 2.534,-0.861c0.612,-0.5739 0.918,-1.3205 0.918,-2.2398c0,-0.9193 -0.319,-1.6628 -0.955,-2.2305c-0.637,-0.5677 -1.524,-0.8515 -2.663,-0.8515h-2.073z" fill="#ffffff" stroke="#ffffff" stroke-width="6" stroke-linejoin="round"/><path d="M658.8385,381.79845l4.957,-14.3h2.259l4.883,14.3h-1.763l-1.248,-3.8h-6.077l-1.267,3.8zM662.3095,376.59995h5.158l-2.552,-7.75c-0.171,0.6136 -0.942,2.9271 -2.313,6.9407z" fill="#ffffff" stroke="#ffffff" stroke-width="6" stroke-linejoin="round"/><path d="M673.3205,381.79845v-14.3h2.075l3.579,6.0281c1.493,2.4896 2.601,4.3818 3.324,5.6766l0.348,0.6468c-0.049,-1.4052 -0.073,-3.501 -0.073,-6.2875v-6.064h1.634v14.3h-2.094l-3.561,-5.9625l-3.709,-6.3485c0.074,1.4844 0.111,3.5886 0.111,6.3125v5.9985z" fill="#ffffff" stroke="#ffffff" stroke-width="6" stroke-linejoin="round"/><path d="M686.2265,381.79845v-1.3594h1.322v-11.5609h-1.322v-1.3797h4.259v1.3797h-1.34v11.5609h1.34v1.3594z" fill="#ffffff" stroke="#ffffff" stroke-width="6" stroke-linejoin="round"/><path d="M693.9065,379.97035c-1.329,-1.2865 -1.993,-3.0269 -1.993,-5.2211c0,-2.1943 0.686,-3.968 2.057,-5.3211c1.37,-1.3532 3.133,-2.0297 5.287,-2.0297c1.273,0 2.399,0.2573 3.378,0.7718v1.7329c-0.6,-0.3459 -1.123,-0.5954 -1.569,-0.7485c-0.447,-0.1531 -0.976,-0.2297 -1.589,-0.2297c-1.762,0 -3.182,0.5235 -4.259,1.5703c-1.077,1.0469 -1.616,2.4347 -1.616,4.1633c0,1.7287 0.509,3.1136 1.525,4.1547c1.016,1.0412 2.289,1.5617 3.818,1.5617c1.53,0 2.773,-0.3562 3.728,-1.0687v1.6953c-0.87,0.5979 -2.07,0.8969 -3.599,0.8969c-2.117,0 -3.84,-0.6427 -5.168,-1.9281z" fill="#ffffff" stroke="#ffffff" stroke-width="6" stroke-linejoin="round"/><path d="M705.2205,381.79845v-14.3h3.653c1.628,0 2.919,0.4218 3.874,1.2656c0.955,0.8437 1.432,1.9219 1.432,3.2344c0,1.3125 -0.462,2.3906 -1.386,3.2343c-0.924,0.8438 -2.163,1.2657 -3.719,1.2657h-2.22v5.3zM706.8545,375.09845h2.239c1.077,0 1.922,-0.287 2.534,-0.861c0.612,-0.5739 0.918,-1.3205 0.918,-2.2398c0,-0.9193 -0.319,-1.6628 -0.955,-2.2305c-0.637,-0.5677 -1.524,-0.8515 -2.663,-0.8515h-2.073z" fill="#ffffff" stroke="#ffffff" stroke-width="6" stroke-linejoin="round"/><path d="M716.6015,376.49215v-8.9937h1.634v8.9765c0,1.3365 0.318,2.3175 0.955,2.943c0.636,0.6255 1.505,0.9383 2.606,0.9383c2.339,0 3.508,-1.3307 3.508,-3.9922v-8.8656h1.616v8.8281c0,1.826 -0.453,3.2112 -1.359,4.1555c-0.906,0.9442 -2.173,1.4164 -3.801,1.4164c-1.628,0 -2.895,-0.4628 -3.801,-1.3883c-0.905,-0.9255 -1.358,-2.2649 -1.358,-4.018z" fill="#ffffff" stroke="#ffffff" stroke-width="6" stroke-linejoin="round"/><path d="M730.0735,381.79845l1.028,-14.3h2.092l1.873,5.2328l2.332,6.8062c0.845,-2.4041 1.665,-4.6729 2.461,-6.8062l1.926,-5.2328h2.094l1.248,14.3h-1.634l-1.009,-12.0532c-0.76,2.1344 -1.537,4.275 -2.332,6.4219l-1.965,5.3h-1.616l-4.075,-11.6109c0,0.7604 -0.128,2.864 -0.386,6.3109l-0.403,5.6313z" fill="#ffffff" stroke="#ffffff" stroke-width="6" stroke-linejoin="round"/><path d="M748.2205,381.79845v-14.3h3.653c1.628,0 2.919,0.4218 3.874,1.2656c0.955,0.8437 1.432,1.9219 1.432,3.2344c0,1.3125 -0.462,2.3906 -1.386,3.2343c-0.924,0.8438 -2.163,1.2657 -3.719,1.2657h-2.22v5.3zM749.8545,375.09845h2.239c1.077,0 1.922,-0.287 2.534,-0.861c0.612,-0.5739 0.918,-1.3205 0.918,-2.2398c0,-0.9193 -0.319,-1.6628 -0.955,-2.2305c-0.637,-0.5677 -1.524,-0.8515 -2.663,-0.8515h-2.073z" fill="#ffffff" stroke="#ffffff" stroke-width="6" stroke-linejoin="round"/><path d="M759.2525,381.79845v-14.3h1.635v6.7562l5.783,-6.7562h2.018l-5.875,6.9406l6.335,7.3594h-2.185l-5.214,-6.1078l-0.862,1.0125v5.0953z" fill="#ffffff" stroke="#ffffff" stroke-width="6" stroke-linejoin="round"/><path d="M770.2265,381.79845v-1.3594h1.322v-11.5609h-1.322v-1.3797h4.259v1.3797h-1.34v11.5609h1.34v1.3594z" fill="#ffffff" stroke="#ffffff" stroke-width="6" stroke-linejoin="round"/><path d="M776.5205,381.79845v-14.3h2.075l3.579,6.0281c1.493,2.4896 2.601,4.3818 3.324,5.6766l0.348,0.6468c-0.049,-1.4052 -0.073,-3.501 -0.073,-6.2875v-6.064h1.634v14.3h-2.094l-3.561,-5.9625l-3.709,-6.3485c0.074,1.4844 0.111,3.5886 0.111,6.3125v5.9985z" fill="#ffffff" stroke="#ffffff" stroke-width="6" stroke-linejoin="round"/><path d="M794.7525,377.38745c1.2,-2.227 2.039,-4.5401 2.516,-6.939h-2.111v-1.2313h2.22v-3.2672h1.396v3.2672h1.983v1.2313h-1.818l1.983,5.0297l-0.917,0.9359c-0.221,-0.5875 -0.631,-1.6948 -1.231,-3.3219v9.6563h-1.396v-8.4453c-0.477,1.6645 -1.07,3.127 -1.779,4.3875zM799.8205,380.94995c2.424,-1.2729 4.468,-2.6625 6.132,-4.1687v-1.7797h-4.939v-1.2125h4.939v-1.7984h-4.517v-1.1579h4.517v-1.689h-4.939v-1.2297h2.883c-0.368,-0.6979 -0.723,-1.3161 -1.065,-1.8547l1.267,-0.4406c0.355,0.5635 0.777,1.3286 1.267,2.2953h2.827c0.514,-0.8563 0.93,-1.6151 1.248,-2.2766l1.286,0.3672c-0.38,0.7834 -0.717,1.4198 -1.011,1.9094h2.406v1.2125h-4.719v1.7062h4.461v1.1579h-4.461v1.7984h4.975v1.2125h-4.975v0.1828c0.38,0.7833 0.869,1.5729 1.469,2.3688c0.796,-0.649 1.549,-1.3959 2.258,-2.2407l1.009,0.8078c-0.758,0.9063 -1.571,1.7141 -2.44,2.4235c0.892,0.9917 1.908,1.8547 3.047,2.589l-0.771,1.1391c-1.898,-1.2489 -3.422,-2.8771 -4.572,-4.8844v2.8453c0,1.0407 -0.125,1.6987 -0.376,1.9743c-0.251,0.2755 -0.842,0.4132 -1.772,0.4132c-0.404,0 -1.108,-0.0307 -2.111,-0.0921l-0.037,-1.2672c0.942,0.0614 1.6,0.0922 1.974,0.0922c0.373,0 0.612,-0.0581 0.716,-0.1743c0.104,-0.1161 0.156,-0.419 0.156,-0.9086v-1.9468c-1.542,1.3593 -3.354,2.6078 -5.434,3.7453zM801.0135,376.17655l0.991,-0.8641c0.698,0.698 1.396,1.4693 2.094,2.3141l-0.992,0.8625c-0.599,-0.7344 -1.297,-1.5052 -2.093,-2.3125z" fill="#ffffff" stroke="#ffffff" stroke-width="6" stroke-linejoin="round"/><path d="M557.64356,391.27345c0,-1.199 0.47422,-2.138 1.42266,-2.8172c0.94844,-0.6792 2.08958,-1.0188 3.42348,-1.0188c1.3338,0 2.4539,0.2079 3.3601,0.6235v1.6531c-0.8687,-0.5021 -1.8755,-0.7531 -3.0203,-0.7531c-1.1448,0 -2.0078,0.2049 -2.58906,0.6148c-0.58125,0.4099 -0.87188,0.9055 -0.87188,1.4867c0,0.5813 0.19584,1.0677 0.5875,1.4594c0.39164,0.3917 1.32184,0.8755 2.79064,1.4516c0.551,0.2198 1.0101,0.4185 1.3773,0.5961c0.3672,0.1776 0.7774,0.4252 1.2305,0.7429c0.9052,0.6365 1.3578,1.5607 1.3578,2.7727c0,1.212 -0.462,2.1516 -1.3859,2.8187c-0.924,0.6672 -2.1417,1.0008 -3.6532,1.0008c-1.51141,0 -2.83016,-0.3 -3.9562,-0.9v-1.6703c1.01562,0.7094 2.34948,1.0641 4.0016,1.0641c1.0281,0 1.839,-0.199 2.4328,-0.5969c0.5937,-0.3979 0.8906,-0.9424 0.8906,-1.6336c0,-0.6911 -0.312,-1.2513 -0.9359,-1.6805c-0.5021,-0.3541 -1.0776,-0.6567 -1.7266,-0.9078c-0.649,-0.251 -1.1049,-0.4346 -1.368,-0.5508c-0.263,-0.1161 -0.5963,-0.2721 -0.99997,-0.4679c-0.40364,-0.1959 -0.72187,-0.3917 -0.95469,-0.5875c-0.23281,-0.1959 -0.47161,-0.4287 -0.7164,-0.6985c-0.46459,-0.5135 -0.69688,-1.1807 -0.69688,-2.0015z" fill="#ffffff" stroke="#ffffff" stroke-width="6" stroke-linejoin="round"/><path d="M595.4264,401.75775v-14.2109h9.1062v1.4328h-7.4718v4.8282h6.6828v1.414h-6.6828v5.1031h7.5828v1.4328z" fill="#ffffff" stroke="#ffffff" stroke-width="6" stroke-linejoin="round"/><path d="M611.1967,395.08435c-0.2688,-0.276 -0.4031,-0.6167 -0.4031,-1.0219c0,-0.4052 0.1346,-0.7458 0.4039,-1.0218c0.2692,-0.2761 0.6057,-0.4141 1.0093,-0.4141c0.4037,0 0.7433,0.138 1.0188,0.4141c0.2755,0.276 0.4133,0.6166 0.4133,1.0218c0,0.4052 -0.1347,0.7459 -0.4039,1.0219c-0.2693,0.2761 -0.6089,0.4141 -1.0188,0.4141c-0.4099,0 -0.7497,-0.138 -1.0195,-0.4141zM617.4576,395.08435c-0.2687,-0.276 -0.4031,-0.6167 -0.4031,-1.0219c0,-0.4052 0.1346,-0.7458 0.4039,-1.0218c0.2693,-0.2761 0.6057,-0.4141 1.0094,-0.4141c0.4036,0 0.7432,0.138 1.0187,0.4141c0.2756,0.276 0.4133,0.6166 0.4133,1.0218c0,0.4052 -0.1346,0.7459 -0.4039,1.0219c-0.2693,0.2761 -0.6088,0.4141 -1.0187,0.4141c-0.4099,0 -0.7498,-0.138 -1.0196,-0.4141zM623.7357,395.08435c-0.2687,-0.276 -0.4031,-0.6167 -0.4031,-1.0219c0,-0.4052 0.1347,-0.7458 0.4039,-1.0218c0.2693,-0.2761 0.606,-0.4141 1.0102,-0.4141c0.4042,0 0.7437,0.138 1.0187,0.4141c0.275,0.276 0.4125,0.6166 0.4125,1.0218c0,0.4052 -0.1346,0.7459 -0.4039,1.0219c-0.2692,0.2761 -0.6088,0.4141 -1.0187,0.4141c-0.4099,0 -0.7498,-0.138 -1.0196,-0.4141z" fill="#ffffff" stroke="#ffffff" stroke-width="6" stroke-linejoin="round"/><path d="M629.9967,395.08435c-0.2688,-0.276 -0.4031,-0.6167 -0.4031,-1.0219c0,-0.4052 0.1346,-0.7458 0.4039,-1.0218c0.2692,-0.2761 0.6057,-0.4141 1.0093,-0.4141c0.4037,0 0.7433,0.138 1.0188,0.4141c0.2755,0.276 0.4133,0.6166 0.4133,1.0218c0,0.4052 -0.1347,0.7459 -0.4039,1.0219c-0.2693,0.2761 -0.6089,0.4141 -1.0188,0.4141c-0.4099,0 -0.7497,-0.138 -1.0195,-0.4141zM636.2576,395.08435c-0.2687,-0.276 -0.4031,-0.6167 -0.4031,-1.0219c0,-0.4052 0.1346,-0.7458 0.4039,-1.0218c0.2693,-0.2761 0.6057,-0.4141 1.0094,-0.4141c0.4036,0 0.7432,0.138 1.0187,0.4141c0.2756,0.276 0.4133,0.6166 0.4133,1.0218c0,0.4052 -0.1346,0.7459 -0.4039,1.0219c-0.2693,0.2761 -0.6088,0.4141 -1.0187,0.4141c-0.4099,0 -0.7498,-0.138 -1.0196,-0.4141zM642.5358,395.08435c-0.2688,-0.276 -0.4032,-0.6167 -0.4032,-1.0219c0,-0.4052 0.1347,-0.7458 0.4039,-1.0218c0.2693,-0.2761 0.606,-0.4141 1.0102,-0.4141c0.4042,0 0.7437,0.138 1.0187,0.4141c0.275,0.276 0.4125,0.6166 0.4125,1.0218c0,0.4052 -0.1346,0.7459 -0.4039,1.0219c-0.2692,0.2761 -0.6088,0.4141 -1.0187,0.4141c-0.4099,0 -0.7498,-0.138 -1.0195,-0.4141z" fill="#ffffff" stroke="#ffffff" stroke-width="6" stroke-linejoin="round"/><path d="M648.3201,401.79845v-14.3h3.6534c1.628,0 2.919,0.4219 3.874,1.2656c0.955,0.8438 1.432,1.9219 1.432,3.2344c0,1.3125 -0.462,2.3906 -1.386,3.2344c-0.924,0.8437 -2.163,1.2656 -3.719,1.2656h-2.22v5.3zM649.9545,395.09845h2.239c1.077,0 1.922,-0.287 2.534,-0.861c0.612,-0.5739 0.918,-1.3205 0.918,-2.2398c0,-0.9193 -0.319,-1.6628 -0.955,-2.2305c-0.637,-0.5677 -1.524,-0.8515 -2.663,-0.8515h-2.073z" fill="#ffffff" stroke="#ffffff" stroke-width="6" stroke-linejoin="round"/><path d="M658.8385,401.79845l4.957,-14.3h2.259l4.883,14.3h-1.763l-1.248,-3.8h-6.077l-1.267,3.8zM662.3095,396.59995h5.158l-2.552,-7.75c-0.171,0.6136 -0.942,2.9271 -2.313,6.9407z" fill="#ffffff" stroke="#ffffff" stroke-width="6" stroke-linejoin="round"/><path d="M673.3205,401.79845v-14.3h2.075l3.579,6.0281c1.493,2.4896 2.601,4.3818 3.324,5.6766l0.348,0.6468c-0.049,-1.4052 -0.073,-3.501 -0.073,-6.2875v-6.064h1.634v14.3h-2.094l-3.561,-5.9625l-3.709,-6.3485c0.074,1.4844 0.111,3.5886 0.111,6.3125v5.9985z" fill="#ffffff" stroke="#ffffff" stroke-width="6" stroke-linejoin="round"/><path d="M686.2265,401.79845v-1.3594h1.322v-11.5609h-1.322v-1.3797h4.259v1.3797h-1.34v11.5609h1.34v1.3594z" fill="#ffffff" stroke="#ffffff" stroke-width="6" stroke-linejoin="round"/><path d="M693.9065,399.97035c-1.329,-1.2865 -1.993,-3.0269 -1.993,-5.2211c0,-2.1943 0.686,-3.968 2.057,-5.3211c1.37,-1.3532 3.133,-2.0297 5.287,-2.0297c1.273,0 2.399,0.2573 3.378,0.7719v1.7328c-0.6,-0.3459 -1.123,-0.5953 -1.569,-0.7485c-0.447,-0.1531 -0.976,-0.2297 -1.589,-0.2297c-1.762,0 -3.182,0.5235 -4.259,1.5704c-1.077,1.0468 -1.616,2.4346 -1.616,4.1632c0,1.7287 0.509,3.1136 1.525,4.1547c1.016,1.0412 2.289,1.5617 3.818,1.5617c1.53,0 2.773,-0.3562 3.728,-1.0687v1.6953c-0.87,0.5979 -2.07,0.8969 -3.599,0.8969c-2.117,0 -3.84,-0.6427 -5.168,-1.9281z" fill="#ffffff" stroke="#ffffff" stroke-width="6" stroke-linejoin="round"/><path d="M705.2205,401.79845v-14.3h3.653c1.628,0 2.919,0.4219 3.874,1.2656c0.955,0.8438 1.432,1.9219 1.432,3.2344c0,1.3125 -0.462,2.3906 -1.386,3.2344c-0.924,0.8437 -2.163,1.2656 -3.719,1.2656h-2.22v5.3zM706.8545,395.09845h2.239c1.077,0 1.922,-0.287 2.534,-0.861c0.612,-0.5739 0.918,-1.3205 0.918,-2.2398c0,-0.9193 -0.319,-1.6628 -0.955,-2.2305c-0.637,-0.5677 -1.524,-0.8515 -2.663,-0.8515h-2.073z" fill="#ffffff" stroke="#ffffff" stroke-width="6" stroke-linejoin="round"/><path d="M716.6015,396.49215v-8.9937h1.634v8.9765c0,1.3365 0.318,2.3175 0.955,2.943c0.636,0.6255 1.505,0.9383 2.606,0.9383c2.339,0 3.508,-1.3307 3.508,-3.9922v-8.8656h1.616v8.8281c0,1.826 -0.453,3.2112 -1.359,4.1555c-0.906,0.9442 -2.173,1.4164 -3.801,1.4164c-1.628,0 -2.895,-0.4628 -3.801,-1.3883c-0.905,-0.9255 -1.358,-2.2648 -1.358,-4.018z" fill="#ffffff" stroke="#ffffff" stroke-width="6" stroke-linejoin="round"/><path d="M730.0735,401.79845l1.028,-14.3h2.092l1.873,5.2328l2.332,6.8062c0.845,-2.4041 1.665,-4.6729 2.461,-6.8062l1.926,-5.2328h2.094l1.248,14.3h-1.634l-1.009,-12.0531c-0.76,2.1343 -1.537,4.2749 -2.332,6.4218l-1.965,5.3h-1.616l-4.075,-11.6109c0,0.7604 -0.128,2.8641 -0.386,6.3109l-0.403,5.6313z" fill="#ffffff" stroke="#ffffff" stroke-width="6" stroke-linejoin="round"/><path d="M748.2205,401.79845v-14.3h3.653c1.628,0 2.919,0.4219 3.874,1.2656c0.955,0.8438 1.432,1.9219 1.432,3.2344c0,1.3125 -0.462,2.3906 -1.386,3.2344c-0.924,0.8437 -2.163,1.2656 -3.719,1.2656h-2.22v5.3zM749.8545,395.09845h2.239c1.077,0 1.922,-0.287 2.534,-0.861c0.612,-0.5739 0.918,-1.3205 0.918,-2.2398c0,-0.9193 -0.319,-1.6628 -0.955,-2.2305c-0.637,-0.5677 -1.524,-0.8515 -2.663,-0.8515h-2.073z" fill="#ffffff" stroke="#ffffff" stroke-width="6" stroke-linejoin="round"/><path d="M759.2525,401.79845v-14.3h1.635v6.7562l5.783,-6.7562h2.018l-5.875,6.9406l6.335,7.3594h-2.185l-5.214,-6.1078l-0.862,1.0125v5.0953z" fill="#ffffff" stroke="#ffffff" stroke-width="6" stroke-linejoin="round"/><path d="M770.2265,401.79845v-1.3594h1.322v-11.5609h-1.322v-1.3797h4.259v1.3797h-1.34v11.5609h1.34v1.3594z" fill="#ffffff" stroke="#ffffff" stroke-width="6" stroke-linejoin="round"/><path d="M776.5205,401.79845v-14.3h2.075l3.579,6.0281c1.493,2.4896 2.601,4.3818 3.324,5.6766l0.348,0.6468c-0.049,-1.4052 -0.073,-3.501 -0.073,-6.2875v-6.064h1.634v14.3h-2.094l-3.561,-5.9625l-3.709,-6.3485c0.074,1.4844 0.111,3.5886 0.111,6.3125v5.9985z" fill="#ffffff" stroke="#ffffff" stroke-width="6" stroke-linejoin="round"/><path d="M794.7525,397.38745c1.2,-2.227 2.039,-4.5401 2.516,-6.939h-2.111v-1.2313h2.22v-3.2672h1.396v3.2672h1.983v1.2313h-1.818l1.983,5.0297l-0.917,0.9359c-0.221,-0.5875 -0.631,-1.6948 -1.231,-3.3219v9.6563h-1.396v-8.4453c-0.477,1.6645 -1.07,3.127 -1.779,4.3875zM799.8205,400.94995c2.424,-1.2729 4.468,-2.6625 6.132,-4.1687v-1.7797h-4.939v-1.2125h4.939v-1.7984h-4.517v-1.1579h4.517v-1.689h-4.939v-1.2297h2.883c-0.368,-0.6979 -0.723,-1.3161 -1.065,-1.8547l1.267,-0.4406c0.355,0.5635 0.777,1.3286 1.267,2.2953h2.827c0.514,-0.8562 0.93,-1.6151 1.248,-2.2766l1.286,0.3672c-0.38,0.7834 -0.717,1.4198 -1.011,1.9094h2.406v1.2125h-4.719v1.7062h4.461v1.1579h-4.461v1.7984h4.975v1.2125h-4.975v0.1828c0.38,0.7833 0.869,1.5729 1.469,2.3688c0.796,-0.649 1.549,-1.3959 2.258,-2.2407l1.009,0.8079c-0.758,0.9062 -1.571,1.714 -2.44,2.4234c0.892,0.9917 1.908,1.8547 3.047,2.589l-0.771,1.1391c-1.898,-1.2489 -3.422,-2.8771 -4.572,-4.8844v2.8454c0,1.0406 -0.125,1.6986 -0.376,1.9742c-0.251,0.2755 -0.842,0.4132 -1.772,0.4133c-0.404,-0.0001 -1.108,-0.0308 -2.111,-0.0922l-0.037,-1.2672c0.942,0.0614 1.6,0.0922 1.974,0.0922c0.373,0 0.612,-0.0581 0.716,-0.1743c0.104,-0.1161 0.156,-0.419 0.156,-0.9086v-1.9468c-1.542,1.3594 -3.354,2.6078 -5.434,3.7453zM801.0135,396.17655l0.991,-0.8641c0.698,0.698 1.396,1.4693 2.094,2.3141l-0.992,0.8625c-0.599,-0.7344 -1.297,-1.5052 -2.093,-2.3125z" fill="#ffffff" stroke="#ffffff" stroke-width="6" stroke-linejoin="round"/><path d="M648.04842,421.44525c1.75104,-1.1135 3.18333,-2.5088 4.29687,-4.1859c-0.78333,-0.9917 -1.57291,-1.9219 -2.36875,-2.7906l0.93594,-0.9359c0.79584,0.8322 1.52448,1.6583 2.18594,2.4781c0.575,-1.0531 1.02135,-2.2162 1.33906,-3.4891l1.12034,0.2578c-0.57503,-0.9302 -1.22346,-1.8666 -1.94534,-2.8093l1.1375,-0.6422c1.08954,1.4323 2.04424,2.8885 2.86404,4.3687l-1.064,0.8078c-0.3677,-0.6604 -0.6433,-1.1437 -0.8266,-1.45c-0.3552,1.3959 -0.92448,2.7604 -1.70781,4.0938c0.78333,1.0166 1.46871,1.9838 2.05621,2.9015l-1.08278,0.9172c-0.56354,-0.8812 -1.15729,-1.7437 -1.78125,-2.5875c-1.27291,1.8115 -2.75364,3.2188 -4.44218,4.2219zM648.19529,413.69685c1.1875,-1.2969 2.10573,-2.7469 2.75469,-4.35l1.19375,0.5313c-0.69791,1.751 -1.70156,3.3119 -3.01094,4.6828zM648.28748,408.99685v-1.2656h3.76406v-1.9828h1.45001v1.9828h3.74527v1.2656zM655.41092,421.59215c1.2115,-1.2604 2.0958,-2.6862 2.6531,-4.2773c0.5573,-1.5912 0.9094,-3.831 1.0563,-6.7195h-2.2766v-1.2672h2.3313c0.0364,-1.0282 0.0546,-2.1605 0.0546,-3.3969h1.4141c0,1.2114 -0.0182,2.3437 -0.0547,3.3969h4.4969c0,4.2343 -0.0518,7.0002 -0.1555,8.2976c-0.1036,1.2974 -0.2015,2.2125 -0.2937,2.7453c-0.0922,0.5328 -0.2391,0.949 -0.4406,1.2485c-0.2016,0.2994 -0.4003,0.483 -0.5961,0.5507c-0.1959,0.0678 -0.5602,0.1016 -1.093,0.1016c-0.5328,0 -1.4294,-0.0614 -2.6899,-0.1844v-1.3031c1.0282,0.1219 1.8542,0.1828 2.4782,0.1828c0.2698,0 0.475,-0.0979 0.6156,-0.2937c0.1406,-0.1959 0.2724,-0.6365 0.3953,-1.3219c0.2323,-1.2115 0.3484,-4.1302 0.3484,-8.7562h-3.1218c-0.1709,3.0958 -0.5654,5.5372 -1.1836,7.3242c-0.6182,1.7869 -1.5821,3.3539 -2.8914,4.7008z" fill="#ffffff" stroke="#ffffff" stroke-width="6" stroke-linejoin="round"/><path d="M667.03282,421.09685c3.0104,-1.4573 5.3114,-2.9995 6.9031,-4.6265h-6.3344v-1.2126h7.325v-1.3406h-6.0218v-7.5265h13.55v7.5265h-6.0219v1.3406h7.325v1.2126h-6.3344c1.6281,1.6645 3.9292,3.2187 6.9031,4.6624l-0.7343,1.1938c-3.0719,-1.5667 -5.4584,-3.2984 -7.1594,-5.1953v5.5437h-1.5063v-5.6c-1.725,1.9344 -4.1239,3.6849 -7.1969,5.2516zM670.35622,412.74215h4.5703v-2.0734h-4.5703zM670.35622,409.54845h4.5703v-1.9641h-4.5703zM676.43282,412.74215h4.5718v-2.0734h-4.5718zM676.43282,409.54845h4.5718v-1.9641h-4.5718z" fill="#ffffff" stroke="#ffffff" stroke-width="6" stroke-linejoin="round"/><path d="M686.01562,412.77965v-1.1937h5.0672c-0.5386,-1.1261 -1.0771,-2.1479 -1.6156,-3.0656h-2.8813v-1.2297h7.1406v-1.836h1.5063v1.836h7.1422v1.2297h-2.9938c-0.3792,1.077 -0.8745,2.0989 -1.4859,3.0656h5.0484v1.1937zM688.40312,422.62035v-8.5563h12.1531v8.5563h-1.5047v-0.8079h-9.1437v0.8079zM689.90782,420.59995h9.1437v-2.1109h-9.1437zM689.90782,417.31405h9.1437v-2.0188h-9.1437zM691.12032,408.52035c0.5875,1.052 1.1015,2.0739 1.5422,3.0656h3.5609c0.674,-0.9667 1.2187,-1.9886 1.6344,-3.0656z" fill="#ffffff" stroke="#ffffff" stroke-width="6" stroke-linejoin="round"/><path d="M705.84372,413.14685v-1.414h15c0,3.2802 -0.9945,5.826 -2.9836,7.6375c-1.989,1.8114 -4.9232,2.8578 -8.8023,3.139l-0.4406,-1.45c3.2552,-0.1469 5.7947,-0.8966 7.6187,-2.2492c1.824,-1.3526 2.8458,-3.2404 3.0656,-5.6633zM707.47812,408.55625v-1.4125h11.8969v1.4125z" fill="#ffffff" stroke="#ffffff" stroke-width="6" stroke-linejoin="round"/><path d="M723.94682,420.83905c0.4896,-0.7833 1.0464,-1.9766 1.6703,-3.5797c0.624,-1.6031 1.0584,-2.9557 1.3032,-4.0578l1.4515,0.3484c-0.2333,1.0771 -0.6742,2.442 -1.3226,4.0946c-0.6485,1.6526 -1.2175,2.8825 -1.707,3.6898zM724.29532,410.68595v-1.4125h6.9765v-3.2875h1.6157v3.2875h7.05v1.4125h-7.05v11.8422h-1.6157v-11.8422zM735.60472,413.58745l1.3765,-0.4593c0.5146,0.8812 1.1055,2.0929 1.7727,3.6351c0.6672,1.5422 1.1721,2.8643 1.5148,3.9664l-1.3594,0.55c-0.3791,-1.1625 -0.9083,-2.5302 -1.5875,-4.1031c-0.6791,-1.5729 -1.2515,-2.7693 -1.7171,-3.5891zM736.77962,406.15155l0.9922,-0.4031c0.4646,0.8687 0.8745,1.7989 1.2297,2.7906l-1.0468,0.3844c-0.4407,-1.224 -0.8323,-2.1479 -1.1751,-2.7719zM738.78122,405.58285l1.0094,-0.4047c0.4656,0.8698 0.8755,1.8 1.2297,2.7906l-1.0641,0.3859c-0.4406,-1.2239 -0.8323,-2.1479 -1.175,-2.7718z" fill="#ffffff" stroke="#ffffff" stroke-width="6" stroke-linejoin="round"/><path d="M747.24642,417.38745c1.2,-2.227 2.039,-4.5401 2.516,-6.939h-2.111v-1.2313h2.22v-3.2672h1.396v3.2672h1.983v1.2313h-1.818l1.983,5.0297l-0.917,0.9359c-0.221,-0.5875 -0.631,-1.6948 -1.231,-3.3219v9.6563h-1.396v-8.4453c-0.477,1.6645 -1.07,3.127 -1.779,4.3875zM752.31442,420.94995c2.424,-1.2729 4.468,-2.6625 6.132,-4.1687v-1.7797h-4.939v-1.2125h4.939v-1.7984h-4.517v-1.1578h4.517v-1.6891h-4.939v-1.2297h2.883c-0.368,-0.6979 -0.723,-1.3161 -1.065,-1.8547l1.267,-0.4406c0.355,0.5635 0.777,1.3286 1.267,2.2953h2.827c0.514,-0.8562 0.93,-1.6151 1.248,-2.2766l1.286,0.3672c-0.38,0.7834 -0.717,1.4198 -1.011,1.9094h2.406v1.2125h-4.719v1.7063h4.461v1.1578h-4.461v1.7984h4.975v1.2125h-4.975v0.1828c0.38,0.7833 0.869,1.5729 1.469,2.3688c0.796,-0.649 1.549,-1.3959 2.258,-2.2407l1.009,0.8079c-0.758,0.9062 -1.571,1.714 -2.44,2.4234c0.892,0.9917 1.908,1.8547 3.047,2.589l-0.771,1.1391c-1.898,-1.2489 -3.422,-2.8771 -4.572,-4.8844v2.8453c0,1.0407 -0.125,1.6987 -0.376,1.9743c-0.251,0.2755 -0.842,0.4133 -1.772,0.4133c-0.404,0 -1.108,-0.0308 -2.111,-0.0922l-0.037,-1.2672c0.942,0.0614 1.6,0.0922 1.974,0.0922c0.373,0 0.612,-0.0581 0.716,-0.1743c0.104,-0.1161 0.156,-0.419 0.156,-0.9085v-1.9469c-1.542,1.3594 -3.354,2.6078 -5.434,3.7453zM753.50742,416.17655l0.991,-0.8641c0.698,0.698 1.396,1.4693 2.094,2.3141l-0.992,0.8625c-0.599,-0.7344 -1.297,-1.5052 -2.093,-2.3125z" fill="#ffffff" stroke="#ffffff" stroke-width="6" stroke-linejoin="round"/><path d="M553.31075,354.76245c2.04375,-2.4354 3.46354,-5.39111 4.25937,-8.86715l1.4125,0.31094c-0.3427,1.60416 -0.84427,3.10989 -1.50468,4.51718v12.02503h-1.50625v-9.436c-0.5875,1.0646 -1.22396,1.9948 -1.90938,2.7907zM558.23106,353.18275c1.59063,-2.27599 2.79584,-4.77287 3.61564,-7.49058l1.3781,0.29375c-0.2208,0.71042 -0.3922,1.24323 -0.5141,1.59844h8.0219v1.24844h-5.8562v3.41406h5.2875v1.24839h-5.2875v3.5438h5.2875v1.2844h-5.2875v4.425h-1.5235v-13.91565h-1.1203c-0.7958,1.92083 -1.738,3.65885 -2.82654,5.21405z" fill="#000000" stroke="none" stroke-width="1" stroke-linejoin="miter"/><path d="M572.1654,361.33435c0.5875,-1.1375 1.0128,-2.4133 1.2758,-3.8273c0.263,-1.4141 0.3945,-3.1675 0.3945,-5.26019v-4.3875h7.436c-0.0365,-0.68541 -0.0547,-1.39531 -0.0547,-2.12969h1.4125c0,0.73438 0.0187,1.44428 0.0562,2.12969h3.9469c-0.8448,-0.53854 -1.763,-1.07708 -2.7547,-1.61562l0.7344,-0.99219c1.2979,0.68542 2.3875,1.32813 3.2688,1.92812l-0.5328,0.67969h1.4874v1.26719h-6.0593c0.2333,2.66771 0.7291,5.0234 1.4875,7.0672c1.0646,-1.5906 1.8297,-3.4266 2.2953,-5.50783l1.3406,0.36719c-0.5635,2.53434 -1.5672,4.75004 -3.0109,6.64684c0.3177,0.6605 0.6479,1.2355 0.9906,1.725c0.649,0.9063 1.1141,1.3594 1.3953,1.3594c0.4531,0 0.7958,-1.1812 1.0281,-3.5437l1.3594,0.4406c-0.2823,3.2073 -1.0167,4.8109 -2.2031,4.8109c-0.4656,0 -1.0289,-0.3122 -1.6899,-0.9367c-0.6609,-0.6245 -1.2914,-1.5117 -1.8914,-2.6617c-1.4562,1.5542 -3.1817,2.6922 -5.1765,3.414l-0.6985,-1.1937c2.0448,-0.7583 3.7891,-1.9578 5.2329,-3.5984c-0.9917,-2.35 -1.6219,-5.1464 -1.8907,-8.3891h-6.0593v2.27656h5.0671c0,3.43854 -0.0825,5.51584 -0.2476,6.23204c-0.1651,0.7161 -0.4555,1.1357 -0.8711,1.2586c-0.1958,0.0604 -0.5112,0.0906 -0.9461,0.0906c-0.4349,0 -1.3378,-0.0547 -2.7086,-0.1641l-0.1281,-1.2484c1.126,0.1094 1.8911,0.1641 2.2953,0.1641c0.6,0 0.9549,-0.2232 1.0648,-0.6696c0.1099,-0.4463 0.1649,-1.9367 0.1649,-4.4711h-3.6906v0.5704c0,3.9406 -0.6855,7.0739 -2.0563,9.4z" fill="#000000" stroke="none" stroke-width="1" stroke-linejoin="miter"/><path d="M591.0389,355.88275c2.9614,-0.8812 5.6906,-2.0625 8.1875,-3.5437h-8.1328v-1.22969h7.5093v-2.46094h-5.7468v-1.19375h5.7468v-1.79843h1.5047v1.79843h4.2782v0.99219c0.7343,-0.71041 1.377,-1.43281 1.9281,-2.16719l1.1015,0.79063c-1.0895,1.39479 -2.4604,2.74115 -4.1125,4.03906h4.975v1.22969h-6.664c-0.8813,0.6 -1.9094,1.2182 -3.0844,1.8547h7.8391v8.4265h-1.4688v-0.8078h-8.3531v0.8078h-1.4688v-6.775c-1.1625,0.5021 -2.3557,0.9428 -3.5796,1.3219zM596.5467,360.59995h8.3531v-2.0562h-8.3531zM596.5467,357.38745h8.3531v-1.964h-8.3531zM600.1076,351.10936h1.0282c1.077,-0.75937 2.0869,-1.57969 3.0296,-2.46094h-4.0578z" fill="#000000" stroke="none" stroke-width="1" stroke-linejoin="miter"/><path d="M611.1967,355.08435c-0.2688,-0.276 -0.4031,-0.6167 -0.4031,-1.0219c0,-0.4052 0.1346,-0.7458 0.4039,-1.0218c0.2692,-0.2761 0.6057,-0.4141 1.0093,-0.4141c0.4037,0 0.7433,0.138 1.0188,0.4141c0.2755,0.276 0.4133,0.6166 0.4133,1.0218c0,0.4052 -0.1347,0.7459 -0.4039,1.0219c-0.2693,0.2761 -0.6089,0.4141 -1.0188,0.4141c-0.4099,0 -0.7497,-0.138 -1.0195,-0.4141zM617.4576,355.08435c-0.2687,-0.276 -0.4031,-0.6167 -0.4031,-1.0219c0,-0.4052 0.1346,-0.7458 0.4039,-1.0218c0.2693,-0.2761 0.6057,-0.4141 1.0094,-0.4141c0.4036,0 0.7432,0.138 1.0187,0.4141c0.2756,0.276 0.4133,0.6166 0.4133,1.0218c0,0.4052 -0.1346,0.7459 -0.4039,1.0219c-0.2693,0.2761 -0.6088,0.4141 -1.0187,0.4141c-0.4099,0 -0.7498,-0.138 -1.0196,-0.4141zM623.7357,355.08435c-0.2687,-0.276 -0.4031,-0.6167 -0.4031,-1.0219c0,-0.4052 0.1347,-0.7458 0.4039,-1.0218c0.2693,-0.2761 0.606,-0.4141 1.0102,-0.4141c0.4042,0 0.7437,0.138 1.0187,0.4141c0.275,0.276 0.4125,0.6166 0.4125,1.0218c0,0.4052 -0.1346,0.7459 -0.4039,1.0219c-0.2692,0.2761 -0.6088,0.4141 -1.0187,0.4141c-0.4099,0 -0.7498,-0.138 -1.0196,-0.4141z" fill="#000000" stroke="none" stroke-width="1" stroke-linejoin="miter"/><path d="M629.9967,355.08435c-0.2688,-0.276 -0.4031,-0.6167 -0.4031,-1.0219c0,-0.4052 0.1346,-0.7458 0.4039,-1.0218c0.2692,-0.2761 0.6057,-0.4141 1.0093,-0.4141c0.4037,0 0.7433,0.138 1.0188,0.4141c0.2755,0.276 0.4133,0.6166 0.4133,1.0218c0,0.4052 -0.1347,0.7459 -0.4039,1.0219c-0.2693,0.2761 -0.6089,0.4141 -1.0188,0.4141c-0.4099,0 -0.7497,-0.138 -1.0195,-0.4141zM636.2576,355.08435c-0.2687,-0.276 -0.4031,-0.6167 -0.4031,-1.0219c0,-0.4052 0.1346,-0.7458 0.4039,-1.0218c0.2693,-0.2761 0.6057,-0.4141 1.0094,-0.4141c0.4036,0 0.7432,0.138 1.0187,0.4141c0.2756,0.276 0.4133,0.6166 0.4133,1.0218c0,0.4052 -0.1346,0.7459 -0.4039,1.0219c-0.2693,0.2761 -0.6088,0.4141 -1.0187,0.4141c-0.4099,0 -0.7498,-0.138 -1.0196,-0.4141zM642.5358,355.08435c-0.2688,-0.276 -0.4032,-0.6167 -0.4032,-1.0219c0,-0.4052 0.1347,-0.7458 0.4039,-1.0218c0.2693,-0.2761 0.606,-0.4141 1.0102,-0.4141c0.4042,0 0.7437,0.138 1.0187,0.4141c0.275,0.276 0.4125,0.6166 0.4125,1.0218c0,0.4052 -0.1346,0.7459 -0.4039,1.0219c-0.2692,0.2761 -0.6088,0.4141 -1.0187,0.4141c-0.4099,0 -0.7498,-0.138 -1.0195,-0.4141z" fill="#000000" stroke="none" stroke-width="1" stroke-linejoin="miter"/><path d="M647.8061,360.89375h7.5264v-2.5703h-6.2046v-1.1922h6.2046v-1.8735h1.506v1.8735h6.077v1.1922h-6.077v2.5703h7.527v1.2125h-16.5594zM647.9529,351.53124v-4.3875h7.3796v-1.68907h1.506v1.68907h7.38v4.3875h-1.412v-3.19532h-13.4395v3.19532zM648.6873,353.93595c0.9302,-0.024 1.8662,-0.0604 2.8092,-0.1094c0.55,-0.9188 1.07,-1.88594 1.56,-2.90156h-3.0286v-1.1375h12.1176v1.1375h-1.708c1.309,1.43226 2.417,2.72346 3.323,3.87346l-1.231,0.6609c-0.379,-0.501 -0.709,-0.9172 -0.991,-1.2484c-4.393,0.4896 -8.653,0.7958 -12.7778,0.9187zM653.1295,353.73435c2.509,-0.1469 5.006,-0.3489 7.491,-0.6062c-0.416,-0.4896 -1.064,-1.224 -1.946,-2.20316h-4.076c-0.441,0.94271 -0.93,1.87916 -1.469,2.80936z" fill="#000000" stroke="none" stroke-width="1" stroke-linejoin="miter"/><path d="M667.1385,362.47345v-16.08284h15.496v13.56714c0,1.0771 -0.123,1.7443 -0.368,2.0016c-0.244,0.2573 -0.869,0.3859 -1.873,0.3859c-0.171,0 -0.489,-0.0122 -0.954,-0.0367c-0.465,-0.0245 -1.151,-0.0492 -2.057,-0.0742l-0.055,-1.2672c1.678,0.0615 2.69,0.0922 3.039,0.0922c0.348,0 0.571,-0.0521 0.669,-0.1562c0.098,-0.1042 0.147,-0.4193 0.147,-0.9454v-12.3187h-12.594v14.8344zM669.4885,353.07345v-1.22971h2.993c-0.38,-1.13855 -0.808,-2.24011 -1.286,-3.30469l1.267,-0.36719c0.477,1.07709 0.942,2.30104 1.395,3.67188h1.964c0.551,-0.99167 1.065,-2.24011 1.542,-3.74532l1.286,0.38438c-0.367,1.175 -0.826,2.29531 -1.376,3.36094h3.011v1.22971h-4.683v4.6625h2.259v-3.6157h1.396v5.911h-1.396v-1.0828h-5.948v1.9453h-1.395v-6.7735h1.395v3.6157h2.258v-4.6625z" fill="#000000" stroke="none" stroke-width="1" stroke-linejoin="miter"/><path d="M696.5355,362.62025v-16.17495h5.361v1.175c-0.513,1.56667 -1.186,3.1151 -2.019,4.64535c0.588,0.7343 0.995,1.4198 1.222,2.0562c0.226,0.6365 0.339,1.374 0.339,2.2125c0,0.8386 -0.195,1.4565 -0.587,1.8539c-0.392,0.3974 -1.01,0.5961 -1.855,0.5961h-0.533l-0.22,-1.1922h0.514c0.526,0 0.89,-0.1133 1.092,-0.3398c0.202,-0.2266 0.303,-0.6643 0.303,-1.3133c0,-0.649 -0.119,-1.2427 -0.357,-1.7813c-0.239,-0.5385 -0.701,-1.2052 -1.386,-2c0.832,-1.4812 1.536,-3.06037 2.111,-4.73745h-2.607v14.99995zM700.6125,360.89375h5.783v-2.7531h-4.369v-1.1563h4.369v-2.075h1.487v2.075h4.534v1.1563h-4.534v2.7531h5.233v1.2125h-12.503zM701.4385,351.67811v-1.19375h4.957v-2.00156h-4.002v-1.19219h4.002v-1.59844h1.487v1.59844h4.534v1.19219h-4.534v2.00156h5.049v1.19375h-3.599v2.01874c0,0.2573 0.019,0.4073 0.056,0.45c0.037,0.0427 0.171,0.0703 0.403,0.0828l0.697,0.0188l0.644,-0.0188c0.318,-0.0125 0.51,-0.0922 0.577,-0.239c0.068,-0.1469 0.126,-0.6547 0.175,-1.5235l1.193,0.1281c-0.097,1.2855 -0.241,2.0719 -0.431,2.3594c-0.189,0.2875 -0.694,0.4375 -1.514,0.45l-0.808,0.0188l-0.881,-0.0188c-0.636,-0.0125 -1.04,-0.095 -1.212,-0.2476c-0.171,-0.1526 -0.257,-0.4862 -0.257,-1.0008v-2.47814h-1.34c-0.343,2.10524 -1.854,3.54324 -4.535,4.31404l-0.551,-1.1375c2.13,-0.5875 3.372,-1.6463 3.726,-3.17654z" fill="#000000" stroke="none" stroke-width="1" stroke-linejoin="miter"/><path d="M557.38575,381.75775v-14.2109h4.55315c1.5666,0 2.8273,0.3367 3.782,1.0102c0.9547,0.6734 1.432,1.5789 1.432,2.7164c0,0.8323 -0.2448,1.5453 -0.7343,2.139c-0.4896,0.5938 -1.1261,0.9703 -1.9094,1.1297c0.8573,0.1104 1.5857,0.4563 2.1851,1.0375c0.5995,0.5813 0.8993,1.4042 0.8993,2.4688c0,1.0646 -0.4039,1.9489 -1.2118,2.6531c-0.8078,0.7042 -1.958,1.0562 -3.4507,1.0562zM559.02013,380.36245h3.69057c1.0282,0 1.8175,-0.2112 2.368,-0.6336c0.5505,-0.4224 0.8258,-1.0437 0.8258,-1.864c0,-0.8203 -0.3029,-1.4568 -0.9086,-1.9094c-0.6057,-0.4526 -1.4841,-0.6789 -2.6352,-0.6789h-3.34057zM559.02013,373.88125h2.62497c1.2979,0 2.2589,-0.2388 2.8828,-0.7164c0.624,-0.4776 0.936,-1.0774 0.936,-1.7992c0,-0.7219 -0.2938,-1.3032 -0.8813,-1.7438c-0.5875,-0.4406 -1.4625,-0.6609 -2.625,-0.6609h-2.93747z" fill="#000000" stroke="none" stroke-width="1" stroke-linejoin="miter"/><path d="M576.5061,379.97655c-1.4375,-1.2979 -2.1563,-3.0484 -2.1563,-5.2516c0,-2.2031 0.7221,-3.9929 2.1664,-5.3695c1.4443,-1.3766 3.305,-2.0648 5.5821,-2.0648c1.6645,0 3.1026,0.3239 4.314,0.9718v1.6719c-1.1385,-0.6979 -2.5859,-1.0469 -4.3422,-1.0469c-1.7562,0 -3.1974,0.5263 -4.3234,1.5789c-1.1261,1.0526 -1.6891,2.4602 -1.6891,4.2227c0,1.7625 0.5477,3.1456 1.643,4.1492c1.0953,1.0037 2.5914,1.5055 4.4883,1.5055c1.1385,0 2.1854,-0.1958 3.1406,-0.5875h0.0359v-4.4985h-3.4875v-1.4312h5.1032v6.8469c-1.273,0.8323 -2.8886,1.2484 -4.8469,1.2484c-2.3136,0 -4.1896,-0.6484 -5.6281,-1.9453z" fill="#000000" stroke="none" stroke-width="1" stroke-linejoin="miter"/><path d="M592.1592,381.75775l1.0281,-14.2109h2.0922l1.8734,5.1953l2.3313,6.7563c0.8448,-2.3865 1.6646,-4.6386 2.4594,-6.7563l1.9281,-5.1953h2.0937l1.2485,14.2109h-1.6344l-1.0094,-12.0265c-0.7593,2.1302 -1.537,4.2661 -2.3328,6.4078l-1.9641,5.2875h-1.6156l-4.075,-11.5844c0,0.7584 -0.1286,2.8573 -0.3859,6.2969l-0.4047,5.6187z" fill="#000000" stroke="none" stroke-width="1" stroke-linejoin="miter"/><path d="M611.1967,375.08435c-0.2688,-0.276 -0.4031,-0.6167 -0.4031,-1.0219c0,-0.4052 0.1346,-0.7458 0.4039,-1.0218c0.2692,-0.2761 0.6057,-0.4141 1.0093,-0.4141c0.4037,0 0.7433,0.138 1.0188,0.4141c0.2755,0.276 0.4133,0.6166 0.4133,1.0218c0,0.4052 -0.1347,0.7459 -0.4039,1.0219c-0.2693,0.2761 -0.6089,0.4141 -1.0188,0.4141c-0.4099,0 -0.7497,-0.138 -1.0195,-0.4141zM617.4576,375.08435c-0.2687,-0.276 -0.4031,-0.6167 -0.4031,-1.0219c0,-0.4052 0.1346,-0.7458 0.4039,-1.0218c0.2693,-0.2761 0.6057,-0.4141 1.0094,-0.4141c0.4036,0 0.7432,0.138 1.0187,0.4141c0.2756,0.276 0.4133,0.6166 0.4133,1.0218c0,0.4052 -0.1346,0.7459 -0.4039,1.0219c-0.2693,0.2761 -0.6088,0.4141 -1.0187,0.4141c-0.4099,0 -0.7498,-0.138 -1.0196,-0.4141zM623.7357,375.08435c-0.2687,-0.276 -0.4031,-0.6167 -0.4031,-1.0219c0,-0.4052 0.1347,-0.7458 0.4039,-1.0218c0.2693,-0.2761 0.606,-0.4141 1.0102,-0.4141c0.4042,0 0.7437,0.138 1.0187,0.4141c0.275,0.276 0.4125,0.6166 0.4125,1.0218c0,0.4052 -0.1346,0.7459 -0.4039,1.0219c-0.2692,0.2761 -0.6088,0.4141 -1.0187,0.4141c-0.4099,0 -0.7498,-0.138 -1.0196,-0.4141z" fill="#000000" stroke="none" stroke-width="1" stroke-linejoin="miter"/><path d="M629.9967,375.08435c-0.2688,-0.276 -0.4031,-0.6167 -0.4031,-1.0219c0,-0.4052 0.1346,-0.7458 0.4039,-1.0218c0.2692,-0.2761 0.6057,-0.4141 1.0093,-0.4141c0.4037,0 0.7433,0.138 1.0188,0.4141c0.2755,0.276 0.4133,0.6166 0.4133,1.0218c0,0.4052 -0.1347,0.7459 -0.4039,1.0219c-0.2693,0.2761 -0.6089,0.4141 -1.0188,0.4141c-0.4099,0 -0.7497,-0.138 -1.0195,-0.4141zM636.2576,375.08435c-0.2687,-0.276 -0.4031,-0.6167 -0.4031,-1.0219c0,-0.4052 0.1346,-0.7458 0.4039,-1.0218c0.2693,-0.2761 0.6057,-0.4141 1.0094,-0.4141c0.4036,0 0.7432,0.138 1.0187,0.4141c0.2756,0.276 0.4133,0.6166 0.4133,1.0218c0,0.4052 -0.1346,0.7459 -0.4039,1.0219c-0.2693,0.2761 -0.6088,0.4141 -1.0187,0.4141c-0.4099,0 -0.7498,-0.138 -1.0196,-0.4141zM642.5358,375.08435c-0.2688,-0.276 -0.4032,-0.6167 -0.4032,-1.0219c0,-0.4052 0.1347,-0.7458 0.4039,-1.0218c0.2693,-0.2761 0.606,-0.4141 1.0102,-0.4141c0.4042,0 0.7437,0.138 1.0187,0.4141c0.275,0.276 0.4125,0.6166 0.4125,1.0218c0,0.4052 -0.1346,0.7459 -0.4039,1.0219c-0.2692,0.2761 -0.6088,0.4141 -1.0187,0.4141c-0.4099,0 -0.7498,-0.138 -1.0195,-0.4141z" fill="#000000" stroke="none" stroke-width="1" stroke-linejoin="miter"/><path d="M648.3201,381.79845v-14.3h3.6534c1.628,0 2.919,0.4218 3.874,1.2656c0.955,0.8437 1.432,1.9219 1.432,3.2344c0,1.3125 -0.462,2.3906 -1.386,3.2343c-0.924,0.8438 -2.163,1.2657 -3.719,1.2657h-2.22v5.3zM649.9545,375.09845h2.239c1.077,0 1.922,-0.287 2.534,-0.861c0.612,-0.5739 0.918,-1.3205 0.918,-2.2398c0,-0.9193 -0.319,-1.6628 -0.955,-2.2305c-0.637,-0.5677 -1.524,-0.8515 -2.663,-0.8515h-2.073z" fill="#000000" stroke="none" stroke-width="1" stroke-linejoin="miter"/><path d="M658.8385,381.79845l4.957,-14.3h2.259l4.883,14.3h-1.763l-1.248,-3.8h-6.077l-1.267,3.8zM662.3095,376.59995h5.158l-2.552,-7.75c-0.171,0.6136 -0.942,2.9271 -2.313,6.9407z" fill="#000000" stroke="none" stroke-width="1" stroke-linejoin="miter"/><path d="M673.3205,381.79845v-14.3h2.075l3.579,6.0281c1.493,2.4896 2.601,4.3818 3.324,5.6766l0.348,0.6468c-0.049,-1.4052 -0.073,-3.501 -0.073,-6.2875v-6.064h1.634v14.3h-2.094l-3.561,-5.9625l-3.709,-6.3485c0.074,1.4844 0.111,3.5886 0.111,6.3125v5.9985z" fill="#000000" stroke="none" stroke-width="1" stroke-linejoin="miter"/><path d="M686.2265,381.79845v-1.3594h1.322v-11.5609h-1.322v-1.3797h4.259v1.3797h-1.34v11.5609h1.34v1.3594z" fill="#000000" stroke="none" stroke-width="1" stroke-linejoin="miter"/><path d="M693.9065,379.97035c-1.329,-1.2865 -1.993,-3.0269 -1.993,-5.2211c0,-2.1943 0.686,-3.968 2.057,-5.3211c1.37,-1.3532 3.133,-2.0297 5.287,-2.0297c1.273,0 2.399,0.2573 3.378,0.7718v1.7329c-0.6,-0.3459 -1.123,-0.5954 -1.569,-0.7485c-0.447,-0.1531 -0.976,-0.2297 -1.589,-0.2297c-1.762,0 -3.182,0.5235 -4.259,1.5703c-1.077,1.0469 -1.616,2.4347 -1.616,4.1633c0,1.7287 0.509,3.1136 1.525,4.1547c1.016,1.0412 2.289,1.5617 3.818,1.5617c1.53,0 2.773,-0.3562 3.728,-1.0687v1.6953c-0.87,0.5979 -2.07,0.8969 -3.599,0.8969c-2.117,0 -3.84,-0.6427 -5.168,-1.9281z" fill="#000000" stroke="none" stroke-width="1" stroke-linejoin="miter"/><path d="M705.2205,381.79845v-14.3h3.653c1.628,0 2.919,0.4218 3.874,1.2656c0.955,0.8437 1.432,1.9219 1.432,3.2344c0,1.3125 -0.462,2.3906 -1.386,3.2343c-0.924,0.8438 -2.163,1.2657 -3.719,1.2657h-2.22v5.3zM706.8545,375.09845h2.239c1.077,0 1.922,-0.287 2.534,-0.861c0.612,-0.5739 0.918,-1.3205 0.918,-2.2398c0,-0.9193 -0.319,-1.6628 -0.955,-2.2305c-0.637,-0.5677 -1.524,-0.8515 -2.663,-0.8515h-2.073z" fill="#000000" stroke="none" stroke-width="1" stroke-linejoin="miter"/><path d="M716.6015,376.49215v-8.9937h1.634v8.9765c0,1.3365 0.318,2.3175 0.955,2.943c0.636,0.6255 1.505,0.9383 2.606,0.9383c2.339,0 3.508,-1.3307 3.508,-3.9922v-8.8656h1.616v8.8281c0,1.826 -0.453,3.2112 -1.359,4.1555c-0.906,0.9442 -2.173,1.4164 -3.801,1.4164c-1.628,0 -2.895,-0.4628 -3.801,-1.3883c-0.905,-0.9255 -1.358,-2.2649 -1.358,-4.018z" fill="#000000" stroke="none" stroke-width="1" stroke-linejoin="miter"/><path d="M730.0735,381.79845l1.028,-14.3h2.092l1.873,5.2328l2.332,6.8062c0.845,-2.4041 1.665,-4.6729 2.461,-6.8062l1.926,-5.2328h2.094l1.248,14.3h-1.634l-1.009,-12.0532c-0.76,2.1344 -1.537,4.275 -2.332,6.4219l-1.965,5.3h-1.616l-4.075,-11.6109c0,0.7604 -0.128,2.864 -0.386,6.3109l-0.403,5.6313z" fill="#000000" stroke="none" stroke-width="1" stroke-linejoin="miter"/><path d="M748.2205,381.79845v-14.3h3.653c1.628,0 2.919,0.4218 3.874,1.2656c0.955,0.8437 1.432,1.9219 1.432,3.2344c0,1.3125 -0.462,2.3906 -1.386,3.2343c-0.924,0.8438 -2.163,1.2657 -3.719,1.2657h-2.22v5.3zM749.8545,375.09845h2.239c1.077,0 1.922,-0.287 2.534,-0.861c0.612,-0.5739 0.918,-1.3205 0.918,-2.2398c0,-0.9193 -0.319,-1.6628 -0.955,-2.2305c-0.637,-0.5677 -1.524,-0.8515 -2.663,-0.8515h-2.073z" fill="#000000" stroke="none" stroke-width="1" stroke-linejoin="miter"/><path d="M759.2525,381.79845v-14.3h1.635v6.7562l5.783,-6.7562h2.018l-5.875,6.9406l6.335,7.3594h-2.185l-5.214,-6.1078l-0.862,1.0125v5.0953z" fill="#000000" stroke="none" stroke-width="1" stroke-linejoin="miter"/><path d="M770.2265,381.79845v-1.3594h1.322v-11.5609h-1.322v-1.3797h4.259v1.3797h-1.34v11.5609h1.34v1.3594z" fill="#000000" stroke="none" stroke-width="1" stroke-linejoin="miter"/><path d="M776.5205,381.79845v-14.3h2.075l3.579,6.0281c1.493,2.4896 2.601,4.3818 3.324,5.6766l0.348,0.6468c-0.049,-1.4052 -0.073,-3.501 -0.073,-6.2875v-6.064h1.634v14.3h-2.094l-3.561,-5.9625l-3.709,-6.3485c0.074,1.4844 0.111,3.5886 0.111,6.3125v5.9985z" fill="#000000" stroke="none" stroke-width="1" stroke-linejoin="miter"/><path d="M794.7525,377.38745c1.2,-2.227 2.039,-4.5401 2.516,-6.939h-2.111v-1.2313h2.22v-3.2672h1.396v3.2672h1.983v1.2313h-1.818l1.983,5.0297l-0.917,0.9359c-0.221,-0.5875 -0.631,-1.6948 -1.231,-3.3219v9.6563h-1.396v-8.4453c-0.477,1.6645 -1.07,3.127 -1.779,4.3875zM799.8205,380.94995c2.424,-1.2729 4.468,-2.6625 6.132,-4.1687v-1.7797h-4.939v-1.2125h4.939v-1.7984h-4.517v-1.1579h4.517v-1.689h-4.939v-1.2297h2.883c-0.368,-0.6979 -0.723,-1.3161 -1.065,-1.8547l1.267,-0.4406c0.355,0.5635 0.777,1.3286 1.267,2.2953h2.827c0.514,-0.8563 0.93,-1.6151 1.248,-2.2766l1.286,0.3672c-0.38,0.7834 -0.717,1.4198 -1.011,1.9094h2.406v1.2125h-4.719v1.7062h4.461v1.1579h-4.461v1.7984h4.975v1.2125h-4.975v0.1828c0.38,0.7833 0.869,1.5729 1.469,2.3688c0.796,-0.649 1.549,-1.3959 2.258,-2.2407l1.009,0.8078c-0.758,0.9063 -1.571,1.7141 -2.44,2.4235c0.892,0.9917 1.908,1.8547 3.047,2.589l-0.771,1.1391c-1.898,-1.2489 -3.422,-2.8771 -4.572,-4.8844v2.8453c0,1.0407 -0.125,1.6987 -0.376,1.9743c-0.251,0.2755 -0.842,0.4132 -1.772,0.4132c-0.404,0 -1.108,-0.0307 -2.111,-0.0921l-0.037,-1.2672c0.942,0.0614 1.6,0.0922 1.974,0.0922c0.373,0 0.612,-0.0581 0.716,-0.1743c0.104,-0.1161 0.156,-0.419 0.156,-0.9086v-1.9468c-1.542,1.3593 -3.354,2.6078 -5.434,3.7453zM801.0135,376.17655l0.991,-0.8641c0.698,0.698 1.396,1.4693 2.094,2.3141l-0.992,0.8625c-0.599,-0.7344 -1.297,-1.5052 -2.093,-2.3125z" fill="#000000" stroke="none" stroke-width="1" stroke-linejoin="miter"/><path d="M557.64356,391.27345c0,-1.199 0.47422,-2.138 1.42266,-2.8172c0.94844,-0.6792 2.08958,-1.0188 3.42348,-1.0188c1.3338,0 2.4539,0.2079 3.3601,0.6235v1.6531c-0.8687,-0.5021 -1.8755,-0.7531 -3.0203,-0.7531c-1.1448,0 -2.0078,0.2049 -2.58906,0.6148c-0.58125,0.4099 -0.87188,0.9055 -0.87188,1.4867c0,0.5813 0.19584,1.0677 0.5875,1.4594c0.39164,0.3917 1.32184,0.8755 2.79064,1.4516c0.551,0.2198 1.0101,0.4185 1.3773,0.5961c0.3672,0.1776 0.7774,0.4252 1.2305,0.7429c0.9052,0.6365 1.3578,1.5607 1.3578,2.7727c0,1.212 -0.462,2.1516 -1.3859,2.8187c-0.924,0.6672 -2.1417,1.0008 -3.6532,1.0008c-1.51141,0 -2.83016,-0.3 -3.9562,-0.9v-1.6703c1.01562,0.7094 2.34948,1.0641 4.0016,1.0641c1.0281,0 1.839,-0.199 2.4328,-0.5969c0.5937,-0.3979 0.8906,-0.9424 0.8906,-1.6336c0,-0.6911 -0.312,-1.2513 -0.9359,-1.6805c-0.5021,-0.3541 -1.0776,-0.6567 -1.7266,-0.9078c-0.649,-0.251 -1.1049,-0.4346 -1.368,-0.5508c-0.263,-0.1161 -0.5963,-0.2721 -0.99997,-0.4679c-0.40364,-0.1959 -0.72187,-0.3917 -0.95469,-0.5875c-0.23281,-0.1959 -0.47161,-0.4287 -0.7164,-0.6985c-0.46459,-0.5135 -0.69688,-1.1807 -0.69688,-2.0015z" fill="#000000" stroke="none" stroke-width="1" stroke-linejoin="miter"/><path d="M595.4264,401.75775v-14.2109h9.1062v1.4328h-7.4718v4.8282h6.6828v1.414h-6.6828v5.1031h7.5828v1.4328z" fill="#000000" stroke="none" stroke-width="1" stroke-linejoin="miter"/><path d="M611.1967,395.08435c-0.2688,-0.276 -0.4031,-0.6167 -0.4031,-1.0219c0,-0.4052 0.1346,-0.7458 0.4039,-1.0218c0.2692,-0.2761 0.6057,-0.4141 1.0093,-0.4141c0.4037,0 0.7433,0.138 1.0188,0.4141c0.2755,0.276 0.4133,0.6166 0.4133,1.0218c0,0.4052 -0.1347,0.7459 -0.4039,1.0219c-0.2693,0.2761 -0.6089,0.4141 -1.0188,0.4141c-0.4099,0 -0.7497,-0.138 -1.0195,-0.4141zM617.4576,395.08435c-0.2687,-0.276 -0.4031,-0.6167 -0.4031,-1.0219c0,-0.4052 0.1346,-0.7458 0.4039,-1.0218c0.2693,-0.2761 0.6057,-0.4141 1.0094,-0.4141c0.4036,0 0.7432,0.138 1.0187,0.4141c0.2756,0.276 0.4133,0.6166 0.4133,1.0218c0,0.4052 -0.1346,0.7459 -0.4039,1.0219c-0.2693,0.2761 -0.6088,0.4141 -1.0187,0.4141c-0.4099,0 -0.7498,-0.138 -1.0196,-0.4141zM623.7357,395.08435c-0.2687,-0.276 -0.4031,-0.6167 -0.4031,-1.0219c0,-0.4052 0.1347,-0.7458 0.4039,-1.0218c0.2693,-0.2761 0.606,-0.4141 1.0102,-0.4141c0.4042,0 0.7437,0.138 1.0187,0.4141c0.275,0.276 0.4125,0.6166 0.4125,1.0218c0,0.4052 -0.1346,0.7459 -0.4039,1.0219c-0.2692,0.2761 -0.6088,0.4141 -1.0187,0.4141c-0.4099,0 -0.7498,-0.138 -1.0196,-0.4141z" fill="#000000" stroke="none" stroke-width="1" stroke-linejoin="miter"/><path d="M629.9967,395.08435c-0.2688,-0.276 -0.4031,-0.6167 -0.4031,-1.0219c0,-0.4052 0.1346,-0.7458 0.4039,-1.0218c0.2692,-0.2761 0.6057,-0.4141 1.0093,-0.4141c0.4037,0 0.7433,0.138 1.0188,0.4141c0.2755,0.276 0.4133,0.6166 0.4133,1.0218c0,0.4052 -0.1347,0.7459 -0.4039,1.0219c-0.2693,0.2761 -0.6089,0.4141 -1.0188,0.4141c-0.4099,0 -0.7497,-0.138 -1.0195,-0.4141zM636.2576,395.08435c-0.2687,-0.276 -0.4031,-0.6167 -0.4031,-1.0219c0,-0.4052 0.1346,-0.7458 0.4039,-1.0218c0.2693,-0.2761 0.6057,-0.4141 1.0094,-0.4141c0.4036,0 0.7432,0.138 1.0187,0.4141c0.2756,0.276 0.4133,0.6166 0.4133,1.0218c0,0.4052 -0.1346,0.7459 -0.4039,1.0219c-0.2693,0.2761 -0.6088,0.4141 -1.0187,0.4141c-0.4099,0 -0.7498,-0.138 -1.0196,-0.4141zM642.5358,395.08435c-0.2688,-0.276 -0.4032,-0.6167 -0.4032,-1.0219c0,-0.4052 0.1347,-0.7458 0.4039,-1.0218c0.2693,-0.2761 0.606,-0.4141 1.0102,-0.4141c0.4042,0 0.7437,0.138 1.0187,0.4141c0.275,0.276 0.4125,0.6166 0.4125,1.0218c0,0.4052 -0.1346,0.7459 -0.4039,1.0219c-0.2692,0.2761 -0.6088,0.4141 -1.0187,0.4141c-0.4099,0 -0.7498,-0.138 -1.0195,-0.4141z" fill="#000000" stroke="none" stroke-width="1" stroke-linejoin="miter"/><path d="M648.3201,401.79845v-14.3h3.6534c1.628,0 2.919,0.4219 3.874,1.2656c0.955,0.8438 1.432,1.9219 1.432,3.2344c0,1.3125 -0.462,2.3906 -1.386,3.2344c-0.924,0.8437 -2.163,1.2656 -3.719,1.2656h-2.22v5.3zM649.9545,395.09845h2.239c1.077,0 1.922,-0.287 2.534,-0.861c0.612,-0.5739 0.918,-1.3205 0.918,-2.2398c0,-0.9193 -0.319,-1.6628 -0.955,-2.2305c-0.637,-0.5677 -1.524,-0.8515 -2.663,-0.8515h-2.073z" fill="#000000" stroke="none" stroke-width="1" stroke-linejoin="miter"/><path d="M658.8385,401.79845l4.957,-14.3h2.259l4.883,14.3h-1.763l-1.248,-3.8h-6.077l-1.267,3.8zM662.3095,396.59995h5.158l-2.552,-7.75c-0.171,0.6136 -0.942,2.9271 -2.313,6.9407z" fill="#000000" stroke="none" stroke-width="1" stroke-linejoin="miter"/><path d="M673.3205,401.79845v-14.3h2.075l3.579,6.0281c1.493,2.4896 2.601,4.3818 3.324,5.6766l0.348,0.6468c-0.049,-1.4052 -0.073,-3.501 -0.073,-6.2875v-6.064h1.634v14.3h-2.094l-3.561,-5.9625l-3.709,-6.3485c0.074,1.4844 0.111,3.5886 0.111,6.3125v5.9985z" fill="#000000" stroke="none" stroke-width="1" stroke-linejoin="miter"/><path d="M686.2265,401.79845v-1.3594h1.322v-11.5609h-1.322v-1.3797h4.259v1.3797h-1.34v11.5609h1.34v1.3594z" fill="#000000" stroke="none" stroke-width="1" stroke-linejoin="miter"/><path d="M693.9065,399.97035c-1.329,-1.2865 -1.993,-3.0269 -1.993,-5.2211c0,-2.1943 0.686,-3.968 2.057,-5.3211c1.37,-1.3532 3.133,-2.0297 5.287,-2.0297c1.273,0 2.399,0.2573 3.378,0.7719v1.7328c-0.6,-0.3459 -1.123,-0.5953 -1.569,-0.7485c-0.447,-0.1531 -0.976,-0.2297 -1.589,-0.2297c-1.762,0 -3.182,0.5235 -4.259,1.5704c-1.077,1.0468 -1.616,2.4346 -1.616,4.1632c0,1.7287 0.509,3.1136 1.525,4.1547c1.016,1.0412 2.289,1.5617 3.818,1.5617c1.53,0 2.773,-0.3562 3.728,-1.0687v1.6953c-0.87,0.5979 -2.07,0.8969 -3.599,0.8969c-2.117,0 -3.84,-0.6427 -5.168,-1.9281z" fill="#000000" stroke="none" stroke-width="1" stroke-linejoin="miter"/><path d="M705.2205,401.79845v-14.3h3.653c1.628,0 2.919,0.4219 3.874,1.2656c0.955,0.8438 1.432,1.9219 1.432,3.2344c0,1.3125 -0.462,2.3906 -1.386,3.2344c-0.924,0.8437 -2.163,1.2656 -3.719,1.2656h-2.22v5.3zM706.8545,395.09845h2.239c1.077,0 1.922,-0.287 2.534,-0.861c0.612,-0.5739 0.918,-1.3205 0.918,-2.2398c0,-0.9193 -0.319,-1.6628 -0.955,-2.2305c-0.637,-0.5677 -1.524,-0.8515 -2.663,-0.8515h-2.073z" fill="#000000" stroke="none" stroke-width="1" stroke-linejoin="miter"/><path d="M716.6015,396.49215v-8.9937h1.634v8.9765c0,1.3365 0.318,2.3175 0.955,2.943c0.636,0.6255 1.505,0.9383 2.606,0.9383c2.339,0 3.508,-1.3307 3.508,-3.9922v-8.8656h1.616v8.8281c0,1.826 -0.453,3.2112 -1.359,4.1555c-0.906,0.9442 -2.173,1.4164 -3.801,1.4164c-1.628,0 -2.895,-0.4628 -3.801,-1.3883c-0.905,-0.9255 -1.358,-2.2648 -1.358,-4.018z" fill="#000000" stroke="none" stroke-width="1" stroke-linejoin="miter"/><path d="M730.0735,401.79845l1.028,-14.3h2.092l1.873,5.2328l2.332,6.8062c0.845,-2.4041 1.665,-4.6729 2.461,-6.8062l1.926,-5.2328h2.094l1.248,14.3h-1.634l-1.009,-12.0531c-0.76,2.1343 -1.537,4.2749 -2.332,6.4218l-1.965,5.3h-1.616l-4.075,-11.6109c0,0.7604 -0.128,2.8641 -0.386,6.3109l-0.403,5.6313z" fill="#000000" stroke="none" stroke-width="1" stroke-linejoin="miter"/><path d="M748.2205,401.79845v-14.3h3.653c1.628,0 2.919,0.4219 3.874,1.2656c0.955,0.8438 1.432,1.9219 1.432,3.2344c0,1.3125 -0.462,2.3906 -1.386,3.2344c-0.924,0.8437 -2.163,1.2656 -3.719,1.2656h-2.22v5.3zM749.8545,395.09845h2.239c1.077,0 1.922,-0.287 2.534,-0.861c0.612,-0.5739 0.918,-1.3205 0.918,-2.2398c0,-0.9193 -0.319,-1.6628 -0.955,-2.2305c-0.637,-0.5677 -1.524,-0.8515 -2.663,-0.8515h-2.073z" fill="#000000" stroke="none" stroke-width="1" stroke-linejoin="miter"/><path d="M759.2525,401.79845v-14.3h1.635v6.7562l5.783,-6.7562h2.018l-5.875,6.9406l6.335,7.3594h-2.185l-5.214,-6.1078l-0.862,1.0125v5.0953z" fill="#000000" stroke="none" stroke-width="1" stroke-linejoin="miter"/><path d="M770.2265,401.79845v-1.3594h1.322v-11.5609h-1.322v-1.3797h4.259v1.3797h-1.34v11.5609h1.34v1.3594z" fill="#000000" stroke="none" stroke-width="1" stroke-linejoin="miter"/><path d="M776.5205,401.79845v-14.3h2.075l3.579,6.0281c1.493,2.4896 2.601,4.3818 3.324,5.6766l0.348,0.6468c-0.049,-1.4052 -0.073,-3.501 -0.073,-6.2875v-6.064h1.634v14.3h-2.094l-3.561,-5.9625l-3.709,-6.3485c0.074,1.4844 0.111,3.5886 0.111,6.3125v5.9985z" fill="#000000" stroke="none" stroke-width="1" stroke-linejoin="miter"/><path d="M794.7525,397.38745c1.2,-2.227 2.039,-4.5401 2.516,-6.939h-2.111v-1.2313h2.22v-3.2672h1.396v3.2672h1.983v1.2313h-1.818l1.983,5.0297l-0.917,0.9359c-0.221,-0.5875 -0.631,-1.6948 -1.231,-3.3219v9.6563h-1.396v-8.4453c-0.477,1.6645 -1.07,3.127 -1.779,4.3875zM799.8205,400.94995c2.424,-1.2729 4.468,-2.6625 6.132,-4.1687v-1.7797h-4.939v-1.2125h4.939v-1.7984h-4.517v-1.1579h4.517v-1.689h-4.939v-1.2297h2.883c-0.368,-0.6979 -0.723,-1.3161 -1.065,-1.8547l1.267,-0.4406c0.355,0.5635 0.777,1.3286 1.267,2.2953h2.827c0.514,-0.8562 0.93,-1.6151 1.248,-2.2766l1.286,0.3672c-0.38,0.7834 -0.717,1.4198 -1.011,1.9094h2.406v1.2125h-4.719v1.7062h4.461v1.1579h-4.461v1.7984h4.975v1.2125h-4.975v0.1828c0.38,0.7833 0.869,1.5729 1.469,2.3688c0.796,-0.649 1.549,-1.3959 2.258,-2.2407l1.009,0.8079c-0.758,0.9062 -1.571,1.714 -2.44,2.4234c0.892,0.9917 1.908,1.8547 3.047,2.589l-0.771,1.1391c-1.898,-1.2489 -3.422,-2.8771 -4.572,-4.8844v2.8454c0,1.0406 -0.125,1.6986 -0.376,1.9742c-0.251,0.2755 -0.842,0.4132 -1.772,0.4133c-0.404,-0.0001 -1.108,-0.0308 -2.111,-0.0922l-0.037,-1.2672c0.942,0.0614 1.6,0.0922 1.974,0.0922c0.373,0 0.612,-0.0581 0.716,-0.1743c0.104,-0.1161 0.156,-0.419 0.156,-0.9086v-1.9468c-1.542,1.3594 -3.354,2.6078 -5.434,3.7453zM801.0135,396.17655l0.991,-0.8641c0.698,0.698 1.396,1.4693 2.094,2.3141l-0.992,0.8625c-0.599,-0.7344 -1.297,-1.5052 -2.093,-2.3125z" fill="#000000" stroke="none" stroke-width="1" stroke-linejoin="miter"/><path d="M648.04842,421.44525c1.75104,-1.1135 3.18333,-2.5088 4.29687,-4.1859c-0.78333,-0.9917 -1.57291,-1.9219 -2.36875,-2.7906l0.93594,-0.9359c0.79584,0.8322 1.52448,1.6583 2.18594,2.4781c0.575,-1.0531 1.02135,-2.2162 1.33906,-3.4891l1.12034,0.2578c-0.57503,-0.9302 -1.22346,-1.8666 -1.94534,-2.8093l1.1375,-0.6422c1.08954,1.4323 2.04424,2.8885 2.86404,4.3687l-1.064,0.8078c-0.3677,-0.6604 -0.6433,-1.1437 -0.8266,-1.45c-0.3552,1.3959 -0.92448,2.7604 -1.70781,4.0938c0.78333,1.0166 1.46871,1.9838 2.05621,2.9015l-1.08278,0.9172c-0.56354,-0.8812 -1.15729,-1.7437 -1.78125,-2.5875c-1.27291,1.8115 -2.75364,3.2188 -4.44218,4.2219zM648.19529,413.69685c1.1875,-1.2969 2.10573,-2.7469 2.75469,-4.35l1.19375,0.5313c-0.69791,1.751 -1.70156,3.3119 -3.01094,4.6828zM648.28748,408.99685v-1.2656h3.76406v-1.9828h1.45001v1.9828h3.74527v1.2656zM655.41092,421.59215c1.2115,-1.2604 2.0958,-2.6862 2.6531,-4.2773c0.5573,-1.5912 0.9094,-3.831 1.0563,-6.7195h-2.2766v-1.2672h2.3313c0.0364,-1.0282 0.0546,-2.1605 0.0546,-3.3969h1.4141c0,1.2114 -0.0182,2.3437 -0.0547,3.3969h4.4969c0,4.2343 -0.0518,7.0002 -0.1555,8.2976c-0.1036,1.2974 -0.2015,2.2125 -0.2937,2.7453c-0.0922,0.5328 -0.2391,0.949 -0.4406,1.2485c-0.2016,0.2994 -0.4003,0.483 -0.5961,0.5507c-0.1959,0.0678 -0.5602,0.1016 -1.093,0.1016c-0.5328,0 -1.4294,-0.0614 -2.6899,-0.1844v-1.3031c1.0282,0.1219 1.8542,0.1828 2.4782,0.1828c0.2698,0 0.475,-0.0979 0.6156,-0.2937c0.1406,-0.1959 0.2724,-0.6365 0.3953,-1.3219c0.2323,-1.2115 0.3484,-4.1302 0.3484,-8.7562h-3.1218c-0.1709,3.0958 -0.5654,5.5372 -1.1836,7.3242c-0.6182,1.7869 -1.5821,3.3539 -2.8914,4.7008z" fill="#000000" stroke="none" stroke-width="1" stroke-linejoin="miter"/><path d="M667.03282,421.09685c3.0104,-1.4573 5.3114,-2.9995 6.9031,-4.6265h-6.3344v-1.2126h7.325v-1.3406h-6.0218v-7.5265h13.55v7.5265h-6.0219v1.3406h7.325v1.2126h-6.3344c1.6281,1.6645 3.9292,3.2187 6.9031,4.6624l-0.7343,1.1938c-3.0719,-1.5667 -5.4584,-3.2984 -7.1594,-5.1953v5.5437h-1.5063v-5.6c-1.725,1.9344 -4.1239,3.6849 -7.1969,5.2516zM670.35622,412.74215h4.5703v-2.0734h-4.5703zM670.35622,409.54845h4.5703v-1.9641h-4.5703zM676.43282,412.74215h4.5718v-2.0734h-4.5718zM676.43282,409.54845h4.5718v-1.9641h-4.5718z" fill="#000000" stroke="none" stroke-width="1" stroke-linejoin="miter"/><path d="M686.01562,412.77965v-1.1937h5.0672c-0.5386,-1.1261 -1.0771,-2.1479 -1.6156,-3.0656h-2.8813v-1.2297h7.1406v-1.836h1.5063v1.836h7.1422v1.2297h-2.9938c-0.3792,1.077 -0.8745,2.0989 -1.4859,3.0656h5.0484v1.1937zM688.40312,422.62035v-8.5563h12.1531v8.5563h-1.5047v-0.8079h-9.1437v0.8079zM689.90782,420.59995h9.1437v-2.1109h-9.1437zM689.90782,417.31405h9.1437v-2.0188h-9.1437zM691.12032,408.52035c0.5875,1.052 1.1015,2.0739 1.5422,3.0656h3.5609c0.674,-0.9667 1.2187,-1.9886 1.6344,-3.0656z" fill="#000000" stroke="none" stroke-width="1" stroke-linejoin="miter"/><path d="M705.84372,413.14685v-1.414h15c0,3.2802 -0.9945,5.826 -2.9836,7.6375c-1.989,1.8114 -4.9232,2.8578 -8.8023,3.139l-0.4406,-1.45c3.2552,-0.1469 5.7947,-0.8966 7.6187,-2.2492c1.824,-1.3526 2.8458,-3.2404 3.0656,-5.6633zM707.47812,408.55625v-1.4125h11.8969v1.4125z" fill="#000000" stroke="none" stroke-width="1" stroke-linejoin="miter"/><path d="M723.94682,420.83905c0.4896,-0.7833 1.0464,-1.9766 1.6703,-3.5797c0.624,-1.6031 1.0584,-2.9557 1.3032,-4.0578l1.4515,0.3484c-0.2333,1.0771 -0.6742,2.442 -1.3226,4.0946c-0.6485,1.6526 -1.2175,2.8825 -1.707,3.6898zM724.29532,410.68595v-1.4125h6.9765v-3.2875h1.6157v3.2875h7.05v1.4125h-7.05v11.8422h-1.6157v-11.8422zM735.60472,413.58745l1.3765,-0.4593c0.5146,0.8812 1.1055,2.0929 1.7727,3.6351c0.6672,1.5422 1.1721,2.8643 1.5148,3.9664l-1.3594,0.55c-0.3791,-1.1625 -0.9083,-2.5302 -1.5875,-4.1031c-0.6791,-1.5729 -1.2515,-2.7693 -1.7171,-3.5891zM736.77962,406.15155l0.9922,-0.4031c0.4646,0.8687 0.8745,1.7989 1.2297,2.7906l-1.0468,0.3844c-0.4407,-1.224 -0.8323,-2.1479 -1.1751,-2.7719zM738.78122,405.58285l1.0094,-0.4047c0.4656,0.8698 0.8755,1.8 1.2297,2.7906l-1.0641,0.3859c-0.4406,-1.2239 -0.8323,-2.1479 -1.175,-2.7718z" fill="#000000" stroke="none" stroke-width="1" stroke-linejoin="miter"/><path d="M747.24642,417.38745c1.2,-2.227 2.039,-4.5401 2.516,-6.939h-2.111v-1.2313h2.22v-3.2672h1.396v3.2672h1.983v1.2313h-1.818l1.983,5.0297l-0.917,0.9359c-0.221,-0.5875 -0.631,-1.6948 -1.231,-3.3219v9.6563h-1.396v-8.4453c-0.477,1.6645 -1.07,3.127 -1.779,4.3875zM752.31442,420.94995c2.424,-1.2729 4.468,-2.6625 6.132,-4.1687v-1.7797h-4.939v-1.2125h4.939v-1.7984h-4.517v-1.1578h4.517v-1.6891h-4.939v-1.2297h2.883c-0.368,-0.6979 -0.723,-1.3161 -1.065,-1.8547l1.267,-0.4406c0.355,0.5635 0.777,1.3286 1.267,2.2953h2.827c0.514,-0.8562 0.93,-1.6151 1.248,-2.2766l1.286,0.3672c-0.38,0.7834 -0.717,1.4198 -1.011,1.9094h2.406v1.2125h-4.719v1.7063h4.461v1.1578h-4.461v1.7984h4.975v1.2125h-4.975v0.1828c0.38,0.7833 0.869,1.5729 1.469,2.3688c0.796,-0.649 1.549,-1.3959 2.258,-2.2407l1.009,0.8079c-0.758,0.9062 -1.571,1.714 -2.44,2.4234c0.892,0.9917 1.908,1.8547 3.047,2.589l-0.771,1.1391c-1.898,-1.2489 -3.422,-2.8771 -4.572,-4.8844v2.8453c0,1.0407 -0.125,1.6987 -0.376,1.9743c-0.251,0.2755 -0.842,0.4133 -1.772,0.4133c-0.404,0 -1.108,-0.0308 -2.111,-0.0922l-0.037,-1.2672c0.942,0.0614 1.6,0.0922 1.974,0.0922c0.373,0 0.612,-0.0581 0.716,-0.1743c0.104,-0.1161 0.156,-0.419 0.156,-0.9085v-1.9469c-1.542,1.3594 -3.354,2.6078 -5.434,3.7453zM753.50742,416.17655l0.991,-0.8641c0.698,0.698 1.396,1.4693 2.094,2.3141l-0.992,0.8625c-0.599,-0.7344 -1.297,-1.5052 -2.093,-2.3125z" fill="#000000" stroke="none" stroke-width="1" stroke-linejoin="miter"/></g></g></svg>