<?xml version="1.0" encoding="utf-8" standalone="no"?>
<!DOCTYPE svg PUBLIC "-//W3C//DTD SVG 1.1//EN"
"http://www.w3.org/Graphics/SVG/1.1/DTD/svg11.dtd">

<svg xmlns="http://www.w3.org/2000/svg" version="1.1" xmlns:xlink="http://www.w3.org/1999/xlink" width="47.5187" height="56.3998" viewBox="0 0 47.5187 56.3998"><path stroke="#ffffff" stroke-width="8" stroke-linejoin="round" fill="#ffffff" d="M 43.5187 18.382 C 43.5187 9.5758 38.3378 4 26.8769 4 L 20.1668 4 C 9.83451 4 4.11886 10.0518 4.11886 18.7391 L 4.11886 20.4051 L 9.41884 20.4051 L 9.41884 18.7391 C 9.41884 13.0864 13.1599 9.09998 20.1668 9.09998 L 26.8175 9.09998 C 35.309 9.09998 38.2187 13.2054 38.2187 18.3225 C 38.2187 24.5107 33.1119 26.6528 21.8295 28.9733 C 6.50088 32.0674 4 38.0771 4 52.3998 L 43.221 52.3998 L 43.221 47.2998 L 9.65637 47.2998 C 10.3096 38.1366 13.4568 35.8755 23.0171 33.7335 C 36.9123 30.6394 43.5187 27.6643 43.5187 18.382 Z" /><path fill="#000000" d="M 43.5187 18.382 C 43.5187 9.5758 38.3378 4 26.8769 4 L 20.1668 4 C 9.83451 4 4.11886 10.0518 4.11886 18.7391 L 4.11886 20.4051 L 9.41884 20.4051 L 9.41884 18.7391 C 9.41884 13.0864 13.1599 9.09998 20.1668 9.09998 L 26.8175 9.09998 C 35.309 9.09998 38.2187 13.2054 38.2187 18.3225 C 38.2187 24.5107 33.1119 26.6528 21.8295 28.9733 C 6.50088 32.0674 4 38.0771 4 52.3998 L 43.221 52.3998 L 43.221 47.2998 L 9.65637 47.2998 C 10.3096 38.1366 13.4568 35.8755 23.0171 33.7335 C 36.9123 30.6394 43.5187 27.6643 43.5187 18.382 Z" /></svg>