<?xml version="1.0" encoding="utf-8" standalone="no"?>
<!DOCTYPE svg PUBLIC "-//W3C//DTD SVG 1.1//EN"
"http://www.w3.org/Graphics/SVG/1.1/DTD/svg11.dtd">

<svg xmlns="http://www.w3.org/2000/svg" version="1.1" xmlns:xlink="http://www.w3.org/1999/xlink" width="27.8" height="31.9" viewBox="0 0 27.8 31.9"><path stroke="#ffffff" stroke-width="6" stroke-linejoin="round" fill="#ffffff" d="M 24.8 18.8793 L 24.8 13.0521 C 24.8 6.87653 21.7459 3 15.0886 3 L 12.6793 3 C 6.02191 3 3 6.87653 3 13.0521 L 3 18.8793 C 3 25.0549 6.02191 28.9 12.6793 28.9 L 15.0886 28.9 C 21.7459 28.9 24.8 25.0549 24.8 18.8793 Z M 22 18.8793 C 22 23.8831 19.4634 26.1 15.0886 26.1 L 12.6793 26.1 C 8.30443 26.1 5.8 23.8831 5.8 18.8793 L 5.8 13.0521 C 5.8 8.17498 8.30443 5.8 12.6793 5.8 L 15.0886 5.8 C 19.4634 5.8 22 8.17498 22 13.0521 Z" /><path fill="#ff8119" d="M 24.8 18.8793 L 24.8 13.0521 C 24.8 6.87653 21.7459 3 15.0886 3 L 12.6793 3 C 6.02191 3 3 6.87653 3 13.0521 L 3 18.8793 C 3 25.0549 6.02191 28.9 12.6793 28.9 L 15.0886 28.9 C 21.7459 28.9 24.8 25.0549 24.8 18.8793 Z M 22 18.8793 C 22 23.8831 19.4634 26.1 15.0886 26.1 L 12.6793 26.1 C 8.30443 26.1 5.8 23.8831 5.8 18.8793 L 5.8 13.0521 C 5.8 8.17498 8.30443 5.8 12.6793 5.8 L 15.0886 5.8 C 19.4634 5.8 22 8.17498 22 13.0521 Z" /></svg>