<?xml version="1.0" encoding="utf-8" standalone="no"?>
<!DOCTYPE svg PUBLIC "-//W3C//DTD SVG 1.1//EN"
"http://www.w3.org/Graphics/SVG/1.1/DTD/svg11.dtd">

<svg xmlns="http://www.w3.org/2000/svg" version="1.1" xmlns:xlink="http://www.w3.org/1999/xlink" width="75.8719" height="32.9031" viewBox="0 0 75.8719 32.9031"><path stroke="#ffffff" stroke-width="8" stroke-linejoin="round" fill="#ffffff" d="M 4 18.4141 L 4 14.5469 L 10.3578 14.5469 L 10.3578 8.07344 L 14.3719 8.07344 L 14.3719 14.5469 L 20.8469 14.5469 L 20.8469 18.4141 L 14.3719 18.4141 L 14.3719 24.8594 L 10.3578 24.8594 L 10.3578 18.4141 Z" /><path stroke="#ffffff" stroke-width="8" stroke-linejoin="round" fill="#ffffff" d="M 23.9656 22.0766 C 23.9656 19.4401 25.2063 17.575 27.6875 16.4812 C 25.4406 15.3677 24.3172 13.5708 24.3172 11.0906 C 24.3172 9.00104 25.0742 7.35078 26.5883 6.13984 C 28.1023 4.92891 29.9823 4.32344 32.2281 4.32344 C 34.474 4.32344 36.3341 4.88984 37.8086 6.02266 C 39.2831 7.15547 40.0203 8.79583 40.0203 10.9437 C 40.0203 13.5021 38.9365 15.3281 36.7688 16.4219 C 39.2302 17.4187 40.4609 19.2062 40.4609 21.7844 C 40.4609 23.9125 39.6797 25.6065 38.1172 26.8664 C 36.5547 28.1263 34.543 28.7562 32.082 28.7562 C 29.6211 28.7562 27.6531 28.1557 26.1781 26.9547 C 24.7031 25.7536 23.9656 24.1276 23.9656 22.0766 Z M 29.4297 19.5141 C 28.8151 20.1682 28.5078 20.9542 28.5078 21.8719 C 28.5078 22.7896 28.8104 23.5609 29.4156 24.1859 C 30.0208 24.8109 30.9339 25.1234 32.1547 25.1234 C 33.3755 25.1234 34.3081 24.8013 34.9523 24.157 C 35.5966 23.5128 35.9188 22.7219 35.9188 21.7844 C 35.9188 20.8469 35.6016 20.0703 34.9672 19.4547 C 34.3328 18.8391 33.4052 18.5313 32.1844 18.5313 C 30.9635 18.5313 30.0453 18.8589 29.4297 19.5141 Z M 29.7516 8.9375 C 29.1953 9.55208 28.9172 10.3576 28.9172 11.3539 C 28.9172 12.3503 29.2297 13.1268 29.8547 13.6836 C 30.4797 14.2404 31.2609 14.5187 32.1984 14.5187 C 33.1359 14.5187 33.9122 14.2305 34.5273 13.6539 C 35.1424 13.0773 35.45 12.2812 35.45 11.2656 C 35.45 9.09791 34.3953 8.01406 32.2859 8.01406 C 31.1536 8.01406 30.3089 8.32187 29.7516 8.9375 Z" /><path stroke="#ffffff" stroke-width="8" stroke-linejoin="round" fill="#ffffff" d="M 44.5234 17.1984 C 43.4589 15.8411 42.9266 13.981 42.9266 11.618 C 42.9266 9.25495 43.4589 7.39453 44.5234 6.03672 C 45.588 4.67891 46.9893 4 48.7273 4 C 50.4654 4 51.8667 4.67891 52.9312 6.03672 C 53.9958 7.39453 54.5281 9.25495 54.5281 11.618 C 54.5281 13.981 53.9958 15.8411 52.9312 17.1984 C 51.8667 18.5557 50.4654 19.2344 48.7273 19.2344 C 46.9893 19.2344 45.588 18.5557 44.5234 17.1984 Z M 46.6469 11.5891 C 46.6469 12.9953 46.8375 14.0401 47.2188 14.7234 C 47.6 15.4068 48.1031 15.7484 48.7281 15.7484 C 49.3531 15.7484 49.8609 15.4068 50.2516 14.7234 C 50.6422 14.0401 50.8375 12.9953 50.8375 11.5891 C 50.8375 10.1828 50.6422 9.15234 50.2516 8.49766 C 49.8609 7.84297 49.3531 7.51562 48.7281 7.51562 C 47.3406 7.51562 46.6469 8.87344 46.6469 11.5891 Z M 48.9625 28.9031 L 61.7062 4 L 65.8375 4 L 53.0641 28.9031 Z M 61.8969 26.8531 C 60.8323 25.4854 60.3 23.6198 60.3 21.2563 C 60.3 18.8927 60.8273 17.0469 61.882 15.7188 C 62.9367 14.3906 64.3331 13.7266 66.0711 13.7266 C 67.8091 13.7266 69.2104 14.3906 70.275 15.7188 C 71.3396 17.0469 71.8719 18.8927 71.8719 21.2563 C 71.8719 23.6198 71.3396 25.4852 70.275 26.8523 C 69.2104 28.2195 67.8141 28.9031 66.0859 28.9031 C 64.3578 28.9031 62.9615 28.2198 61.8969 26.8531 Z M 64.5484 18.1953 C 64.1578 18.8495 63.9625 19.8797 63.9625 21.2859 C 63.9625 22.6922 64.1578 23.7323 64.5484 24.4063 C 64.9391 25.0802 65.4469 25.4172 66.0719 25.4172 C 66.6969 25.4172 67.1997 25.0753 67.5805 24.3914 C 67.9612 23.7076 68.1516 22.6625 68.1516 21.2563 C 68.1516 18.5615 67.4583 17.2141 66.0719 17.2141 C 65.4469 17.2141 64.9391 17.5411 64.5484 18.1953 Z" /><path fill="#0c00cc" d="M 4 18.4141 L 4 14.5469 L 10.3578 14.5469 L 10.3578 8.07344 L 14.3719 8.07344 L 14.3719 14.5469 L 20.8469 14.5469 L 20.8469 18.4141 L 14.3719 18.4141 L 14.3719 24.8594 L 10.3578 24.8594 L 10.3578 18.4141 Z" /><path fill="#0c00cc" d="M 23.9656 22.0766 C 23.9656 19.4401 25.2063 17.575 27.6875 16.4812 C 25.4406 15.3677 24.3172 13.5708 24.3172 11.0906 C 24.3172 9.00104 25.0742 7.35078 26.5883 6.13984 C 28.1023 4.92891 29.9823 4.32344 32.2281 4.32344 C 34.474 4.32344 36.3341 4.88984 37.8086 6.02266 C 39.2831 7.15547 40.0203 8.79583 40.0203 10.9437 C 40.0203 13.5021 38.9365 15.3281 36.7688 16.4219 C 39.2302 17.4187 40.4609 19.2062 40.4609 21.7844 C 40.4609 23.9125 39.6797 25.6065 38.1172 26.8664 C 36.5547 28.1263 34.543 28.7562 32.082 28.7562 C 29.6211 28.7562 27.6531 28.1557 26.1781 26.9547 C 24.7031 25.7536 23.9656 24.1276 23.9656 22.0766 Z M 29.4297 19.5141 C 28.8151 20.1682 28.5078 20.9542 28.5078 21.8719 C 28.5078 22.7896 28.8104 23.5609 29.4156 24.1859 C 30.0208 24.8109 30.9339 25.1234 32.1547 25.1234 C 33.3755 25.1234 34.3081 24.8013 34.9523 24.157 C 35.5966 23.5128 35.9188 22.7219 35.9188 21.7844 C 35.9188 20.8469 35.6016 20.0703 34.9672 19.4547 C 34.3328 18.8391 33.4052 18.5313 32.1844 18.5313 C 30.9635 18.5313 30.0453 18.8589 29.4297 19.5141 Z M 29.7516 8.9375 C 29.1953 9.55208 28.9172 10.3576 28.9172 11.3539 C 28.9172 12.3503 29.2297 13.1268 29.8547 13.6836 C 30.4797 14.2404 31.2609 14.5187 32.1984 14.5187 C 33.1359 14.5187 33.9122 14.2305 34.5273 13.6539 C 35.1424 13.0773 35.45 12.2812 35.45 11.2656 C 35.45 9.09791 34.3953 8.01406 32.2859 8.01406 C 31.1536 8.01406 30.3089 8.32187 29.7516 8.9375 Z" /><path fill="#0c00cc" d="M 44.5234 17.1984 C 43.4589 15.8411 42.9266 13.981 42.9266 11.618 C 42.9266 9.25495 43.4589 7.39453 44.5234 6.03672 C 45.588 4.67891 46.9893 4 48.7273 4 C 50.4654 4 51.8667 4.67891 52.9312 6.03672 C 53.9958 7.39453 54.5281 9.25495 54.5281 11.618 C 54.5281 13.981 53.9958 15.8411 52.9312 17.1984 C 51.8667 18.5557 50.4654 19.2344 48.7273 19.2344 C 46.9893 19.2344 45.588 18.5557 44.5234 17.1984 Z M 46.6469 11.5891 C 46.6469 12.9953 46.8375 14.0401 47.2188 14.7234 C 47.6 15.4068 48.1031 15.7484 48.7281 15.7484 C 49.3531 15.7484 49.8609 15.4068 50.2516 14.7234 C 50.6422 14.0401 50.8375 12.9953 50.8375 11.5891 C 50.8375 10.1828 50.6422 9.15234 50.2516 8.49766 C 49.8609 7.84297 49.3531 7.51562 48.7281 7.51562 C 47.3406 7.51562 46.6469 8.87344 46.6469 11.5891 Z M 48.9625 28.9031 L 61.7062 4 L 65.8375 4 L 53.0641 28.9031 Z M 61.8969 26.8531 C 60.8323 25.4854 60.3 23.6198 60.3 21.2563 C 60.3 18.8927 60.8273 17.0469 61.882 15.7188 C 62.9367 14.3906 64.3331 13.7266 66.0711 13.7266 C 67.8091 13.7266 69.2104 14.3906 70.275 15.7188 C 71.3396 17.0469 71.8719 18.8927 71.8719 21.2563 C 71.8719 23.6198 71.3396 25.4852 70.275 26.8523 C 69.2104 28.2195 67.8141 28.9031 66.0859 28.9031 C 64.3578 28.9031 62.9615 28.2198 61.8969 26.8531 Z M 64.5484 18.1953 C 64.1578 18.8495 63.9625 19.8797 63.9625 21.2859 C 63.9625 22.6922 64.1578 23.7323 64.5484 24.4063 C 64.9391 25.0802 65.4469 25.4172 66.0719 25.4172 C 66.6969 25.4172 67.1997 25.0753 67.5805 24.3914 C 67.9612 23.7076 68.1516 22.6625 68.1516 21.2563 C 68.1516 18.5615 67.4583 17.2141 66.0719 17.2141 C 65.4469 17.2141 64.9391 17.5411 64.5484 18.1953 Z" /></svg>