<?xml version="1.0" encoding="utf-8" standalone="no"?>
<!DOCTYPE svg PUBLIC "-//W3C//DTD SVG 1.1//EN"
"http://www.w3.org/Graphics/SVG/1.1/DTD/svg11.dtd">

<svg xmlns="http://www.w3.org/2000/svg" version="1.1" xmlns:xlink="http://www.w3.org/1999/xlink" width="146.275" height="48.8203" viewBox="0 0 146.275 48.8203"><path stroke="#ffffff" stroke-width="8" stroke-linejoin="round" fill="#ffffff" d="M 9.525 39.2453 C 5.84167 35.5286 4 30.5919 4 24.4352 C 4 18.2784 5.84193 13.3333 9.52578 9.6 C 13.2096 5.86667 18.138 4 24.3109 4 C 30.4839 4 35.3878 5.85026 39.0227 9.55078 C 42.6576 13.2513 44.475 18.188 44.475 24.3609 C 44.475 30.5339 42.6495 35.487 38.9984 39.2203 C 35.3474 42.9536 30.4435 44.8203 24.2867 44.8203 C 18.1299 44.8203 13.2094 42.962 9.525 39.2453 Z M 15.3219 14.5859 C 13.1448 16.9599 12.0562 20.2182 12.0562 24.3609 C 12.0562 28.5036 13.1615 31.7867 15.3719 34.2102 C 17.5823 36.6336 20.5703 37.8453 24.3359 37.8453 C 28.1016 37.8453 31.057 36.6419 33.2023 34.2352 C 35.3477 31.8284 36.4203 28.5536 36.4203 24.4109 C 36.4203 20.2682 35.3477 17.0016 33.2023 14.6109 C 31.057 12.2203 28.0852 11.025 24.2867 11.025 C 20.4883 11.025 17.5 12.212 15.3219 14.5859 Z" /><path stroke="#ffffff" stroke-width="8" stroke-linejoin="round" fill="#ffffff" d="M 107.547 44.4281 L 107.547 4.68906 L 116.144 4.68906 L 126.606 21.1938 L 134.613 34.0141 L 134.956 34.0141 C 134.858 31.4922 134.809 27.2349 134.809 21.2422 L 134.809 4.68906 L 142.275 4.68906 L 142.275 44.4281 L 133.68 44.4281 L 123.02 27.9234 L 115.063 15.1516 L 114.669 15.1516 C 114.899 18.0661 115.014 22.3068 115.014 27.8734 L 115.014 44.4281 Z" /><path fill="#cc0000" d="M 9.525 39.2453 C 5.84167 35.5286 4 30.5919 4 24.4352 C 4 18.2784 5.84193 13.3333 9.52578 9.6 C 13.2096 5.86667 18.138 4 24.3109 4 C 30.4839 4 35.3878 5.85026 39.0227 9.55078 C 42.6576 13.2513 44.475 18.188 44.475 24.3609 C 44.475 30.5339 42.6495 35.487 38.9984 39.2203 C 35.3474 42.9536 30.4435 44.8203 24.2867 44.8203 C 18.1299 44.8203 13.2094 42.962 9.525 39.2453 Z M 15.3219 14.5859 C 13.1448 16.9599 12.0562 20.2182 12.0562 24.3609 C 12.0562 28.5036 13.1615 31.7867 15.3719 34.2102 C 17.5823 36.6336 20.5703 37.8453 24.3359 37.8453 C 28.1016 37.8453 31.057 36.6419 33.2023 34.2352 C 35.3477 31.8284 36.4203 28.5536 36.4203 24.4109 C 36.4203 20.2682 35.3477 17.0016 33.2023 14.6109 C 31.057 12.2203 28.0852 11.025 24.2867 11.025 C 20.4883 11.025 17.5 12.212 15.3219 14.5859 Z" /><path fill="#cc0000" d="M 107.547 44.4281 L 107.547 4.68906 L 116.144 4.68906 L 126.606 21.1938 L 134.613 34.0141 L 134.956 34.0141 C 134.858 31.4922 134.809 27.2349 134.809 21.2422 L 134.809 4.68906 L 142.275 4.68906 L 142.275 44.4281 L 133.68 44.4281 L 123.02 27.9234 L 115.063 15.1516 L 114.669 15.1516 C 114.899 18.0661 115.014 22.3068 115.014 27.8734 L 115.014 44.4281 Z" /></svg>