<?xml version="1.0" encoding="utf-8" standalone="no"?>
<!DOCTYPE svg PUBLIC "-//W3C//DTD SVG 1.1//EN"
"http://www.w3.org/Graphics/SVG/1.1/DTD/svg11.dtd">

<svg xmlns="http://www.w3.org/2000/svg" version="1.1" xmlns:xlink="http://www.w3.org/1999/xlink" width="48.6999" height="56.4998" viewBox="0 0 48.6999 56.4998"><path stroke="#ffffff" stroke-width="8" stroke-linejoin="round" fill="#ffffff" d="M 44.6999 33.7481 L 44.6999 22.8116 C 44.6999 11.2212 39.0257 4 26.5736 4 L 22.0671 4 C 9.61505 4 4 11.2212 4 22.8116 L 4 33.7481 C 4 45.3384 9.61505 52.4998 22.0671 52.4998 L 26.5736 52.4998 C 39.0257 52.4998 44.6999 45.3384 44.6999 33.7481 Z M 39.4999 33.7481 C 39.4999 43.1392 34.7564 47.2998 26.5736 47.2998 L 22.0671 47.2998 C 13.8843 47.2998 9.19998 43.1392 9.19998 33.7481 L 9.19998 22.8116 C 9.19998 13.6582 13.8843 9.19998 22.0671 9.19998 L 26.5736 9.19998 C 34.7564 9.19998 39.4999 13.6582 39.4999 22.8116 Z" /><path fill="#800000" d="M 44.6999 33.7481 L 44.6999 22.8116 C 44.6999 11.2212 39.0257 4 26.5736 4 L 22.0671 4 C 9.61505 4 4 11.2212 4 22.8116 L 4 33.7481 C 4 45.3384 9.61505 52.4998 22.0671 52.4998 L 26.5736 52.4998 C 39.0257 52.4998 44.6999 45.3384 44.6999 33.7481 Z M 39.4999 33.7481 C 39.4999 43.1392 34.7564 47.2998 26.5736 47.2998 L 22.0671 47.2998 C 13.8843 47.2998 9.19998 43.1392 9.19998 33.7481 L 9.19998 22.8116 C 9.19998 13.6582 13.8843 9.19998 22.0671 9.19998 L 26.5736 9.19998 C 34.7564 9.19998 39.4999 13.6582 39.4999 22.8116 Z" /></svg>