<?xml version="1.0" encoding="utf-8" standalone="no"?>
<!DOCTYPE svg PUBLIC "-//W3C//DTD SVG 1.1//EN"
"http://www.w3.org/Graphics/SVG/1.1/DTD/svg11.dtd">

<svg xmlns="http://www.w3.org/2000/svg" version="1.1" xmlns:xlink="http://www.w3.org/1999/xlink" width="33.2" height="38.3001" viewBox="0 0 33.2 38.3001"><path stroke="#ffffff" stroke-width="6" stroke-linejoin="round" fill="#ffffff" d="M 30.2 26.1192 L 30.2 23.8227 C 30.2 17.6465 27.1518 14.8 18.4491 14.8 L 14.9099 14.8 C 11.2514 14.8 8.42807 15.7093 6.4 17.093 L 6.4 13.0882 C 6.4 8.74887 8.58713 6.40001 14.5918 6.40001 L 18.5684 6.40001 C 24.1754 6.40001 26.3625 7.75362 26.3625 11.7744 L 29.9265 11.7744 C 29.9265 5.45115 26.8 3 18.6479 3 L 14.5918 3 C 6.79766 3 3 6.24186 3 12.9289 L 3 25.842 C 3 31.9 6.6386 35.3001 14.6316 35.3001 L 18.3298 35.3001 C 27.2299 35.3001 30.2 31.8605 30.2 26.1192 Z M 26.8 26.0796 C 26.8 30.1183 24.2151 31.9 18.3298 31.9 L 14.6316 31.9 C 9.34268 31.9 6.4 30.1579 6.4 25.7628 L 6.4 23.7831 C 6.4 19.5068 9.97894 18.2 14.8701 18.2 L 18.4491 18.2 C 24.414 18.2 26.8 19.6652 26.8 23.9019 Z" /><path fill="#555555" d="M 30.2 26.1192 L 30.2 23.8227 C 30.2 17.6465 27.1518 14.8 18.4491 14.8 L 14.9099 14.8 C 11.2514 14.8 8.42807 15.7093 6.4 17.093 L 6.4 13.0882 C 6.4 8.74887 8.58713 6.40001 14.5918 6.40001 L 18.5684 6.40001 C 24.1754 6.40001 26.3625 7.75362 26.3625 11.7744 L 29.9265 11.7744 C 29.9265 5.45115 26.8 3 18.6479 3 L 14.5918 3 C 6.79766 3 3 6.24186 3 12.9289 L 3 25.842 C 3 31.9 6.6386 35.3001 14.6316 35.3001 L 18.3298 35.3001 C 27.2299 35.3001 30.2 31.8605 30.2 26.1192 Z M 26.8 26.0796 C 26.8 30.1183 24.2151 31.9 18.3298 31.9 L 14.6316 31.9 C 9.34268 31.9 6.4 30.1579 6.4 25.7628 L 6.4 23.7831 C 6.4 19.5068 9.97894 18.2 14.8701 18.2 L 18.4491 18.2 C 24.414 18.2 26.8 19.6652 26.8 23.9019 Z" /></svg>