<?xml version="1.0" encoding="utf-8" standalone="no"?>
<!DOCTYPE svg PUBLIC "-//W3C//DTD SVG 1.1//EN"
"http://www.w3.org/Graphics/SVG/1.1/DTD/svg11.dtd">

<svg xmlns="http://www.w3.org/2000/svg" version="1.1" xmlns:xlink="http://www.w3.org/1999/xlink" width="671.571" height="61.2998" viewBox="0 0 671.571 61.2998"><path stroke="#ffffff" stroke-width="8" stroke-linejoin="round" fill="#ffffff" d="M 54.4667 32.2999 L 54.4667 26.9999 L 18.155 26.9999 L 18.155 13.3 L 54.4667 13.3 L 54.4667 7.99998 L 4 7.99998 L 4 13.3 L 12.8551 13.3 L 12.8551 26.9999 L 4 26.9999 L 4 32.2999 L 12.8551 32.2999 L 12.8551 38.4716 C 12.8551 49.569 17.5595 55.6998 32.1211 55.6998 L 52.9216 55.6998 L 52.9216 50.3998 L 32.0616 50.3998 C 21.8991 50.3998 18.155 46.7205 18.155 38.3529 L 18.155 32.2999 Z" /><path stroke="#ffffff" stroke-width="8" stroke-linejoin="round" fill="#ffffff" d="M 113.688 34.0999 L 113.688 28.4999 L 67.3924 28.4999 L 67.3924 34.0999 Z" /><path stroke="#ffffff" stroke-width="8" stroke-linejoin="round" fill="#ffffff" d="M 178.255 14.4 L 178.255 4.8 L 174.955 4.8 L 174.955 14.4 Z M 171.955 14.4 L 171.955 4.8 L 168.655 4.8 L 168.655 14.4 Z M 176.755 35.6999 L 176.755 30.1999 C 162.461 30.1999 148.167 27.8328 139.055 23.1579 L 139.055 5.62962 L 133.555 5.62962 L 133.555 55.8466 L 139.055 55.8466 L 139.055 29.0164 C 147.989 33.189 162.103 35.6999 176.755 35.6999 Z" /><path stroke="#ffffff" stroke-width="8" stroke-linejoin="round" fill="#ffffff" d="M 232.372 29.1395 L 232.372 23.9128 C 228.628 24.5067 225.122 25.1007 221.929 25.754 C 219.574 21.6045 214.948 19.2999 209.063 19.2999 C 203.416 19.2999 198.779 20.659 195.142 22.9045 C 196.337 20.4817 197.709 17.7224 198.779 13.9 L 231.184 13.9 L 231.184 8.99998 L 199.968 8.99998 C 200.206 7.93024 200.384 6.80107 200.562 5.49362 L 195.022 5.49362 C 194.843 6.68221 194.663 7.87081 194.424 8.99998 L 183.589 8.99998 L 183.589 13.9 L 193.109 13.9 C 190.601 21.8999 186.204 28.9019 182.222 33.3565 L 182.222 40.8403 C 185.371 37.4548 189.65 32.0499 191.017 30.2086 C 193.826 26.4667 199.136 23.1999 207.755 23.1999 C 211.381 23.1999 214.354 24.6255 216.256 27.0607 C 199.373 31.2777 191.255 37.3954 191.255 45.1761 C 191.255 51.7199 195.201 55.7998 206.507 55.7998 L 231.243 55.7998 L 231.243 50.6998 L 206.804 50.6998 C 199.552 50.6998 197.055 48.918 197.055 44.9385 C 197.055 39.5336 204.129 34.9602 218.218 31.6935 C 218.336 32.4656 218.455 33.2377 218.455 34.0693 L 218.455 43.2161 L 223.755 43.2161 L 223.755 33.0002 C 223.755 32.1686 223.637 31.3371 223.519 30.565 C 226.251 30.0898 229.163 29.6147 232.372 29.1395 Z" /><path stroke="#ffffff" stroke-width="8" stroke-linejoin="round" fill="#ffffff" d="M 291.641 23.5661 L 291.641 19.422 C 290.214 20.474 288.504 20.9999 286.44 20.9999 L 279.731 20.9999 C 278.954 20.9999 278.255 20.3571 278.255 19.5974 L 278.255 16.5 L 290.155 16.5 L 290.155 4.94944 L 273.755 4.94944 L 273.755 8.50938 L 285.555 8.50938 L 285.555 12.9 L 273.755 12.9 L 273.755 20.2402 C 273.755 22.8499 275.709 24.6999 278.255 24.6999 L 286.97 24.6999 C 288.622 24.6999 290.274 24.4612 291.641 23.5661 Z M 271.332 23.5661 L 271.332 19.422 C 269.973 20.474 268.182 20.9999 266.032 20.9999 L 259.543 20.9999 C 258.591 20.9999 258.055 20.3571 258.055 19.5974 L 258.055 16.5 L 269.855 16.5 L 269.855 4.94944 L 253.455 4.94944 L 253.455 8.50938 L 265.255 8.50938 L 265.255 12.9 L 253.455 12.9 L 253.455 20.2402 C 253.455 22.8499 255.401 24.6999 257.996 24.6999 L 266.569 24.6999 C 268.302 24.6999 270.032 24.4612 271.332 23.5661 Z M 291.641 43.0998 L 291.641 39.2999 L 283.555 39.2999 L 283.555 32.9832 L 289.978 32.9832 L 289.978 29.1097 L 283.555 29.1097 L 283.555 26.0705 L 278.655 26.0705 L 278.655 29.1097 L 266.39 29.1097 L 266.39 26.0705 L 261.447 26.0705 L 261.447 29.1097 L 255.106 29.1097 L 255.106 32.9832 L 261.447 32.9832 L 261.447 39.2999 L 253.455 39.2999 L 253.455 43.0998 L 260.733 43.0998 C 259.483 44.9998 257.878 46.8405 255.165 48.7998 L 261.03 48.7998 C 263.351 46.7811 264.541 45.1186 265.852 43.0998 L 279.91 43.0998 L 284.888 48.7998 L 290.214 48.7998 L 285.252 43.0998 Z M 249.316 15.12 L 249.316 9.63669 L 237.999 4 L 237.999 9.2807 Z M 291.641 56.6398 L 291.641 51.886 L 258.174 51.886 C 252.495 51.886 250.575 50.2243 249.555 47.3748 L 249.555 26.1897 L 238.058 26.1897 L 238.058 31.255 L 244.655 31.255 L 244.655 47.4342 L 238.058 51.708 L 238.058 57.2998 L 246.507 52.0047 C 248.42 55.0909 250.635 56.6398 257.052 56.6398 Z M 278.655 39.2999 L 266.39 39.2999 L 266.39 32.9832 L 278.655 32.9832 Z" /><path stroke="#ffffff" stroke-width="8" stroke-linejoin="round" fill="#ffffff" d="M 351.255 31.8317 C 351.255 27.8315 350.78 23.3079 349.831 18.3765 L 344.376 18.3765 C 345.381 23.2485 345.855 27.5927 345.855 31.3541 C 345.855 43.892 340.827 50.3998 334.38 50.3998 C 330.062 50.3998 327.755 48.2505 327.755 42.28 C 327.755 38.9963 328.228 31.6526 328.228 29.0853 C 328.228 22.5356 324.815 20.0999 320.872 20.0999 C 316.89 20.0999 313.622 22.2386 310.591 25.6247 C 311.958 17.1879 313.324 9.58084 314.097 5.7179 L 308.63 5.7179 C 306.431 16.4153 302.033 43.6532 301.023 56.0592 L 306.49 56.0592 C 306.966 50.3998 308.095 41.9815 309.343 33.5631 C 312.433 28.9062 315.702 26.0999 319.089 26.0999 C 322.18 26.0999 322.655 28.13 322.655 31.4735 C 322.655 33.9214 322.358 40.3695 322.358 43.295 C 322.358 52.8756 327.215 55.9998 334.143 55.9998 C 344.376 55.9998 351.255 47.534 351.255 31.8317 Z" /><path stroke="#ffffff" stroke-width="8" stroke-linejoin="round" fill="#ffffff" d="M 413.055 13.9387 L 413.055 4.38046 L 409.755 4.38046 L 409.755 13.9387 Z M 406.755 13.9387 L 406.755 4.38046 L 403.455 4.38046 L 403.455 13.9387 Z M 406.815 55.6998 L 406.815 50.2998 L 393.056 50.2998 C 377.606 50.2998 372.555 43.3966 372.555 36.8504 C 372.555 27.7452 382.776 16.7952 400.899 13.7 L 400.899 8.59998 L 361.585 8.59998 L 361.585 13.7 L 386.876 13.7 C 374.338 18.5211 366.755 27.2692 366.755 37.0289 C 366.755 45.9555 372.971 55.6998 391.57 55.6998 Z" /><path stroke="#ffffff" stroke-width="8" stroke-linejoin="round" fill="#ffffff" d="M 467.882 56.8656 L 467.882 50.566 C 460.334 45.9899 446.962 39.9281 434.541 34.8171 C 430.144 32.9748 428.955 30.7759 428.955 28.3393 L 428.955 27.5667 C 428.955 24.714 430.5 22.634 435.73 20.9699 L 467.882 10.6291 L 467.882 5.04272 L 432.937 16.4533 C 426.571 18.5333 423.055 21.9802 423.055 27.2695 L 423.055 28.577 C 423.055 33.2125 425.618 36.7783 431.867 39.3338 C 444.466 44.5042 458.67 51.3981 467.882 56.8656 Z" /><path stroke="#ffffff" stroke-width="8" stroke-linejoin="round" fill="#ffffff" d="M 531.055 13.9546 L 531.055 4.3947 L 527.755 4.3947 L 527.755 13.9546 Z M 524.755 13.9546 L 524.755 4.3947 L 521.455 4.3947 L 521.455 13.9546 Z M 528.698 29.7999 L 528.698 24.6999 L 497.559 24.6999 L 497.559 29.7999 Z M 518.903 15.2 L 518.903 10.1 L 492.049 10.1 C 492.227 8.85195 492.405 7.54449 492.524 6.1776 L 487.057 6.1776 C 486.938 7.54449 486.759 8.85195 486.581 10.1 L 479.271 10.1 L 479.271 15.2 L 485.927 15.2 C 483.847 31.2263 481.351 45.6057 478.855 55.2635 L 484.56 55.2635 C 486.7 45.6057 489.137 31.5233 491.336 15.2 Z M 528.698 55.4998 L 528.698 50.2998 L 511.899 50.2998 C 502.936 50.2998 501.155 48.5767 501.155 45.5463 C 501.155 42.6942 502.52 39.9609 504.063 38.2377 L 498.267 38.2377 C 496.911 40.1391 495.555 43.5855 495.555 46.4376 C 495.555 52.1316 499.328 55.4998 511.127 55.4998 Z" /><path stroke="#ffffff" stroke-width="8" stroke-linejoin="round" fill="#ffffff" d="M 588.736 18.1999 L 588.736 13 L 572.987 13 C 572.333 10.7416 571.739 8.48329 571.264 6.1061 L 565.618 6.1061 C 566.034 8.48329 566.569 10.8011 567.222 13 L 539.315 13 L 539.315 18.1999 L 568.827 18.1999 C 571.442 25.6843 574.889 32.515 578.752 38.633 L 585.23 38.633 C 580.832 32.0993 577.266 25.2685 574.711 18.1999 Z M 586.121 54.9998 L 586.121 49.7998 L 561.874 49.7998 C 549.156 49.7998 545.055 46.5923 545.055 40.712 C 545.055 37.4451 546.125 33.7624 549.334 30.6737 L 543.261 30.6737 C 540.451 34 539.255 38.0984 539.255 41.6623 C 539.255 50.1584 545.233 54.9998 561.042 54.9998 Z" /><path stroke="#ffffff" stroke-width="8" stroke-linejoin="round" fill="#ffffff" d="M 649.855 47.9198 C 648.971 30.1502 645.611 17.2539 640.45 11.3109 L 634.446 11.3109 C 639.856 17.4322 643.363 30.5662 644.255 47.9198 Z M 627.906 47.0878 L 627.906 39.1242 C 625.171 43.4031 618.037 49.9998 612.568 49.9998 C 608.049 49.9998 605.731 46.1369 605.255 36.1527 C 605.137 33.7755 605.077 31.4577 605.077 29.0805 C 605.077 21.2357 605.671 13.5693 606.444 6.61598 L 600.816 6.61598 C 600.047 13.3316 599.455 21.414 599.455 29.4965 C 599.455 29.7342 599.455 30.0314 599.455 30.2691 C 599.455 39.5996 599.633 56.0998 611.795 56.0998 C 617.562 56.0998 624.28 51.3155 627.906 47.0878 Z" /><path stroke="#ffffff" stroke-width="8" stroke-linejoin="round" fill="#ffffff" d="M 667.155 26.6336 L 667.155 6.13023 L 661.555 6.13023 L 661.555 26.6336 L 662.449 44.9974 L 666.321 44.9974 Z M 667.571 56.5998 L 667.571 50.9998 L 661.436 50.9998 L 661.436 56.5998 Z" /><path fill="#000000" d="M 54.4667 32.2999 L 54.4667 26.9999 L 18.155 26.9999 L 18.155 13.3 L 54.4667 13.3 L 54.4667 7.99998 L 4 7.99998 L 4 13.3 L 12.8551 13.3 L 12.8551 26.9999 L 4 26.9999 L 4 32.2999 L 12.8551 32.2999 L 12.8551 38.4716 C 12.8551 49.569 17.5595 55.6998 32.1211 55.6998 L 52.9216 55.6998 L 52.9216 50.3998 L 32.0616 50.3998 C 21.8991 50.3998 18.155 46.7205 18.155 38.3529 L 18.155 32.2999 Z" /><path fill="#000000" d="M 113.688 34.0999 L 113.688 28.4999 L 67.3924 28.4999 L 67.3924 34.0999 Z" /><path fill="#000000" d="M 178.255 14.4 L 178.255 4.8 L 174.955 4.8 L 174.955 14.4 Z M 171.955 14.4 L 171.955 4.8 L 168.655 4.8 L 168.655 14.4 Z M 176.755 35.6999 L 176.755 30.1999 C 162.461 30.1999 148.167 27.8328 139.055 23.1579 L 139.055 5.62962 L 133.555 5.62962 L 133.555 55.8466 L 139.055 55.8466 L 139.055 29.0164 C 147.989 33.189 162.103 35.6999 176.755 35.6999 Z" /><path fill="#000000" d="M 232.372 29.1395 L 232.372 23.9128 C 228.628 24.5067 225.122 25.1007 221.929 25.754 C 219.574 21.6045 214.948 19.2999 209.063 19.2999 C 203.416 19.2999 198.779 20.659 195.142 22.9045 C 196.337 20.4817 197.709 17.7224 198.779 13.9 L 231.184 13.9 L 231.184 8.99998 L 199.968 8.99998 C 200.206 7.93024 200.384 6.80107 200.562 5.49362 L 195.022 5.49362 C 194.843 6.68221 194.663 7.87081 194.424 8.99998 L 183.589 8.99998 L 183.589 13.9 L 193.109 13.9 C 190.601 21.8999 186.204 28.9019 182.222 33.3565 L 182.222 40.8403 C 185.371 37.4548 189.65 32.0499 191.017 30.2086 C 193.826 26.4667 199.136 23.1999 207.755 23.1999 C 211.381 23.1999 214.354 24.6255 216.256 27.0607 C 199.373 31.2777 191.255 37.3954 191.255 45.1761 C 191.255 51.7199 195.201 55.7998 206.507 55.7998 L 231.243 55.7998 L 231.243 50.6998 L 206.804 50.6998 C 199.552 50.6998 197.055 48.918 197.055 44.9385 C 197.055 39.5336 204.129 34.9602 218.218 31.6935 C 218.336 32.4656 218.455 33.2377 218.455 34.0693 L 218.455 43.2161 L 223.755 43.2161 L 223.755 33.0002 C 223.755 32.1686 223.637 31.3371 223.519 30.565 C 226.251 30.0898 229.163 29.6147 232.372 29.1395 Z" /><path fill="#000000" d="M 291.641 23.5661 L 291.641 19.422 C 290.214 20.474 288.504 20.9999 286.44 20.9999 L 279.731 20.9999 C 278.954 20.9999 278.255 20.3571 278.255 19.5974 L 278.255 16.5 L 290.155 16.5 L 290.155 4.94944 L 273.755 4.94944 L 273.755 8.50938 L 285.555 8.50938 L 285.555 12.9 L 273.755 12.9 L 273.755 20.2402 C 273.755 22.8499 275.709 24.6999 278.255 24.6999 L 286.97 24.6999 C 288.622 24.6999 290.274 24.4612 291.641 23.5661 Z M 271.332 23.5661 L 271.332 19.422 C 269.973 20.474 268.182 20.9999 266.032 20.9999 L 259.543 20.9999 C 258.591 20.9999 258.055 20.3571 258.055 19.5974 L 258.055 16.5 L 269.855 16.5 L 269.855 4.94944 L 253.455 4.94944 L 253.455 8.50938 L 265.255 8.50938 L 265.255 12.9 L 253.455 12.9 L 253.455 20.2402 C 253.455 22.8499 255.401 24.6999 257.996 24.6999 L 266.569 24.6999 C 268.302 24.6999 270.032 24.4612 271.332 23.5661 Z M 291.641 43.0998 L 291.641 39.2999 L 283.555 39.2999 L 283.555 32.9832 L 289.978 32.9832 L 289.978 29.1097 L 283.555 29.1097 L 283.555 26.0705 L 278.655 26.0705 L 278.655 29.1097 L 266.39 29.1097 L 266.39 26.0705 L 261.447 26.0705 L 261.447 29.1097 L 255.106 29.1097 L 255.106 32.9832 L 261.447 32.9832 L 261.447 39.2999 L 253.455 39.2999 L 253.455 43.0998 L 260.733 43.0998 C 259.483 44.9998 257.878 46.8405 255.165 48.7998 L 261.03 48.7998 C 263.351 46.7811 264.541 45.1186 265.852 43.0998 L 279.91 43.0998 L 284.888 48.7998 L 290.214 48.7998 L 285.252 43.0998 Z M 249.316 15.12 L 249.316 9.63669 L 237.999 4 L 237.999 9.2807 Z M 291.641 56.6398 L 291.641 51.886 L 258.174 51.886 C 252.495 51.886 250.575 50.2243 249.555 47.3748 L 249.555 26.1897 L 238.058 26.1897 L 238.058 31.255 L 244.655 31.255 L 244.655 47.4342 L 238.058 51.708 L 238.058 57.2998 L 246.507 52.0047 C 248.42 55.0909 250.635 56.6398 257.052 56.6398 Z M 278.655 39.2999 L 266.39 39.2999 L 266.39 32.9832 L 278.655 32.9832 Z" /><path fill="#000000" d="M 351.255 31.8317 C 351.255 27.8315 350.78 23.3079 349.831 18.3765 L 344.376 18.3765 C 345.381 23.2485 345.855 27.5927 345.855 31.3541 C 345.855 43.892 340.827 50.3998 334.38 50.3998 C 330.062 50.3998 327.755 48.2505 327.755 42.28 C 327.755 38.9963 328.228 31.6526 328.228 29.0853 C 328.228 22.5356 324.815 20.0999 320.872 20.0999 C 316.89 20.0999 313.622 22.2386 310.591 25.6247 C 311.958 17.1879 313.324 9.58084 314.097 5.7179 L 308.63 5.7179 C 306.431 16.4153 302.033 43.6532 301.023 56.0592 L 306.49 56.0592 C 306.966 50.3998 308.095 41.9815 309.343 33.5631 C 312.433 28.9062 315.702 26.0999 319.089 26.0999 C 322.18 26.0999 322.655 28.13 322.655 31.4735 C 322.655 33.9214 322.358 40.3695 322.358 43.295 C 322.358 52.8756 327.215 55.9998 334.143 55.9998 C 344.376 55.9998 351.255 47.534 351.255 31.8317 Z" /><path fill="#000000" d="M 413.055 13.9387 L 413.055 4.38046 L 409.755 4.38046 L 409.755 13.9387 Z M 406.755 13.9387 L 406.755 4.38046 L 403.455 4.38046 L 403.455 13.9387 Z M 406.815 55.6998 L 406.815 50.2998 L 393.056 50.2998 C 377.606 50.2998 372.555 43.3966 372.555 36.8504 C 372.555 27.7452 382.776 16.7952 400.899 13.7 L 400.899 8.59998 L 361.585 8.59998 L 361.585 13.7 L 386.876 13.7 C 374.338 18.5211 366.755 27.2692 366.755 37.0289 C 366.755 45.9555 372.971 55.6998 391.57 55.6998 Z" /><path fill="#000000" d="M 467.882 56.8656 L 467.882 50.566 C 460.334 45.9899 446.962 39.9281 434.541 34.8171 C 430.144 32.9748 428.955 30.7759 428.955 28.3393 L 428.955 27.5667 C 428.955 24.714 430.5 22.634 435.73 20.9699 L 467.882 10.6291 L 467.882 5.04272 L 432.937 16.4533 C 426.571 18.5333 423.055 21.9802 423.055 27.2695 L 423.055 28.577 C 423.055 33.2125 425.618 36.7783 431.867 39.3338 C 444.466 44.5042 458.67 51.3981 467.882 56.8656 Z" /><path fill="#000000" d="M 531.055 13.9546 L 531.055 4.3947 L 527.755 4.3947 L 527.755 13.9546 Z M 524.755 13.9546 L 524.755 4.3947 L 521.455 4.3947 L 521.455 13.9546 Z M 528.698 29.7999 L 528.698 24.6999 L 497.559 24.6999 L 497.559 29.7999 Z M 518.903 15.2 L 518.903 10.1 L 492.049 10.1 C 492.227 8.85195 492.405 7.54449 492.524 6.1776 L 487.057 6.1776 C 486.938 7.54449 486.759 8.85195 486.581 10.1 L 479.271 10.1 L 479.271 15.2 L 485.927 15.2 C 483.847 31.2263 481.351 45.6057 478.855 55.2635 L 484.56 55.2635 C 486.7 45.6057 489.137 31.5233 491.336 15.2 Z M 528.698 55.4998 L 528.698 50.2998 L 511.899 50.2998 C 502.936 50.2998 501.155 48.5767 501.155 45.5463 C 501.155 42.6942 502.52 39.9609 504.063 38.2377 L 498.267 38.2377 C 496.911 40.1391 495.555 43.5855 495.555 46.4376 C 495.555 52.1316 499.328 55.4998 511.127 55.4998 Z" /><path fill="#000000" d="M 588.736 18.1999 L 588.736 13 L 572.987 13 C 572.333 10.7416 571.739 8.48329 571.264 6.1061 L 565.618 6.1061 C 566.034 8.48329 566.569 10.8011 567.222 13 L 539.315 13 L 539.315 18.1999 L 568.827 18.1999 C 571.442 25.6843 574.889 32.515 578.752 38.633 L 585.23 38.633 C 580.832 32.0993 577.266 25.2685 574.711 18.1999 Z M 586.121 54.9998 L 586.121 49.7998 L 561.874 49.7998 C 549.156 49.7998 545.055 46.5923 545.055 40.712 C 545.055 37.4451 546.125 33.7624 549.334 30.6737 L 543.261 30.6737 C 540.451 34 539.255 38.0984 539.255 41.6623 C 539.255 50.1584 545.233 54.9998 561.042 54.9998 Z" /><path fill="#000000" d="M 649.855 47.9198 C 648.971 30.1502 645.611 17.2539 640.45 11.3109 L 634.446 11.3109 C 639.856 17.4322 643.363 30.5662 644.255 47.9198 Z M 627.906 47.0878 L 627.906 39.1242 C 625.171 43.4031 618.037 49.9998 612.568 49.9998 C 608.049 49.9998 605.731 46.1369 605.255 36.1527 C 605.137 33.7755 605.077 31.4577 605.077 29.0805 C 605.077 21.2357 605.671 13.5693 606.444 6.61598 L 600.816 6.61598 C 600.047 13.3316 599.455 21.414 599.455 29.4965 C 599.455 29.7342 599.455 30.0314 599.455 30.2691 C 599.455 39.5996 599.633 56.0998 611.795 56.0998 C 617.562 56.0998 624.28 51.3155 627.906 47.0878 Z" /><path fill="#000000" d="M 667.155 26.6336 L 667.155 6.13023 L 661.555 6.13023 L 661.555 26.6336 L 662.449 44.9974 L 666.321 44.9974 Z M 667.571 56.5998 L 667.571 50.9998 L 661.436 50.9998 L 661.436 56.5998 Z" /></svg>