<?xml version="1.0" encoding="utf-8" standalone="no"?>
<!DOCTYPE svg PUBLIC "-//W3C//DTD SVG 1.1//EN"
"http://www.w3.org/Graphics/SVG/1.1/DTD/svg11.dtd">

<svg xmlns="http://www.w3.org/2000/svg" version="1.1" xmlns:xlink="http://www.w3.org/1999/xlink" width="32.2793" height="38.2001" viewBox="0 0 32.2793 38.2001"><path stroke="#ffffff" stroke-width="6" stroke-linejoin="round" fill="#ffffff" d="M 29.2793 12.5717 C 29.2793 6.71615 25.8579 3 18.2179 3 L 13.7446 3 C 6.85636 3 3.07924 7.03266 3.07924 12.8091 L 3.07924 13.9169 L 6.57924 13.9169 L 6.57924 12.8091 C 6.57924 9.05045 9.07325 6.40001 13.7446 6.40001 L 18.1784 6.40001 C 23.8394 6.40001 25.7793 9.12958 25.7793 12.5321 C 25.7793 16.6468 22.3746 18.0712 14.853 19.6142 C 4.65224 21.6715 3 25.6675 3 35.2001 L 29.0826 35.2001 L 29.0826 31.8 L 6.73759 31.8 C 7.17306 25.7071 9.27119 24.2037 15.6448 22.7793 C 24.9082 20.722 29.2793 18.7438 29.2793 12.5717 Z" /><path fill="#555555" d="M 29.2793 12.5717 C 29.2793 6.71615 25.8579 3 18.2179 3 L 13.7446 3 C 6.85636 3 3.07924 7.03266 3.07924 12.8091 L 3.07924 13.9169 L 6.57924 13.9169 L 6.57924 12.8091 C 6.57924 9.05045 9.07325 6.40001 13.7446 6.40001 L 18.1784 6.40001 C 23.8394 6.40001 25.7793 9.12958 25.7793 12.5321 C 25.7793 16.6468 22.3746 18.0712 14.853 19.6142 C 4.65224 21.6715 3 25.6675 3 35.2001 L 29.0826 35.2001 L 29.0826 31.8 L 6.73759 31.8 C 7.17306 25.7071 9.27119 24.2037 15.6448 22.7793 C 24.9082 20.722 29.2793 18.7438 29.2793 12.5717 Z" /></svg>