<?xml version="1.0" encoding="utf-8" standalone="no"?>
<!DOCTYPE svg PUBLIC "-//W3C//DTD SVG 1.1//EN"
"http://www.w3.org/Graphics/SVG/1.1/DTD/svg11.dtd">

<svg xmlns="http://www.w3.org/2000/svg" version="1.1" xmlns:xlink="http://www.w3.org/1999/xlink" width="299.12" height="61.4998" viewBox="0 0 299.12 61.4998"><path stroke="#ffffff" stroke-width="8" stroke-linejoin="round" fill="#ffffff" d="M 55.2204 22.0999 L 55.2204 5.08439 L 6.19852 5.08439 L 6.19852 22.0999 Z M 57.5382 57.103 L 57.5382 52.5923 C 54.2604 52.2955 51.2004 51.4646 48.517 50.2776 C 52.4004 46.6571 55.2204 42.0276 55.9336 37.2881 L 55.9336 33.6999 L 33.2553 33.6999 L 33.2553 37.6999 L 50.9004 37.6999 C 49.8828 41.6715 47.6262 45.1733 44.5383 47.9628 C 41.866 46.0042 39.9657 43.5708 39.0155 40.8999 L 34.146 40.8999 C 35.3931 44.6391 37.7091 47.9628 40.8565 50.5743 C 38.5405 51.9394 35.9869 52.889 33.2553 53.3045 L 33.2553 57.3998 C 37.2934 57.103 41.2721 55.5599 44.7164 53.3045 C 48.3982 55.3225 52.7604 56.6876 57.5382 57.103 Z M 57.5382 29.5999 L 57.5382 25.3999 L 4 25.3999 L 4 29.5999 L 6.02062 29.5999 L 6.02062 52.1768 L 4 52.1768 L 4 56.1534 C 14.8645 56.1534 21.2232 56.0941 25.6205 54.729 L 25.6205 57.3998 L 30.8205 57.3998 L 30.8205 29.5999 Z M 50.1205 11.8 L 11.3583 11.8 L 11.3583 8.35304 L 50.1205 8.35304 Z M 50.1205 18.785 L 11.3583 18.785 L 11.3583 15.1149 L 50.1205 15.1149 Z M 25.6205 34.8764 L 11.1206 34.8764 L 11.1206 29.5999 L 25.6205 29.5999 Z M 25.6205 43.4521 L 11.1206 43.4521 L 11.1206 38.1829 L 25.6205 38.1829 Z M 25.6205 50.693 C 22.2929 51.8207 17.8953 52.1175 11.1206 52.1768 L 11.1206 46.8351 L 25.6205 46.8351 Z" /><path stroke="#ffffff" stroke-width="8" stroke-linejoin="round" fill="#ffffff" d="M 116.741 32.9399 L 116.741 27.9278 C 112.581 27.2755 108.956 26.0895 105.985 24.5476 C 110.68 20.2186 113.592 14.8306 114.543 9.44495 L 114.543 5.06543 L 94.5741 5.06543 C 93.7421 9.26741 91.1272 12.4633 87.3831 13.6469 L 87.3831 18.6197 C 89.166 18.0276 90.7706 17.1986 92.1375 16.2513 C 93.3261 19.2118 95.2873 22.057 97.9022 24.5476 C 94.8713 26.2674 91.3649 27.5127 87.3831 27.9871 L 87.3831 33.1199 C 93.0884 32.2199 97.9616 30.2999 101.943 27.6906 C 105.866 30.1813 110.798 32.0999 116.741 32.9399 Z M 113.473 43.7088 L 113.473 38.898 L 90.7706 36.1066 L 90.7706 40.8579 Z M 115.315 57.4998 L 115.315 52.7957 L 89.0471 50.0637 L 89.0471 54.7556 Z M 86.6699 36.8193 L 84.1144 22.8279 L 80.4298 22.8279 L 81.559 29.1732 C 80.0732 29.8848 78.2903 30.2999 75.1989 30.2999 L 68.6432 30.2999 L 85.2436 11.2796 L 79.8355 11.2796 L 76.0314 15.6 L 67.8674 15.6 L 77.9337 4 L 72.4625 4 L 63.1623 14.9489 L 63.1623 20.0999 L 72.1045 20.0999 L 63.1623 30.2406 L 63.1623 34.8594 L 72.8206 34.8594 L 72.8206 57.4398 L 77.2206 57.4398 L 77.2206 34.7999 C 79.3601 34.6199 81.3212 34.1399 82.391 33.5999 L 82.9258 36.8193 Z M 86.6105 56.7798 L 84.7682 39.8483 L 81.0241 39.8483 L 82.9258 56.7798 Z M 69.1206 39.8483 L 65.4206 39.8483 C 65.4206 45.8469 64.5886 53.2708 63.1029 56.7798 L 66.8529 56.7798 C 67.748 54.1023 69.1206 46.7377 69.1206 39.8483 Z M 109.61 9.6225 C 108.362 14.2388 105.688 18.5013 101.765 21.8198 C 99.2691 19.8631 97.4862 17.4947 96.4759 14.9489 L 93.7421 14.9489 C 95.525 13.4102 96.8325 11.5755 97.7833 9.6225 Z" /><path stroke="#ffffff" stroke-width="8" stroke-linejoin="round" fill="#ffffff" d="M 176.615 56.6867 L 176.615 49.6145 L 163.368 38.0851 C 168.774 31.3101 171.92 22.6333 171.92 11.9978 L 171.92 8.19998 L 127.948 8.19998 L 127.948 13.6 L 166.22 13.6 C 165.923 36.1833 147.322 48.0693 126.343 50.4465 L 126.343 55.7952 C 139.358 54.5472 151.185 50.0899 159.564 42.1858 Z" /><path stroke="#ffffff" stroke-width="8" stroke-linejoin="round" fill="#ffffff" d="M 235.42 54.8998 L 235.42 8.99998 L 189.292 8.99998 L 189.292 14.3 L 230.12 14.3 L 230.12 49.6998 L 189.292 49.6998 L 189.292 54.8998 Z" /><path stroke="#ffffff" stroke-width="8" stroke-linejoin="round" fill="#ffffff" d="M 295.12 18.1006 L 295.12 7.69999 L 244.873 7.69999 L 244.873 13 L 289.62 13 L 289.62 18.3971 C 289.62 29.9029 282.295 35.2999 269.729 35.2999 L 269.729 40.7999 C 285.332 40.5607 295.12 32.9276 295.12 18.1006 Z M 268.121 30.5553 L 268.121 23.379 L 262.821 23.379 L 262.821 30.1401 C 262.821 41.2147 256.996 49.7513 244.873 50.6998 L 244.873 56.1998 C 259.255 55.0042 268.121 44.5345 268.121 30.5553 Z" /><path fill="#000000" d="M 55.2204 22.0999 L 55.2204 5.08439 L 6.19852 5.08439 L 6.19852 22.0999 Z M 57.5382 57.103 L 57.5382 52.5923 C 54.2604 52.2955 51.2004 51.4646 48.517 50.2776 C 52.4004 46.6571 55.2204 42.0276 55.9336 37.2881 L 55.9336 33.6999 L 33.2553 33.6999 L 33.2553 37.6999 L 50.9004 37.6999 C 49.8828 41.6715 47.6262 45.1733 44.5383 47.9628 C 41.866 46.0042 39.9657 43.5708 39.0155 40.8999 L 34.146 40.8999 C 35.3931 44.6391 37.7091 47.9628 40.8565 50.5743 C 38.5405 51.9394 35.9869 52.889 33.2553 53.3045 L 33.2553 57.3998 C 37.2934 57.103 41.2721 55.5599 44.7164 53.3045 C 48.3982 55.3225 52.7604 56.6876 57.5382 57.103 Z M 57.5382 29.5999 L 57.5382 25.3999 L 4 25.3999 L 4 29.5999 L 6.02062 29.5999 L 6.02062 52.1768 L 4 52.1768 L 4 56.1534 C 14.8645 56.1534 21.2232 56.0941 25.6205 54.729 L 25.6205 57.3998 L 30.8205 57.3998 L 30.8205 29.5999 Z M 50.1205 11.8 L 11.3583 11.8 L 11.3583 8.35304 L 50.1205 8.35304 Z M 50.1205 18.785 L 11.3583 18.785 L 11.3583 15.1149 L 50.1205 15.1149 Z M 25.6205 34.8764 L 11.1206 34.8764 L 11.1206 29.5999 L 25.6205 29.5999 Z M 25.6205 43.4521 L 11.1206 43.4521 L 11.1206 38.1829 L 25.6205 38.1829 Z M 25.6205 50.693 C 22.2929 51.8207 17.8953 52.1175 11.1206 52.1768 L 11.1206 46.8351 L 25.6205 46.8351 Z" /><path fill="#000000" d="M 116.741 32.9399 L 116.741 27.9278 C 112.581 27.2755 108.956 26.0895 105.985 24.5476 C 110.68 20.2186 113.592 14.8306 114.543 9.44495 L 114.543 5.06543 L 94.5741 5.06543 C 93.7421 9.26741 91.1272 12.4633 87.3831 13.6469 L 87.3831 18.6197 C 89.166 18.0276 90.7706 17.1986 92.1375 16.2513 C 93.3261 19.2118 95.2873 22.057 97.9022 24.5476 C 94.8713 26.2674 91.3649 27.5127 87.3831 27.9871 L 87.3831 33.1199 C 93.0884 32.2199 97.9616 30.2999 101.943 27.6906 C 105.866 30.1813 110.798 32.0999 116.741 32.9399 Z M 113.473 43.7088 L 113.473 38.898 L 90.7706 36.1066 L 90.7706 40.8579 Z M 115.315 57.4998 L 115.315 52.7957 L 89.0471 50.0637 L 89.0471 54.7556 Z M 86.6699 36.8193 L 84.1144 22.8279 L 80.4298 22.8279 L 81.559 29.1732 C 80.0732 29.8848 78.2903 30.2999 75.1989 30.2999 L 68.6432 30.2999 L 85.2436 11.2796 L 79.8355 11.2796 L 76.0314 15.6 L 67.8674 15.6 L 77.9337 4 L 72.4625 4 L 63.1623 14.9489 L 63.1623 20.0999 L 72.1045 20.0999 L 63.1623 30.2406 L 63.1623 34.8594 L 72.8206 34.8594 L 72.8206 57.4398 L 77.2206 57.4398 L 77.2206 34.7999 C 79.3601 34.6199 81.3212 34.1399 82.391 33.5999 L 82.9258 36.8193 Z M 86.6105 56.7798 L 84.7682 39.8483 L 81.0241 39.8483 L 82.9258 56.7798 Z M 69.1206 39.8483 L 65.4206 39.8483 C 65.4206 45.8469 64.5886 53.2708 63.1029 56.7798 L 66.8529 56.7798 C 67.748 54.1023 69.1206 46.7377 69.1206 39.8483 Z M 109.61 9.6225 C 108.362 14.2388 105.688 18.5013 101.765 21.8198 C 99.2691 19.8631 97.4862 17.4947 96.4759 14.9489 L 93.7421 14.9489 C 95.525 13.4102 96.8325 11.5755 97.7833 9.6225 Z" /><path fill="#000000" d="M 176.615 56.6867 L 176.615 49.6145 L 163.368 38.0851 C 168.774 31.3101 171.92 22.6333 171.92 11.9978 L 171.92 8.19998 L 127.948 8.19998 L 127.948 13.6 L 166.22 13.6 C 165.923 36.1833 147.322 48.0693 126.343 50.4465 L 126.343 55.7952 C 139.358 54.5472 151.185 50.0899 159.564 42.1858 Z" /><path fill="#000000" d="M 235.42 54.8998 L 235.42 8.99998 L 189.292 8.99998 L 189.292 14.3 L 230.12 14.3 L 230.12 49.6998 L 189.292 49.6998 L 189.292 54.8998 Z" /><path fill="#000000" d="M 295.12 18.1006 L 295.12 7.69999 L 244.873 7.69999 L 244.873 13 L 289.62 13 L 289.62 18.3971 C 289.62 29.9029 282.295 35.2999 269.729 35.2999 L 269.729 40.7999 C 285.332 40.5607 295.12 32.9276 295.12 18.1006 Z M 268.121 30.5553 L 268.121 23.379 L 262.821 23.379 L 262.821 30.1401 C 262.821 41.2147 256.996 49.7513 244.873 50.6998 L 244.873 56.1998 C 259.255 55.0042 268.121 44.5345 268.121 30.5553 Z" /></svg>