<?xml version="1.0" encoding="utf-8" standalone="no"?>
<!DOCTYPE svg PUBLIC "-//W3C//DTD SVG 1.1//EN"
"http://www.w3.org/Graphics/SVG/1.1/DTD/svg11.dtd">

<svg xmlns="http://www.w3.org/2000/svg" version="1.1" xmlns:xlink="http://www.w3.org/1999/xlink" width="43.7046" height="43.7001" viewBox="0 0 43.7046 43.7001"><path stroke="#ffffff" stroke-width="8" stroke-linejoin="round" fill="#ffffff" d="M 39.7046 22.1663 L 37.5651 5.38304 L 34.1578 5.38304 L 36.3369 22.1663 Z M 31.7014 24.6113 L 31.7014 4 L 28.5819 4 L 28.5819 23.9015 C 28.5819 24.6902 27.8711 25.4 27.0419 25.4 L 24.0014 25.4 L 24.0014 28.8 L 27.5157 28.8 C 29.9639 28.8 31.7014 27.1 31.7014 24.6113 Z M 25.6204 5.38304 L 22.4075 5.38304 C 22.0887 11.5119 21.2518 18.1437 19.4984 23.3888 L 22.806 23.3888 C 24.2778 18.4198 25.186 12.656 25.6204 5.38304 Z M 38.7933 24.6113 L 35.703 24.6113 C 34.5937 31.8557 29.2531 36.2604 20.0165 36.3001 L 20.0165 39.7001 C 31.3065 39.5815 37.5651 34.1175 38.7933 24.6113 Z M 19.4984 28.6814 L 19.4984 25.0451 L 13.4014 20.2339 L 13.4014 17 L 19.2195 17 L 19.2195 13.8 L 13.4014 13.8 L 13.4014 8.87215 C 15.2743 8.51898 16.6691 8.08733 17.8247 7.53796 L 17.8247 4 C 15.4736 5.34236 12.2882 6.4 4.83201 6.4 L 4 6.4 L 4 9.50001 C 6.41679 9.50001 8.43738 9.42153 10.1014 9.26456 L 10.1014 13.8 L 4 13.8 L 4 17 L 10.1014 17 C 9.82406 20.0367 7.28841 26.8233 4 29.9112 L 4 34.5144 C 6.69412 32.0144 8.71471 28.8795 10.1014 25.7953 L 10.1014 39.7001 L 13.4014 39.7001 L 13.4014 23.862 Z" /><path fill="#000000" d="M 39.7046 22.1663 L 37.5651 5.38304 L 34.1578 5.38304 L 36.3369 22.1663 Z M 31.7014 24.6113 L 31.7014 4 L 28.5819 4 L 28.5819 23.9015 C 28.5819 24.6902 27.8711 25.4 27.0419 25.4 L 24.0014 25.4 L 24.0014 28.8 L 27.5157 28.8 C 29.9639 28.8 31.7014 27.1 31.7014 24.6113 Z M 25.6204 5.38304 L 22.4075 5.38304 C 22.0887 11.5119 21.2518 18.1437 19.4984 23.3888 L 22.806 23.3888 C 24.2778 18.4198 25.186 12.656 25.6204 5.38304 Z M 38.7933 24.6113 L 35.703 24.6113 C 34.5937 31.8557 29.2531 36.2604 20.0165 36.3001 L 20.0165 39.7001 C 31.3065 39.5815 37.5651 34.1175 38.7933 24.6113 Z M 19.4984 28.6814 L 19.4984 25.0451 L 13.4014 20.2339 L 13.4014 17 L 19.2195 17 L 19.2195 13.8 L 13.4014 13.8 L 13.4014 8.87215 C 15.2743 8.51898 16.6691 8.08733 17.8247 7.53796 L 17.8247 4 C 15.4736 5.34236 12.2882 6.4 4.83201 6.4 L 4 6.4 L 4 9.50001 C 6.41679 9.50001 8.43738 9.42153 10.1014 9.26456 L 10.1014 13.8 L 4 13.8 L 4 17 L 10.1014 17 C 9.82406 20.0367 7.28841 26.8233 4 29.9112 L 4 34.5144 C 6.69412 32.0144 8.71471 28.8795 10.1014 25.7953 L 10.1014 39.7001 L 13.4014 39.7001 L 13.4014 23.862 Z" /></svg>