<?xml version="1.0" encoding="utf-8" standalone="no"?>
<!DOCTYPE svg PUBLIC "-//W3C//DTD SVG 1.1//EN"
"http://www.w3.org/Graphics/SVG/1.1/DTD/svg11.dtd">

<svg xmlns="http://www.w3.org/2000/svg" version="1.1" xmlns:xlink="http://www.w3.org/1999/xlink" width="95.2719" height="32.9031" viewBox="0 0 95.2719 32.9031"><path stroke="#ffffff" stroke-width="8" stroke-linejoin="round" fill="#ffffff" d="M 4 18.4141 L 4 14.5469 L 10.3578 14.5469 L 10.3578 8.07344 L 14.3719 8.07344 L 14.3719 14.5469 L 20.8469 14.5469 L 20.8469 18.4141 L 14.3719 18.4141 L 14.3719 24.8594 L 10.3578 24.8594 L 10.3578 18.4141 Z" /><path stroke="#ffffff" stroke-width="8" stroke-linejoin="round" fill="#ffffff" d="M 24.8453 27.35 L 24.8453 22.9562 C 26.7401 24.0302 28.493 24.5672 30.1039 24.5672 C 31.7148 24.5672 32.8818 24.2693 33.6047 23.6734 C 34.3276 23.0776 34.6891 22.301 34.6891 21.3438 C 34.6891 19.2937 33.0583 18.2687 29.7969 18.2687 L 28.3906 18.2687 L 28.3906 14.5469 L 29.7969 14.5469 C 31.0469 14.5469 32.0771 14.2687 32.8875 13.7125 C 33.6979 13.1562 34.1031 12.375 34.1031 11.3687 C 34.1031 10.3625 33.8052 9.625 33.2094 9.15625 C 32.6135 8.6875 31.8078 8.45312 30.7922 8.45312 C 29.0536 8.45312 27.3547 8.98073 25.6953 10.0359 L 25.6953 5.75781 C 27.3359 4.85989 29.2401 4.41094 31.4078 4.41094 C 33.5755 4.41094 35.3529 5.02604 36.7398 6.25625 C 38.1268 7.48646 38.8203 9.05885 38.8203 10.9734 C 38.8203 12.2234 38.5029 13.3268 37.868 14.2836 C 37.2331 15.2404 36.3198 15.9729 35.1281 16.4812 C 36.4562 16.8135 37.4914 17.4385 38.2336 18.3562 C 38.9758 19.274 39.3469 20.4359 39.3469 21.8422 C 39.3469 23.8536 38.6146 25.4844 37.15 26.7344 C 35.6854 27.9844 33.6786 28.6094 31.1297 28.6094 C 28.5807 28.6094 26.4859 28.1896 24.8453 27.35 Z" /><path stroke="#ffffff" stroke-width="8" stroke-linejoin="round" fill="#ffffff" d="M 44.1578 27.3797 L 44.1578 23.0437 C 45.837 24.0594 47.7313 24.5672 49.8406 24.5672 C 51.4427 24.5672 52.6586 24.2352 53.4883 23.5711 C 54.318 22.907 54.7328 21.9891 54.7328 20.8172 C 54.7328 18.4536 53.2292 17.2719 50.2219 17.2719 C 48.6594 17.2719 46.9896 17.6917 45.2125 18.5313 L 45.2125 4.64531 L 57.8969 4.64531 L 57.8969 8.48281 L 49.6359 8.48281 L 49.6359 13.5219 C 50.3193 13.4052 51.0026 13.3469 51.6859 13.3469 C 54.1078 13.3469 55.9977 14.001 57.3555 15.3094 C 58.7133 16.6177 59.3922 18.4388 59.3922 20.7727 C 59.3922 23.1065 58.5914 25.006 56.9898 26.4711 C 55.3883 27.9362 53.1031 28.6687 50.1344 28.6687 C 47.7906 28.6687 45.7984 28.2391 44.1578 27.3797 Z" /><path stroke="#ffffff" stroke-width="8" stroke-linejoin="round" fill="#ffffff" d="M 63.9234 17.1984 C 62.8589 15.8411 62.3266 13.981 62.3266 11.618 C 62.3266 9.25495 62.8589 7.39453 63.9234 6.03672 C 64.988 4.67891 66.3893 4 68.1273 4 C 69.8654 4 71.2667 4.67891 72.3312 6.03672 C 73.3958 7.39453 73.9281 9.25495 73.9281 11.618 C 73.9281 13.981 73.3958 15.8411 72.3312 17.1984 C 71.2667 18.5557 69.8654 19.2344 68.1273 19.2344 C 66.3893 19.2344 64.988 18.5557 63.9234 17.1984 Z M 66.0469 11.5891 C 66.0469 12.9953 66.2375 14.0401 66.6187 14.7234 C 67 15.4068 67.5031 15.7484 68.1281 15.7484 C 68.7531 15.7484 69.2609 15.4068 69.6516 14.7234 C 70.0422 14.0401 70.2375 12.9953 70.2375 11.5891 C 70.2375 10.1828 70.0422 9.15234 69.6516 8.49766 C 69.2609 7.84297 68.7531 7.51562 68.1281 7.51562 C 66.7406 7.51562 66.0469 8.87344 66.0469 11.5891 Z M 68.3625 28.9031 L 81.1062 4 L 85.2375 4 L 72.4641 28.9031 Z M 81.2969 26.8531 C 80.2323 25.4854 79.7 23.6198 79.7 21.2563 C 79.7 18.8927 80.2273 17.0469 81.282 15.7188 C 82.3367 14.3906 83.7331 13.7266 85.4711 13.7266 C 87.2091 13.7266 88.6104 14.3906 89.675 15.7188 C 90.7396 17.0469 91.2719 18.8927 91.2719 21.2563 C 91.2719 23.6198 90.7396 25.4852 89.675 26.8523 C 88.6104 28.2195 87.2141 28.9031 85.4859 28.9031 C 83.7578 28.9031 82.3615 28.2198 81.2969 26.8531 Z M 83.9484 18.1953 C 83.5578 18.8495 83.3625 19.8797 83.3625 21.2859 C 83.3625 22.6922 83.5578 23.7323 83.9484 24.4063 C 84.3391 25.0802 84.8469 25.4172 85.4719 25.4172 C 86.0969 25.4172 86.5997 25.0753 86.9805 24.3914 C 87.3612 23.7076 87.5516 22.6625 87.5516 21.2563 C 87.5516 18.5615 86.8583 17.2141 85.4719 17.2141 C 84.8469 17.2141 84.3391 17.5411 83.9484 18.1953 Z" /><path fill="#0c00cc" d="M 4 18.4141 L 4 14.5469 L 10.3578 14.5469 L 10.3578 8.07344 L 14.3719 8.07344 L 14.3719 14.5469 L 20.8469 14.5469 L 20.8469 18.4141 L 14.3719 18.4141 L 14.3719 24.8594 L 10.3578 24.8594 L 10.3578 18.4141 Z" /><path fill="#0c00cc" d="M 24.8453 27.35 L 24.8453 22.9562 C 26.7401 24.0302 28.493 24.5672 30.1039 24.5672 C 31.7148 24.5672 32.8818 24.2693 33.6047 23.6734 C 34.3276 23.0776 34.6891 22.301 34.6891 21.3438 C 34.6891 19.2937 33.0583 18.2687 29.7969 18.2687 L 28.3906 18.2687 L 28.3906 14.5469 L 29.7969 14.5469 C 31.0469 14.5469 32.0771 14.2687 32.8875 13.7125 C 33.6979 13.1562 34.1031 12.375 34.1031 11.3687 C 34.1031 10.3625 33.8052 9.625 33.2094 9.15625 C 32.6135 8.6875 31.8078 8.45312 30.7922 8.45312 C 29.0536 8.45312 27.3547 8.98073 25.6953 10.0359 L 25.6953 5.75781 C 27.3359 4.85989 29.2401 4.41094 31.4078 4.41094 C 33.5755 4.41094 35.3529 5.02604 36.7398 6.25625 C 38.1268 7.48646 38.8203 9.05885 38.8203 10.9734 C 38.8203 12.2234 38.5029 13.3268 37.868 14.2836 C 37.2331 15.2404 36.3198 15.9729 35.1281 16.4812 C 36.4562 16.8135 37.4914 17.4385 38.2336 18.3562 C 38.9758 19.274 39.3469 20.4359 39.3469 21.8422 C 39.3469 23.8536 38.6146 25.4844 37.15 26.7344 C 35.6854 27.9844 33.6786 28.6094 31.1297 28.6094 C 28.5807 28.6094 26.4859 28.1896 24.8453 27.35 Z" /><path fill="#0c00cc" d="M 44.1578 27.3797 L 44.1578 23.0437 C 45.837 24.0594 47.7313 24.5672 49.8406 24.5672 C 51.4427 24.5672 52.6586 24.2352 53.4883 23.5711 C 54.318 22.907 54.7328 21.9891 54.7328 20.8172 C 54.7328 18.4536 53.2292 17.2719 50.2219 17.2719 C 48.6594 17.2719 46.9896 17.6917 45.2125 18.5313 L 45.2125 4.64531 L 57.8969 4.64531 L 57.8969 8.48281 L 49.6359 8.48281 L 49.6359 13.5219 C 50.3193 13.4052 51.0026 13.3469 51.6859 13.3469 C 54.1078 13.3469 55.9977 14.001 57.3555 15.3094 C 58.7133 16.6177 59.3922 18.4388 59.3922 20.7727 C 59.3922 23.1065 58.5914 25.006 56.9898 26.4711 C 55.3883 27.9362 53.1031 28.6687 50.1344 28.6687 C 47.7906 28.6687 45.7984 28.2391 44.1578 27.3797 Z" /><path fill="#0c00cc" d="M 63.9234 17.1984 C 62.8589 15.8411 62.3266 13.981 62.3266 11.618 C 62.3266 9.25495 62.8589 7.39453 63.9234 6.03672 C 64.988 4.67891 66.3893 4 68.1273 4 C 69.8654 4 71.2667 4.67891 72.3312 6.03672 C 73.3958 7.39453 73.9281 9.25495 73.9281 11.618 C 73.9281 13.981 73.3958 15.8411 72.3312 17.1984 C 71.2667 18.5557 69.8654 19.2344 68.1273 19.2344 C 66.3893 19.2344 64.988 18.5557 63.9234 17.1984 Z M 66.0469 11.5891 C 66.0469 12.9953 66.2375 14.0401 66.6187 14.7234 C 67 15.4068 67.5031 15.7484 68.1281 15.7484 C 68.7531 15.7484 69.2609 15.4068 69.6516 14.7234 C 70.0422 14.0401 70.2375 12.9953 70.2375 11.5891 C 70.2375 10.1828 70.0422 9.15234 69.6516 8.49766 C 69.2609 7.84297 68.7531 7.51562 68.1281 7.51562 C 66.7406 7.51562 66.0469 8.87344 66.0469 11.5891 Z M 68.3625 28.9031 L 81.1062 4 L 85.2375 4 L 72.4641 28.9031 Z M 81.2969 26.8531 C 80.2323 25.4854 79.7 23.6198 79.7 21.2563 C 79.7 18.8927 80.2273 17.0469 81.282 15.7188 C 82.3367 14.3906 83.7331 13.7266 85.4711 13.7266 C 87.2091 13.7266 88.6104 14.3906 89.675 15.7188 C 90.7396 17.0469 91.2719 18.8927 91.2719 21.2563 C 91.2719 23.6198 90.7396 25.4852 89.675 26.8523 C 88.6104 28.2195 87.2141 28.9031 85.4859 28.9031 C 83.7578 28.9031 82.3615 28.2198 81.2969 26.8531 Z M 83.9484 18.1953 C 83.5578 18.8495 83.3625 19.8797 83.3625 21.2859 C 83.3625 22.6922 83.5578 23.7323 83.9484 24.4063 C 84.3391 25.0802 84.8469 25.4172 85.4719 25.4172 C 86.0969 25.4172 86.5997 25.0753 86.9805 24.3914 C 87.3612 23.7076 87.5516 22.6625 87.5516 21.2563 C 87.5516 18.5615 86.8583 17.2141 85.4719 17.2141 C 84.8469 17.2141 84.3391 17.5411 83.9484 18.1953 Z" /></svg>