<?xml version="1.0" encoding="utf-8" standalone="no"?>
<!DOCTYPE svg PUBLIC "-//W3C//DTD SVG 1.1//EN"
"http://www.w3.org/Graphics/SVG/1.1/DTD/svg11.dtd">

<svg xmlns="http://www.w3.org/2000/svg" version="1.1" xmlns:xlink="http://www.w3.org/1999/xlink" width="152.198" height="31.9359" viewBox="0 0 152.198 31.9359"><path stroke="#ffffff" stroke-width="8" stroke-linejoin="round" fill="#ffffff" d="M 4 25.3578 C 8.49167 23.7568 12.3391 21.2911 15.5422 17.9609 C 18.7453 14.6307 20.8646 10.8854 21.9 6.725 L 5.9625 6.725 L 5.9625 4.38125 L 25.0344 4.38125 C 24.3896 8.79583 22.6417 12.8974 19.7906 16.6859 C 22.6813 19.088 25.6401 22.0766 28.6672 25.6516 L 26.5578 27.35 C 25.6203 26.0615 24.3703 24.5919 22.8078 22.9414 C 21.2453 21.2909 19.7318 19.8208 18.2672 18.5313 C 14.9078 22.3406 10.7281 25.3391 5.72813 27.5266 Z" /><path stroke="#ffffff" stroke-width="8" stroke-linejoin="round" fill="#ffffff" d="M 64.8203 25.7969 L 64.8203 23.5125 L 84.3016 23.5125 L 84.3016 7.42813 L 65.0828 7.42813 L 65.0828 5.17188 L 86.7344 5.17188 L 86.7344 26.9406 L 84.3016 26.9406 L 84.3016 25.7969 Z" /><path stroke="#ffffff" stroke-width="8" stroke-linejoin="round" fill="#ffffff" d="M 123.559 6.25625 L 123.559 4 L 148.198 4 C 148.198 9.58646 145.62 14.0104 140.464 17.2719 L 138.853 15.3094 C 140.65 14.4302 142.183 13.1411 143.452 11.4422 C 144.722 9.74323 145.425 8.01458 145.563 6.25625 Z M 125.494 25.9438 C 128.795 24.7917 131.114 23.0682 132.452 20.7734 C 133.789 18.4786 134.458 15.0849 134.458 10.5922 L 134.458 9.45 L 137.008 9.45 L 137.008 10.475 C 137.008 15.3188 136.29 19.0201 134.854 21.5789 C 133.418 24.1378 130.874 26.2568 127.222 27.9359 Z" /><path fill="#000000" d="M 4 25.3578 C 8.49167 23.7568 12.3391 21.2911 15.5422 17.9609 C 18.7453 14.6307 20.8646 10.8854 21.9 6.725 L 5.9625 6.725 L 5.9625 4.38125 L 25.0344 4.38125 C 24.3896 8.79583 22.6417 12.8974 19.7906 16.6859 C 22.6813 19.088 25.6401 22.0766 28.6672 25.6516 L 26.5578 27.35 C 25.6203 26.0615 24.3703 24.5919 22.8078 22.9414 C 21.2453 21.2909 19.7318 19.8208 18.2672 18.5313 C 14.9078 22.3406 10.7281 25.3391 5.72813 27.5266 Z" /><path fill="#000000" d="M 64.8203 25.7969 L 64.8203 23.5125 L 84.3016 23.5125 L 84.3016 7.42813 L 65.0828 7.42813 L 65.0828 5.17188 L 86.7344 5.17188 L 86.7344 26.9406 L 84.3016 26.9406 L 84.3016 25.7969 Z" /><path fill="#000000" d="M 123.559 6.25625 L 123.559 4 L 148.198 4 C 148.198 9.58646 145.62 14.0104 140.464 17.2719 L 138.853 15.3094 C 140.65 14.4302 142.183 13.1411 143.452 11.4422 C 144.722 9.74323 145.425 8.01458 145.563 6.25625 Z M 125.494 25.9438 C 128.795 24.7917 131.114 23.0682 132.452 20.7734 C 133.789 18.4786 134.458 15.0849 134.458 10.5922 L 134.458 9.45 L 137.008 9.45 L 137.008 10.475 C 137.008 15.3188 136.29 19.0201 134.854 21.5789 C 133.418 24.1378 130.874 26.2568 127.222 27.9359 Z" /></svg>