<?xml version="1.0" encoding="utf-8" standalone="no"?>
<!DOCTYPE svg PUBLIC "-//W3C//DTD SVG 1.1//EN"
"http://www.w3.org/Graphics/SVG/1.1/DTD/svg11.dtd">

<svg xmlns="http://www.w3.org/2000/svg" version="1.1" xmlns:xlink="http://www.w3.org/1999/xlink" width="75.8719" height="32.9031" viewBox="0 0 75.8719 32.9031"><path stroke="#ffffff" stroke-width="8" stroke-linejoin="round" fill="#ffffff" d="M 4 18.4141 L 4 14.5469 L 10.3578 14.5469 L 10.3578 8.07344 L 14.3719 8.07344 L 14.3719 14.5469 L 20.8469 14.5469 L 20.8469 18.4141 L 14.3719 18.4141 L 14.3719 24.8594 L 10.3578 24.8594 L 10.3578 18.4141 Z" /><path stroke="#ffffff" stroke-width="8" stroke-linejoin="round" fill="#ffffff" d="M 24.8453 27.35 L 24.8453 22.9562 C 26.7401 24.0302 28.493 24.5672 30.1039 24.5672 C 31.7148 24.5672 32.8818 24.2693 33.6047 23.6734 C 34.3276 23.0776 34.6891 22.301 34.6891 21.3438 C 34.6891 19.2937 33.0583 18.2687 29.7969 18.2687 L 28.3906 18.2687 L 28.3906 14.5469 L 29.7969 14.5469 C 31.0469 14.5469 32.0771 14.2687 32.8875 13.7125 C 33.6979 13.1562 34.1031 12.375 34.1031 11.3687 C 34.1031 10.3625 33.8052 9.625 33.2094 9.15625 C 32.6135 8.6875 31.8078 8.45312 30.7922 8.45312 C 29.0536 8.45312 27.3547 8.98073 25.6953 10.0359 L 25.6953 5.75781 C 27.3359 4.85989 29.2401 4.41094 31.4078 4.41094 C 33.5755 4.41094 35.3529 5.02604 36.7398 6.25625 C 38.1268 7.48646 38.8203 9.05885 38.8203 10.9734 C 38.8203 12.2234 38.5029 13.3268 37.868 14.2836 C 37.2331 15.2404 36.3198 15.9729 35.1281 16.4812 C 36.4562 16.8135 37.4914 17.4385 38.2336 18.3562 C 38.9758 19.274 39.3469 20.4359 39.3469 21.8422 C 39.3469 23.8536 38.6146 25.4844 37.15 26.7344 C 35.6854 27.9844 33.6786 28.6094 31.1297 28.6094 C 28.5807 28.6094 26.4859 28.1896 24.8453 27.35 Z" /><path stroke="#ffffff" stroke-width="8" stroke-linejoin="round" fill="#ffffff" d="M 44.5234 17.1984 C 43.4589 15.8411 42.9266 13.981 42.9266 11.618 C 42.9266 9.25495 43.4589 7.39453 44.5234 6.03672 C 45.588 4.67891 46.9893 4 48.7273 4 C 50.4654 4 51.8667 4.67891 52.9312 6.03672 C 53.9958 7.39453 54.5281 9.25495 54.5281 11.618 C 54.5281 13.981 53.9958 15.8411 52.9312 17.1984 C 51.8667 18.5557 50.4654 19.2344 48.7273 19.2344 C 46.9893 19.2344 45.588 18.5557 44.5234 17.1984 Z M 46.6469 11.5891 C 46.6469 12.9953 46.8375 14.0401 47.2188 14.7234 C 47.6 15.4068 48.1031 15.7484 48.7281 15.7484 C 49.3531 15.7484 49.8609 15.4068 50.2516 14.7234 C 50.6422 14.0401 50.8375 12.9953 50.8375 11.5891 C 50.8375 10.1828 50.6422 9.15234 50.2516 8.49766 C 49.8609 7.84297 49.3531 7.51562 48.7281 7.51562 C 47.3406 7.51562 46.6469 8.87344 46.6469 11.5891 Z M 48.9625 28.9031 L 61.7062 4 L 65.8375 4 L 53.0641 28.9031 Z M 61.8969 26.8531 C 60.8323 25.4854 60.3 23.6198 60.3 21.2563 C 60.3 18.8927 60.8273 17.0469 61.882 15.7188 C 62.9367 14.3906 64.3331 13.7266 66.0711 13.7266 C 67.8091 13.7266 69.2104 14.3906 70.275 15.7188 C 71.3396 17.0469 71.8719 18.8927 71.8719 21.2563 C 71.8719 23.6198 71.3396 25.4852 70.275 26.8523 C 69.2104 28.2195 67.8141 28.9031 66.0859 28.9031 C 64.3578 28.9031 62.9615 28.2198 61.8969 26.8531 Z M 64.5484 18.1953 C 64.1578 18.8495 63.9625 19.8797 63.9625 21.2859 C 63.9625 22.6922 64.1578 23.7323 64.5484 24.4063 C 64.9391 25.0802 65.4469 25.4172 66.0719 25.4172 C 66.6969 25.4172 67.1997 25.0753 67.5805 24.3914 C 67.9612 23.7076 68.1516 22.6625 68.1516 21.2563 C 68.1516 18.5615 67.4583 17.2141 66.0719 17.2141 C 65.4469 17.2141 64.9391 17.5411 64.5484 18.1953 Z" /><path fill="#0c00cc" d="M 4 18.4141 L 4 14.5469 L 10.3578 14.5469 L 10.3578 8.07344 L 14.3719 8.07344 L 14.3719 14.5469 L 20.8469 14.5469 L 20.8469 18.4141 L 14.3719 18.4141 L 14.3719 24.8594 L 10.3578 24.8594 L 10.3578 18.4141 Z" /><path fill="#0c00cc" d="M 24.8453 27.35 L 24.8453 22.9562 C 26.7401 24.0302 28.493 24.5672 30.1039 24.5672 C 31.7148 24.5672 32.8818 24.2693 33.6047 23.6734 C 34.3276 23.0776 34.6891 22.301 34.6891 21.3438 C 34.6891 19.2937 33.0583 18.2687 29.7969 18.2687 L 28.3906 18.2687 L 28.3906 14.5469 L 29.7969 14.5469 C 31.0469 14.5469 32.0771 14.2687 32.8875 13.7125 C 33.6979 13.1562 34.1031 12.375 34.1031 11.3687 C 34.1031 10.3625 33.8052 9.625 33.2094 9.15625 C 32.6135 8.6875 31.8078 8.45312 30.7922 8.45312 C 29.0536 8.45312 27.3547 8.98073 25.6953 10.0359 L 25.6953 5.75781 C 27.3359 4.85989 29.2401 4.41094 31.4078 4.41094 C 33.5755 4.41094 35.3529 5.02604 36.7398 6.25625 C 38.1268 7.48646 38.8203 9.05885 38.8203 10.9734 C 38.8203 12.2234 38.5029 13.3268 37.868 14.2836 C 37.2331 15.2404 36.3198 15.9729 35.1281 16.4812 C 36.4562 16.8135 37.4914 17.4385 38.2336 18.3562 C 38.9758 19.274 39.3469 20.4359 39.3469 21.8422 C 39.3469 23.8536 38.6146 25.4844 37.15 26.7344 C 35.6854 27.9844 33.6786 28.6094 31.1297 28.6094 C 28.5807 28.6094 26.4859 28.1896 24.8453 27.35 Z" /><path fill="#0c00cc" d="M 44.5234 17.1984 C 43.4589 15.8411 42.9266 13.981 42.9266 11.618 C 42.9266 9.25495 43.4589 7.39453 44.5234 6.03672 C 45.588 4.67891 46.9893 4 48.7273 4 C 50.4654 4 51.8667 4.67891 52.9312 6.03672 C 53.9958 7.39453 54.5281 9.25495 54.5281 11.618 C 54.5281 13.981 53.9958 15.8411 52.9312 17.1984 C 51.8667 18.5557 50.4654 19.2344 48.7273 19.2344 C 46.9893 19.2344 45.588 18.5557 44.5234 17.1984 Z M 46.6469 11.5891 C 46.6469 12.9953 46.8375 14.0401 47.2188 14.7234 C 47.6 15.4068 48.1031 15.7484 48.7281 15.7484 C 49.3531 15.7484 49.8609 15.4068 50.2516 14.7234 C 50.6422 14.0401 50.8375 12.9953 50.8375 11.5891 C 50.8375 10.1828 50.6422 9.15234 50.2516 8.49766 C 49.8609 7.84297 49.3531 7.51562 48.7281 7.51562 C 47.3406 7.51562 46.6469 8.87344 46.6469 11.5891 Z M 48.9625 28.9031 L 61.7062 4 L 65.8375 4 L 53.0641 28.9031 Z M 61.8969 26.8531 C 60.8323 25.4854 60.3 23.6198 60.3 21.2563 C 60.3 18.8927 60.8273 17.0469 61.882 15.7188 C 62.9367 14.3906 64.3331 13.7266 66.0711 13.7266 C 67.8091 13.7266 69.2104 14.3906 70.275 15.7188 C 71.3396 17.0469 71.8719 18.8927 71.8719 21.2563 C 71.8719 23.6198 71.3396 25.4852 70.275 26.8523 C 69.2104 28.2195 67.8141 28.9031 66.0859 28.9031 C 64.3578 28.9031 62.9615 28.2198 61.8969 26.8531 Z M 64.5484 18.1953 C 64.1578 18.8495 63.9625 19.8797 63.9625 21.2859 C 63.9625 22.6922 64.1578 23.7323 64.5484 24.4063 C 64.9391 25.0802 65.4469 25.4172 66.0719 25.4172 C 66.6969 25.4172 67.1997 25.0753 67.5805 24.3914 C 67.9612 23.7076 68.1516 22.6625 68.1516 21.2563 C 68.1516 18.5615 67.4583 17.2141 66.0719 17.2141 C 65.4469 17.2141 64.9391 17.5411 64.5484 18.1953 Z" /></svg>