<?xml version="1.0" encoding="utf-8" standalone="no"?>
<!DOCTYPE svg PUBLIC "-//W3C//DTD SVG 1.1//EN"
"http://www.w3.org/Graphics/SVG/1.1/DTD/svg11.dtd">

<svg xmlns="http://www.w3.org/2000/svg" version="1.1" xmlns:xlink="http://www.w3.org/1999/xlink" width="285.878" height="53.0937" viewBox="0 0 285.878 53.0937"><path stroke="#ffffff" stroke-width="8" stroke-linejoin="round" fill="#ffffff" d="M 5.42344 29.5438 C 4.47448 28.6594 4 27.5458 4 26.2031 C 4 24.8604 4.44193 23.7141 5.32578 22.7641 C 6.20964 21.8141 7.32292 21.3391 8.66563 21.3391 C 10.0083 21.3391 11.1544 21.7813 12.1039 22.6656 C 13.0534 23.55 13.5281 24.6635 13.5281 26.0063 C 13.5281 27.349 13.0862 28.4951 12.2023 29.4445 C 11.3185 30.394 10.2052 30.8688 8.8625 30.8688 C 7.51979 30.8688 6.37344 30.4271 5.42344 29.5438 Z" /><path stroke="#ffffff" stroke-width="8" stroke-linejoin="round" fill="#ffffff" d="M 47.1766 18.3922 C 47.1766 15.1828 48.4456 12.6695 50.9836 10.8523 C 53.5216 9.03516 56.5753 8.12656 60.1445 8.12656 C 63.7138 8.12656 66.7104 8.68333 69.1344 9.79688 L 69.1344 14.2172 C 66.8094 12.8745 64.1159 12.2031 61.0539 12.2031 C 57.9919 12.2031 55.6831 12.7516 54.1273 13.8484 C 52.5716 14.9453 51.7938 16.2716 51.7938 17.8273 C 51.7938 19.3831 52.3177 20.6849 53.3656 21.7328 C 54.4135 22.7807 56.9026 24.074 60.8328 25.6125 C 62.3057 26.2021 63.5336 26.7344 64.5164 27.2094 C 65.4992 27.6844 66.5964 28.3474 67.8078 29.1984 C 70.2307 30.9016 71.4422 33.3742 71.4422 36.6164 C 71.4422 39.8586 70.206 42.3719 67.7336 44.1563 C 65.2612 45.9406 62.0029 46.8328 57.9586 46.8328 C 53.9143 46.8328 50.3859 46.0307 47.3734 44.4266 L 47.3734 39.9562 C 50.0911 41.8563 53.6604 42.8063 58.0812 42.8063 C 60.8323 42.8063 63.0018 42.274 64.5898 41.2094 C 66.1779 40.1448 66.9719 38.6875 66.9719 36.8375 C 66.9719 34.9875 66.137 33.4891 64.4672 32.3422 C 63.1245 31.3932 61.5854 30.5831 59.85 29.9117 C 58.1146 29.2404 56.8948 28.749 56.1906 28.4375 C 55.4865 28.126 54.594 27.7083 53.5133 27.1844 C 52.4326 26.6604 51.5812 26.1365 50.9594 25.6125 C 50.3375 25.0885 49.699 24.4667 49.0438 23.7469 C 47.799 22.3708 47.1766 20.5859 47.1766 18.3922 Z" /><path stroke="#ffffff" stroke-width="8" stroke-linejoin="round" fill="#ffffff" d="M 148.269 46.4406 L 148.269 8.42031 L 172.633 8.42031 L 172.633 12.2516 L 152.639 12.2516 L 152.639 25.1703 L 170.52 25.1703 L 170.52 28.9531 L 152.639 28.9531 L 152.639 42.6094 L 172.927 42.6094 L 172.927 46.4406 Z" /><path stroke="#ffffff" stroke-width="8" stroke-linejoin="round" fill="#ffffff" d="M 186.631 35.4375 L 186.631 32.1469 L 191.741 32.1469 L 191.741 13.3813 L 207.558 13.3813 L 207.558 9.01094 L 188.352 9.01094 L 188.352 5.81719 L 231.578 5.81719 L 231.578 9.01094 L 211.339 9.01094 L 211.339 13.3813 L 228.188 13.3813 L 228.188 32.1469 L 233.297 32.1469 L 233.297 35.4375 L 228.188 35.4375 L 228.188 42.8547 C 228.188 45.5401 227.86 47.194 227.205 47.8164 C 226.551 48.4388 224.815 48.75 221.998 48.75 C 221.279 48.75 218.905 48.6677 214.877 48.5031 L 214.778 45.1141 C 218.643 45.2776 221.058 45.3594 222.023 45.3594 C 222.989 45.3594 223.611 45.2367 223.89 44.9914 C 224.168 44.7461 224.308 44.0177 224.308 42.8063 L 224.308 35.4375 L 195.62 35.4375 L 195.62 49.0938 L 191.741 49.0938 L 191.741 35.4375 Z M 195.62 32.1469 L 207.558 32.1469 L 207.558 25.3188 L 195.62 25.3188 Z M 195.62 22.3219 L 207.558 22.3219 L 207.558 16.4766 L 195.62 16.4766 Z M 211.339 32.1469 L 224.308 32.1469 L 224.308 25.3188 L 211.339 25.3188 Z M 211.339 22.3219 L 224.308 22.3219 L 224.308 16.4766 L 211.339 16.4766 Z" /><path stroke="#ffffff" stroke-width="8" stroke-linejoin="round" fill="#ffffff" d="M 237.816 25.3672 C 241.156 19.3422 243.694 12.5474 245.43 4.98281 L 249.213 5.62031 C 248.623 8.17448 248.066 10.3526 247.542 12.1547 L 258.988 12.1547 L 258.988 4 L 263.016 4 L 263.016 12.1547 L 280.011 12.1547 L 280.011 15.6422 L 263.016 15.6422 L 263.016 26.5953 L 277.506 26.5953 L 277.506 29.9844 L 263.016 29.9844 L 263.016 43.8375 L 281.878 43.8375 L 281.878 47.2266 L 238.652 47.2266 L 238.652 43.8375 L 258.988 43.8375 L 258.988 29.9844 L 245.036 29.9844 L 245.036 26.5953 L 258.988 26.5953 L 258.988 15.6422 L 246.413 15.6422 C 245.004 19.7682 243.285 23.6156 241.255 27.1844 Z" /><path fill="#000000" d="M 5.42344 29.5438 C 4.47448 28.6594 4 27.5458 4 26.2031 C 4 24.8604 4.44193 23.7141 5.32578 22.7641 C 6.20964 21.8141 7.32292 21.3391 8.66563 21.3391 C 10.0083 21.3391 11.1544 21.7813 12.1039 22.6656 C 13.0534 23.55 13.5281 24.6635 13.5281 26.0063 C 13.5281 27.349 13.0862 28.4951 12.2023 29.4445 C 11.3185 30.394 10.2052 30.8688 8.8625 30.8688 C 7.51979 30.8688 6.37344 30.4271 5.42344 29.5438 Z" /><path fill="#000000" d="M 47.1766 18.3922 C 47.1766 15.1828 48.4456 12.6695 50.9836 10.8523 C 53.5216 9.03516 56.5753 8.12656 60.1445 8.12656 C 63.7138 8.12656 66.7104 8.68333 69.1344 9.79688 L 69.1344 14.2172 C 66.8094 12.8745 64.1159 12.2031 61.0539 12.2031 C 57.9919 12.2031 55.6831 12.7516 54.1273 13.8484 C 52.5716 14.9453 51.7938 16.2716 51.7938 17.8273 C 51.7938 19.3831 52.3177 20.6849 53.3656 21.7328 C 54.4135 22.7807 56.9026 24.074 60.8328 25.6125 C 62.3057 26.2021 63.5336 26.7344 64.5164 27.2094 C 65.4992 27.6844 66.5964 28.3474 67.8078 29.1984 C 70.2307 30.9016 71.4422 33.3742 71.4422 36.6164 C 71.4422 39.8586 70.206 42.3719 67.7336 44.1563 C 65.2612 45.9406 62.0029 46.8328 57.9586 46.8328 C 53.9143 46.8328 50.3859 46.0307 47.3734 44.4266 L 47.3734 39.9562 C 50.0911 41.8563 53.6604 42.8063 58.0812 42.8063 C 60.8323 42.8063 63.0018 42.274 64.5898 41.2094 C 66.1779 40.1448 66.9719 38.6875 66.9719 36.8375 C 66.9719 34.9875 66.137 33.4891 64.4672 32.3422 C 63.1245 31.3932 61.5854 30.5831 59.85 29.9117 C 58.1146 29.2404 56.8948 28.749 56.1906 28.4375 C 55.4865 28.126 54.594 27.7083 53.5133 27.1844 C 52.4326 26.6604 51.5812 26.1365 50.9594 25.6125 C 50.3375 25.0885 49.699 24.4667 49.0438 23.7469 C 47.799 22.3708 47.1766 20.5859 47.1766 18.3922 Z" /><path fill="#000000" d="M 148.269 46.4406 L 148.269 8.42031 L 172.633 8.42031 L 172.633 12.2516 L 152.639 12.2516 L 152.639 25.1703 L 170.52 25.1703 L 170.52 28.9531 L 152.639 28.9531 L 152.639 42.6094 L 172.927 42.6094 L 172.927 46.4406 Z" /><path fill="#000000" d="M 186.631 35.4375 L 186.631 32.1469 L 191.741 32.1469 L 191.741 13.3813 L 207.558 13.3813 L 207.558 9.01094 L 188.352 9.01094 L 188.352 5.81719 L 231.578 5.81719 L 231.578 9.01094 L 211.339 9.01094 L 211.339 13.3813 L 228.188 13.3813 L 228.188 32.1469 L 233.297 32.1469 L 233.297 35.4375 L 228.188 35.4375 L 228.188 42.8547 C 228.188 45.5401 227.86 47.194 227.205 47.8164 C 226.551 48.4388 224.815 48.75 221.998 48.75 C 221.279 48.75 218.905 48.6677 214.877 48.5031 L 214.778 45.1141 C 218.643 45.2776 221.058 45.3594 222.023 45.3594 C 222.989 45.3594 223.611 45.2367 223.89 44.9914 C 224.168 44.7461 224.308 44.0177 224.308 42.8063 L 224.308 35.4375 L 195.62 35.4375 L 195.62 49.0938 L 191.741 49.0938 L 191.741 35.4375 Z M 195.62 32.1469 L 207.558 32.1469 L 207.558 25.3188 L 195.62 25.3188 Z M 195.62 22.3219 L 207.558 22.3219 L 207.558 16.4766 L 195.62 16.4766 Z M 211.339 32.1469 L 224.308 32.1469 L 224.308 25.3188 L 211.339 25.3188 Z M 211.339 22.3219 L 224.308 22.3219 L 224.308 16.4766 L 211.339 16.4766 Z" /><path fill="#000000" d="M 237.816 25.3672 C 241.156 19.3422 243.694 12.5474 245.43 4.98281 L 249.213 5.62031 C 248.623 8.17448 248.066 10.3526 247.542 12.1547 L 258.988 12.1547 L 258.988 4 L 263.016 4 L 263.016 12.1547 L 280.011 12.1547 L 280.011 15.6422 L 263.016 15.6422 L 263.016 26.5953 L 277.506 26.5953 L 277.506 29.9844 L 263.016 29.9844 L 263.016 43.8375 L 281.878 43.8375 L 281.878 47.2266 L 238.652 47.2266 L 238.652 43.8375 L 258.988 43.8375 L 258.988 29.9844 L 245.036 29.9844 L 245.036 26.5953 L 258.988 26.5953 L 258.988 15.6422 L 246.413 15.6422 C 245.004 19.7682 243.285 23.6156 241.255 27.1844 Z" /></svg>