<?xml version="1.0" encoding="utf-8" standalone="no"?>
<!DOCTYPE svg PUBLIC "-//W3C//DTD SVG 1.1//EN"
"http://www.w3.org/Graphics/SVG/1.1/DTD/svg11.dtd">

<svg xmlns="http://www.w3.org/2000/svg" version="1.1" xmlns:xlink="http://www.w3.org/1999/xlink" width="95.2719" height="32.9031" viewBox="0 0 95.2719 32.9031"><path stroke="#ffffff" stroke-width="8" stroke-linejoin="round" fill="#ffffff" d="M 4 18.4141 L 4 14.5469 L 20.8469 14.5469 L 20.8469 18.4141 Z" /><path stroke="#ffffff" stroke-width="8" stroke-linejoin="round" fill="#ffffff" d="M 25.1094 13.1703 L 25.1094 8.48281 L 31.3203 4.70312 L 35.3328 4.70312 L 35.3047 28.4344 L 30.7922 28.4344 L 30.7922 9.625 Z" /><path stroke="#ffffff" stroke-width="8" stroke-linejoin="round" fill="#ffffff" d="M 45.3734 25.3594 C 43.9182 23.1323 43.1906 20.1534 43.1906 16.4227 C 43.1906 12.6919 43.9229 9.73281 45.3875 7.54531 C 46.8521 5.35781 48.932 4.26406 51.6273 4.26406 C 54.3227 4.26406 56.4029 5.35781 57.868 7.54531 C 59.3331 9.73281 60.0656 12.6919 60.0656 16.4227 C 60.0656 20.1534 59.343 23.132 57.8977 25.3586 C 56.4523 27.5852 54.3674 28.6984 51.643 28.6984 C 48.9185 28.6984 46.8286 27.5854 45.3734 25.3594 Z M 48.8594 10.4172 C 48.1854 11.8036 47.8484 13.8201 47.8484 16.4664 C 47.8484 19.1128 48.1805 21.1391 48.8445 22.5453 C 49.5086 23.9516 50.4411 24.6547 51.6422 24.6547 C 52.8432 24.6547 53.7711 23.9516 54.4258 22.5453 C 55.0805 21.1391 55.4078 19.1128 55.4078 16.4664 C 55.4078 13.8201 55.0758 11.8034 54.4117 10.4164 C 53.7477 9.02943 52.8247 8.33594 51.643 8.33594 C 50.4612 8.33594 49.5333 9.02969 48.8594 10.4172 Z" /><path stroke="#ffffff" stroke-width="8" stroke-linejoin="round" fill="#ffffff" d="M 63.9234 17.1984 C 62.8589 15.8411 62.3266 13.981 62.3266 11.618 C 62.3266 9.25495 62.8589 7.39453 63.9234 6.03672 C 64.988 4.67891 66.3893 4 68.1273 4 C 69.8654 4 71.2667 4.67891 72.3312 6.03672 C 73.3958 7.39453 73.9281 9.25495 73.9281 11.618 C 73.9281 13.981 73.3958 15.8411 72.3312 17.1984 C 71.2667 18.5557 69.8654 19.2344 68.1273 19.2344 C 66.3893 19.2344 64.988 18.5557 63.9234 17.1984 Z M 66.0469 11.5891 C 66.0469 12.9953 66.2375 14.0401 66.6187 14.7234 C 67 15.4068 67.5031 15.7484 68.1281 15.7484 C 68.7531 15.7484 69.2609 15.4068 69.6516 14.7234 C 70.0422 14.0401 70.2375 12.9953 70.2375 11.5891 C 70.2375 10.1828 70.0422 9.15234 69.6516 8.49766 C 69.2609 7.84297 68.7531 7.51562 68.1281 7.51562 C 66.7406 7.51562 66.0469 8.87344 66.0469 11.5891 Z M 68.3625 28.9031 L 81.1062 4 L 85.2375 4 L 72.4641 28.9031 Z M 81.2969 26.8531 C 80.2323 25.4854 79.7 23.6198 79.7 21.2563 C 79.7 18.8927 80.2273 17.0469 81.282 15.7188 C 82.3367 14.3906 83.7331 13.7266 85.4711 13.7266 C 87.2091 13.7266 88.6104 14.3906 89.675 15.7188 C 90.7396 17.0469 91.2719 18.8927 91.2719 21.2563 C 91.2719 23.6198 90.7396 25.4852 89.675 26.8523 C 88.6104 28.2195 87.2141 28.9031 85.4859 28.9031 C 83.7578 28.9031 82.3615 28.2198 81.2969 26.8531 Z M 83.9484 18.1953 C 83.5578 18.8495 83.3625 19.8797 83.3625 21.2859 C 83.3625 22.6922 83.5578 23.7323 83.9484 24.4063 C 84.3391 25.0802 84.8469 25.4172 85.4719 25.4172 C 86.0969 25.4172 86.5997 25.0753 86.9805 24.3914 C 87.3612 23.7076 87.5516 22.6625 87.5516 21.2563 C 87.5516 18.5615 86.8583 17.2141 85.4719 17.2141 C 84.8469 17.2141 84.3391 17.5411 83.9484 18.1953 Z" /><path fill="#cc0000" d="M 4 18.4141 L 4 14.5469 L 20.8469 14.5469 L 20.8469 18.4141 Z" /><path fill="#cc0000" d="M 25.1094 13.1703 L 25.1094 8.48281 L 31.3203 4.70312 L 35.3328 4.70312 L 35.3047 28.4344 L 30.7922 28.4344 L 30.7922 9.625 Z" /><path fill="#cc0000" d="M 45.3734 25.3594 C 43.9182 23.1323 43.1906 20.1534 43.1906 16.4227 C 43.1906 12.6919 43.9229 9.73281 45.3875 7.54531 C 46.8521 5.35781 48.932 4.26406 51.6273 4.26406 C 54.3227 4.26406 56.4029 5.35781 57.868 7.54531 C 59.3331 9.73281 60.0656 12.6919 60.0656 16.4227 C 60.0656 20.1534 59.343 23.132 57.8977 25.3586 C 56.4523 27.5852 54.3674 28.6984 51.643 28.6984 C 48.9185 28.6984 46.8286 27.5854 45.3734 25.3594 Z M 48.8594 10.4172 C 48.1854 11.8036 47.8484 13.8201 47.8484 16.4664 C 47.8484 19.1128 48.1805 21.1391 48.8445 22.5453 C 49.5086 23.9516 50.4411 24.6547 51.6422 24.6547 C 52.8432 24.6547 53.7711 23.9516 54.4258 22.5453 C 55.0805 21.1391 55.4078 19.1128 55.4078 16.4664 C 55.4078 13.8201 55.0758 11.8034 54.4117 10.4164 C 53.7477 9.02943 52.8247 8.33594 51.643 8.33594 C 50.4612 8.33594 49.5333 9.02969 48.8594 10.4172 Z" /><path fill="#cc0000" d="M 63.9234 17.1984 C 62.8589 15.8411 62.3266 13.981 62.3266 11.618 C 62.3266 9.25495 62.8589 7.39453 63.9234 6.03672 C 64.988 4.67891 66.3893 4 68.1273 4 C 69.8654 4 71.2667 4.67891 72.3312 6.03672 C 73.3958 7.39453 73.9281 9.25495 73.9281 11.618 C 73.9281 13.981 73.3958 15.8411 72.3312 17.1984 C 71.2667 18.5557 69.8654 19.2344 68.1273 19.2344 C 66.3893 19.2344 64.988 18.5557 63.9234 17.1984 Z M 66.0469 11.5891 C 66.0469 12.9953 66.2375 14.0401 66.6187 14.7234 C 67 15.4068 67.5031 15.7484 68.1281 15.7484 C 68.7531 15.7484 69.2609 15.4068 69.6516 14.7234 C 70.0422 14.0401 70.2375 12.9953 70.2375 11.5891 C 70.2375 10.1828 70.0422 9.15234 69.6516 8.49766 C 69.2609 7.84297 68.7531 7.51562 68.1281 7.51562 C 66.7406 7.51562 66.0469 8.87344 66.0469 11.5891 Z M 68.3625 28.9031 L 81.1062 4 L 85.2375 4 L 72.4641 28.9031 Z M 81.2969 26.8531 C 80.2323 25.4854 79.7 23.6198 79.7 21.2563 C 79.7 18.8927 80.2273 17.0469 81.282 15.7188 C 82.3367 14.3906 83.7331 13.7266 85.4711 13.7266 C 87.2091 13.7266 88.6104 14.3906 89.675 15.7188 C 90.7396 17.0469 91.2719 18.8927 91.2719 21.2563 C 91.2719 23.6198 90.7396 25.4852 89.675 26.8523 C 88.6104 28.2195 87.2141 28.9031 85.4859 28.9031 C 83.7578 28.9031 82.3615 28.2198 81.2969 26.8531 Z M 83.9484 18.1953 C 83.5578 18.8495 83.3625 19.8797 83.3625 21.2859 C 83.3625 22.6922 83.5578 23.7323 83.9484 24.4063 C 84.3391 25.0802 84.8469 25.4172 85.4719 25.4172 C 86.0969 25.4172 86.5997 25.0753 86.9805 24.3914 C 87.3612 23.7076 87.5516 22.6625 87.5516 21.2563 C 87.5516 18.5615 86.8583 17.2141 85.4719 17.2141 C 84.8469 17.2141 84.3391 17.5411 83.9484 18.1953 Z" /></svg>