<?xml version="1.0" encoding="utf-8" standalone="no"?>
<!DOCTYPE svg PUBLIC "-//W3C//DTD SVG 1.1//EN"
"http://www.w3.org/Graphics/SVG/1.1/DTD/svg11.dtd">

<svg xmlns="http://www.w3.org/2000/svg" version="1.1" xmlns:xlink="http://www.w3.org/1999/xlink" width="120.925" height="33.8744" viewBox="0 0 120.925 33.8744"><path stroke="#ffffff" stroke-width="8" stroke-linejoin="round" fill="#ffffff" d="M 23.7254 29.8744 L 23.7254 27.0744 L 6.8 27.0744 L 6.8 4 L 4 4 L 4 29.8744 Z" /><path stroke="#ffffff" stroke-width="8" stroke-linejoin="round" fill="#ffffff" d="M 46.4254 6.77438 L 46.4254 4.07438 L 26.7 4.07438 L 26.7 29.8744 L 46.3937 29.8744 L 46.3937 27.1744 L 29.5 27.1744 L 29.5 17.7744 L 45.221 17.7744 L 45.221 15.0744 L 29.5 15.0744 L 29.5 6.77438 Z" /><path stroke="#ffffff" stroke-width="8" stroke-linejoin="round" fill="#ffffff" d="M 69.9717 4.042 L 67.024 4.042 L 58.3394 27.3065 L 49.8767 4.042 L 46.8656 4.042 L 56.3426 29.8739 L 60.2728 29.8739 Z" /><path stroke="#ffffff" stroke-width="8" stroke-linejoin="round" fill="#ffffff" d="M 93.9254 6.77438 L 93.9254 4.07438 L 74.2 4.07438 L 74.2 29.8744 L 93.8937 29.8744 L 93.8937 27.1744 L 77 27.1744 L 77 17.7744 L 92.721 17.7744 L 92.721 15.0744 L 77 15.0744 L 77 6.77438 Z" /><path stroke="#ffffff" stroke-width="8" stroke-linejoin="round" fill="#ffffff" d="M 116.925 29.8744 L 116.925 27.0744 L 100 27.0744 L 100 4 L 97.2 4 L 97.2 29.8744 Z" /><path fill="#000000" d="M 23.7254 29.8744 L 23.7254 27.0744 L 6.8 27.0744 L 6.8 4 L 4 4 L 4 29.8744 Z" /><path fill="#000000" d="M 46.4254 6.77438 L 46.4254 4.07438 L 26.7 4.07438 L 26.7 29.8744 L 46.3937 29.8744 L 46.3937 27.1744 L 29.5 27.1744 L 29.5 17.7744 L 45.221 17.7744 L 45.221 15.0744 L 29.5 15.0744 L 29.5 6.77438 Z" /><path fill="#000000" d="M 69.9717 4.042 L 67.024 4.042 L 58.3394 27.3065 L 49.8767 4.042 L 46.8656 4.042 L 56.3426 29.8739 L 60.2728 29.8739 Z" /><path fill="#000000" d="M 93.9254 6.77438 L 93.9254 4.07438 L 74.2 4.07438 L 74.2 29.8744 L 93.8937 29.8744 L 93.8937 27.1744 L 77 27.1744 L 77 17.7744 L 92.721 17.7744 L 92.721 15.0744 L 77 15.0744 L 77 6.77438 Z" /><path fill="#000000" d="M 116.925 29.8744 L 116.925 27.0744 L 100 27.0744 L 100 4 L 97.2 4 L 97.2 29.8744 Z" /></svg>