<?xml version="1.0" encoding="utf-8" standalone="no"?>
<!DOCTYPE svg PUBLIC "-//W3C//DTD SVG 1.1//EN"
"http://www.w3.org/Graphics/SVG/1.1/DTD/svg11.dtd">

<svg xmlns="http://www.w3.org/2000/svg" version="1.1" xmlns:xlink="http://www.w3.org/1999/xlink" width="155.628" height="35.3047" viewBox="0 0 155.628 35.3047"><path stroke="#ffffff" stroke-width="8" stroke-linejoin="round" fill="#ffffff" d="M 4 25.4453 C 4.70313 25.3672 5.43594 25.2797 6.19844 25.1828 L 6.19844 7.39844 L 4.38125 7.39844 L 4.38125 5.40625 L 19.1766 5.40625 L 19.1766 6.66719 L 31.1875 6.66719 L 31.1875 8.74687 C 30.25 14.45 28.6094 19.2156 26.2656 23.0437 C 27.8677 25.2698 29.8406 27.1547 32.1844 28.6984 L 31.0422 30.6313 C 28.6391 28.9906 26.6172 27.0964 24.9766 24.9484 C 23.2974 27.2328 21.3641 29.1271 19.1766 30.6313 L 17.9172 28.6984 C 20.1047 27.2328 22.0089 25.3281 23.6297 22.9844 C 21.5203 19.625 19.987 15.3672 19.0297 10.2109 L 21.1984 9.74219 C 22.038 14.2932 23.2682 18.0141 24.8891 20.9047 C 26.7839 17.4672 28.1219 13.4146 28.9031 8.74687 L 18.6781 8.74687 L 18.6781 7.39844 L 17.4484 7.39844 L 17.4484 31.3047 L 15.1328 31.3047 L 15.1328 25.7969 C 11.5005 26.5 7.85833 27.0568 4.20625 27.4672 Z M 8.36563 24.8891 C 11.1198 24.4786 13.3755 24.1078 15.1328 23.7766 L 15.1328 19.9094 L 8.36563 19.9094 Z M 8.36563 18.1219 L 15.1328 18.1219 L 15.1328 13.5219 L 8.36563 13.5219 Z M 8.36563 11.7062 L 15.1328 11.7062 L 15.1328 7.39844 L 8.36563 7.39844 Z" /><path stroke="#ffffff" stroke-width="8" stroke-linejoin="round" fill="#ffffff" d="M 33.8547 18.8828 C 35.4172 17.7307 36.7453 16.5396 37.8391 15.3094 C 38.9328 14.0792 39.9286 12.663 40.8266 11.0609 L 42.6719 12.1453 C 41.8521 13.7078 40.8661 15.1724 39.7141 16.5391 L 39.7141 31.2172 L 37.4281 31.2172 L 37.4281 18.4734 C 36.4708 19.5672 35.5234 20.4656 34.5859 21.1687 Z M 34.2641 10.2703 C 37.0964 8.53177 39.3427 6.44167 41.0031 4 L 42.7891 5.05469 C 41.7547 6.53906 40.6417 7.8526 39.45 8.99531 C 38.2583 10.138 36.8323 11.2172 35.1719 12.2328 Z M 42.2031 22.5156 L 42.2031 20.5234 L 56.2953 20.5234 L 56.2953 18.3562 L 42.4375 18.3562 L 42.4375 16.5391 L 61.5688 16.5391 L 61.5688 18.3562 L 58.6984 18.3562 L 58.6984 20.5234 L 61.7734 20.5234 L 61.7734 22.5156 L 58.6984 22.5156 L 58.6984 26.9109 C 58.6984 28.7276 58.4982 29.8508 58.0977 30.2805 C 57.6971 30.7102 56.6276 30.925 54.8891 30.925 C 54.362 30.925 53.1901 30.876 51.3734 30.7781 L 51.2859 28.7563 C 52.9849 28.8542 54.1615 28.9031 54.8156 28.9031 C 55.4698 28.9031 55.8799 28.8201 56.0461 28.6539 C 56.2122 28.4878 56.2953 27.926 56.2953 26.9688 L 56.2953 22.5156 L 46.2766 22.5156 C 48.0339 24.0198 49.6745 25.6703 51.1984 27.4672 L 49.6156 28.9328 C 48.0146 27.0578 46.3349 25.3781 44.5766 23.8937 L 46.0125 22.5156 Z M 44.0203 14.8406 L 44.0203 5.14375 L 60.0453 5.14375 L 60.0453 14.8406 Z M 46.2766 13.1703 L 57.6719 13.1703 L 57.6719 10.9141 L 46.2766 10.9141 Z M 46.2766 9.15625 L 57.6719 9.15625 L 57.6719 7.01875 L 46.2766 7.01875 Z" /><path stroke="#ffffff" stroke-width="8" stroke-linejoin="round" fill="#ffffff" d="M 67.1359 28.2578 L 67.1359 25.9734 L 86.6172 25.9734 L 86.6172 9.88906 L 67.3984 9.88906 L 67.3984 7.63281 L 89.05 7.63281 L 89.05 29.4016 L 86.6172 29.4016 L 86.6172 28.2578 Z" /><path stroke="#ffffff" stroke-width="8" stroke-linejoin="round" fill="#ffffff" d="M 95.7 18.9719 C 104.919 16.0219 111.969 11.3734 116.852 5.02656 L 118.639 6.60781 C 116.315 9.59635 113.601 12.2036 110.495 14.4297 L 110.73 30.8953 L 108.239 30.8953 L 107.975 16.1297 C 104.635 18.2193 100.944 19.899 96.9016 21.1687 Z" /><path stroke="#ffffff" stroke-width="8" stroke-linejoin="round" fill="#ffffff" d="M 126.256 8.77656 L 127.692 6.90156 C 130.719 8.32656 133.766 10.2406 136.833 12.6437 L 135.28 14.6359 C 134.186 13.6984 132.804 12.6828 131.134 11.5891 C 129.465 10.4953 127.839 9.55781 126.256 8.77656 Z M 127.458 27.5844 C 133.395 27.3302 138.068 25.8068 141.477 23.0141 C 144.885 20.2214 147.497 15.788 149.313 9.71406 L 151.628 11.3828 C 149.479 17.6526 146.559 22.2474 142.868 25.1672 C 139.177 28.087 134.216 29.7229 127.984 30.075 Z" /><path fill="#000000" d="M 4 25.4453 C 4.70313 25.3672 5.43594 25.2797 6.19844 25.1828 L 6.19844 7.39844 L 4.38125 7.39844 L 4.38125 5.40625 L 19.1766 5.40625 L 19.1766 6.66719 L 31.1875 6.66719 L 31.1875 8.74687 C 30.25 14.45 28.6094 19.2156 26.2656 23.0437 C 27.8677 25.2698 29.8406 27.1547 32.1844 28.6984 L 31.0422 30.6313 C 28.6391 28.9906 26.6172 27.0964 24.9766 24.9484 C 23.2974 27.2328 21.3641 29.1271 19.1766 30.6313 L 17.9172 28.6984 C 20.1047 27.2328 22.0089 25.3281 23.6297 22.9844 C 21.5203 19.625 19.987 15.3672 19.0297 10.2109 L 21.1984 9.74219 C 22.038 14.2932 23.2682 18.0141 24.8891 20.9047 C 26.7839 17.4672 28.1219 13.4146 28.9031 8.74687 L 18.6781 8.74687 L 18.6781 7.39844 L 17.4484 7.39844 L 17.4484 31.3047 L 15.1328 31.3047 L 15.1328 25.7969 C 11.5005 26.5 7.85833 27.0568 4.20625 27.4672 Z M 8.36563 24.8891 C 11.1198 24.4786 13.3755 24.1078 15.1328 23.7766 L 15.1328 19.9094 L 8.36563 19.9094 Z M 8.36563 18.1219 L 15.1328 18.1219 L 15.1328 13.5219 L 8.36563 13.5219 Z M 8.36563 11.7062 L 15.1328 11.7062 L 15.1328 7.39844 L 8.36563 7.39844 Z" /><path fill="#000000" d="M 33.8547 18.8828 C 35.4172 17.7307 36.7453 16.5396 37.8391 15.3094 C 38.9328 14.0792 39.9286 12.663 40.8266 11.0609 L 42.6719 12.1453 C 41.8521 13.7078 40.8661 15.1724 39.7141 16.5391 L 39.7141 31.2172 L 37.4281 31.2172 L 37.4281 18.4734 C 36.4708 19.5672 35.5234 20.4656 34.5859 21.1687 Z M 34.2641 10.2703 C 37.0964 8.53177 39.3427 6.44167 41.0031 4 L 42.7891 5.05469 C 41.7547 6.53906 40.6417 7.8526 39.45 8.99531 C 38.2583 10.138 36.8323 11.2172 35.1719 12.2328 Z M 42.2031 22.5156 L 42.2031 20.5234 L 56.2953 20.5234 L 56.2953 18.3562 L 42.4375 18.3562 L 42.4375 16.5391 L 61.5688 16.5391 L 61.5688 18.3562 L 58.6984 18.3562 L 58.6984 20.5234 L 61.7734 20.5234 L 61.7734 22.5156 L 58.6984 22.5156 L 58.6984 26.9109 C 58.6984 28.7276 58.4982 29.8508 58.0977 30.2805 C 57.6971 30.7102 56.6276 30.925 54.8891 30.925 C 54.362 30.925 53.1901 30.876 51.3734 30.7781 L 51.2859 28.7563 C 52.9849 28.8542 54.1615 28.9031 54.8156 28.9031 C 55.4698 28.9031 55.8799 28.8201 56.0461 28.6539 C 56.2122 28.4878 56.2953 27.926 56.2953 26.9688 L 56.2953 22.5156 L 46.2766 22.5156 C 48.0339 24.0198 49.6745 25.6703 51.1984 27.4672 L 49.6156 28.9328 C 48.0146 27.0578 46.3349 25.3781 44.5766 23.8937 L 46.0125 22.5156 Z M 44.0203 14.8406 L 44.0203 5.14375 L 60.0453 5.14375 L 60.0453 14.8406 Z M 46.2766 13.1703 L 57.6719 13.1703 L 57.6719 10.9141 L 46.2766 10.9141 Z M 46.2766 9.15625 L 57.6719 9.15625 L 57.6719 7.01875 L 46.2766 7.01875 Z" /><path fill="#000000" d="M 67.1359 28.2578 L 67.1359 25.9734 L 86.6172 25.9734 L 86.6172 9.88906 L 67.3984 9.88906 L 67.3984 7.63281 L 89.05 7.63281 L 89.05 29.4016 L 86.6172 29.4016 L 86.6172 28.2578 Z" /><path fill="#000000" d="M 95.7 18.9719 C 104.919 16.0219 111.969 11.3734 116.852 5.02656 L 118.639 6.60781 C 116.315 9.59635 113.601 12.2036 110.495 14.4297 L 110.73 30.8953 L 108.239 30.8953 L 107.975 16.1297 C 104.635 18.2193 100.944 19.899 96.9016 21.1687 Z" /><path fill="#000000" d="M 126.256 8.77656 L 127.692 6.90156 C 130.719 8.32656 133.766 10.2406 136.833 12.6437 L 135.28 14.6359 C 134.186 13.6984 132.804 12.6828 131.134 11.5891 C 129.465 10.4953 127.839 9.55781 126.256 8.77656 Z M 127.458 27.5844 C 133.395 27.3302 138.068 25.8068 141.477 23.0141 C 144.885 20.2214 147.497 15.788 149.313 9.71406 L 151.628 11.3828 C 149.479 17.6526 146.559 22.2474 142.868 25.1672 C 139.177 28.087 134.216 29.7229 127.984 30.075 Z" /></svg>