<?xml version="1.0" encoding="utf-8" standalone="no"?>
<!DOCTYPE svg PUBLIC "-//W3C//DTD SVG 1.1//EN"
"http://www.w3.org/Graphics/SVG/1.1/DTD/svg11.dtd">

<svg xmlns="http://www.w3.org/2000/svg" version="1.1" xmlns:xlink="http://www.w3.org/1999/xlink" width="158.094" height="50.7788" viewBox="0 0 158.094 50.7788"><path stroke="#ffffff" stroke-width="8" stroke-linejoin="round" fill="#ffffff" d="M 46.9052 46.5559 L 46.9052 42.5558 L 25.796 42.5558 L 25.796 23.0558 L 45.4314 23.0558 L 45.4314 18.9558 L 25.796 18.9558 L 25.796 4.25578 L 21.4959 4.25578 L 21.4959 42.5558 L 4 42.5558 L 4 46.5559 Z" /><path stroke="#ffffff" stroke-width="8" stroke-linejoin="round" fill="#ffffff" d="M 154.094 46.7313 L 154.094 42.6085 C 151.768 41.9454 149.681 40.8085 147.926 39.0559 C 151.104 34.4139 152.385 28.2278 153.096 21.0658 L 153.096 17.4558 L 148.638 17.4558 L 151.009 8.51504 L 151.009 4.85578 L 130.936 4.85578 L 130.936 8.75579 L 134.896 8.75579 C 134.896 28.1318 133.942 37.0665 130.841 40.8559 L 130.841 46.5411 C 135.322 42.7033 137.454 36.6402 138.259 24.451 C 139.206 30.497 140.817 35.2665 143.28 38.9612 C 141.575 40.7612 139.396 42.0875 136.601 42.8454 L 136.601 46.7788 C 140.438 45.7822 143.375 44.0296 145.65 41.8506 C 147.926 44.1243 150.725 45.7822 154.094 46.7313 Z M 130.173 30.2617 L 128.121 19.1183 L 125.163 19.1183 L 126.07 24.2161 C 124.877 24.7799 123.446 25.1558 120.91 25.1558 L 115.558 25.1558 L 128.789 9.84651 L 124.495 9.84651 L 121.437 13.3558 L 114.978 13.3558 L 122.921 4 L 118.615 4 L 111.237 12.8341 L 111.237 16.9558 L 118.333 16.9558 L 111.237 25.0618 L 111.237 28.8029 L 118.896 28.8029 L 118.896 46.7788 L 122.396 46.7788 L 122.396 28.7558 C 124.209 28.6118 125.879 28.2278 126.69 27.7478 L 127.119 30.2617 Z M 129.886 46.2558 L 128.407 32.7558 L 125.449 32.7558 L 126.928 46.2558 Z M 115.896 32.7558 L 112.996 32.7558 C 112.996 37.4928 112.378 43.4611 111.142 46.2558 L 114.156 46.2558 C 114.929 44.1243 115.896 38.2507 115.896 32.7558 Z M 149.586 21.2558 C 148.875 27.1238 147.737 32.1911 145.46 35.977 C 143.28 32.3794 141.812 27.2678 141.196 20.4008 L 138.496 20.4008 C 138.638 16.9558 138.685 13.1187 138.685 8.75579 L 147.167 8.75579 L 144.796 17.4558 L 144.796 21.2558 Z" /><path fill="#800000" d="M 46.9052 46.5559 L 46.9052 42.5558 L 25.796 42.5558 L 25.796 23.0558 L 45.4314 23.0558 L 45.4314 18.9558 L 25.796 18.9558 L 25.796 4.25578 L 21.4959 4.25578 L 21.4959 42.5558 L 4 42.5558 L 4 46.5559 Z" /><path fill="#800000" d="M 154.094 46.7313 L 154.094 42.6085 C 151.768 41.9454 149.681 40.8085 147.926 39.0559 C 151.104 34.4139 152.385 28.2278 153.096 21.0658 L 153.096 17.4558 L 148.638 17.4558 L 151.009 8.51504 L 151.009 4.85578 L 130.936 4.85578 L 130.936 8.75579 L 134.896 8.75579 C 134.896 28.1318 133.942 37.0665 130.841 40.8559 L 130.841 46.5411 C 135.322 42.7033 137.454 36.6402 138.259 24.451 C 139.206 30.497 140.817 35.2665 143.28 38.9612 C 141.575 40.7612 139.396 42.0875 136.601 42.8454 L 136.601 46.7788 C 140.438 45.7822 143.375 44.0296 145.65 41.8506 C 147.926 44.1243 150.725 45.7822 154.094 46.7313 Z M 130.173 30.2617 L 128.121 19.1183 L 125.163 19.1183 L 126.07 24.2161 C 124.877 24.7799 123.446 25.1558 120.91 25.1558 L 115.558 25.1558 L 128.789 9.84651 L 124.495 9.84651 L 121.437 13.3558 L 114.978 13.3558 L 122.921 4 L 118.615 4 L 111.237 12.8341 L 111.237 16.9558 L 118.333 16.9558 L 111.237 25.0618 L 111.237 28.8029 L 118.896 28.8029 L 118.896 46.7788 L 122.396 46.7788 L 122.396 28.7558 C 124.209 28.6118 125.879 28.2278 126.69 27.7478 L 127.119 30.2617 Z M 129.886 46.2558 L 128.407 32.7558 L 125.449 32.7558 L 126.928 46.2558 Z M 115.896 32.7558 L 112.996 32.7558 C 112.996 37.4928 112.378 43.4611 111.142 46.2558 L 114.156 46.2558 C 114.929 44.1243 115.896 38.2507 115.896 32.7558 Z M 149.586 21.2558 C 148.875 27.1238 147.737 32.1911 145.46 35.977 C 143.28 32.3794 141.812 27.2678 141.196 20.4008 L 138.496 20.4008 C 138.638 16.9558 138.685 13.1187 138.685 8.75579 L 147.167 8.75579 L 144.796 17.4558 L 144.796 21.2558 Z" /></svg>