<?xml version="1.0" encoding="utf-8" standalone="no"?>
<!DOCTYPE svg PUBLIC "-//W3C//DTD SVG 1.1//EN"
"http://www.w3.org/Graphics/SVG/1.1/DTD/svg11.dtd">

<svg xmlns="http://www.w3.org/2000/svg" version="1.1" xmlns:xlink="http://www.w3.org/1999/xlink" width="43.8156" height="32.0234" viewBox="0 0 43.8156 32.0234"><path stroke="#ffffff" stroke-width="8" stroke-linejoin="round" fill="#ffffff" d="M 4 18.0031 L 4 14.1359 L 10.3578 14.1359 L 10.3578 7.6625 L 14.3719 7.6625 L 14.3719 14.1359 L 20.8469 14.1359 L 20.8469 18.0031 L 14.3719 18.0031 L 14.3719 24.4484 L 10.3578 24.4484 L 10.3578 18.0031 Z" /><path stroke="#ffffff" stroke-width="8" stroke-linejoin="round" fill="#ffffff" d="M 24.4641 28.0234 L 24.4641 24.4781 C 26.2026 23.2083 27.7846 21.9094 29.2102 20.5812 C 30.6357 19.2531 31.8906 17.7737 32.975 16.143 C 34.0594 14.5122 34.6016 13.0964 34.6016 11.8953 C 34.6016 10.6943 34.2695 9.77135 33.6055 9.12656 C 32.9414 8.48177 32.0135 8.15937 30.8219 8.15937 C 28.8885 8.15937 26.9453 8.96041 24.9922 10.5625 L 24.9922 6.07969 C 25.812 5.47448 26.8224 4.97656 28.0234 4.58594 C 29.2245 4.19531 30.4406 4 31.6719 4 C 33.8979 4 35.724 4.625 37.15 5.875 C 38.576 7.125 39.2891 8.86302 39.2891 11.0891 C 39.2891 15.3078 36.4276 19.6635 30.7047 24.1563 L 39.8156 24.1563 L 39.8156 28.0234 Z" /><path fill="#0c00cc" d="M 4 18.0031 L 4 14.1359 L 10.3578 14.1359 L 10.3578 7.6625 L 14.3719 7.6625 L 14.3719 14.1359 L 20.8469 14.1359 L 20.8469 18.0031 L 14.3719 18.0031 L 14.3719 24.4484 L 10.3578 24.4484 L 10.3578 18.0031 Z" /><path fill="#0c00cc" d="M 24.4641 28.0234 L 24.4641 24.4781 C 26.2026 23.2083 27.7846 21.9094 29.2102 20.5812 C 30.6357 19.2531 31.8906 17.7737 32.975 16.143 C 34.0594 14.5122 34.6016 13.0964 34.6016 11.8953 C 34.6016 10.6943 34.2695 9.77135 33.6055 9.12656 C 32.9414 8.48177 32.0135 8.15937 30.8219 8.15937 C 28.8885 8.15937 26.9453 8.96041 24.9922 10.5625 L 24.9922 6.07969 C 25.812 5.47448 26.8224 4.97656 28.0234 4.58594 C 29.2245 4.19531 30.4406 4 31.6719 4 C 33.8979 4 35.724 4.625 37.15 5.875 C 38.576 7.125 39.2891 8.86302 39.2891 11.0891 C 39.2891 15.3078 36.4276 19.6635 30.7047 24.1563 L 39.8156 24.1563 L 39.8156 28.0234 Z" /></svg>