<?xml version="1.0" encoding="utf-8" standalone="no"?>
<!DOCTYPE svg PUBLIC "-//W3C//DTD SVG 1.1//EN"
"http://www.w3.org/Graphics/SVG/1.1/DTD/svg11.dtd">

<svg xmlns="http://www.w3.org/2000/svg" version="1.1" xmlns:xlink="http://www.w3.org/1999/xlink" width="1031.38" height="59.7147" viewBox="0 0 1031.38 59.7147"><path stroke="#ffffff" stroke-width="8" stroke-linejoin="round" fill="#ffffff" d="M 57.609 8.61491 L 57.609 4.01493 L 4 4.01493 L 4 8.61491 L 28.364 8.61491 L 28.364 15.2149 L 14.564 15.2149 L 14.564 46.6148 L 47.0639 46.6148 L 47.0639 15.2149 L 33.2639 15.2149 L 33.2639 8.61491 Z M 56.0639 55.7147 L 56.0639 14.9176 L 51.0639 14.9176 L 51.0639 51.1148 L 10.464 51.1148 L 10.464 15.096 L 5.66404 15.096 L 5.66404 55.7147 Z M 42.8639 28.9148 L 33.2639 28.9148 L 33.2639 19.7149 L 42.8639 19.7149 Z M 42.8639 42.1148 L 33.2639 42.1148 L 33.2639 32.9148 L 42.8639 32.9148 Z M 28.364 28.9148 L 18.764 28.9148 L 18.764 19.7149 L 28.364 19.7149 Z M 28.364 42.1148 L 18.764 42.1148 L 18.764 32.9148 L 28.364 32.9148 Z" /><path stroke="#ffffff" stroke-width="8" stroke-linejoin="round" fill="#ffffff" d="M 116.968 8.41491 L 116.968 4.01493 L 63.4 4.01493 L 63.4 8.41491 L 86.8458 8.41491 L 83.6549 16.4149 L 65.064 16.4149 L 65.064 55.7147 L 115.364 55.7147 L 115.364 16.4149 L 89.2095 16.4149 L 92.3413 8.41491 Z M 110.364 51.5148 L 102.064 51.5148 L 102.064 20.7149 L 110.364 20.7149 Z M 97.3639 28.2148 L 83.064 28.2148 L 83.064 20.7149 L 97.3639 20.7149 Z M 97.3639 39.9148 L 83.064 39.9148 L 83.064 32.3148 L 97.3639 32.3148 Z M 97.3639 51.5148 L 83.064 51.5148 L 83.064 43.9148 L 97.3639 43.9148 Z M 78.264 51.5148 L 69.964 51.5148 L 69.964 20.7149 L 78.264 20.7149 Z" /><path stroke="#ffffff" stroke-width="8" stroke-linejoin="round" fill="#ffffff" d="M 176.381 28.2544 L 176.381 23.0277 C 172.637 23.6216 169.131 24.2156 165.938 24.8689 C 163.583 20.7194 158.957 18.4149 153.072 18.4149 C 147.425 18.4149 142.788 19.7739 139.151 22.0194 C 140.346 19.5967 141.718 16.8374 142.788 13.0149 L 175.193 13.0149 L 175.193 8.11491 L 143.977 8.11491 C 144.215 7.04517 144.393 5.916 144.571 4.60854 L 139.031 4.60854 C 138.852 5.79714 138.672 6.98574 138.433 8.11491 L 127.598 8.11491 L 127.598 13.0149 L 137.118 13.0149 C 134.61 21.0149 130.212 28.0169 126.231 32.4715 L 126.231 39.9552 C 129.38 36.5697 133.659 31.1648 135.026 29.3235 C 137.835 25.5817 143.145 22.3149 151.764 22.3149 C 155.39 22.3149 158.363 23.7404 160.265 26.1756 C 143.382 30.3926 135.264 36.5103 135.264 44.291 C 135.264 50.8348 139.21 54.9147 150.516 54.9147 L 175.252 54.9147 L 175.252 49.8148 L 150.813 49.8148 C 143.561 49.8148 141.064 48.0329 141.064 44.0535 C 141.064 38.6485 148.138 34.0751 162.226 30.8084 C 162.345 31.5805 162.464 32.3527 162.464 33.1842 L 162.464 42.331 L 167.764 42.331 L 167.764 32.1151 C 167.764 31.2836 167.646 30.452 167.528 29.6799 C 170.26 29.2048 173.172 28.7296 176.381 28.2544 Z" /><path stroke="#ffffff" stroke-width="8" stroke-linejoin="round" fill="#ffffff" d="M 235.364 29.5579 L 235.364 7.21491 L 192.864 7.21491 C 192.864 17.2669 190.13 23.5041 185.435 26.5335 L 185.435 32.6422 C 193.159 28.8462 196.756 21.5438 197.464 12.5149 L 230.064 12.5149 L 230.064 31.3962 C 221.928 28.1346 211.774 26.4148 194.338 26.4148 L 194.338 31.5148 C 211.834 31.5148 220.147 32.7609 229.351 36.4403 C 227.391 44.2144 221.156 49.6148 204.649 49.6148 L 190.427 49.6148 L 190.427 54.8147 L 204.886 54.8147 C 228.223 54.8147 235.364 43.977 235.364 29.5579 Z" /><path stroke="#ffffff" stroke-width="8" stroke-linejoin="round" fill="#ffffff" d="M 276.764 37.9533 L 274.664 14.8351 L 270.123 14.8351 L 271.964 37.9533 Z M 295.864 27.9691 L 295.864 14.5974 L 291.264 14.5974 L 291.264 27.3748 C 291.264 42.4106 283.156 50.3148 264.599 50.3148 L 258.095 50.3148 L 258.095 54.8147 L 264.599 54.8147 C 286.233 54.8147 295.864 45.3226 295.864 27.9691 Z M 262.164 37.9533 L 260.1 14.8351 L 255.603 14.8351 L 257.564 37.9533 Z" /><path stroke="#ffffff" stroke-width="8" stroke-linejoin="round" fill="#ffffff" d="M 353.333 9.41255 L 353.333 4 C 349.53 5.60461 341.002 6.61492 331.609 6.61492 L 304.687 6.61492 L 304.687 11.6149 L 331.549 11.6149 C 342.078 11.6149 349.946 10.7221 353.333 9.41255 Z M 354.938 28.2148 L 354.938 23.0149 L 345.964 23.0149 L 345.964 14.2867 L 340.464 14.2867 L 340.464 23.0149 L 304.687 23.0149 L 304.687 28.2148 L 340.464 28.2148 L 340.464 30.0555 C 340.464 41.3385 334.937 49.4148 315.979 49.4148 L 306.945 49.4148 L 306.945 54.6147 L 315.86 54.6147 C 338.146 54.6147 345.964 44.8422 345.964 30.0555 L 345.964 28.2148 Z" /><path stroke="#ffffff" stroke-width="8" stroke-linejoin="round" fill="#ffffff" d="M 414.164 43.5683 C 414.164 31.9783 413.686 19.1996 409.62 7.34341 L 404.022 7.34341 C 408.366 19.0213 408.664 32.0972 408.664 43.5683 Z M 398.964 38.2785 L 398.964 24.9054 C 398.964 13.9011 395.607 10.3149 387.245 10.3149 L 377.915 10.3149 C 378.093 8.47258 378.272 6.57082 378.45 4.84735 L 372.923 4.84735 C 372.745 6.63025 372.566 8.47258 372.329 10.3149 L 363.176 10.3149 L 363.176 15.5149 L 371.675 15.5149 C 369.595 30.6707 365.97 45.292 362.701 54.0051 L 368.406 54.0051 C 371.913 44.1627 375.181 29.4226 377.142 15.5149 L 385.997 15.5149 C 391.881 15.5149 393.664 17.9514 393.664 25.2026 L 393.664 37.5059 C 393.664 47.1939 389.444 49.2148 382.313 49.2148 L 379.222 49.2148 L 379.222 54.7147 L 382.729 54.7147 C 392.772 54.7147 398.964 50.8115 398.964 38.2785 Z" /><path stroke="#ffffff" stroke-width="8" stroke-linejoin="round" fill="#ffffff" d="M 472.864 26.5157 L 472.864 7.51491 L 431.964 7.51491 C 431.964 17.6524 429.587 23.0655 423.406 26.0993 L 423.406 31.8098 C 432.502 28.5976 436.146 21.3405 436.564 12.7149 L 467.564 12.7149 L 467.564 26.0993 C 467.564 41.9817 458.002 49.7148 439.355 49.7148 L 427.863 49.7148 L 427.863 55.0147 L 439.533 55.0147 C 462.753 55.0147 472.864 44.0042 472.864 26.5157 Z" /><path stroke="#ffffff" stroke-width="8" stroke-linejoin="round" fill="#ffffff" d="M 532.864 26.8154 L 532.864 5.4206 L 527.464 5.4206 L 527.464 26.4588 C 527.464 41.138 520.926 49.8148 501.314 49.8148 L 492.339 49.8148 L 492.339 55.1147 L 501.789 55.1147 C 524.076 55.1147 532.864 44.8821 532.864 26.8154 Z M 491.864 35.0167 L 491.864 5.4206 L 486.464 5.4206 L 486.464 35.0167 Z" /><path stroke="#ffffff" stroke-width="8" stroke-linejoin="round" fill="#ffffff" d="M 573.764 37.9533 L 571.664 14.8351 L 567.123 14.8351 L 568.964 37.9533 Z M 592.864 27.9691 L 592.864 14.5974 L 588.264 14.5974 L 588.264 27.3748 C 588.264 42.4106 580.156 50.3148 561.599 50.3148 L 555.095 50.3148 L 555.095 54.8147 L 561.599 54.8147 C 583.233 54.8147 592.864 45.3226 592.864 27.9691 Z M 559.164 37.9533 L 557.1 14.8351 L 552.603 14.8351 L 554.564 37.9533 Z" /><path stroke="#ffffff" stroke-width="8" stroke-linejoin="round" fill="#ffffff" d="M 651.064 26.5157 L 651.064 7.51491 L 610.164 7.51491 C 610.164 17.6524 607.787 23.0655 601.606 26.0993 L 601.606 31.8098 C 610.702 28.5976 614.346 21.3405 614.764 12.7149 L 645.764 12.7149 L 645.764 26.0993 C 645.764 41.9817 636.202 49.7148 617.555 49.7148 L 606.063 49.7148 L 606.063 55.0147 L 617.733 55.0147 C 640.953 55.0147 651.064 44.0042 651.064 26.5157 Z" /><path stroke="#ffffff" stroke-width="8" stroke-linejoin="round" fill="#ffffff" d="M 713.862 22.5524 L 708.157 22.5524 C 708.038 40.2031 700.49 49.4148 687.654 49.4148 C 676.897 49.4148 671.964 45.7895 671.964 34.4978 L 671.964 5.0206 L 666.364 5.0206 L 666.364 35.4487 C 666.364 49.177 672.618 54.9147 687.238 54.9147 C 703.997 54.9147 713.565 43.5906 713.862 22.5524 Z" /><path stroke="#ffffff" stroke-width="8" stroke-linejoin="round" fill="#ffffff" d="M 770.556 12.8149 L 770.556 7.71491 L 721.194 7.71491 L 721.194 12.8149 L 748.388 12.8149 C 735.492 16.866 726.364 26.4581 726.364 36.1693 C 726.364 45.106 732.639 54.8147 751.241 54.8147 L 766.574 54.8147 L 766.574 49.5148 L 752.727 49.5148 C 737.275 49.5148 732.164 42.5441 732.164 35.9906 C 732.164 27.2922 741.673 15.9128 762.473 12.8149 Z" /><path stroke="#ffffff" stroke-width="8" stroke-linejoin="round" fill="#ffffff" d="M 830.159 55.7016 L 830.159 48.6294 L 816.911 37.1 C 822.317 30.325 825.464 21.6482 825.464 11.0127 L 825.464 7.21491 L 781.491 7.21491 L 781.491 12.6149 L 819.764 12.6149 C 819.467 35.1983 800.865 47.0843 779.886 49.4615 L 779.886 54.8101 C 792.902 53.5621 804.728 49.1049 813.108 41.2007 Z" /><path stroke="#ffffff" stroke-width="8" stroke-linejoin="round" fill="#ffffff" d="M 888.764 29.5579 L 888.764 7.21491 L 846.264 7.21491 C 846.264 17.2669 843.53 23.5041 838.835 26.5335 L 838.835 32.6422 C 846.559 28.8462 850.156 21.5438 850.864 12.5149 L 883.464 12.5149 L 883.464 31.3962 C 875.328 28.1346 865.174 26.4148 847.738 26.4148 L 847.738 31.5148 C 865.234 31.5148 873.547 32.7609 882.751 36.4403 C 880.791 44.2144 874.556 49.6148 858.049 49.6148 L 843.827 49.6148 L 843.827 54.8147 L 858.286 54.8147 C 881.623 54.8147 888.764 43.977 888.764 29.5579 Z" /><path stroke="#ffffff" stroke-width="8" stroke-linejoin="round" fill="#ffffff" d="M 948.697 33.2148 L 948.697 27.6148 L 902.401 27.6148 L 902.401 33.2148 Z" /><path stroke="#ffffff" stroke-width="8" stroke-linejoin="round" fill="#ffffff" d="M 1011.68 34.7148 L 1011.68 29.3148 C 997.42 29.3148 983.157 26.8782 974.064 22.1832 L 974.064 4.65141 L 968.564 4.65141 L 968.564 54.921 L 974.064 54.921 L 974.064 28.1262 C 982.978 32.2225 997.063 34.7148 1011.68 34.7148 Z" /><path stroke="#ffffff" stroke-width="8" stroke-linejoin="round" fill="#ffffff" d="M 1026.96 25.7485 L 1026.96 5.24516 L 1021.36 5.24516 L 1021.36 25.7485 L 1022.26 44.1123 L 1026.13 44.1123 Z M 1027.38 55.7147 L 1027.38 50.1148 L 1021.25 50.1148 L 1021.25 55.7147 Z" /><path fill="#000000" d="M 57.609 8.61491 L 57.609 4.01493 L 4 4.01493 L 4 8.61491 L 28.364 8.61491 L 28.364 15.2149 L 14.564 15.2149 L 14.564 46.6148 L 47.0639 46.6148 L 47.0639 15.2149 L 33.2639 15.2149 L 33.2639 8.61491 Z M 56.0639 55.7147 L 56.0639 14.9176 L 51.0639 14.9176 L 51.0639 51.1148 L 10.464 51.1148 L 10.464 15.096 L 5.66404 15.096 L 5.66404 55.7147 Z M 42.8639 28.9148 L 33.2639 28.9148 L 33.2639 19.7149 L 42.8639 19.7149 Z M 42.8639 42.1148 L 33.2639 42.1148 L 33.2639 32.9148 L 42.8639 32.9148 Z M 28.364 28.9148 L 18.764 28.9148 L 18.764 19.7149 L 28.364 19.7149 Z M 28.364 42.1148 L 18.764 42.1148 L 18.764 32.9148 L 28.364 32.9148 Z" /><path fill="#000000" d="M 116.968 8.41491 L 116.968 4.01493 L 63.4 4.01493 L 63.4 8.41491 L 86.8458 8.41491 L 83.6549 16.4149 L 65.064 16.4149 L 65.064 55.7147 L 115.364 55.7147 L 115.364 16.4149 L 89.2095 16.4149 L 92.3413 8.41491 Z M 110.364 51.5148 L 102.064 51.5148 L 102.064 20.7149 L 110.364 20.7149 Z M 97.3639 28.2148 L 83.064 28.2148 L 83.064 20.7149 L 97.3639 20.7149 Z M 97.3639 39.9148 L 83.064 39.9148 L 83.064 32.3148 L 97.3639 32.3148 Z M 97.3639 51.5148 L 83.064 51.5148 L 83.064 43.9148 L 97.3639 43.9148 Z M 78.264 51.5148 L 69.964 51.5148 L 69.964 20.7149 L 78.264 20.7149 Z" /><path fill="#000000" d="M 176.381 28.2544 L 176.381 23.0277 C 172.637 23.6216 169.131 24.2156 165.938 24.8689 C 163.583 20.7194 158.957 18.4149 153.072 18.4149 C 147.425 18.4149 142.788 19.7739 139.151 22.0194 C 140.346 19.5967 141.718 16.8374 142.788 13.0149 L 175.193 13.0149 L 175.193 8.11491 L 143.977 8.11491 C 144.215 7.04517 144.393 5.916 144.571 4.60854 L 139.031 4.60854 C 138.852 5.79714 138.672 6.98574 138.433 8.11491 L 127.598 8.11491 L 127.598 13.0149 L 137.118 13.0149 C 134.61 21.0149 130.212 28.0169 126.231 32.4715 L 126.231 39.9552 C 129.38 36.5697 133.659 31.1648 135.026 29.3235 C 137.835 25.5817 143.145 22.3149 151.764 22.3149 C 155.39 22.3149 158.363 23.7404 160.265 26.1756 C 143.382 30.3926 135.264 36.5103 135.264 44.291 C 135.264 50.8348 139.21 54.9147 150.516 54.9147 L 175.252 54.9147 L 175.252 49.8148 L 150.813 49.8148 C 143.561 49.8148 141.064 48.0329 141.064 44.0535 C 141.064 38.6485 148.138 34.0751 162.226 30.8084 C 162.345 31.5805 162.464 32.3527 162.464 33.1842 L 162.464 42.331 L 167.764 42.331 L 167.764 32.1151 C 167.764 31.2836 167.646 30.452 167.528 29.6799 C 170.26 29.2048 173.172 28.7296 176.381 28.2544 Z" /><path fill="#000000" d="M 235.364 29.5579 L 235.364 7.21491 L 192.864 7.21491 C 192.864 17.2669 190.13 23.5041 185.435 26.5335 L 185.435 32.6422 C 193.159 28.8462 196.756 21.5438 197.464 12.5149 L 230.064 12.5149 L 230.064 31.3962 C 221.928 28.1346 211.774 26.4148 194.338 26.4148 L 194.338 31.5148 C 211.834 31.5148 220.147 32.7609 229.351 36.4403 C 227.391 44.2144 221.156 49.6148 204.649 49.6148 L 190.427 49.6148 L 190.427 54.8147 L 204.886 54.8147 C 228.223 54.8147 235.364 43.977 235.364 29.5579 Z" /><path fill="#000000" d="M 276.764 37.9533 L 274.664 14.8351 L 270.123 14.8351 L 271.964 37.9533 Z M 295.864 27.9691 L 295.864 14.5974 L 291.264 14.5974 L 291.264 27.3748 C 291.264 42.4106 283.156 50.3148 264.599 50.3148 L 258.095 50.3148 L 258.095 54.8147 L 264.599 54.8147 C 286.233 54.8147 295.864 45.3226 295.864 27.9691 Z M 262.164 37.9533 L 260.1 14.8351 L 255.603 14.8351 L 257.564 37.9533 Z" /><path fill="#000000" d="M 353.333 9.41255 L 353.333 4 C 349.53 5.60461 341.002 6.61492 331.609 6.61492 L 304.687 6.61492 L 304.687 11.6149 L 331.549 11.6149 C 342.078 11.6149 349.946 10.7221 353.333 9.41255 Z M 354.938 28.2148 L 354.938 23.0149 L 345.964 23.0149 L 345.964 14.2867 L 340.464 14.2867 L 340.464 23.0149 L 304.687 23.0149 L 304.687 28.2148 L 340.464 28.2148 L 340.464 30.0555 C 340.464 41.3385 334.937 49.4148 315.979 49.4148 L 306.945 49.4148 L 306.945 54.6147 L 315.86 54.6147 C 338.146 54.6147 345.964 44.8422 345.964 30.0555 L 345.964 28.2148 Z" /><path fill="#000000" d="M 414.164 43.5683 C 414.164 31.9783 413.686 19.1996 409.62 7.34341 L 404.022 7.34341 C 408.366 19.0213 408.664 32.0972 408.664 43.5683 Z M 398.964 38.2785 L 398.964 24.9054 C 398.964 13.9011 395.607 10.3149 387.245 10.3149 L 377.915 10.3149 C 378.093 8.47258 378.272 6.57082 378.45 4.84735 L 372.923 4.84735 C 372.745 6.63025 372.566 8.47258 372.329 10.3149 L 363.176 10.3149 L 363.176 15.5149 L 371.675 15.5149 C 369.595 30.6707 365.97 45.292 362.701 54.0051 L 368.406 54.0051 C 371.913 44.1627 375.181 29.4226 377.142 15.5149 L 385.997 15.5149 C 391.881 15.5149 393.664 17.9514 393.664 25.2026 L 393.664 37.5059 C 393.664 47.1939 389.444 49.2148 382.313 49.2148 L 379.222 49.2148 L 379.222 54.7147 L 382.729 54.7147 C 392.772 54.7147 398.964 50.8115 398.964 38.2785 Z" /><path fill="#000000" d="M 472.864 26.5157 L 472.864 7.51491 L 431.964 7.51491 C 431.964 17.6524 429.587 23.0655 423.406 26.0993 L 423.406 31.8098 C 432.502 28.5976 436.146 21.3405 436.564 12.7149 L 467.564 12.7149 L 467.564 26.0993 C 467.564 41.9817 458.002 49.7148 439.355 49.7148 L 427.863 49.7148 L 427.863 55.0147 L 439.533 55.0147 C 462.753 55.0147 472.864 44.0042 472.864 26.5157 Z" /><path fill="#000000" d="M 532.864 26.8154 L 532.864 5.4206 L 527.464 5.4206 L 527.464 26.4588 C 527.464 41.138 520.926 49.8148 501.314 49.8148 L 492.339 49.8148 L 492.339 55.1147 L 501.789 55.1147 C 524.076 55.1147 532.864 44.8821 532.864 26.8154 Z M 491.864 35.0167 L 491.864 5.4206 L 486.464 5.4206 L 486.464 35.0167 Z" /><path fill="#000000" d="M 573.764 37.9533 L 571.664 14.8351 L 567.123 14.8351 L 568.964 37.9533 Z M 592.864 27.9691 L 592.864 14.5974 L 588.264 14.5974 L 588.264 27.3748 C 588.264 42.4106 580.156 50.3148 561.599 50.3148 L 555.095 50.3148 L 555.095 54.8147 L 561.599 54.8147 C 583.233 54.8147 592.864 45.3226 592.864 27.9691 Z M 559.164 37.9533 L 557.1 14.8351 L 552.603 14.8351 L 554.564 37.9533 Z" /><path fill="#000000" d="M 651.064 26.5157 L 651.064 7.51491 L 610.164 7.51491 C 610.164 17.6524 607.787 23.0655 601.606 26.0993 L 601.606 31.8098 C 610.702 28.5976 614.346 21.3405 614.764 12.7149 L 645.764 12.7149 L 645.764 26.0993 C 645.764 41.9817 636.202 49.7148 617.555 49.7148 L 606.063 49.7148 L 606.063 55.0147 L 617.733 55.0147 C 640.953 55.0147 651.064 44.0042 651.064 26.5157 Z" /><path fill="#000000" d="M 713.862 22.5524 L 708.157 22.5524 C 708.038 40.2031 700.49 49.4148 687.654 49.4148 C 676.897 49.4148 671.964 45.7895 671.964 34.4978 L 671.964 5.0206 L 666.364 5.0206 L 666.364 35.4487 C 666.364 49.177 672.618 54.9147 687.238 54.9147 C 703.997 54.9147 713.565 43.5906 713.862 22.5524 Z" /><path fill="#000000" d="M 770.556 12.8149 L 770.556 7.71491 L 721.194 7.71491 L 721.194 12.8149 L 748.388 12.8149 C 735.492 16.866 726.364 26.4581 726.364 36.1693 C 726.364 45.106 732.639 54.8147 751.241 54.8147 L 766.574 54.8147 L 766.574 49.5148 L 752.727 49.5148 C 737.275 49.5148 732.164 42.5441 732.164 35.9906 C 732.164 27.2922 741.673 15.9128 762.473 12.8149 Z" /><path fill="#000000" d="M 830.159 55.7016 L 830.159 48.6294 L 816.911 37.1 C 822.317 30.325 825.464 21.6482 825.464 11.0127 L 825.464 7.21491 L 781.491 7.21491 L 781.491 12.6149 L 819.764 12.6149 C 819.467 35.1983 800.865 47.0843 779.886 49.4615 L 779.886 54.8101 C 792.902 53.5621 804.728 49.1049 813.108 41.2007 Z" /><path fill="#000000" d="M 888.764 29.5579 L 888.764 7.21491 L 846.264 7.21491 C 846.264 17.2669 843.53 23.5041 838.835 26.5335 L 838.835 32.6422 C 846.559 28.8462 850.156 21.5438 850.864 12.5149 L 883.464 12.5149 L 883.464 31.3962 C 875.328 28.1346 865.174 26.4148 847.738 26.4148 L 847.738 31.5148 C 865.234 31.5148 873.547 32.7609 882.751 36.4403 C 880.791 44.2144 874.556 49.6148 858.049 49.6148 L 843.827 49.6148 L 843.827 54.8147 L 858.286 54.8147 C 881.623 54.8147 888.764 43.977 888.764 29.5579 Z" /><path fill="#000000" d="M 948.697 33.2148 L 948.697 27.6148 L 902.401 27.6148 L 902.401 33.2148 Z" /><path fill="#000000" d="M 1011.68 34.7148 L 1011.68 29.3148 C 997.42 29.3148 983.157 26.8782 974.064 22.1832 L 974.064 4.65141 L 968.564 4.65141 L 968.564 54.921 L 974.064 54.921 L 974.064 28.1262 C 982.978 32.2225 997.063 34.7148 1011.68 34.7148 Z" /><path fill="#000000" d="M 1026.96 25.7485 L 1026.96 5.24516 L 1021.36 5.24516 L 1021.36 25.7485 L 1022.26 44.1123 L 1026.13 44.1123 Z M 1027.38 55.7147 L 1027.38 50.1148 L 1021.25 50.1148 L 1021.25 55.7147 Z" /></svg>