<?xml version="1.0" encoding="utf-8" standalone="no"?>
<!DOCTYPE svg PUBLIC "-//W3C//DTD SVG 1.1//EN"
"http://www.w3.org/Graphics/SVG/1.1/DTD/svg11.dtd">

<svg xmlns="http://www.w3.org/2000/svg" version="1.1" xmlns:xlink="http://www.w3.org/1999/xlink" width="39.3328" height="31.7313" viewBox="0 0 39.3328 31.7313"><path stroke="#ffffff" stroke-width="8" stroke-linejoin="round" fill="#ffffff" d="M 4 17.7109 L 4 13.8438 L 10.3578 13.8438 L 10.3578 7.37031 L 14.3719 7.37031 L 14.3719 13.8438 L 20.8469 13.8438 L 20.8469 17.7109 L 14.3719 17.7109 L 14.3719 24.1563 L 10.3578 24.1563 L 10.3578 17.7109 Z" /><path stroke="#ffffff" stroke-width="8" stroke-linejoin="round" fill="#ffffff" d="M 25.1094 12.4672 L 25.1094 7.77969 L 31.3203 4 L 35.3328 4 L 35.3047 27.7313 L 30.7922 27.7313 L 30.7922 8.92188 Z" /><path fill="#0c00cc" d="M 4 17.7109 L 4 13.8438 L 10.3578 13.8438 L 10.3578 7.37031 L 14.3719 7.37031 L 14.3719 13.8438 L 20.8469 13.8438 L 20.8469 17.7109 L 14.3719 17.7109 L 14.3719 24.1563 L 10.3578 24.1563 L 10.3578 17.7109 Z" /><path fill="#0c00cc" d="M 25.1094 12.4672 L 25.1094 7.77969 L 31.3203 4 L 35.3328 4 L 35.3047 27.7313 L 30.7922 27.7313 L 30.7922 8.92188 Z" /></svg>