<?xml version="1.0" encoding="utf-8" standalone="no"?>
<!DOCTYPE svg PUBLIC "-//W3C//DTD SVG 1.1//EN"
"http://www.w3.org/Graphics/SVG/1.1/DTD/svg11.dtd">

<svg xmlns="http://www.w3.org/2000/svg" version="1.1" xmlns:xlink="http://www.w3.org/1999/xlink" width="155.398" height="51.1558" viewBox="0 0 155.398 51.1558"><path stroke="#ffffff" stroke-width="8" stroke-linejoin="round" fill="#ffffff" d="M 44.3001 37.2558 L 44.3001 8.65579 L 26.3 8.65579 L 26.3 4.25578 L 22 4.25578 L 22 8.65579 L 4 8.65579 L 4 37.2558 L 22 37.2558 L 22 47.1559 L 26.3 47.1559 L 26.3 37.2558 Z M 40.0001 33.0558 L 26.3 33.0558 L 26.3 12.9558 L 40.0001 12.9558 Z M 22 33.0558 L 8.20001 33.0558 L 8.20001 12.9558 L 22 12.9558 Z" /><path stroke="#ffffff" stroke-width="8" stroke-linejoin="round" fill="#ffffff" d="M 151.398 46.7313 L 151.398 42.6085 C 149.072 41.9454 146.985 40.8085 145.23 39.0559 C 148.408 34.4139 149.689 28.2278 150.4 21.0658 L 150.4 17.4558 L 145.942 17.4558 L 148.313 8.51504 L 148.313 4.85578 L 128.24 4.85578 L 128.24 8.75579 L 132.2 8.75579 C 132.2 28.1318 131.246 37.0665 128.145 40.8559 L 128.145 46.5411 C 132.626 42.7033 134.758 36.6402 135.563 24.451 C 136.511 30.497 138.121 35.2665 140.584 38.9612 C 138.879 40.7612 136.7 42.0875 133.905 42.8454 L 133.905 46.7788 C 137.742 45.7822 140.679 44.0296 142.954 41.8506 C 145.23 44.1243 148.029 45.7822 151.398 46.7313 Z M 127.477 30.2617 L 125.425 19.1183 L 122.467 19.1183 L 123.374 24.2161 C 122.181 24.7799 120.75 25.1558 118.214 25.1558 L 112.862 25.1558 L 126.093 9.84651 L 121.799 9.84651 L 118.741 13.3558 L 112.282 13.3558 L 120.225 4 L 115.919 4 L 108.541 12.8341 L 108.541 16.9558 L 115.638 16.9558 L 108.541 25.0618 L 108.541 28.8029 L 116.2 28.8029 L 116.2 46.7788 L 119.7 46.7788 L 119.7 28.7558 C 121.513 28.6118 123.183 28.2278 123.994 27.7478 L 124.423 30.2617 Z M 127.19 46.2558 L 125.711 32.7558 L 122.753 32.7558 L 124.232 46.2558 Z M 113.2 32.7558 L 110.3 32.7558 C 110.3 37.4928 109.682 43.4611 108.446 46.2558 L 111.46 46.2558 C 112.233 44.1243 113.2 38.2507 113.2 32.7558 Z M 146.89 21.2558 C 146.179 27.1238 145.041 32.1911 142.764 35.977 C 140.584 32.3794 139.116 27.2678 138.5 20.4008 L 135.8 20.4008 C 135.942 16.9558 135.99 13.1187 135.99 8.75579 L 144.471 8.75579 L 142.1 17.4558 L 142.1 21.2558 Z" /><path fill="#ff8c00" d="M 44.3001 37.2558 L 44.3001 8.65579 L 26.3 8.65579 L 26.3 4.25578 L 22 4.25578 L 22 8.65579 L 4 8.65579 L 4 37.2558 L 22 37.2558 L 22 47.1559 L 26.3 47.1559 L 26.3 37.2558 Z M 40.0001 33.0558 L 26.3 33.0558 L 26.3 12.9558 L 40.0001 12.9558 Z M 22 33.0558 L 8.20001 33.0558 L 8.20001 12.9558 L 22 12.9558 Z" /><path fill="#ff8c00" d="M 151.398 46.7313 L 151.398 42.6085 C 149.072 41.9454 146.985 40.8085 145.23 39.0559 C 148.408 34.4139 149.689 28.2278 150.4 21.0658 L 150.4 17.4558 L 145.942 17.4558 L 148.313 8.51504 L 148.313 4.85578 L 128.24 4.85578 L 128.24 8.75579 L 132.2 8.75579 C 132.2 28.1318 131.246 37.0665 128.145 40.8559 L 128.145 46.5411 C 132.626 42.7033 134.758 36.6402 135.563 24.451 C 136.511 30.497 138.121 35.2665 140.584 38.9612 C 138.879 40.7612 136.7 42.0875 133.905 42.8454 L 133.905 46.7788 C 137.742 45.7822 140.679 44.0296 142.954 41.8506 C 145.23 44.1243 148.029 45.7822 151.398 46.7313 Z M 127.477 30.2617 L 125.425 19.1183 L 122.467 19.1183 L 123.374 24.2161 C 122.181 24.7799 120.75 25.1558 118.214 25.1558 L 112.862 25.1558 L 126.093 9.84651 L 121.799 9.84651 L 118.741 13.3558 L 112.282 13.3558 L 120.225 4 L 115.919 4 L 108.541 12.8341 L 108.541 16.9558 L 115.638 16.9558 L 108.541 25.0618 L 108.541 28.8029 L 116.2 28.8029 L 116.2 46.7788 L 119.7 46.7788 L 119.7 28.7558 C 121.513 28.6118 123.183 28.2278 123.994 27.7478 L 124.423 30.2617 Z M 127.19 46.2558 L 125.711 32.7558 L 122.753 32.7558 L 124.232 46.2558 Z M 113.2 32.7558 L 110.3 32.7558 C 110.3 37.4928 109.682 43.4611 108.446 46.2558 L 111.46 46.2558 C 112.233 44.1243 113.2 38.2507 113.2 32.7558 Z M 146.89 21.2558 C 146.179 27.1238 145.041 32.1911 142.764 35.977 C 140.584 32.3794 139.116 27.2678 138.5 20.4008 L 135.8 20.4008 C 135.942 16.9558 135.99 13.1187 135.99 8.75579 L 144.471 8.75579 L 142.1 17.4558 L 142.1 21.2558 Z" /></svg>