<?xml version="1.0" encoding="utf-8" standalone="no"?>
<!DOCTYPE svg PUBLIC "-//W3C//DTD SVG 1.1//EN"
"http://www.w3.org/Graphics/SVG/1.1/DTD/svg11.dtd">

<svg xmlns="http://www.w3.org/2000/svg" version="1.1" xmlns:xlink="http://www.w3.org/1999/xlink" width="94.3672" height="39.0906" viewBox="0 0 94.3672 39.0906"><path stroke="#ffffff" stroke-width="8" stroke-linejoin="round" fill="#ffffff" d="M 4 4.49687 L 7.76719 4.49687 L 8.47188 31.2 L 26.8937 29.875 L 27.0594 33.3937 L 4.7875 34.9672 Z" /><path stroke="#ffffff" stroke-width="8" stroke-linejoin="round" fill="#ffffff" d="M 31.3734 4.45469 L 35.1812 4.45469 L 35.1812 35.0078 L 31.3734 35.0078 Z" /><path stroke="#ffffff" stroke-width="8" stroke-linejoin="round" fill="#ffffff" d="M 40.2719 5.90469 L 63.7453 4.41406 L 63.9531 7.80937 L 40.4781 9.38125 Z M 42.6734 10.9547 L 46.4406 10.9547 L 46.4406 34.9672 L 42.6734 34.9672 Z M 48.3031 18.2 L 61.6344 17.2891 L 61.9234 20.725 L 48.5516 21.7609 Z" /><path stroke="#ffffff" stroke-width="8" stroke-linejoin="round" fill="#ffffff" d="M 65.8578 5.49062 L 89.7453 4 L 89.9531 7.43594 L 66.0641 8.96719 Z M 68.5484 10.7484 L 72.3156 10.7484 L 72.2328 31.2 L 89.9938 28.8813 L 90.3672 32.4 L 68.3828 35.0906 Z M 74.3031 16.7922 L 86.1016 15.9641 L 86.35 19.4 L 74.5516 20.3531 Z" /><path fill="#ef75bc" d="M 4 4.49687 L 7.76719 4.49687 L 8.47188 31.2 L 26.8937 29.875 L 27.0594 33.3937 L 4.7875 34.9672 Z" /><path fill="#ef75bc" d="M 31.3734 4.45469 L 35.1812 4.45469 L 35.1812 35.0078 L 31.3734 35.0078 Z" /><path fill="#ef75bc" d="M 40.2719 5.90469 L 63.7453 4.41406 L 63.9531 7.80937 L 40.4781 9.38125 Z M 42.6734 10.9547 L 46.4406 10.9547 L 46.4406 34.9672 L 42.6734 34.9672 Z M 48.3031 18.2 L 61.6344 17.2891 L 61.9234 20.725 L 48.5516 21.7609 Z" /><path fill="#ef75bc" d="M 65.8578 5.49062 L 89.7453 4 L 89.9531 7.43594 L 66.0641 8.96719 Z M 68.5484 10.7484 L 72.3156 10.7484 L 72.2328 31.2 L 89.9938 28.8813 L 90.3672 32.4 L 68.3828 35.0906 Z M 74.3031 16.7922 L 86.1016 15.9641 L 86.35 19.4 L 74.5516 20.3531 Z" /></svg>