<?xml version="1.0" encoding="utf-8" standalone="no"?>
<!DOCTYPE svg PUBLIC "-//W3C//DTD SVG 1.1//EN"
"http://www.w3.org/Graphics/SVG/1.1/DTD/svg11.dtd">

<svg xmlns="http://www.w3.org/2000/svg" version="1.1" xmlns:xlink="http://www.w3.org/1999/xlink" width="43.6502" height="43.7001" viewBox="0 0 43.6502 43.7001"><path stroke="#ffffff" stroke-width="8" stroke-linejoin="round" fill="#ffffff" d="M 39.6502 19.5215 L 39.6502 15.8311 C 34.8778 13.9987 30.7035 9.73641 29.2376 4 L 25.4737 4 C 27.2566 11.3298 33.0801 17.4643 39.6502 19.5215 Z M 36.4411 33.2099 L 36.4411 18.5 L 6.61488 18.5 C 12.122 15.8311 16.6782 10.3738 18.2234 4 L 14.4992 4 C 12.9936 9.73641 8.79395 13.9987 4 15.8311 L 4 19.5215 C 4.87163 19.2858 5.74326 18.9322 6.53564 18.5394 L 6.53564 21.8 L 15.3708 21.8 C 14.5388 28.5746 11.0919 34.3192 5.10934 36.3001 L 5.10934 39.7001 C 12.954 37.9605 17.7479 30.1593 18.9365 21.8 L 33.0411 21.8 L 33.0411 33.091 C 33.0411 34.7946 31.694 36.3001 29.9111 36.3001 L 23.6116 36.3001 L 23.6116 39.7001 L 30.2281 39.7001 C 33.8617 39.7001 36.4411 36.893 36.4411 33.2099 Z" /><path fill="#000000" d="M 39.6502 19.5215 L 39.6502 15.8311 C 34.8778 13.9987 30.7035 9.73641 29.2376 4 L 25.4737 4 C 27.2566 11.3298 33.0801 17.4643 39.6502 19.5215 Z M 36.4411 33.2099 L 36.4411 18.5 L 6.61488 18.5 C 12.122 15.8311 16.6782 10.3738 18.2234 4 L 14.4992 4 C 12.9936 9.73641 8.79395 13.9987 4 15.8311 L 4 19.5215 C 4.87163 19.2858 5.74326 18.9322 6.53564 18.5394 L 6.53564 21.8 L 15.3708 21.8 C 14.5388 28.5746 11.0919 34.3192 5.10934 36.3001 L 5.10934 39.7001 C 12.954 37.9605 17.7479 30.1593 18.9365 21.8 L 33.0411 21.8 L 33.0411 33.091 C 33.0411 34.7946 31.694 36.3001 29.9111 36.3001 L 23.6116 36.3001 L 23.6116 39.7001 L 30.2281 39.7001 C 33.8617 39.7001 36.4411 36.893 36.4411 33.2099 Z" /></svg>