<?xml version="1.0" encoding="utf-8" standalone="no"?>
<!DOCTYPE svg PUBLIC "-//W3C//DTD SVG 1.1//EN"
"http://www.w3.org/Graphics/SVG/1.1/DTD/svg11.dtd">

<svg xmlns="http://www.w3.org/2000/svg" version="1.1" xmlns:xlink="http://www.w3.org/1999/xlink" width="284.158" height="54.175" viewBox="0 0 284.158 54.175"><path stroke="#ffffff" stroke-width="8" stroke-linejoin="round" fill="#ffffff" d="M 5.42344 31.0672 C 4.47448 30.1828 4 29.0693 4 27.7266 C 4 26.3839 4.44193 25.2375 5.32578 24.2875 C 6.20964 23.3375 7.32292 22.8625 8.66563 22.8625 C 10.0083 22.8625 11.1544 23.3047 12.1039 24.1891 C 13.0534 25.0734 13.5281 26.187 13.5281 27.5297 C 13.5281 28.8724 13.0862 30.0185 12.2023 30.968 C 11.3185 31.9174 10.2052 32.3922 8.8625 32.3922 C 7.51979 32.3922 6.37344 31.9505 5.42344 31.0672 Z" /><path stroke="#ffffff" stroke-width="8" stroke-linejoin="round" fill="#ffffff" d="M 40.1031 13.825 L 40.1031 9.84531 L 78.8594 9.84531 C 78.1063 21.537 75.2573 30.3628 70.3125 36.3227 C 65.3677 42.2826 57.4266 46.474 46.4891 48.8969 L 43.9344 45.1156 C 53.6281 43.2813 60.9146 39.8508 65.7938 34.8242 C 70.6729 29.7977 73.5219 22.7979 74.3406 13.825 Z" /><path stroke="#ffffff" stroke-width="8" stroke-linejoin="round" fill="#ffffff" d="M 92.7125 33.8172 C 99.0656 31.8193 104.543 29.3141 109.144 26.3016 C 113.745 23.2891 117.715 19.5885 121.055 15.2 L 124.1 17.7547 C 120.99 21.7172 117.388 25.1885 113.294 28.1688 L 113.294 50.175 L 109.266 50.175 L 109.266 30.8703 C 104.813 33.588 99.9661 35.7818 94.7266 37.4516 Z" /><path stroke="#ffffff" stroke-width="8" stroke-linejoin="round" fill="#ffffff" d="M 139.77 29.3469 L 139.77 25.4672 L 179.558 25.4672 L 179.558 29.3469 Z" /><path stroke="#ffffff" stroke-width="8" stroke-linejoin="round" fill="#ffffff" d="M 186.337 45.2625 C 189.219 41.2021 191.92 35.7987 194.441 29.0523 C 196.963 22.306 198.42 16.2313 198.814 10.8281 L 202.989 11.3203 C 202.629 16.7234 201.245 22.7651 198.838 29.4453 C 196.432 36.1255 193.623 42.151 190.414 47.5219 Z M 214.483 9.94375 L 218.314 8.71563 C 221.163 13.6938 224.004 19.9651 226.837 27.5297 C 229.67 35.0943 231.43 41.4146 232.117 46.4906 L 227.745 47.4734 C 227.221 42.9536 225.568 36.8706 222.784 29.2242 C 220.001 21.5779 217.234 15.151 214.483 9.94375 Z M 223.423 6.60469 L 226.077 5.52344 C 227.32 7.84844 228.417 10.337 229.367 12.9891 L 226.567 14.0219 C 225.388 10.7469 224.34 8.27448 223.423 6.60469 Z M 228.827 5.08125 L 231.48 4 C 232.723 6.325 233.82 8.81406 234.77 11.4672 L 231.922 12.4984 C 230.677 9.0599 229.645 6.5875 228.827 5.08125 Z" /><path stroke="#ffffff" stroke-width="8" stroke-linejoin="round" fill="#ffffff" d="M 240.37 29.3469 L 240.37 25.4672 L 280.158 25.4672 L 280.158 29.3469 Z" /><path fill="#000000" d="M 5.42344 31.0672 C 4.47448 30.1828 4 29.0693 4 27.7266 C 4 26.3839 4.44193 25.2375 5.32578 24.2875 C 6.20964 23.3375 7.32292 22.8625 8.66563 22.8625 C 10.0083 22.8625 11.1544 23.3047 12.1039 24.1891 C 13.0534 25.0734 13.5281 26.187 13.5281 27.5297 C 13.5281 28.8724 13.0862 30.0185 12.2023 30.968 C 11.3185 31.9174 10.2052 32.3922 8.8625 32.3922 C 7.51979 32.3922 6.37344 31.9505 5.42344 31.0672 Z" /><path fill="#000000" d="M 40.1031 13.825 L 40.1031 9.84531 L 78.8594 9.84531 C 78.1063 21.537 75.2573 30.3628 70.3125 36.3227 C 65.3677 42.2826 57.4266 46.474 46.4891 48.8969 L 43.9344 45.1156 C 53.6281 43.2813 60.9146 39.8508 65.7938 34.8242 C 70.6729 29.7977 73.5219 22.7979 74.3406 13.825 Z" /><path fill="#000000" d="M 92.7125 33.8172 C 99.0656 31.8193 104.543 29.3141 109.144 26.3016 C 113.745 23.2891 117.715 19.5885 121.055 15.2 L 124.1 17.7547 C 120.99 21.7172 117.388 25.1885 113.294 28.1688 L 113.294 50.175 L 109.266 50.175 L 109.266 30.8703 C 104.813 33.588 99.9661 35.7818 94.7266 37.4516 Z" /><path fill="#000000" d="M 139.77 29.3469 L 139.77 25.4672 L 179.558 25.4672 L 179.558 29.3469 Z" /><path fill="#000000" d="M 186.337 45.2625 C 189.219 41.2021 191.92 35.7987 194.441 29.0523 C 196.963 22.306 198.42 16.2313 198.814 10.8281 L 202.989 11.3203 C 202.629 16.7234 201.245 22.7651 198.838 29.4453 C 196.432 36.1255 193.623 42.151 190.414 47.5219 Z M 214.483 9.94375 L 218.314 8.71563 C 221.163 13.6938 224.004 19.9651 226.837 27.5297 C 229.67 35.0943 231.43 41.4146 232.117 46.4906 L 227.745 47.4734 C 227.221 42.9536 225.568 36.8706 222.784 29.2242 C 220.001 21.5779 217.234 15.151 214.483 9.94375 Z M 223.423 6.60469 L 226.077 5.52344 C 227.32 7.84844 228.417 10.337 229.367 12.9891 L 226.567 14.0219 C 225.388 10.7469 224.34 8.27448 223.423 6.60469 Z M 228.827 5.08125 L 231.48 4 C 232.723 6.325 233.82 8.81406 234.77 11.4672 L 231.922 12.4984 C 230.677 9.0599 229.645 6.5875 228.827 5.08125 Z" /><path fill="#000000" d="M 240.37 29.3469 L 240.37 25.4672 L 280.158 25.4672 L 280.158 29.3469 Z" /></svg>