<?xml version="1.0" encoding="utf-8" standalone="no"?>
<!DOCTYPE svg PUBLIC "-//W3C//DTD SVG 1.1//EN"
"http://www.w3.org/Graphics/SVG/1.1/DTD/svg11.dtd">

<svg xmlns="http://www.w3.org/2000/svg" version="1.1" xmlns:xlink="http://www.w3.org/1999/xlink" width="49.6319" height="56.3998" viewBox="0 0 49.6319 56.3998"><path stroke="#ffffff" stroke-width="8" stroke-linejoin="round" fill="#ffffff" d="M 45.6319 40.0943 L 45.6319 37.2433 C 45.6319 32.9075 43.9645 29.2851 39.5019 27.3295 C 43.5476 25.5518 44.7982 22.2864 44.7982 18.4256 L 44.7982 15.7527 C 44.7982 8.09185 40.6296 4 28.7694 4 L 20.8831 4 C 9.01593 4 4.83202 7.97325 4.83202 15.7527 L 4.83202 18.4256 C 4.83202 22.3458 6.14696 25.611 10.2692 27.3888 C 5.84811 29.3444 4 32.9669 4 37.2433 L 4 40.0943 C 4 47.5189 7.70099 52.3998 20.2901 52.3998 L 29.3624 52.3998 C 41.7016 52.3998 45.6319 47.6975 45.6319 40.0943 Z M 39.6205 18.0692 C 39.6205 22.821 37.4266 24.8999 30.2518 24.8999 L 19.4007 24.8999 C 12.1666 24.8999 10.032 22.7616 10.032 18.0692 L 10.032 16.109 C 10.032 11.0602 13.2933 9.09998 20.8831 9.09998 L 28.7694 9.09998 C 36.3 9.09998 39.6205 11.0008 39.6205 16.109 Z M 40.3319 39.6785 C 40.3319 44.7865 37.4859 47.3998 29.3624 47.3998 L 20.2901 47.3998 C 12.2852 47.3998 9.31479 44.8459 9.31479 39.6785 L 9.31479 37.2433 C 9.31479 32.4917 12.4631 29.6999 19.3414 29.6999 L 30.3704 29.6999 C 37.4859 29.6999 40.3319 32.4917 40.3319 37.2433 Z" /><path fill="#800000" d="M 45.6319 40.0943 L 45.6319 37.2433 C 45.6319 32.9075 43.9645 29.2851 39.5019 27.3295 C 43.5476 25.5518 44.7982 22.2864 44.7982 18.4256 L 44.7982 15.7527 C 44.7982 8.09185 40.6296 4 28.7694 4 L 20.8831 4 C 9.01593 4 4.83202 7.97325 4.83202 15.7527 L 4.83202 18.4256 C 4.83202 22.3458 6.14696 25.611 10.2692 27.3888 C 5.84811 29.3444 4 32.9669 4 37.2433 L 4 40.0943 C 4 47.5189 7.70099 52.3998 20.2901 52.3998 L 29.3624 52.3998 C 41.7016 52.3998 45.6319 47.6975 45.6319 40.0943 Z M 39.6205 18.0692 C 39.6205 22.821 37.4266 24.8999 30.2518 24.8999 L 19.4007 24.8999 C 12.1666 24.8999 10.032 22.7616 10.032 18.0692 L 10.032 16.109 C 10.032 11.0602 13.2933 9.09998 20.8831 9.09998 L 28.7694 9.09998 C 36.3 9.09998 39.6205 11.0008 39.6205 16.109 Z M 40.3319 39.6785 C 40.3319 44.7865 37.4859 47.3998 29.3624 47.3998 L 20.2901 47.3998 C 12.2852 47.3998 9.31479 44.8459 9.31479 39.6785 L 9.31479 37.2433 C 9.31479 32.4917 12.4631 29.6999 19.3414 29.6999 L 30.3704 29.6999 C 37.4859 29.6999 40.3319 32.4917 40.3319 37.2433 Z" /></svg>