<?xml version="1.0" encoding="utf-8" standalone="no"?>
<!DOCTYPE svg PUBLIC "-//W3C//DTD SVG 1.1//EN"
"http://www.w3.org/Graphics/SVG/1.1/DTD/svg11.dtd">

<svg xmlns="http://www.w3.org/2000/svg" version="1.1" xmlns:xlink="http://www.w3.org/1999/xlink" width="114.672" height="32.9031" viewBox="0 0 114.672 32.9031"><path stroke="#ffffff" stroke-width="8" stroke-linejoin="round" fill="#ffffff" d="M 4 18.4141 L 4 14.5469 L 10.3578 14.5469 L 10.3578 8.07344 L 14.3719 8.07344 L 14.3719 14.5469 L 20.8469 14.5469 L 20.8469 18.4141 L 14.3719 18.4141 L 14.3719 24.8594 L 10.3578 24.8594 L 10.3578 18.4141 Z" /><path stroke="#ffffff" stroke-width="8" stroke-linejoin="round" fill="#ffffff" d="M 25.1094 13.1703 L 25.1094 8.48281 L 31.3203 4.70312 L 35.3328 4.70312 L 35.3047 28.4344 L 30.7922 28.4344 L 30.7922 9.625 Z" /><path stroke="#ffffff" stroke-width="8" stroke-linejoin="round" fill="#ffffff" d="M 45.3734 25.3594 C 43.9182 23.1323 43.1906 20.1534 43.1906 16.4227 C 43.1906 12.6919 43.9229 9.73281 45.3875 7.54531 C 46.8521 5.35781 48.932 4.26406 51.6273 4.26406 C 54.3227 4.26406 56.4029 5.35781 57.868 7.54531 C 59.3331 9.73281 60.0656 12.6919 60.0656 16.4227 C 60.0656 20.1534 59.343 23.132 57.8977 25.3586 C 56.4523 27.5852 54.3674 28.6984 51.643 28.6984 C 48.9185 28.6984 46.8286 27.5854 45.3734 25.3594 Z M 48.8594 10.4172 C 48.1854 11.8036 47.8484 13.8201 47.8484 16.4664 C 47.8484 19.1128 48.1805 21.1391 48.8445 22.5453 C 49.5086 23.9516 50.4411 24.6547 51.6422 24.6547 C 52.8432 24.6547 53.7711 23.9516 54.4258 22.5453 C 55.0805 21.1391 55.4078 19.1128 55.4078 16.4664 C 55.4078 13.8201 55.0758 11.8034 54.4117 10.4164 C 53.7477 9.02943 52.8247 8.33594 51.643 8.33594 C 50.4612 8.33594 49.5333 9.02969 48.8594 10.4172 Z" /><path stroke="#ffffff" stroke-width="8" stroke-linejoin="round" fill="#ffffff" d="M 64.7734 25.3594 C 63.3182 23.1323 62.5906 20.1534 62.5906 16.4227 C 62.5906 12.6919 63.3229 9.73281 64.7875 7.54531 C 66.2521 5.35781 68.332 4.26406 71.0273 4.26406 C 73.7227 4.26406 75.8029 5.35781 77.268 7.54531 C 78.7331 9.73281 79.4656 12.6919 79.4656 16.4227 C 79.4656 20.1534 78.743 23.132 77.2977 25.3586 C 75.8523 27.5852 73.7674 28.6984 71.043 28.6984 C 68.3185 28.6984 66.2286 27.5854 64.7734 25.3594 Z M 68.2594 10.4172 C 67.5854 11.8036 67.2484 13.8201 67.2484 16.4664 C 67.2484 19.1128 67.5805 21.1391 68.2445 22.5453 C 68.9086 23.9516 69.8411 24.6547 71.0422 24.6547 C 72.2432 24.6547 73.1711 23.9516 73.8258 22.5453 C 74.4805 21.1391 74.8078 19.1128 74.8078 16.4664 C 74.8078 13.8201 74.4758 11.8034 73.8117 10.4164 C 73.1477 9.02943 72.2247 8.33594 71.043 8.33594 C 69.8612 8.33594 68.9333 9.02969 68.2594 10.4172 Z" /><path stroke="#ffffff" stroke-width="8" stroke-linejoin="round" fill="#ffffff" d="M 83.3234 17.1984 C 82.2589 15.8411 81.7266 13.981 81.7266 11.618 C 81.7266 9.25495 82.2589 7.39453 83.3234 6.03672 C 84.388 4.67891 85.7893 4 87.5273 4 C 89.2654 4 90.6667 4.67891 91.7312 6.03672 C 92.7958 7.39453 93.3281 9.25495 93.3281 11.618 C 93.3281 13.981 92.7958 15.8411 91.7312 17.1984 C 90.6667 18.5557 89.2654 19.2344 87.5273 19.2344 C 85.7893 19.2344 84.388 18.5557 83.3234 17.1984 Z M 85.4469 11.5891 C 85.4469 12.9953 85.6375 14.0401 86.0187 14.7234 C 86.4 15.4068 86.9031 15.7484 87.5281 15.7484 C 88.1531 15.7484 88.6609 15.4068 89.0516 14.7234 C 89.4422 14.0401 89.6375 12.9953 89.6375 11.5891 C 89.6375 10.1828 89.4422 9.15234 89.0516 8.49766 C 88.6609 7.84297 88.1531 7.51562 87.5281 7.51562 C 86.1406 7.51562 85.4469 8.87344 85.4469 11.5891 Z M 87.7625 28.9031 L 100.506 4 L 104.637 4 L 91.8641 28.9031 Z M 100.697 26.8531 C 99.6323 25.4854 99.1 23.6198 99.1 21.2563 C 99.1 18.8927 99.6273 17.0469 100.682 15.7188 C 101.737 14.3906 103.133 13.7266 104.871 13.7266 C 106.609 13.7266 108.01 14.3906 109.075 15.7188 C 110.14 17.0469 110.672 18.8927 110.672 21.2563 C 110.672 23.6198 110.14 25.4852 109.075 26.8523 C 108.01 28.2195 106.614 28.9031 104.886 28.9031 C 103.158 28.9031 101.761 28.2198 100.697 26.8531 Z M 103.348 18.1953 C 102.958 18.8495 102.762 19.8797 102.762 21.2859 C 102.762 22.6922 102.958 23.7323 103.348 24.4063 C 103.739 25.0802 104.247 25.4172 104.872 25.4172 C 105.497 25.4172 106 25.0753 106.38 24.3914 C 106.761 23.7076 106.952 22.6625 106.952 21.2563 C 106.952 18.5615 106.258 17.2141 104.872 17.2141 C 104.247 17.2141 103.739 17.5411 103.348 18.1953 Z" /><path fill="#0c00cc" d="M 4 18.4141 L 4 14.5469 L 10.3578 14.5469 L 10.3578 8.07344 L 14.3719 8.07344 L 14.3719 14.5469 L 20.8469 14.5469 L 20.8469 18.4141 L 14.3719 18.4141 L 14.3719 24.8594 L 10.3578 24.8594 L 10.3578 18.4141 Z" /><path fill="#0c00cc" d="M 25.1094 13.1703 L 25.1094 8.48281 L 31.3203 4.70312 L 35.3328 4.70312 L 35.3047 28.4344 L 30.7922 28.4344 L 30.7922 9.625 Z" /><path fill="#0c00cc" d="M 45.3734 25.3594 C 43.9182 23.1323 43.1906 20.1534 43.1906 16.4227 C 43.1906 12.6919 43.9229 9.73281 45.3875 7.54531 C 46.8521 5.35781 48.932 4.26406 51.6273 4.26406 C 54.3227 4.26406 56.4029 5.35781 57.868 7.54531 C 59.3331 9.73281 60.0656 12.6919 60.0656 16.4227 C 60.0656 20.1534 59.343 23.132 57.8977 25.3586 C 56.4523 27.5852 54.3674 28.6984 51.643 28.6984 C 48.9185 28.6984 46.8286 27.5854 45.3734 25.3594 Z M 48.8594 10.4172 C 48.1854 11.8036 47.8484 13.8201 47.8484 16.4664 C 47.8484 19.1128 48.1805 21.1391 48.8445 22.5453 C 49.5086 23.9516 50.4411 24.6547 51.6422 24.6547 C 52.8432 24.6547 53.7711 23.9516 54.4258 22.5453 C 55.0805 21.1391 55.4078 19.1128 55.4078 16.4664 C 55.4078 13.8201 55.0758 11.8034 54.4117 10.4164 C 53.7477 9.02943 52.8247 8.33594 51.643 8.33594 C 50.4612 8.33594 49.5333 9.02969 48.8594 10.4172 Z" /><path fill="#0c00cc" d="M 64.7734 25.3594 C 63.3182 23.1323 62.5906 20.1534 62.5906 16.4227 C 62.5906 12.6919 63.3229 9.73281 64.7875 7.54531 C 66.2521 5.35781 68.332 4.26406 71.0273 4.26406 C 73.7227 4.26406 75.8029 5.35781 77.268 7.54531 C 78.7331 9.73281 79.4656 12.6919 79.4656 16.4227 C 79.4656 20.1534 78.743 23.132 77.2977 25.3586 C 75.8523 27.5852 73.7674 28.6984 71.043 28.6984 C 68.3185 28.6984 66.2286 27.5854 64.7734 25.3594 Z M 68.2594 10.4172 C 67.5854 11.8036 67.2484 13.8201 67.2484 16.4664 C 67.2484 19.1128 67.5805 21.1391 68.2445 22.5453 C 68.9086 23.9516 69.8411 24.6547 71.0422 24.6547 C 72.2432 24.6547 73.1711 23.9516 73.8258 22.5453 C 74.4805 21.1391 74.8078 19.1128 74.8078 16.4664 C 74.8078 13.8201 74.4758 11.8034 73.8117 10.4164 C 73.1477 9.02943 72.2247 8.33594 71.043 8.33594 C 69.8612 8.33594 68.9333 9.02969 68.2594 10.4172 Z" /><path fill="#0c00cc" d="M 83.3234 17.1984 C 82.2589 15.8411 81.7266 13.981 81.7266 11.618 C 81.7266 9.25495 82.2589 7.39453 83.3234 6.03672 C 84.388 4.67891 85.7893 4 87.5273 4 C 89.2654 4 90.6667 4.67891 91.7312 6.03672 C 92.7958 7.39453 93.3281 9.25495 93.3281 11.618 C 93.3281 13.981 92.7958 15.8411 91.7312 17.1984 C 90.6667 18.5557 89.2654 19.2344 87.5273 19.2344 C 85.7893 19.2344 84.388 18.5557 83.3234 17.1984 Z M 85.4469 11.5891 C 85.4469 12.9953 85.6375 14.0401 86.0187 14.7234 C 86.4 15.4068 86.9031 15.7484 87.5281 15.7484 C 88.1531 15.7484 88.6609 15.4068 89.0516 14.7234 C 89.4422 14.0401 89.6375 12.9953 89.6375 11.5891 C 89.6375 10.1828 89.4422 9.15234 89.0516 8.49766 C 88.6609 7.84297 88.1531 7.51562 87.5281 7.51562 C 86.1406 7.51562 85.4469 8.87344 85.4469 11.5891 Z M 87.7625 28.9031 L 100.506 4 L 104.637 4 L 91.8641 28.9031 Z M 100.697 26.8531 C 99.6323 25.4854 99.1 23.6198 99.1 21.2563 C 99.1 18.8927 99.6273 17.0469 100.682 15.7188 C 101.737 14.3906 103.133 13.7266 104.871 13.7266 C 106.609 13.7266 108.01 14.3906 109.075 15.7188 C 110.14 17.0469 110.672 18.8927 110.672 21.2563 C 110.672 23.6198 110.14 25.4852 109.075 26.8523 C 108.01 28.2195 106.614 28.9031 104.886 28.9031 C 103.158 28.9031 101.761 28.2198 100.697 26.8531 Z M 103.348 18.1953 C 102.958 18.8495 102.762 19.8797 102.762 21.2859 C 102.762 22.6922 102.958 23.7323 103.348 24.4063 C 103.739 25.0802 104.247 25.4172 104.872 25.4172 C 105.497 25.4172 106 25.0753 106.38 24.3914 C 106.761 23.7076 106.952 22.6625 106.952 21.2563 C 106.952 18.5615 106.258 17.2141 104.872 17.2141 C 104.247 17.2141 103.739 17.5411 103.348 18.1953 Z" /></svg>