<?xml version="1.0" encoding="utf-8" standalone="no"?>
<!DOCTYPE svg PUBLIC "-//W3C//DTD SVG 1.1//EN"
"http://www.w3.org/Graphics/SVG/1.1/DTD/svg11.dtd">

<svg xmlns="http://www.w3.org/2000/svg" version="1.1" xmlns:xlink="http://www.w3.org/1999/xlink" width="27.3387" height="27.4" viewBox="0 0 27.3387 27.4"><path stroke="#ffffff" stroke-width="6" stroke-linejoin="round" fill="#ffffff" d="M 24.3387 6.90001 L 24.3387 5.1 L 14.5075 5.1 L 14.5075 3 L 12.3075 3 L 12.3075 9.50001 L 4.30744 9.50001 L 4.30744 17.9 L 23.0075 17.9 L 23.0075 9.50001 L 14.5075 9.50001 L 14.5075 6.90001 Z M 24.3387 24.4 L 22.2339 19.4273 L 20.2668 19.4273 L 22.4031 24.4 Z M 18.2217 24.4 L 16.9523 19.5 L 15.0716 19.5 L 16.3411 24.4 Z M 12.4748 24.4 L 11.5795 19.5 L 9.79489 19.5 L 10.5463 24.4 Z M 7.09449 19.5 L 5.10525 19.5 C 4.76679 21.1334 4.02218 22.8614 3 24.4 L 5.12943 24.4 C 5.87888 23.1928 6.74226 21.2281 7.09449 19.5 Z M 20.8075 16 L 6.50744 16 L 6.50744 11.4 L 20.8075 11.4 Z" /><path fill="#555555" d="M 24.3387 6.90001 L 24.3387 5.1 L 14.5075 5.1 L 14.5075 3 L 12.3075 3 L 12.3075 9.50001 L 4.30744 9.50001 L 4.30744 17.9 L 23.0075 17.9 L 23.0075 9.50001 L 14.5075 9.50001 L 14.5075 6.90001 Z M 24.3387 24.4 L 22.2339 19.4273 L 20.2668 19.4273 L 22.4031 24.4 Z M 18.2217 24.4 L 16.9523 19.5 L 15.0716 19.5 L 16.3411 24.4 Z M 12.4748 24.4 L 11.5795 19.5 L 9.79489 19.5 L 10.5463 24.4 Z M 7.09449 19.5 L 5.10525 19.5 C 4.76679 21.1334 4.02218 22.8614 3 24.4 L 5.12943 24.4 C 5.87888 23.1928 6.74226 21.2281 7.09449 19.5 Z M 20.8075 16 L 6.50744 16 L 6.50744 11.4 L 20.8075 11.4 Z" /></svg>