<?xml version="1.0" encoding="utf-8" standalone="no"?>
<!DOCTYPE svg PUBLIC "-//W3C//DTD SVG 1.1//EN"
"http://www.w3.org/Graphics/SVG/1.1/DTD/svg11.dtd">

<svg xmlns="http://www.w3.org/2000/svg" version="1.1" xmlns:xlink="http://www.w3.org/1999/xlink" width="27.8754" height="31.8" viewBox="0 0 27.8754 31.8"><path stroke="#ffffff" stroke-width="6" stroke-linejoin="round" fill="#ffffff" d="M 24.8754 22.2367 L 24.8754 20.78 C 24.8754 18.8167 23.8834 16.6633 20.774 15.4811 C 23.3678 14.5487 24.4634 12.8239 24.4634 10.706 L 24.4634 9.32616 C 24.4634 4.72675 20.8056 3 14.993 3 L 11.9603 3 C 6.49519 3 3.06339 5.44884 3.06339 10.0963 L 3.06339 10.8344 L 5.86339 10.8344 L 5.86339 10.0963 C 5.86339 7.46498 7.85358 5.7 11.9603 5.7 L 14.9298 5.7 C 19.3524 5.7 21.5634 6.69484 21.5634 9.35825 L 21.5634 10.706 C 21.5634 12.856 19.6052 14.3 15.1509 14.3 L 10.3176 14.3 L 10.3176 16.6 L 14.6771 16.6 C 20.3001 16.6 22.0467 18.4367 22.0467 20.8433 L 22.0467 22.11 C 22.0467 24.3267 20.2686 26.1 15.1509 26.1 L 12.1499 26.1 C 8.20107 26.1 5.7362 24.7383 5.7362 21.6667 L 5.7362 20.8433 L 3 20.8433 L 3 21.6667 C 3 26.1318 6.02134 28.8 12.1499 28.8 L 15.2141 28.8 C 21.66 28.8 24.8754 26.4812 24.8754 22.2367 Z" /><path fill="#ff8119" d="M 24.8754 22.2367 L 24.8754 20.78 C 24.8754 18.8167 23.8834 16.6633 20.774 15.4811 C 23.3678 14.5487 24.4634 12.8239 24.4634 10.706 L 24.4634 9.32616 C 24.4634 4.72675 20.8056 3 14.993 3 L 11.9603 3 C 6.49519 3 3.06339 5.44884 3.06339 10.0963 L 3.06339 10.8344 L 5.86339 10.8344 L 5.86339 10.0963 C 5.86339 7.46498 7.85358 5.7 11.9603 5.7 L 14.9298 5.7 C 19.3524 5.7 21.5634 6.69484 21.5634 9.35825 L 21.5634 10.706 C 21.5634 12.856 19.6052 14.3 15.1509 14.3 L 10.3176 14.3 L 10.3176 16.6 L 14.6771 16.6 C 20.3001 16.6 22.0467 18.4367 22.0467 20.8433 L 22.0467 22.11 C 22.0467 24.3267 20.2686 26.1 15.1509 26.1 L 12.1499 26.1 C 8.20107 26.1 5.7362 24.7383 5.7362 21.6667 L 5.7362 20.8433 L 3 20.8433 L 3 21.6667 C 3 26.1318 6.02134 28.8 12.1499 28.8 L 15.2141 28.8 C 21.66 28.8 24.8754 26.4812 24.8754 22.2367 Z" /></svg>