<?xml version="1.0" encoding="utf-8" standalone="no"?>
<!DOCTYPE svg PUBLIC "-//W3C//DTD SVG 1.1//EN"
"http://www.w3.org/Graphics/SVG/1.1/DTD/svg11.dtd">

<svg xmlns="http://www.w3.org/2000/svg" version="1.1" xmlns:xlink="http://www.w3.org/1999/xlink" width="48.9913" height="56.3998" viewBox="0 0 48.9913 56.3998"><path stroke="#ffffff" stroke-width="8" stroke-linejoin="round" fill="#ffffff" d="M 44.9913 40.0613 L 44.9913 37.332 C 44.9913 33.6534 43.1587 29.6188 37.4295 27.3594 C 42.2165 25.5756 44.2187 22.3537 44.2187 18.4134 L 44.2187 15.8462 C 44.2187 7.26163 37.4891 4 26.5307 4 L 20.8133 4 C 10.51 4 4.11886 8.62557 4.11886 17.279 L 4.11886 18.6522 L 9.31884 18.6522 L 9.31884 17.279 C 9.31884 12.3835 13.0709 9.09998 20.8133 9.09998 L 26.4116 9.09998 C 34.7495 9.09998 38.9187 10.9507 38.9187 15.9059 L 38.9187 18.4134 C 38.9187 22.4134 35.226 25.0999 26.8285 25.0999 L 17.7163 25.0999 L 17.7163 29.4999 L 25.9351 29.4999 C 36.5362 29.4999 39.8021 32.9414 39.8021 37.4507 L 39.8021 39.824 C 39.8021 43.9772 36.4766 47.2998 26.8285 47.2998 L 21.1706 47.2998 C 13.726 47.2998 9.08252 44.7486 9.08252 38.9933 L 9.08252 37.4507 L 4 37.4507 L 4 38.9933 C 4 47.3599 9.61662 52.3998 21.1706 52.3998 L 26.9476 52.3998 C 39.0954 52.3998 44.9913 48.0199 44.9913 40.0613 Z" /><path fill="#800000" d="M 44.9913 40.0613 L 44.9913 37.332 C 44.9913 33.6534 43.1587 29.6188 37.4295 27.3594 C 42.2165 25.5756 44.2187 22.3537 44.2187 18.4134 L 44.2187 15.8462 C 44.2187 7.26163 37.4891 4 26.5307 4 L 20.8133 4 C 10.51 4 4.11886 8.62557 4.11886 17.279 L 4.11886 18.6522 L 9.31884 18.6522 L 9.31884 17.279 C 9.31884 12.3835 13.0709 9.09998 20.8133 9.09998 L 26.4116 9.09998 C 34.7495 9.09998 38.9187 10.9507 38.9187 15.9059 L 38.9187 18.4134 C 38.9187 22.4134 35.226 25.0999 26.8285 25.0999 L 17.7163 25.0999 L 17.7163 29.4999 L 25.9351 29.4999 C 36.5362 29.4999 39.8021 32.9414 39.8021 37.4507 L 39.8021 39.824 C 39.8021 43.9772 36.4766 47.2998 26.8285 47.2998 L 21.1706 47.2998 C 13.726 47.2998 9.08252 44.7486 9.08252 38.9933 L 9.08252 37.4507 L 4 37.4507 L 4 38.9933 C 4 47.3599 9.61662 52.3998 21.1706 52.3998 L 26.9476 52.3998 C 39.0954 52.3998 44.9913 48.0199 44.9913 40.0613 Z" /></svg>