<?xml version="1.0" encoding="utf-8" standalone="no"?>
<!DOCTYPE svg PUBLIC "-//W3C//DTD SVG 1.1//EN"
"http://www.w3.org/Graphics/SVG/1.1/DTD/svg11.dtd">

<svg xmlns="http://www.w3.org/2000/svg" version="1.1" xmlns:xlink="http://www.w3.org/1999/xlink" width="33.2" height="38.2001" viewBox="0 0 33.2 38.2001"><path stroke="#ffffff" stroke-width="6" stroke-linejoin="round" fill="#ffffff" d="M 30.2 22.7654 L 30.2 15.4743 C 30.2 7.74734 26.4823 3 18.1398 3 L 15.1206 3 C 6.77809 3 3 7.74734 3 15.4743 L 3 22.7654 C 3 30.4924 6.77809 35.2001 15.1206 35.2001 L 18.1398 35.2001 C 26.4823 35.2001 30.2 30.4924 30.2 22.7654 Z M 26.8 22.7654 C 26.8 29.0263 23.622 31.8 18.1398 31.8 L 15.1206 31.8 C 9.63838 31.8 6.50001 29.0263 6.50001 22.7654 L 6.50001 15.4743 C 6.50001 9.37199 9.63838 6.40001 15.1206 6.40001 L 18.1398 6.40001 C 23.622 6.40001 26.8 9.37199 26.8 15.4743 Z" /><path fill="#555555" d="M 30.2 22.7654 L 30.2 15.4743 C 30.2 7.74734 26.4823 3 18.1398 3 L 15.1206 3 C 6.77809 3 3 7.74734 3 15.4743 L 3 22.7654 C 3 30.4924 6.77809 35.2001 15.1206 35.2001 L 18.1398 35.2001 C 26.4823 35.2001 30.2 30.4924 30.2 22.7654 Z M 26.8 22.7654 C 26.8 29.0263 23.622 31.8 18.1398 31.8 L 15.1206 31.8 C 9.63838 31.8 6.50001 29.0263 6.50001 22.7654 L 6.50001 15.4743 C 6.50001 9.37199 9.63838 6.40001 15.1206 6.40001 L 18.1398 6.40001 C 23.622 6.40001 26.8 9.37199 26.8 15.4743 Z" /></svg>