<?xml version="1.0" encoding="utf-8" standalone="no"?>
<!DOCTYPE svg PUBLIC "-//W3C//DTD SVG 1.1//EN"
"http://www.w3.org/Graphics/SVG/1.1/DTD/svg11.dtd">

<svg xmlns="http://www.w3.org/2000/svg" version="1.1" xmlns:xlink="http://www.w3.org/1999/xlink" width="27.3627" height="27.4" viewBox="0 0 27.3627 27.4"><path stroke="#ffffff" stroke-width="6" stroke-linejoin="round" fill="#ffffff" d="M 24.3627 13.9366 L 23.0791 3.80678 L 21.0347 3.80678 L 22.3421 13.9366 Z M 19.5609 15.4211 L 19.5609 3 L 17.6973 3 L 17.6973 14.9901 C 17.6973 15.469 17.2727 15.9 16.7773 15.9 L 14.9608 15.9 L 14.9608 17.9 L 17.0604 17.9 C 18.523 17.9 19.5609 16.9 19.5609 15.4211 Z M 15.928 3.80678 L 14.0136 3.80678 C 13.8241 7.51656 13.3267 11.4943 12.2846 14.6789 L 14.2504 14.6789 C 15.126 11.6619 15.6686 8.20829 15.928 3.80678 Z M 23.816 15.4211 L 21.9618 15.4211 C 21.2962 19.7333 18.0983 22.3762 12.5925 22.4 L 12.5925 24.4 C 19.325 24.3303 23.0791 21.0905 23.816 15.4211 Z M 12.2846 17.8303 L 12.2846 15.6845 L 8.66084 12.7633 L 8.66084 10.8 L 12.1188 10.8 L 12.1188 8.90001 L 8.66084 8.90001 L 8.66084 5.91519 C 9.77402 5.69873 10.603 5.43417 11.2898 5.09746 L 11.2898 3 C 9.89244 3.78305 7.98615 4.4 3.49921 4.4 L 3 4.4 L 3 6.30001 C 4.45007 6.30001 5.66243 6.2519 6.66084 6.1557 L 6.66084 8.90001 L 3 8.90001 L 3 10.8 L 6.66084 10.8 C 6.49443 12.6436 4.97305 16.7372 3 18.5667 L 3 21.3286 C 4.61647 19.8286 5.82883 17.9476 6.66084 16.1326 L 6.66084 24.4 L 8.66084 24.4 L 8.66084 14.9662 Z" /><path fill="#555555" d="M 24.3627 13.9366 L 23.0791 3.80678 L 21.0347 3.80678 L 22.3421 13.9366 Z M 19.5609 15.4211 L 19.5609 3 L 17.6973 3 L 17.6973 14.9901 C 17.6973 15.469 17.2727 15.9 16.7773 15.9 L 14.9608 15.9 L 14.9608 17.9 L 17.0604 17.9 C 18.523 17.9 19.5609 16.9 19.5609 15.4211 Z M 15.928 3.80678 L 14.0136 3.80678 C 13.8241 7.51656 13.3267 11.4943 12.2846 14.6789 L 14.2504 14.6789 C 15.126 11.6619 15.6686 8.20829 15.928 3.80678 Z M 23.816 15.4211 L 21.9618 15.4211 C 21.2962 19.7333 18.0983 22.3762 12.5925 22.4 L 12.5925 24.4 C 19.325 24.3303 23.0791 21.0905 23.816 15.4211 Z M 12.2846 17.8303 L 12.2846 15.6845 L 8.66084 12.7633 L 8.66084 10.8 L 12.1188 10.8 L 12.1188 8.90001 L 8.66084 8.90001 L 8.66084 5.91519 C 9.77402 5.69873 10.603 5.43417 11.2898 5.09746 L 11.2898 3 C 9.89244 3.78305 7.98615 4.4 3.49921 4.4 L 3 4.4 L 3 6.30001 C 4.45007 6.30001 5.66243 6.2519 6.66084 6.1557 L 6.66084 8.90001 L 3 8.90001 L 3 10.8 L 6.66084 10.8 C 6.49443 12.6436 4.97305 16.7372 3 18.5667 L 3 21.3286 C 4.61647 19.8286 5.82883 17.9476 6.66084 16.1326 L 6.66084 24.4 L 8.66084 24.4 L 8.66084 14.9662 Z" /></svg>