<?xml version="1.0" encoding="utf-8" standalone="no"?>
<!DOCTYPE svg PUBLIC "-//W3C//DTD SVG 1.1//EN"
"http://www.w3.org/Graphics/SVG/1.1/DTD/svg11.dtd">

<svg xmlns="http://www.w3.org/2000/svg" version="1.1" xmlns:xlink="http://www.w3.org/1999/xlink" width="84.468" height="28.7" viewBox="0 0 84.468 28.7"><path stroke="#ffffff" stroke-width="6" stroke-linejoin="round" fill="#ffffff" d="M 26.168 5.5 L 26.168 3 L 3 3 L 3 5.5 Z M 26.168 13.211 L 26.168 9.4 L 3.05547 9.4 L 3.05547 11.8 L 23.468 11.8 L 23.468 13.3771 C 23.468 21.2078 18.8086 23.2 10.0168 23.2 L 4.74726 23.2 L 4.74726 25.7 L 10.1277 25.7 C 20.5004 25.7 26.168 22.6466 26.168 13.211 Z" /><path stroke="#ffffff" stroke-width="6" stroke-linejoin="round" fill="#ffffff" d="M 43.0191 8.96789 L 43.0191 6.23201 C 40.4676 4.74831 34.8098 3.4 30.8992 3.4 L 30.8992 5.9 C 34.6711 5.9 39.7742 7.28214 43.0191 8.96789 Z M 53.368 9.35478 L 53.368 3.98989 L 50.868 3.98989 L 50.868 9.43769 C 50.868 15.4622 49.7586 23.2 37.4168 23.2 L 30.5109 23.2 L 30.5109 25.7 L 37.6109 25.7 C 52.4791 25.7 53.368 15.7109 53.368 9.35478 Z" /><path stroke="#ffffff" stroke-width="6" stroke-linejoin="round" fill="#ffffff" d="M 81.468 12.4157 L 81.468 3.6 L 62.368 3.6 C 62.368 8.2956 61.2586 10.8119 58.3742 12.2222 L 58.3742 14.8768 C 62.6134 13.3836 64.277 10.01 64.468 6 L 78.968 6 L 78.968 12.2222 C 78.968 19.6053 74.496 23.2 65.7736 23.2 L 60.4543 23.2 L 60.4543 25.7 L 65.8569 25.7 C 76.7183 25.7 81.468 20.5454 81.468 12.4157 Z" /><path fill="#000000" d="M 26.168 5.5 L 26.168 3 L 3 3 L 3 5.5 Z M 26.168 13.211 L 26.168 9.4 L 3.05547 9.4 L 3.05547 11.8 L 23.468 11.8 L 23.468 13.3771 C 23.468 21.2078 18.8086 23.2 10.0168 23.2 L 4.74726 23.2 L 4.74726 25.7 L 10.1277 25.7 C 20.5004 25.7 26.168 22.6466 26.168 13.211 Z" /><path fill="#000000" d="M 43.0191 8.96789 L 43.0191 6.23201 C 40.4676 4.74831 34.8098 3.4 30.8992 3.4 L 30.8992 5.9 C 34.6711 5.9 39.7742 7.28214 43.0191 8.96789 Z M 53.368 9.35478 L 53.368 3.98989 L 50.868 3.98989 L 50.868 9.43769 C 50.868 15.4622 49.7586 23.2 37.4168 23.2 L 30.5109 23.2 L 30.5109 25.7 L 37.6109 25.7 C 52.4791 25.7 53.368 15.7109 53.368 9.35478 Z" /><path fill="#000000" d="M 81.468 12.4157 L 81.468 3.6 L 62.368 3.6 C 62.368 8.2956 61.2586 10.8119 58.3742 12.2222 L 58.3742 14.8768 C 62.6134 13.3836 64.277 10.01 64.468 6 L 78.968 6 L 78.968 12.2222 C 78.968 19.6053 74.496 23.2 65.7736 23.2 L 60.4543 23.2 L 60.4543 25.7 L 65.8569 25.7 C 76.7183 25.7 81.468 20.5454 81.468 12.4157 Z" /></svg>