<?xml version="1.0" encoding="utf-8" standalone="no"?>
<!DOCTYPE svg PUBLIC "-//W3C//DTD SVG 1.1//EN"
"http://www.w3.org/Graphics/SVG/1.1/DTD/svg11.dtd">

<svg xmlns="http://www.w3.org/2000/svg" version="1.1" xmlns:xlink="http://www.w3.org/1999/xlink" width="32.6566" height="38.2001" viewBox="0 0 32.6566 38.2001"><path stroke="#ffffff" stroke-width="6" stroke-linejoin="round" fill="#ffffff" d="M 29.6566 26.0174 L 29.6566 23.641 C 29.6566 17.4265 26.6285 14.3 18.2454 14.3 L 14.6676 14.3 C 11.4873 14.3 8.78402 15.1207 6.75658 16.4494 L 6.75658 6.40001 L 28.7521 6.40001 L 28.7521 3 L 3.35658 3 L 3.35658 20.7892 L 6.87584 20.7892 C 8.18772 19.0465 10.2152 17.7 14.6676 17.7 L 18.2454 17.7 C 24.0892 17.7 26.1566 19.6802 26.1566 23.641 L 26.1566 26.0174 C 26.1566 30.1762 23.9302 31.8 18.2454 31.8 L 14.2303 31.8 C 9.1418 31.8 6.44396 30.691 6.44396 26.5719 L 3 26.5719 C 3 32.88 6.5612 35.2001 14.0713 35.2001 L 18.2454 35.2001 C 26.0371 35.2001 29.6566 32.72 29.6566 26.0174 Z" /><path fill="#555555" d="M 29.6566 26.0174 L 29.6566 23.641 C 29.6566 17.4265 26.6285 14.3 18.2454 14.3 L 14.6676 14.3 C 11.4873 14.3 8.78402 15.1207 6.75658 16.4494 L 6.75658 6.40001 L 28.7521 6.40001 L 28.7521 3 L 3.35658 3 L 3.35658 20.7892 L 6.87584 20.7892 C 8.18772 19.0465 10.2152 17.7 14.6676 17.7 L 18.2454 17.7 C 24.0892 17.7 26.1566 19.6802 26.1566 23.641 L 26.1566 26.0174 C 26.1566 30.1762 23.9302 31.8 18.2454 31.8 L 14.2303 31.8 C 9.1418 31.8 6.44396 30.691 6.44396 26.5719 L 3 26.5719 C 3 32.88 6.5612 35.2001 14.0713 35.2001 L 18.2454 35.2001 C 26.0371 35.2001 29.6566 32.72 29.6566 26.0174 Z" /></svg>