<?xml version="1.0" encoding="utf-8" standalone="no"?>
<!DOCTYPE svg PUBLIC "-//W3C//DTD SVG 1.1//EN"
"http://www.w3.org/Graphics/SVG/1.1/DTD/svg11.dtd">

<svg xmlns="http://www.w3.org/2000/svg" version="1.1" xmlns:xlink="http://www.w3.org/1999/xlink" width="145.69" height="51.1739" viewBox="0 0 145.69 51.1739"><path stroke="#ffffff" stroke-width="8" stroke-linejoin="round" fill="#ffffff" d="M 45.592 16.4464 L 45.592 5.11142 L 25.7919 5.11142 L 25.7919 8.83931 L 30.7919 8.83931 C 30.6491 13.7484 29.649 15.8311 25.7919 18.1506 L 25.7919 22.1845 C 31.32 19.6212 34.008 15.5944 34.392 8.83931 L 41.892 8.83931 L 41.892 15.2631 C 41.892 17.1091 40.6103 18.3404 38.854 18.3404 L 34.8666 18.3404 L 34.8666 21.8512 L 40.1831 21.8512 C 43.5048 21.8512 45.592 19.0519 45.592 16.4464 Z M 45.592 39.2558 L 45.592 24.2321 L 25.7919 24.2321 L 25.7919 39.2558 Z M 46.8281 46.5559 L 46.8281 42.7558 L 21.6197 42.7558 C 19.9046 42.7558 18.3801 42.6612 16.9985 42.3775 L 16.9985 32.3558 L 23.1919 32.3558 L 23.1919 28.7558 L 16.9985 28.7558 L 16.9985 21.7558 L 23.9142 21.7558 L 23.9142 18.0558 L 16.4744 18.0558 L 16.4744 10.9558 L 23.0489 10.9558 L 23.0489 7.15578 L 16.4744 7.15578 L 16.4744 4.25564 L 12.2971 4.25564 L 12.2971 7.15578 L 5.33121 7.15578 L 5.33121 10.9558 L 12.2971 10.9558 L 12.2971 18.0558 L 4 18.0558 L 4 21.7558 L 13.0919 21.7558 L 13.0919 40.8639 C 11.5958 39.8234 10.3335 38.395 9.11407 36.2906 C 9.3974 33.9398 9.49191 31.1243 9.49191 27.5654 L 6.09191 27.5654 C 6.09191 37.2472 5.14104 39.5869 4 41.0058 L 4 47.1739 C 6.04436 45.4976 7.4141 43.7178 8.26409 40.8166 C 11.175 45.0166 14.6164 46.5559 21.6673 46.5559 Z M 41.7021 35.9558 L 29.7919 35.9558 L 29.7919 27.4701 L 41.7021 27.4701 Z" /><path stroke="#ffffff" stroke-width="8" stroke-linejoin="round" fill="#ffffff" d="M 94.4012 46.5559 L 94.4012 42.5558 L 73.2919 42.5558 L 73.2919 23.0558 L 92.9273 23.0558 L 92.9273 18.9558 L 73.2919 18.9558 L 73.2919 4.25578 L 68.9919 4.25578 L 68.9919 42.5558 L 51.496 42.5558 L 51.496 46.5559 Z" /><path stroke="#ffffff" stroke-width="8" stroke-linejoin="round" fill="#ffffff" d="M 141.69 46.7313 L 141.69 42.6085 C 139.364 41.9454 137.277 40.8085 135.522 39.0559 C 138.7 34.4139 139.981 28.2278 140.692 21.0658 L 140.692 17.4558 L 136.234 17.4558 L 138.605 8.51504 L 138.605 4.85578 L 118.532 4.85578 L 118.532 8.75579 L 122.492 8.75579 C 122.492 28.1318 121.538 37.0665 118.437 40.8559 L 118.437 46.5411 C 122.918 42.7033 125.05 36.6402 125.855 24.451 C 126.802 30.497 128.413 35.2665 130.876 38.9612 C 129.171 40.7612 126.992 42.0875 124.197 42.8454 L 124.197 46.7788 C 128.034 45.7822 130.971 44.0296 133.246 41.8506 C 135.522 44.1243 138.321 45.7822 141.69 46.7313 Z M 117.769 30.2617 L 115.717 19.1183 L 112.759 19.1183 L 113.666 24.2161 C 112.473 24.7799 111.042 25.1558 108.506 25.1558 L 103.154 25.1558 L 116.385 9.84651 L 112.091 9.84651 L 109.033 13.3558 L 102.574 13.3558 L 110.517 4 L 106.211 4 L 98.8328 12.8341 L 98.8328 16.9558 L 105.929 16.9558 L 98.8328 25.0618 L 98.8328 28.8029 L 106.492 28.8029 L 106.492 46.7788 L 109.992 46.7788 L 109.992 28.7558 C 111.805 28.6118 113.475 28.2278 114.286 27.7478 L 114.715 30.2617 Z M 117.482 46.2558 L 116.003 32.7558 L 113.045 32.7558 L 114.524 46.2558 Z M 103.492 32.7558 L 100.592 32.7558 C 100.592 37.4928 99.9738 43.4611 98.7377 46.2558 L 101.752 46.2558 C 102.525 44.1243 103.492 38.2507 103.492 32.7558 Z M 137.182 21.2558 C 136.471 27.1238 135.333 32.1911 133.056 35.977 C 130.876 32.3794 129.408 27.2678 128.792 20.4008 L 126.092 20.4008 C 126.234 16.9558 126.281 13.1187 126.281 8.75579 L 134.763 8.75579 L 132.392 17.4558 L 132.392 21.2558 Z" /><path fill="#4b0082" d="M 45.592 16.4464 L 45.592 5.11142 L 25.7919 5.11142 L 25.7919 8.83931 L 30.7919 8.83931 C 30.6491 13.7484 29.649 15.8311 25.7919 18.1506 L 25.7919 22.1845 C 31.32 19.6212 34.008 15.5944 34.392 8.83931 L 41.892 8.83931 L 41.892 15.2631 C 41.892 17.1091 40.6103 18.3404 38.854 18.3404 L 34.8666 18.3404 L 34.8666 21.8512 L 40.1831 21.8512 C 43.5048 21.8512 45.592 19.0519 45.592 16.4464 Z M 45.592 39.2558 L 45.592 24.2321 L 25.7919 24.2321 L 25.7919 39.2558 Z M 46.8281 46.5559 L 46.8281 42.7558 L 21.6197 42.7558 C 19.9046 42.7558 18.3801 42.6612 16.9985 42.3775 L 16.9985 32.3558 L 23.1919 32.3558 L 23.1919 28.7558 L 16.9985 28.7558 L 16.9985 21.7558 L 23.9142 21.7558 L 23.9142 18.0558 L 16.4744 18.0558 L 16.4744 10.9558 L 23.0489 10.9558 L 23.0489 7.15578 L 16.4744 7.15578 L 16.4744 4.25564 L 12.2971 4.25564 L 12.2971 7.15578 L 5.33121 7.15578 L 5.33121 10.9558 L 12.2971 10.9558 L 12.2971 18.0558 L 4 18.0558 L 4 21.7558 L 13.0919 21.7558 L 13.0919 40.8639 C 11.5958 39.8234 10.3335 38.395 9.11407 36.2906 C 9.3974 33.9398 9.49191 31.1243 9.49191 27.5654 L 6.09191 27.5654 C 6.09191 37.2472 5.14104 39.5869 4 41.0058 L 4 47.1739 C 6.04436 45.4976 7.4141 43.7178 8.26409 40.8166 C 11.175 45.0166 14.6164 46.5559 21.6673 46.5559 Z M 41.7021 35.9558 L 29.7919 35.9558 L 29.7919 27.4701 L 41.7021 27.4701 Z" /><path fill="#4b0082" d="M 94.4012 46.5559 L 94.4012 42.5558 L 73.2919 42.5558 L 73.2919 23.0558 L 92.9273 23.0558 L 92.9273 18.9558 L 73.2919 18.9558 L 73.2919 4.25578 L 68.9919 4.25578 L 68.9919 42.5558 L 51.496 42.5558 L 51.496 46.5559 Z" /><path fill="#4b0082" d="M 141.69 46.7313 L 141.69 42.6085 C 139.364 41.9454 137.277 40.8085 135.522 39.0559 C 138.7 34.4139 139.981 28.2278 140.692 21.0658 L 140.692 17.4558 L 136.234 17.4558 L 138.605 8.51504 L 138.605 4.85578 L 118.532 4.85578 L 118.532 8.75579 L 122.492 8.75579 C 122.492 28.1318 121.538 37.0665 118.437 40.8559 L 118.437 46.5411 C 122.918 42.7033 125.05 36.6402 125.855 24.451 C 126.802 30.497 128.413 35.2665 130.876 38.9612 C 129.171 40.7612 126.992 42.0875 124.197 42.8454 L 124.197 46.7788 C 128.034 45.7822 130.971 44.0296 133.246 41.8506 C 135.522 44.1243 138.321 45.7822 141.69 46.7313 Z M 117.769 30.2617 L 115.717 19.1183 L 112.759 19.1183 L 113.666 24.2161 C 112.473 24.7799 111.042 25.1558 108.506 25.1558 L 103.154 25.1558 L 116.385 9.84651 L 112.091 9.84651 L 109.033 13.3558 L 102.574 13.3558 L 110.517 4 L 106.211 4 L 98.8328 12.8341 L 98.8328 16.9558 L 105.929 16.9558 L 98.8328 25.0618 L 98.8328 28.8029 L 106.492 28.8029 L 106.492 46.7788 L 109.992 46.7788 L 109.992 28.7558 C 111.805 28.6118 113.475 28.2278 114.286 27.7478 L 114.715 30.2617 Z M 117.482 46.2558 L 116.003 32.7558 L 113.045 32.7558 L 114.524 46.2558 Z M 103.492 32.7558 L 100.592 32.7558 C 100.592 37.4928 99.9738 43.4611 98.7377 46.2558 L 101.752 46.2558 C 102.525 44.1243 103.492 38.2507 103.492 32.7558 Z M 137.182 21.2558 C 136.471 27.1238 135.333 32.1911 133.056 35.977 C 130.876 32.3794 129.408 27.2678 128.792 20.4008 L 126.092 20.4008 C 126.234 16.9558 126.281 13.1187 126.281 8.75579 L 134.763 8.75579 L 132.392 17.4558 L 132.392 21.2558 Z" /></svg>