<?xml version="1.0" encoding="utf-8" standalone="no"?>
<!DOCTYPE svg PUBLIC "-//W3C//DTD SVG 1.1//EN"
"http://www.w3.org/Graphics/SVG/1.1/DTD/svg11.dtd">

<svg xmlns="http://www.w3.org/2000/svg" version="1.1" xmlns:xlink="http://www.w3.org/1999/xlink" width="144.631" height="35.3047" viewBox="0 0 144.631 35.3047"><path stroke="#ffffff" stroke-width="8" stroke-linejoin="round" fill="#ffffff" d="M 7.16406 26.8813 C 5.05469 24.8104 4 22.0172 4 18.5016 C 4 14.9859 5.05964 12.1297 7.17891 9.93281 C 9.29818 7.73594 12.0177 6.6375 15.3375 6.6375 C 17.8188 6.6375 19.9479 7.16458 21.725 8.21875 L 21.725 10.9734 C 19.9479 9.78177 17.8044 9.18594 15.2945 9.18594 C 12.7846 9.18594 10.724 10.0258 9.1125 11.7055 C 7.50104 13.3852 6.69531 15.6263 6.69531 18.4289 C 6.69531 21.2315 7.48151 23.4385 9.05391 25.05 C 10.6263 26.6615 12.7698 27.4672 15.4844 27.4672 C 17.1052 27.4672 18.5995 27.1547 19.9672 26.5297 L 19.9672 19.3516 L 14.8984 19.3516 L 14.8984 17.0672 L 22.5453 17.0672 L 22.5453 27.9656 C 20.6505 29.3125 18.2677 29.9859 15.3969 29.9859 C 12.0177 29.9859 9.27344 28.951 7.16406 26.8813 Z" /><path stroke="#ffffff" stroke-width="8" stroke-linejoin="round" fill="#ffffff" d="M 27.2203 29.7234 L 27.2203 12.6719 L 29.7406 12.6719 L 29.7406 15.5719 C 30.6385 13.5021 32.1422 12.4672 34.2516 12.4672 C 34.5641 12.4672 34.9354 12.5063 35.3656 12.5844 L 35.3656 15.075 C 34.9156 14.9187 34.4661 14.8406 34.0172 14.8406 C 32.7672 14.8406 31.7419 15.4021 30.9414 16.525 C 30.1409 17.6479 29.7406 18.9318 29.7406 20.3766 L 29.7406 29.7234 Z" /><path stroke="#ffffff" stroke-width="8" stroke-linejoin="round" fill="#ffffff" d="M 39.8531 27.4813 C 38.301 25.8698 37.525 23.7359 37.525 21.0797 C 37.525 18.4234 38.2328 16.324 39.6484 14.7813 C 41.0641 13.2385 42.851 12.4672 45.0094 12.4672 C 47.1677 12.4672 48.8719 13.1263 50.1219 14.4445 C 51.3719 15.7628 51.9969 17.5745 51.9969 19.8797 C 51.9969 20.7776 51.9385 21.5781 51.8219 22.2813 L 40.1313 22.2813 C 40.3073 24 40.9422 25.3232 42.0359 26.2508 C 43.1297 27.1784 44.5849 27.6422 46.4016 27.6422 C 48.2182 27.6422 49.7318 27.2422 50.9422 26.4422 L 50.9422 28.8438 C 49.6536 29.5469 48.0031 29.8984 45.9906 29.8984 C 43.4521 29.8984 41.4063 29.0927 39.8531 27.4813 Z M 40.1031 20.1422 L 49.4484 20.1422 L 49.4484 19.4109 C 49.4484 17.9651 49.0578 16.8174 48.2766 15.968 C 47.4953 15.1185 46.4406 14.6938 45.1125 14.6938 C 43.7844 14.6938 42.6612 15.1625 41.743 16.1 C 40.8247 17.0375 40.2781 18.3849 40.1031 20.1422 Z" /><path stroke="#ffffff" stroke-width="8" stroke-linejoin="round" fill="#ffffff" d="M 56.5906 28.5797 C 55.6437 27.7203 55.1703 26.5242 55.1703 24.9914 C 55.1703 23.4586 55.6831 22.3016 56.7086 21.5203 C 57.7341 20.7391 59.5359 20.1042 62.1141 19.6156 L 65.2484 19.0297 L 65.2484 18.8828 C 65.2484 17.4964 64.9555 16.4516 64.3695 15.7484 C 63.7836 15.0453 62.7974 14.6938 61.4109 14.6938 C 59.4974 14.6938 57.8276 15.1818 56.4016 16.1578 L 56.4016 13.5797 C 57.7099 12.7984 59.4089 12.4078 61.4984 12.4078 C 65.6786 12.4078 67.7688 14.5859 67.7688 18.9422 L 67.7688 29.7234 L 65.2781 29.7234 L 65.2781 27.7594 C 64.9271 28.326 64.3609 28.8193 63.5797 29.2391 C 62.7984 29.6589 61.7828 29.8687 60.5328 29.8687 C 58.8526 29.8687 57.5385 29.4391 56.5906 28.5797 Z M 57.8375 24.9469 C 57.8375 26.8031 58.8625 27.7313 60.9125 27.7313 C 62.2802 27.7313 63.3448 27.3893 64.1062 26.7055 C 64.8677 26.0216 65.2484 25.1328 65.2484 24.0391 L 65.2484 21.1094 L 62.2016 21.6656 C 60.5807 21.9594 59.4482 22.3406 58.8039 22.8094 C 58.1596 23.2781 57.8375 23.9906 57.8375 24.9469 Z" /><path stroke="#ffffff" stroke-width="8" stroke-linejoin="round" fill="#ffffff" d="M 70.7922 14.7234 L 70.7922 12.6719 L 73.5453 12.6719 L 73.5453 8.45313 L 76.0953 8.45313 L 76.0953 12.6719 L 80.8109 12.6719 L 80.8109 14.7234 L 76.0953 14.7234 L 76.0953 24.8594 C 76.0953 26.6958 76.925 27.6141 78.5844 27.6141 C 79.5813 27.6141 80.3823 27.3599 80.9875 26.8516 L 80.9875 29.2547 C 80.2844 29.6839 79.2542 29.8984 77.8969 29.8984 C 76.5396 29.8984 75.475 29.4542 74.7031 28.5656 C 73.9313 27.6771 73.5453 26.4125 73.5453 24.7719 L 73.5453 14.7234 Z" /><path stroke="#ffffff" stroke-width="8" stroke-linejoin="round" fill="#ffffff" d="M 83.7953 23.9813 L 83.7953 21.9594 L 90.5328 21.9594 L 90.5328 17.2422 L 84.5563 17.2422 L 84.5563 15.25 L 90.5328 15.25 L 90.5328 4.49844 L 92.8187 4.49844 L 92.8187 15.25 L 98.5016 15.25 L 98.5016 17.2422 L 92.8187 17.2422 L 92.8187 21.9594 L 99.1766 21.9594 L 99.1766 23.9813 L 92.8187 23.9813 L 92.8187 31.3047 L 90.5328 31.3047 L 90.5328 23.9813 Z M 84.0875 7.04688 L 86.1094 6.19688 C 87.3208 8.58021 88.4047 10.9438 89.3609 13.2875 L 87.3109 14.0781 C 86.0995 11.2271 85.025 8.88333 84.0875 7.04688 Z M 94.0203 13.2578 C 95.2703 11.0505 96.325 8.6776 97.1844 6.13906 L 99.2047 6.87187 C 98.287 9.52812 97.213 11.9401 95.9828 14.1078 Z M 100.728 25.0063 L 100.728 6.19688 L 102.955 6.19688 L 102.955 25.0063 Z M 102.75 28.6094 C 104.332 28.7073 105.49 28.7563 106.222 28.7563 C 106.954 28.7563 107.398 28.6682 107.555 28.4922 C 107.711 28.3161 107.789 27.8182 107.789 26.9984 L 107.789 4.99687 L 110.103 4.99687 L 110.103 27.1156 C 110.103 28.7948 109.918 29.8445 109.547 30.2648 C 109.176 30.6852 108.39 30.8953 107.189 30.8953 C 105.988 30.8953 104.537 30.8464 102.838 30.7484 Z" /><path stroke="#ffffff" stroke-width="8" stroke-linejoin="round" fill="#ffffff" d="M 113.795 30.2203 C 116.099 26.3922 117.72 22.1344 118.658 17.4469 L 120.827 17.8875 C 120.592 19.1177 120.28 20.387 119.889 21.6953 C 120.69 23.1214 121.608 24.2836 122.643 25.182 C 123.678 26.0805 124.967 26.7833 126.509 27.2906 L 126.509 13.9906 L 118.513 13.9906 L 118.513 12.0562 L 136.208 12.0562 L 136.208 13.9906 L 128.913 13.9906 L 128.913 19.0875 L 137.936 19.0875 L 137.936 21.0516 L 128.913 21.0516 L 128.913 27.9063 C 131.276 28.375 134.528 28.6094 138.669 28.6094 L 140.631 28.6094 L 140.514 30.6609 L 138.552 30.6609 C 132.985 30.6609 128.776 30.1872 125.924 29.2398 C 123.073 28.2924 120.797 26.588 119.098 24.1266 C 118.141 26.7443 117.037 29.0687 115.787 31.1 Z M 114.967 13.6094 L 114.967 7.10625 L 126.158 7.10625 L 126.158 4 L 128.561 4 L 128.561 7.10625 L 139.752 7.10625 L 139.752 13.6094 L 137.497 13.6094 L 137.497 9.03906 L 117.223 9.03906 L 117.223 13.6094 Z" /><path fill="#000000" d="M 7.16406 26.8813 C 5.05469 24.8104 4 22.0172 4 18.5016 C 4 14.9859 5.05964 12.1297 7.17891 9.93281 C 9.29818 7.73594 12.0177 6.6375 15.3375 6.6375 C 17.8188 6.6375 19.9479 7.16458 21.725 8.21875 L 21.725 10.9734 C 19.9479 9.78177 17.8044 9.18594 15.2945 9.18594 C 12.7846 9.18594 10.724 10.0258 9.1125 11.7055 C 7.50104 13.3852 6.69531 15.6263 6.69531 18.4289 C 6.69531 21.2315 7.48151 23.4385 9.05391 25.05 C 10.6263 26.6615 12.7698 27.4672 15.4844 27.4672 C 17.1052 27.4672 18.5995 27.1547 19.9672 26.5297 L 19.9672 19.3516 L 14.8984 19.3516 L 14.8984 17.0672 L 22.5453 17.0672 L 22.5453 27.9656 C 20.6505 29.3125 18.2677 29.9859 15.3969 29.9859 C 12.0177 29.9859 9.27344 28.951 7.16406 26.8813 Z" /><path fill="#000000" d="M 27.2203 29.7234 L 27.2203 12.6719 L 29.7406 12.6719 L 29.7406 15.5719 C 30.6385 13.5021 32.1422 12.4672 34.2516 12.4672 C 34.5641 12.4672 34.9354 12.5063 35.3656 12.5844 L 35.3656 15.075 C 34.9156 14.9187 34.4661 14.8406 34.0172 14.8406 C 32.7672 14.8406 31.7419 15.4021 30.9414 16.525 C 30.1409 17.6479 29.7406 18.9318 29.7406 20.3766 L 29.7406 29.7234 Z" /><path fill="#000000" d="M 39.8531 27.4813 C 38.301 25.8698 37.525 23.7359 37.525 21.0797 C 37.525 18.4234 38.2328 16.324 39.6484 14.7813 C 41.0641 13.2385 42.851 12.4672 45.0094 12.4672 C 47.1677 12.4672 48.8719 13.1263 50.1219 14.4445 C 51.3719 15.7628 51.9969 17.5745 51.9969 19.8797 C 51.9969 20.7776 51.9385 21.5781 51.8219 22.2813 L 40.1313 22.2813 C 40.3073 24 40.9422 25.3232 42.0359 26.2508 C 43.1297 27.1784 44.5849 27.6422 46.4016 27.6422 C 48.2182 27.6422 49.7318 27.2422 50.9422 26.4422 L 50.9422 28.8438 C 49.6536 29.5469 48.0031 29.8984 45.9906 29.8984 C 43.4521 29.8984 41.4063 29.0927 39.8531 27.4813 Z M 40.1031 20.1422 L 49.4484 20.1422 L 49.4484 19.4109 C 49.4484 17.9651 49.0578 16.8174 48.2766 15.968 C 47.4953 15.1185 46.4406 14.6938 45.1125 14.6938 C 43.7844 14.6938 42.6612 15.1625 41.743 16.1 C 40.8247 17.0375 40.2781 18.3849 40.1031 20.1422 Z" /><path fill="#000000" d="M 56.5906 28.5797 C 55.6437 27.7203 55.1703 26.5242 55.1703 24.9914 C 55.1703 23.4586 55.6831 22.3016 56.7086 21.5203 C 57.7341 20.7391 59.5359 20.1042 62.1141 19.6156 L 65.2484 19.0297 L 65.2484 18.8828 C 65.2484 17.4964 64.9555 16.4516 64.3695 15.7484 C 63.7836 15.0453 62.7974 14.6938 61.4109 14.6938 C 59.4974 14.6938 57.8276 15.1818 56.4016 16.1578 L 56.4016 13.5797 C 57.7099 12.7984 59.4089 12.4078 61.4984 12.4078 C 65.6786 12.4078 67.7688 14.5859 67.7688 18.9422 L 67.7688 29.7234 L 65.2781 29.7234 L 65.2781 27.7594 C 64.9271 28.326 64.3609 28.8193 63.5797 29.2391 C 62.7984 29.6589 61.7828 29.8687 60.5328 29.8687 C 58.8526 29.8687 57.5385 29.4391 56.5906 28.5797 Z M 57.8375 24.9469 C 57.8375 26.8031 58.8625 27.7313 60.9125 27.7313 C 62.2802 27.7313 63.3448 27.3893 64.1062 26.7055 C 64.8677 26.0216 65.2484 25.1328 65.2484 24.0391 L 65.2484 21.1094 L 62.2016 21.6656 C 60.5807 21.9594 59.4482 22.3406 58.8039 22.8094 C 58.1596 23.2781 57.8375 23.9906 57.8375 24.9469 Z" /><path fill="#000000" d="M 70.7922 14.7234 L 70.7922 12.6719 L 73.5453 12.6719 L 73.5453 8.45313 L 76.0953 8.45313 L 76.0953 12.6719 L 80.8109 12.6719 L 80.8109 14.7234 L 76.0953 14.7234 L 76.0953 24.8594 C 76.0953 26.6958 76.925 27.6141 78.5844 27.6141 C 79.5813 27.6141 80.3823 27.3599 80.9875 26.8516 L 80.9875 29.2547 C 80.2844 29.6839 79.2542 29.8984 77.8969 29.8984 C 76.5396 29.8984 75.475 29.4542 74.7031 28.5656 C 73.9313 27.6771 73.5453 26.4125 73.5453 24.7719 L 73.5453 14.7234 Z" /><path fill="#000000" d="M 83.7953 23.9813 L 83.7953 21.9594 L 90.5328 21.9594 L 90.5328 17.2422 L 84.5563 17.2422 L 84.5563 15.25 L 90.5328 15.25 L 90.5328 4.49844 L 92.8187 4.49844 L 92.8187 15.25 L 98.5016 15.25 L 98.5016 17.2422 L 92.8187 17.2422 L 92.8187 21.9594 L 99.1766 21.9594 L 99.1766 23.9813 L 92.8187 23.9813 L 92.8187 31.3047 L 90.5328 31.3047 L 90.5328 23.9813 Z M 84.0875 7.04688 L 86.1094 6.19688 C 87.3208 8.58021 88.4047 10.9438 89.3609 13.2875 L 87.3109 14.0781 C 86.0995 11.2271 85.025 8.88333 84.0875 7.04688 Z M 94.0203 13.2578 C 95.2703 11.0505 96.325 8.6776 97.1844 6.13906 L 99.2047 6.87187 C 98.287 9.52812 97.213 11.9401 95.9828 14.1078 Z M 100.728 25.0063 L 100.728 6.19688 L 102.955 6.19688 L 102.955 25.0063 Z M 102.75 28.6094 C 104.332 28.7073 105.49 28.7563 106.222 28.7563 C 106.954 28.7563 107.398 28.6682 107.555 28.4922 C 107.711 28.3161 107.789 27.8182 107.789 26.9984 L 107.789 4.99687 L 110.103 4.99687 L 110.103 27.1156 C 110.103 28.7948 109.918 29.8445 109.547 30.2648 C 109.176 30.6852 108.39 30.8953 107.189 30.8953 C 105.988 30.8953 104.537 30.8464 102.838 30.7484 Z" /><path fill="#000000" d="M 113.795 30.2203 C 116.099 26.3922 117.72 22.1344 118.658 17.4469 L 120.827 17.8875 C 120.592 19.1177 120.28 20.387 119.889 21.6953 C 120.69 23.1214 121.608 24.2836 122.643 25.182 C 123.678 26.0805 124.967 26.7833 126.509 27.2906 L 126.509 13.9906 L 118.513 13.9906 L 118.513 12.0562 L 136.208 12.0562 L 136.208 13.9906 L 128.913 13.9906 L 128.913 19.0875 L 137.936 19.0875 L 137.936 21.0516 L 128.913 21.0516 L 128.913 27.9063 C 131.276 28.375 134.528 28.6094 138.669 28.6094 L 140.631 28.6094 L 140.514 30.6609 L 138.552 30.6609 C 132.985 30.6609 128.776 30.1872 125.924 29.2398 C 123.073 28.2924 120.797 26.588 119.098 24.1266 C 118.141 26.7443 117.037 29.0687 115.787 31.1 Z M 114.967 13.6094 L 114.967 7.10625 L 126.158 7.10625 L 126.158 4 L 128.561 4 L 128.561 7.10625 L 139.752 7.10625 L 139.752 13.6094 L 137.497 13.6094 L 137.497 9.03906 L 117.223 9.03906 L 117.223 13.6094 Z" /></svg>